<?xml version="1.0" standalone="no"?>
 <!DOCTYPE svg PUBLIC "-//W3C//DTD SVG 1.1//EN" 
 "http://www.w3.org/Graphics/SVG/1.1/DTD/svg11.dtd"> 
<svg
  xmlns:svg="http://www.w3.org/2000/svg"
  xmlns="http://www.w3.org/2000/svg"
  xmlns:xlink="http://www.w3.org/1999/xlink"
  version="1.1"
  width="297.0022mm" height="210.0072mm" viewBox="0.0000 0.0000 297.0022 210.0072">
<title>SVG Image created as circular PCB-F_Cu.svg date 2024/12/07 20:31:26 </title>
  <desc>Image generated by PCBNEW </desc>
<g style="fill:#000000; fill-opacity:1.0000;stroke:#000000; stroke-opacity:1.0000;
stroke-linecap:round; stroke-linejoin:round;"
 transform="translate(0 0) scale(1 1)">
<path style="fill:#000000; fill-opacity:1.0000; 
stroke:#000000; stroke-width:0.0100; stroke-opacity:1; 
stroke-linecap:round; stroke-linejoin:round;fill-rule:evenodd;"
d="M 184.0808,74.6439
184.1646,75.0886
184.4739,75.2161
184.7832,75.3436
185.1542,75.0912
185.2582,75.0210
185.3521,74.9583
185.4317,74.9059
185.4925,74.8669
185.5302,74.8439
185.5404,74.8389
185.5589,74.8517
185.5984,74.8869
185.6545,74.9401
185.7228,75.0067
185.7988,75.0824
185.8781,75.1625
185.9563,75.2426
186.0289,75.3182
186.0916,75.3847
186.1398,75.4378
186.1692,75.4729
186.1762,75.4846
186.1661,75.5063
186.1378,75.5537
186.0941,75.6222
186.0382,75.7072
185.9730,75.8041
185.9352,75.8593
185.8663,75.9602
185.8051,76.0513
185.7546,76.1280
185.7176,76.1857
185.6973,76.2200
185.6942,76.2273
185.7011,76.2477
185.7201,76.2955
185.7481,76.3638
185.7824,76.4460
185.8201,76.5353
185.8584,76.6250
185.8944,76.7083
185.9252,76.7787
185.9480,76.8293
185.9600,76.8535
185.9607,76.8544
185.9795,76.8590
186.0296,76.8693
186.1058,76.8843
186.2029,76.9029
186.3156,76.9242
186.3814,76.9364
186.5019,76.9594
186.6108,76.9812
186.7025,77.0007
186.7715,77.0167
186.8123,77.0281
186.8205,77.0317
186.8285,77.0560
186.8350,77.1110
186.8400,77.1901
186.8434,77.2870
186.8452,77.3953
186.8455,77.5085
186.8443,77.6201
186.8416,77.7239
186.8373,77.8132
186.8316,77.8818
186.8243,77.9232
186.8199,77.9318
186.7938,77.9421
186.7384,77.9569
186.6611,77.9744
186.5692,77.9928
186.5372,77.9987
186.3825,78.0271
186.2604,78.0499
186.1667,78.0681
186.0974,78.0826
186.0485,78.0943
186.0159,78.1041
185.9956,78.1130
185.9836,78.1217
185.9819,78.1235
185.9652,78.1514
185.9396,78.2057
185.9078,78.2798
185.8723,78.3670
185.8356,78.4606
185.8003,78.5541
185.7690,78.6406
185.7442,78.7137
185.7285,78.7667
185.7243,78.7928
185.7247,78.7937
185.7386,78.8151
185.7703,78.8621
185.8164,78.9298
185.8735,79.0134
185.9384,79.1080
185.9568,79.1349
186.0227,79.2323
186.0806,79.3212
186.1275,79.3964
186.1602,79.4529
186.1755,79.4856
186.1762,79.4896
186.1634,79.5107
186.1279,79.5525
186.0743,79.6104
186.0072,79.6801
185.9311,79.7570
185.8506,79.8367
185.7703,79.9146
185.6947,79.9862
185.6284,80.0471
185.5760,80.0927
185.5420,80.1187
185.5325,80.1229
185.5106,80.1129
185.4658,80.0860
185.4053,80.0467
185.3588,80.0151
185.2745,79.9571
185.1746,79.8888
185.0745,79.8206
185.0206,79.7841
184.8384,79.6608
184.6854,79.7435
184.6157,79.7798
184.5564,79.8079
184.5163,79.8240
184.5061,79.8262
184.4938,79.8097
184.4696,79.7631
184.4353,79.6906
184.3926,79.5966
184.3434,79.4854
184.2895,79.3612
184.2327,79.2284
184.1748,79.0913
184.1176,78.9542
184.0629,78.8214
184.0126,78.6971
183.9684,78.5857
183.9321,78.4915
183.9056,78.4188
183.8907,78.3719
183.8883,78.3558
183.9073,78.3353
183.9490,78.3019
184.0047,78.2627
184.0094,78.2596
184.1533,78.1444
184.2693,78.0101
184.3564,77.8608
184.4137,77.7009
184.4401,77.5347
184.4346,77.3666
184.3962,77.2007
184.3239,77.0413
184.3026,77.0065
184.1920,76.8657
184.0613,76.7527
183.9151,76.6680
183.7578,76.6122
183.5941,76.5859
183.4283,76.5896
183.2652,76.6240
183.1091,76.6897
182.9646,76.7872
182.9199,76.8268
182.8061,76.9507
182.7232,77.0811
182.6664,77.2273
182.6347,77.3721
182.6269,77.5349
182.6529,77.6984
182.7102,77.8573
182.7961,78.0059
182.9080,78.1387
183.0431,78.2503
183.0609,78.2620
183.1171,78.3005
183.1599,78.3339
183.1804,78.3552
183.1807,78.3558
183.1763,78.3789
183.1589,78.4312
183.1303,78.5084
183.0923,78.6063
183.0467,78.7205
182.9953,78.8468
182.9400,78.9808
182.8825,79.1182
182.8246,79.2548
182.7682,79.3862
182.7151,79.5082
182.6670,79.6164
182.6258,79.7065
182.5933,79.7743
182.5713,79.8154
182.5624,79.8262
182.5354,79.8178
182.4847,79.7953
182.4192,79.7626
182.3832,79.7435
182.2302,79.6608
182.0479,79.7841
181.9549,79.8472
181.8530,79.9167
181.7576,79.9822
181.7097,80.0151
181.6425,80.0603
181.5856,80.0961
181.5464,80.1179
181.5336,80.1226
181.5151,80.1101
181.4741,80.0753
181.4145,80.0217
181.3405,79.9530
181.2558,79.8728
181.2023,79.8213
181.1087,79.7293
181.0278,79.6470
180.9628,79.5779
180.9171,79.5256
180.8940,79.4936
180.8918,79.4871
180.9021,79.4624
180.9306,79.4124
180.9741,79.3422
181.0294,79.2569
181.0935,79.1615
181.1117,79.1349
181.1781,79.0382
181.2376,78.9511
181.2870,78.8786
181.3229,78.8255
181.3420,78.7967
181.3439,78.7937
181.3411,78.7708
181.3265,78.7203
181.3025,78.6490
181.2717,78.5635
181.2368,78.4705
181.2001,78.3766
181.1643,78.2884
181.1320,78.2126
181.1057,78.1559
181.0879,78.1249
181.0866,78.1235
181.0757,78.1146
181.0573,78.1058
181.0274,78.0963
180.9819,78.0850
180.9168,78.0711
180.8280,78.0537
180.7116,78.0318
180.5635,78.0046
180.5314,77.9987
180.4363,77.9804
180.3534,77.9624
180.2901,77.9466
180.2535,77.9346
180.2486,77.9318
180.2406,77.9071
180.2340,77.8518
180.2290,77.7724
180.2254,77.6753
180.2234,77.5669
180.2230,77.4537
180.2240,77.3421
180.2266,77.2385
180.2308,77.1494
180.2364,77.0811
180.2437,77.0401
180.2480,77.0317
180.2723,77.0232
180.3276,77.0094
180.4083,76.9915
180.5091,76.9707
180.6243,76.9482
180.6871,76.9364
180.8062,76.9142
180.9124,76.8940
181.0006,76.8769
181.0654,76.8640
181.1018,76.8562
181.1078,76.8544
181.1179,76.8349
181.1393,76.7878
181.1692,76.7200
181.2046,76.6381
181.2427,76.5488
181.2806,76.4589
181.3156,76.3751
181.3448,76.3041
181.3653,76.2527
181.3742,76.2275
181.3743,76.2264
181.3642,76.2065
181.3359,76.1608
181.2923,76.0937
181.2364,76.0099
181.1712,75.9138
181.1333,75.8586
181.0643,75.7575
181.0029,75.6656
180.9523,75.5877
180.9154,75.5285
180.8952,75.4925
180.8923,75.4844
180.9048,75.4656
180.9395,75.4255
180.9919,75.3685
181.0576,75.2992
181.1321,75.2220
181.2111,75.1415
181.2900,75.0622
181.3645,74.9884
181.4301,74.9249
181.4824,74.8759
181.5170,74.8461
181.5285,74.8389
181.5473,74.8490
181.5924,74.8771
181.6592,74.9205
181.7435,74.9762
181.8409,75.0415
181.9143,75.0912
182.2853,75.3436
182.9039,75.0886
182.9877,74.6439
183.0715,74.1993
183.9970,74.1993
Z" /> 
</g>
<g style="fill:#000000; fill-opacity:1.0000; stroke:none;">
<circle cx="178.8000" cy="74.0500" r="2.2000" /> 
<path style="fill:#000000; fill-opacity:1.0000; stroke:none;fill-rule:evenodd;"
d="M 186.2850,67.3075
186.3807,67.3265
186.4618,67.3807
186.5160,67.4618
186.5350,67.5575
186.5350,68.2325
186.5160,68.3282
186.4618,68.4093
186.3807,68.4635
186.2850,68.4825
185.3350,68.4825
185.2393,68.4635
185.1582,68.4093
185.1040,68.3282
185.0850,68.2325
185.0850,67.5575
185.1040,67.4618
185.1582,67.3807
185.2393,67.3265
185.3350,67.3075
Z" /> 
<path style="fill:#000000; fill-opacity:1.0000; stroke:none;fill-rule:evenodd;"
d="M 186.2850,65.2325
186.3807,65.2515
186.4618,65.3057
186.5160,65.3868
186.5350,65.4825
186.5350,66.1575
186.5160,66.2532
186.4618,66.3343
186.3807,66.3885
186.2850,66.4075
185.3350,66.4075
185.2393,66.3885
185.1582,66.3343
185.1040,66.2532
185.0850,66.1575
185.0850,65.4825
185.1040,65.3868
185.1582,65.3057
185.2393,65.2515
185.3350,65.2325
Z" /> 
<path style="fill:#000000; fill-opacity:1.0000; stroke:none;fill-rule:evenodd;"
d="M 192.7100,69.0500
192.6143,69.0310
192.5332,68.9768
192.4790,68.8957
192.4600,68.8000
192.4600,68.1000
192.4790,68.0043
192.5332,67.9232
192.6143,67.8690
192.7100,67.8500
193.6100,67.8500
193.7057,67.8690
193.7868,67.9232
193.8410,68.0043
193.8600,68.1000
193.8600,68.8000
193.8410,68.8957
193.7868,68.9768
193.7057,69.0310
193.6100,69.0500
Z" /> 
<path style="fill:#000000; fill-opacity:1.0000; stroke:none;fill-rule:evenodd;"
d="M 192.7100,71.0500
192.6143,71.0310
192.5332,70.9768
192.4790,70.8957
192.4600,70.8000
192.4600,70.1000
192.4790,70.0043
192.5332,69.9232
192.6143,69.8690
192.7100,69.8500
193.6100,69.8500
193.7057,69.8690
193.7868,69.9232
193.8410,70.0043
193.8600,70.1000
193.8600,70.8000
193.8410,70.8957
193.7868,70.9768
193.7057,71.0310
193.6100,71.0500
Z" /> 
<path style="fill:#000000; fill-opacity:1.0000; stroke:none;fill-rule:evenodd;"
d="M 183.2750,67.3075
183.3707,67.3265
183.4518,67.3807
183.5060,67.4618
183.5250,67.5575
183.5250,68.2325
183.5060,68.3282
183.4518,68.4093
183.3707,68.4635
183.2750,68.4825
182.3250,68.4825
182.2293,68.4635
182.1482,68.4093
182.0940,68.3282
182.0750,68.2325
182.0750,67.5575
182.0940,67.4618
182.1482,67.3807
182.2293,67.3265
182.3250,67.3075
Z" /> 
<path style="fill:#000000; fill-opacity:1.0000; stroke:none;fill-rule:evenodd;"
d="M 183.2750,65.2325
183.3707,65.2515
183.4518,65.3057
183.5060,65.3868
183.5250,65.4825
183.5250,66.1575
183.5060,66.2532
183.4518,66.3343
183.3707,66.3885
183.2750,66.4075
182.3250,66.4075
182.2293,66.3885
182.1482,66.3343
182.0940,66.2532
182.0750,66.1575
182.0750,65.4825
182.0940,65.3868
182.1482,65.3057
182.2293,65.2515
182.3250,65.2325
Z" /> 
<path style="fill:#000000; fill-opacity:1.0000; stroke:none;fill-rule:evenodd;"
d="M 194.3300,74.4400
194.2343,74.4210
194.1532,74.3668
194.0990,74.2857
194.0800,74.1900
194.0800,73.4900
194.0990,73.3943
194.1532,73.3132
194.2343,73.2590
194.3300,73.2400
195.2300,73.2400
195.3257,73.2590
195.4068,73.3132
195.4610,73.3943
195.4800,73.4900
195.4800,74.1900
195.4610,74.2857
195.4068,74.3668
195.3257,74.4210
195.2300,74.4400
Z" /> 
<path style="fill:#000000; fill-opacity:1.0000; stroke:none;fill-rule:evenodd;"
d="M 194.3300,76.4400
194.2343,76.4210
194.1532,76.3668
194.0990,76.2857
194.0800,76.1900
194.0800,75.4900
194.0990,75.3943
194.1532,75.3132
194.2343,75.2590
194.3300,75.2400
195.2300,75.2400
195.3257,75.2590
195.4068,75.3132
195.4610,75.3943
195.4800,75.4900
195.4800,76.1900
195.4610,76.2857
195.4068,76.3668
195.3257,76.4210
195.2300,76.4400
Z" /> 
<path style="fill:#000000; fill-opacity:1.0000; stroke:none;fill-rule:evenodd;"
d="M 199.8700,54.7600
199.8890,54.6643
199.9432,54.5832
200.0243,54.5290
200.1200,54.5100
200.8200,54.5100
200.9157,54.5290
200.9968,54.5832
201.0510,54.6643
201.0700,54.7600
201.0700,55.6600
201.0510,55.7557
200.9968,55.8368
200.9157,55.8910
200.8200,55.9100
200.1200,55.9100
200.0243,55.8910
199.9432,55.8368
199.8890,55.7557
199.8700,55.6600
Z" /> 
<path style="fill:#000000; fill-opacity:1.0000; stroke:none;fill-rule:evenodd;"
d="M 197.8700,54.7600
197.8890,54.6643
197.9432,54.5832
198.0243,54.5290
198.1200,54.5100
198.8200,54.5100
198.9157,54.5290
198.9968,54.5832
199.0510,54.6643
199.0700,54.7600
199.0700,55.6600
199.0510,55.7557
198.9968,55.8368
198.9157,55.8910
198.8200,55.9100
198.1200,55.9100
198.0243,55.8910
197.9432,55.8368
197.8890,55.7557
197.8700,55.6600
Z" /> 
<path style="fill:#000000; fill-opacity:1.0000; stroke:none;fill-rule:evenodd;"
d="M 183.0675,72.4100
183.0485,72.5057
182.9943,72.5868
182.9132,72.6410
182.8175,72.6600
182.0175,72.6600
181.9218,72.6410
181.8407,72.5868
181.7865,72.5057
181.7675,72.4100
181.7675,71.2100
181.7865,71.1143
181.8407,71.0332
181.9218,70.9790
182.0175,70.9600
182.8175,70.9600
182.9132,70.9790
182.9943,71.0332
183.0485,71.1143
183.0675,71.2100
Z" /> 
<path style="fill:#000000; fill-opacity:1.0000; stroke:none;fill-rule:evenodd;"
d="M 186.5675,72.4100
186.5485,72.5057
186.4943,72.5868
186.4132,72.6410
186.3175,72.6600
185.5175,72.6600
185.4218,72.6410
185.3407,72.5868
185.2865,72.5057
185.2675,72.4100
185.2675,71.2100
185.2865,71.1143
185.3407,71.0332
185.4218,70.9790
185.5175,70.9600
186.3175,70.9600
186.4132,70.9790
186.4943,71.0332
186.5485,71.1143
186.5675,71.2100
Z" /> 
<path style="fill:#000000; fill-opacity:1.0000; stroke:none;fill-rule:evenodd;"
d="M 196.8050,59.0500
196.7860,59.1457
196.7318,59.2268
196.6507,59.2810
196.5550,59.3000
195.9050,59.3000
195.8093,59.2810
195.7282,59.2268
195.6740,59.1457
195.6550,59.0500
195.6550,58.1500
195.6740,58.0543
195.7282,57.9732
195.8093,57.9190
195.9050,57.9000
196.5550,57.9000
196.6507,57.9190
196.7318,57.9732
196.7860,58.0543
196.8050,58.1500
Z" /> 
<path style="fill:#000000; fill-opacity:1.0000; stroke:none;fill-rule:evenodd;"
d="M 194.7550,59.0500
194.7360,59.1457
194.6818,59.2268
194.6007,59.2810
194.5050,59.3000
193.8550,59.3000
193.7593,59.2810
193.6782,59.2268
193.6240,59.1457
193.6050,59.0500
193.6050,58.1500
193.6240,58.0543
193.6782,57.9732
193.7593,57.9190
193.8550,57.9000
194.5050,57.9000
194.6007,57.9190
194.6818,57.9732
194.7360,58.0543
194.7550,58.1500
Z" /> 
<path style="fill:#000000; fill-opacity:1.0000; stroke:none;fill-rule:evenodd;"
d="M 195.7600,64.3200
195.1100,64.3200
195.1100,62.6200
195.7600,62.6200
Z" /> 
<path style="fill:#000000; fill-opacity:1.0000; stroke:none;fill-rule:evenodd;"
d="M 197.0300,64.3200
196.3800,64.3200
196.3800,62.6200
197.0300,62.6200
Z" /> 
<path style="fill:#000000; fill-opacity:1.0000; stroke:none;fill-rule:evenodd;"
d="M 198.3000,64.3200
197.6500,64.3200
197.6500,62.6200
198.3000,62.6200
Z" /> 
<path style="fill:#000000; fill-opacity:1.0000; stroke:none;fill-rule:evenodd;"
d="M 199.5700,64.3200
198.9200,64.3200
198.9200,62.6200
199.5700,62.6200
Z" /> 
<path style="fill:#000000; fill-opacity:1.0000; stroke:none;fill-rule:evenodd;"
d="M 199.5700,71.6200
198.9200,71.6200
198.9200,69.9200
199.5700,69.9200
Z" /> 
<path style="fill:#000000; fill-opacity:1.0000; stroke:none;fill-rule:evenodd;"
d="M 198.3000,71.6200
197.6500,71.6200
197.6500,69.9200
198.3000,69.9200
Z" /> 
<path style="fill:#000000; fill-opacity:1.0000; stroke:none;fill-rule:evenodd;"
d="M 197.0300,71.6200
196.3800,71.6200
196.3800,69.9200
197.0300,69.9200
Z" /> 
<path style="fill:#000000; fill-opacity:1.0000; stroke:none;fill-rule:evenodd;"
d="M 195.7600,71.6200
195.1100,71.6200
195.1100,69.9200
195.7600,69.9200
Z" /> 
</g>
<g style="fill:#000000; fill-opacity:1.0000; stroke:none;">
<circle cx="178.4300" cy="69.7300" r="0.8500" /> 
<circle cx="178.4300" cy="67.1900" r="0.8500" /> 
<path style="fill:#000000; fill-opacity:1.0000; stroke:none;fill-rule:evenodd;"
d="M 177.5800,65.5000
177.5800,63.8000
179.2800,63.8000
179.2800,65.5000
Z" /> 
<path style="fill:#000000; fill-opacity:1.0000; stroke:none;fill-rule:evenodd;"
d="M 199.8800,58.1600
199.8990,58.0643
199.9532,57.9832
200.0343,57.9290
200.1300,57.9100
200.8300,57.9100
200.9257,57.9290
201.0068,57.9832
201.0610,58.0643
201.0800,58.1600
201.0800,59.0600
201.0610,59.1557
201.0068,59.2368
200.9257,59.2910
200.8300,59.3100
200.1300,59.3100
200.0343,59.2910
199.9532,59.2368
199.8990,59.1557
199.8800,59.0600
Z" /> 
<path style="fill:#000000; fill-opacity:1.0000; stroke:none;fill-rule:evenodd;"
d="M 197.8800,58.1600
197.8990,58.0643
197.9532,57.9832
198.0343,57.9290
198.1300,57.9100
198.8300,57.9100
198.9257,57.9290
199.0068,57.9832
199.0610,58.0643
199.0800,58.1600
199.0800,59.0600
199.0610,59.1557
199.0068,59.2368
198.9257,59.2910
198.8300,59.3100
198.1300,59.3100
198.0343,59.2910
197.9532,59.2368
197.8990,59.1557
197.8800,59.0600
Z" /> 
<path style="fill:#000000; fill-opacity:1.0000; stroke:none;fill-rule:evenodd;"
d="M 199.2200,80.3400
199.3157,80.3590
199.3968,80.4132
199.4510,80.4943
199.4700,80.5900
199.4700,81.3900
199.4510,81.4857
199.3968,81.5668
199.3157,81.6210
199.2200,81.6400
198.0200,81.6400
197.9243,81.6210
197.8432,81.5668
197.7890,81.4857
197.7700,81.3900
197.7700,80.5900
197.7890,80.4943
197.8432,80.4132
197.9243,80.3590
198.0200,80.3400
Z" /> 
<path style="fill:#000000; fill-opacity:1.0000; stroke:none;fill-rule:evenodd;"
d="M 199.2200,76.8400
199.3157,76.8590
199.3968,76.9132
199.4510,76.9943
199.4700,77.0900
199.4700,77.8900
199.4510,77.9857
199.3968,78.0668
199.3157,78.1210
199.2200,78.1400
198.0200,78.1400
197.9243,78.1210
197.8432,78.0668
197.7890,77.9857
197.7700,77.8900
197.7700,77.0900
197.7890,76.9943
197.8432,76.9132
197.9243,76.8590
198.0200,76.8400
Z" /> 
<circle cx="195.3900" cy="82.0075" r="0.7250" /> 
<path style="fill:#000000; fill-opacity:1.0000; stroke:none;fill-rule:evenodd;"
d="M 194.1900,82.9575
194.1900,81.0575
195.3900,81.0575
195.3900,82.9575
Z" /> 
</g>
<g style="fill:#000000; fill-opacity:1.0000; stroke:none;">
<circle cx="194.3900" cy="79.3075" r="0.7250" /> 
<path style="fill:#000000; fill-opacity:1.0000; stroke:none;fill-rule:evenodd;"
d="M 192.9900,79.9825
192.9900,78.6325
193.3900,78.6325
193.3900,79.9825
Z" /> 
<path style="fill:#000000; fill-opacity:1.0000; stroke:none;fill-rule:evenodd;"
d="M 192.1400,82.9575
192.1400,81.0575
193.6400,81.0575
193.6400,82.9575
Z" /> 
<path style="fill:#000000; fill-opacity:1.0000; stroke:none;fill-rule:evenodd;"
d="M 190.1400,82.9575
190.1400,81.0575
191.6400,81.0575
191.6400,82.9575
Z" /> 
</g>
<g style="fill:#000000; fill-opacity:1.0000; stroke:none;">
<circle cx="189.3900" cy="79.3075" r="0.7250" /> 
<path style="fill:#000000; fill-opacity:1.0000; stroke:none;fill-rule:evenodd;"
d="M 188.3900,82.9575
188.3900,81.0575
189.5900,81.0575
189.5900,82.9575
Z" /> 
</g>
<g style="fill:#000000; fill-opacity:1.0000; stroke:none;">
<circle cx="188.3900" cy="82.0075" r="0.7250" /> 
<path style="fill:#000000; fill-opacity:1.0000; stroke:none;fill-rule:evenodd;"
d="M 192.3400,79.9825
192.3400,78.6325
192.7400,78.6325
192.7400,79.9825
Z" /> 
<path style="fill:#000000; fill-opacity:1.0000; stroke:none;fill-rule:evenodd;"
d="M 191.6900,79.9825
191.6900,78.6325
192.0900,78.6325
192.0900,79.9825
Z" /> 
<path style="fill:#000000; fill-opacity:1.0000; stroke:none;fill-rule:evenodd;"
d="M 191.0400,79.9825
191.0400,78.6325
191.4400,78.6325
191.4400,79.9825
Z" /> 
<path style="fill:#000000; fill-opacity:1.0000; stroke:none;fill-rule:evenodd;"
d="M 190.3900,79.9825
190.3900,78.6325
190.7900,78.6325
190.7900,79.9825
Z" /> 
<path style="fill:#000000; fill-opacity:1.0000; stroke:none;fill-rule:evenodd;"
d="M 190.9900,74.4900
190.8943,74.4710
190.8132,74.4168
190.7590,74.3357
190.7400,74.2400
190.7400,73.5400
190.7590,73.4443
190.8132,73.3632
190.8943,73.3090
190.9900,73.2900
191.8900,73.2900
191.9857,73.3090
192.0668,73.3632
192.1210,73.4443
192.1400,73.5400
192.1400,74.2400
192.1210,74.3357
192.0668,74.4168
191.9857,74.4710
191.8900,74.4900
Z" /> 
<path style="fill:#000000; fill-opacity:1.0000; stroke:none;fill-rule:evenodd;"
d="M 190.9900,76.4900
190.8943,76.4710
190.8132,76.4168
190.7590,76.3357
190.7400,76.2400
190.7400,75.5400
190.7590,75.4443
190.8132,75.3632
190.8943,75.3090
190.9900,75.2900
191.8900,75.2900
191.9857,75.3090
192.0668,75.3632
192.1210,75.4443
192.1400,75.5400
192.1400,76.2400
192.1210,76.3357
192.0668,76.4168
191.9857,76.4710
191.8900,76.4900
Z" /> 
<path style="fill:#000000; fill-opacity:1.0000; stroke:none;fill-rule:evenodd;"
d="M 196.7950,55.6600
196.7760,55.7557
196.7218,55.8368
196.6407,55.8910
196.5450,55.9100
195.8950,55.9100
195.7993,55.8910
195.7182,55.8368
195.6640,55.7557
195.6450,55.6600
195.6450,54.7600
195.6640,54.6643
195.7182,54.5832
195.7993,54.5290
195.8950,54.5100
196.5450,54.5100
196.6407,54.5290
196.7218,54.5832
196.7760,54.6643
196.7950,54.7600
Z" /> 
<path style="fill:#000000; fill-opacity:1.0000; stroke:none;fill-rule:evenodd;"
d="M 194.7450,55.6600
194.7260,55.7557
194.6718,55.8368
194.5907,55.8910
194.4950,55.9100
193.8450,55.9100
193.7493,55.8910
193.6682,55.8368
193.6140,55.7557
193.5950,55.6600
193.5950,54.7600
193.6140,54.6643
193.6682,54.5832
193.7493,54.5290
193.8450,54.5100
194.4950,54.5100
194.5907,54.5290
194.6718,54.5832
194.7260,54.6643
194.7450,54.7600
Z" /> 
<path style="fill:#000000; fill-opacity:1.0000; stroke:none;fill-rule:evenodd;"
d="M 189.2850,63.8550
189.1893,63.8360
189.1082,63.7818
189.0540,63.7007
189.0350,63.6050
189.0350,61.9050
189.0540,61.8093
189.1082,61.7282
189.1893,61.6740
189.2850,61.6550
189.9850,61.6550
190.0807,61.6740
190.1618,61.7282
190.2160,61.8093
190.2350,61.9050
190.2350,63.6050
190.2160,63.7007
190.1618,63.7818
190.0807,63.8360
189.9850,63.8550
Z" /> 
<path style="fill:#000000; fill-opacity:1.0000; stroke:none;fill-rule:evenodd;"
d="M 187.7550,56.3050
187.6593,56.2860
187.5782,56.2318
187.5240,56.1507
187.5050,56.0550
187.5050,53.5050
187.5240,53.4093
187.5782,53.3282
187.6593,53.2740
187.7550,53.2550
190.0050,53.2550
190.1007,53.2740
190.1818,53.3282
190.2360,53.4093
190.2550,53.5050
190.2550,56.0550
190.2360,56.1507
190.1818,56.2318
190.1007,56.2860
190.0050,56.3050
Z" /> 
<path style="fill:#000000; fill-opacity:1.0000; stroke:none;fill-rule:evenodd;"
d="M 184.7050,56.3050
184.6093,56.2860
184.5282,56.2318
184.4740,56.1507
184.4550,56.0550
184.4550,53.5050
184.4740,53.4093
184.5282,53.3282
184.6093,53.2740
184.7050,53.2550
186.9550,53.2550
187.0507,53.2740
187.1318,53.3282
187.1860,53.4093
187.2050,53.5050
187.2050,56.0550
187.1860,56.1507
187.1318,56.2318
187.0507,56.2860
186.9550,56.3050
Z" /> 
<path style="fill:#000000; fill-opacity:1.0000; stroke:none;fill-rule:evenodd;"
d="M 184.7050,59.6550
184.6093,59.6360
184.5282,59.5818
184.4740,59.5007
184.4550,59.4050
184.4550,53.5050
184.4740,53.4093
184.5282,53.3282
184.6093,53.2740
184.7050,53.2550
190.0050,53.2550
190.1007,53.2740
190.1818,53.3282
190.2360,53.4093
190.2550,53.5050
190.2550,59.4050
190.2360,59.5007
190.1818,59.5818
190.1007,59.6360
190.0050,59.6550
Z" /> 
<path style="fill:#000000; fill-opacity:1.0000; stroke:none;fill-rule:evenodd;"
d="M 187.7550,59.6550
187.6593,59.6360
187.5782,59.5818
187.5240,59.5007
187.5050,59.4050
187.5050,56.8550
187.5240,56.7593
187.5782,56.6782
187.6593,56.6240
187.7550,56.6050
190.0050,56.6050
190.1007,56.6240
190.1818,56.6782
190.2360,56.7593
190.2550,56.8550
190.2550,59.4050
190.2360,59.5007
190.1818,59.5818
190.1007,59.6360
190.0050,59.6550
Z" /> 
<path style="fill:#000000; fill-opacity:1.0000; stroke:none;fill-rule:evenodd;"
d="M 184.7050,59.6550
184.6093,59.6360
184.5282,59.5818
184.4740,59.5007
184.4550,59.4050
184.4550,56.8550
184.4740,56.7593
184.5282,56.6782
184.6093,56.6240
184.7050,56.6050
186.9550,56.6050
187.0507,56.6240
187.1318,56.6782
187.1860,56.7593
187.2050,56.8550
187.2050,59.4050
187.1860,59.5007
187.1318,59.5818
187.0507,59.6360
186.9550,59.6550
Z" /> 
<path style="fill:#000000; fill-opacity:1.0000; stroke:none;fill-rule:evenodd;"
d="M 184.7250,63.8550
184.6293,63.8360
184.5482,63.7818
184.4940,63.7007
184.4750,63.6050
184.4750,61.9050
184.4940,61.8093
184.5482,61.7282
184.6293,61.6740
184.7250,61.6550
185.4250,61.6550
185.5207,61.6740
185.6018,61.7282
185.6560,61.8093
185.6750,61.9050
185.6750,63.6050
185.6560,63.7007
185.6018,63.7818
185.5207,63.8360
185.4250,63.8550
Z" /> 
</g>
<g style="fill:#000000; fill-opacity:1.0000; stroke:none;">
<circle cx="204.1700" cy="74.9900" r="0.8500" /> 
<circle cx="204.1700" cy="72.4500" r="0.8500" /> 
<circle cx="204.1700" cy="69.9100" r="0.8500" /> 
<circle cx="204.1700" cy="67.3700" r="0.8500" /> 
<circle cx="204.1700" cy="64.8300" r="0.8500" /> 
<circle cx="204.1700" cy="62.2900" r="0.8500" /> 
<path style="fill:#000000; fill-opacity:1.0000; stroke:none;fill-rule:evenodd;"
d="M 203.3200,60.6000
203.3200,58.9000
205.0200,58.9000
205.0200,60.6000
Z" /> 
<path style="fill:#000000; fill-opacity:1.0000; stroke:none;fill-rule:evenodd;"
d="M 187.9750,73.1600
187.8889,73.1429
187.8159,73.0941
187.7671,73.0211
187.7500,72.9350
187.7500,72.4850
187.7671,72.3989
187.8159,72.3259
187.8889,72.2771
187.9750,72.2600
188.7250,72.2600
188.8111,72.2771
188.8841,72.3259
188.9329,72.3989
188.9500,72.4850
188.9500,72.9350
188.9329,73.0211
188.8841,73.0941
188.8111,73.1429
188.7250,73.1600
Z" /> 
<path style="fill:#000000; fill-opacity:1.0000; stroke:none;fill-rule:evenodd;"
d="M 187.9750,76.4600
187.8889,76.4429
187.8159,76.3941
187.7671,76.3211
187.7500,76.2350
187.7500,75.7850
187.7671,75.6989
187.8159,75.6259
187.8889,75.5771
187.9750,75.5600
188.7250,75.5600
188.8111,75.5771
188.8841,75.6259
188.9329,75.6989
188.9500,75.7850
188.9500,76.2350
188.9329,76.3211
188.8841,76.3941
188.8111,76.4429
188.7250,76.4600
Z" /> 
</g>
<g style="fill:none; 
stroke:#000000; stroke-width:1.0000; stroke-opacity:1; 
stroke-linecap:round; stroke-linejoin:round;">
<path d="M188.3500 72.7100
L189.6350 71.4250
" />
<path d="M192.0200 55.7300
L192.0200 61.9400
" />
<path d="M181.1100 65.8200
L182.8000 65.8200
" />
<path d="M189.6350 71.4250
L189.6350 64.7050
" />
<path d="M190.3500 63.4700
L189.6350 62.7550
" />
<path d="M195.4350 63.4700
L193.5500 63.4700
" />
<path d="M192.5400 55.2100
L192.0200 55.7300
" />
<path d="M191.0600 72.7100
L188.3500 72.7100
" />
<path d="M189.6350 64.7050
L189.6350 62.7550
" />
<path d="M194.1700 55.2100
L192.5400 55.2100
" />
<path d="M193.5500 63.4700
L190.3500 63.4700
" />
<path d="M180.6800 69.1100
L180.6800 66.2500
" />
<path d="M178.4300 69.7300
L180.0600 69.7300
" />
<path d="M188.5200 65.8200
L189.6350 64.7050
" />
<path d="M180.0600 69.7300
L180.6800 69.1100
" />
<path d="M180.6800 66.2500
L181.1100 65.8200
" />
<path d="M182.8000 65.8200
L185.8100 65.8200
" />
<path d="M191.4400 73.8900
L191.4400 73.0900
" />
<path d="M185.8100 65.8200
L188.5200 65.8200
" />
<path d="M191.4400 73.0900
L191.0600 72.7100
" />
<path d="M192.0200 61.9400
L193.5500 63.4700
" />
</g>
<g style="fill:none; 
stroke:#000000; stroke-width:0.5000; stroke-opacity:1; 
stroke-linecap:round; stroke-linejoin:round;">
<path d="M199.2450 70.7700
L203.3100 70.7700
" />
</g>
<g style="fill:none; 
stroke:#000000; stroke-width:1.0000; stroke-opacity:1; 
stroke-linecap:round; stroke-linejoin:round;">
<path d="M182.8000 70.0100
L182.4175 70.3925
" />
</g>
<g style="fill:none; 
stroke:#000000; stroke-width:0.4000; stroke-opacity:1; 
stroke-linecap:round; stroke-linejoin:round;">
<path d="M196.2700 77.7600
L193.6900 77.7600
" />
<path d="M197.3600 80.9900
L196.9500 80.5800
" />
</g>
<g style="fill:none; 
stroke:#000000; stroke-width:0.5000; stroke-opacity:1; 
stroke-linecap:round; stroke-linejoin:round;">
<path d="M203.3100 70.7700
L204.1700 69.9100
" />
</g>
<g style="fill:none; 
stroke:#000000; stroke-width:1.0000; stroke-opacity:1; 
stroke-linecap:round; stroke-linejoin:round;">
<path d="M200.4700 58.6000
L200.4800 58.6100
" />
</g>
<g style="fill:none; 
stroke:#000000; stroke-width:0.4000; stroke-opacity:1; 
stroke-linecap:round; stroke-linejoin:round;">
<path d="M198.6200 80.9900
L197.3600 80.9900
" />
</g>
<g style="fill:none; 
stroke:#000000; stroke-width:0.5000; stroke-opacity:1; 
stroke-linecap:round; stroke-linejoin:round;">
<path d="M189.4000 81.1400
L189.0000 81.5400
" />
</g>
<g style="fill:none; 
stroke:#000000; stroke-width:1.0000; stroke-opacity:1; 
stroke-linecap:round; stroke-linejoin:round;">
<path d="M182.8000 67.8950
L185.8100 67.8950
" />
<path d="M200.4700 55.2100
L200.4700 58.6000
" />
<path d="M178.4300 67.1900
L176.5200 67.1900
" />
</g>
<g style="fill:none; 
stroke:#000000; stroke-width:0.5000; stroke-opacity:1; 
stroke-linecap:round; stroke-linejoin:round;">
<path d="M194.4000 78.8400
L194.4000 81.1400
" />
</g>
<g style="fill:none; 
stroke:#000000; stroke-width:1.0000; stroke-opacity:1; 
stroke-linecap:round; stroke-linejoin:round;">
<path d="M182.4175 71.8100
L182.4175 70.3925
" />
</g>
<g style="fill:none; 
stroke:#000000; stroke-width:0.5000; stroke-opacity:1; 
stroke-linecap:round; stroke-linejoin:round;">
<path d="M189.4000 78.8400
L189.4000 81.1400
" />
</g>
<g style="fill:none; 
stroke:#000000; stroke-width:0.4000; stroke-opacity:1; 
stroke-linecap:round; stroke-linejoin:round;">
<path d="M193.1900 78.2600
L193.1900 79.3075
" />
<path d="M193.6900 77.7600
L193.1900 78.2600
" />
</g>
<g style="fill:none; 
stroke:#000000; stroke-width:0.5000; stroke-opacity:1; 
stroke-linecap:round; stroke-linejoin:round;">
<path d="M194.4000 81.1400
L194.8000 81.5400
" />
<path d="M189.0000 81.5400
L195.4000 81.5400
" />
</g>
<g style="fill:none; 
stroke:#000000; stroke-width:0.4000; stroke-opacity:1; 
stroke-linecap:round; stroke-linejoin:round;">
<path d="M196.9500 78.4400
L196.2700 77.7600
" />
</g>
<g style="fill:none; 
stroke:#000000; stroke-width:0.5000; stroke-opacity:1; 
stroke-linecap:round; stroke-linejoin:round;">
<path d="M203.7800 69.9100
L204.1700 69.9100
" />
</g>
<g style="fill:none; 
stroke:#000000; stroke-width:0.4000; stroke-opacity:1; 
stroke-linecap:round; stroke-linejoin:round;">
<path d="M196.9500 80.5800
L196.9500 78.4400
" />
</g>
<g style="fill:none; 
stroke:#000000; stroke-width:1.0000; stroke-opacity:1; 
stroke-linecap:round; stroke-linejoin:round;">
<path d="M182.8000 67.8950
L182.8000 70.0100
" />
</g>
<g style="fill:none; 
stroke:#000000; stroke-width:0.5000; stroke-opacity:1; 
stroke-linecap:round; stroke-linejoin:round;">
<path d="M196.2300 58.6000
L198.4700 58.6000
" />
<path d="M198.4700 58.6000
L198.4800 58.6100
" />
<path d="M200.1700 65.4100
L201.0900 64.4900
" />
<path d="M194.1800 59.6400
L195.1000 60.5600
" />
<path d="M194.1800 58.6000
L194.1800 59.6400
" />
<path d="M198.3900 65.4100
L200.1700 65.4100
" />
<path d="M197.9750 64.9950
L198.3900 65.4100
" />
<path d="M201.0900 64.4900
L201.0900 63.1000
" />
<path d="M197.9750 60.8950
L197.9750 63.4700
" />
<path d="M201.0900 63.1000
L201.9000 62.2900
" />
<path d="M197.9750 63.4700
L197.9750 64.9950
" />
<path d="M197.6400 60.5600
L197.9750 60.8950
" />
<path d="M201.9000 62.2900
L204.1700 62.2900
" />
<path d="M195.1000 60.5600
L197.6400 60.5600
" />
</g>
<g style="fill:none; 
stroke:#000000; stroke-width:0.4000; stroke-opacity:1; 
stroke-linecap:round; stroke-linejoin:round;">
<path d="M191.2400 79.3075
L191.2400 76.0900
" />
</g>
<g style="fill:none; 
stroke:#000000; stroke-width:0.5000; stroke-opacity:1; 
stroke-linecap:round; stroke-linejoin:round;">
<path d="M186.8600 74.3500
L185.9175 73.4075
" />
<path d="M193.1600 75.2400
L193.1600 70.4500
" />
<path d="M185.9175 73.4075
L185.9175 71.8100
" />
</g>
<g style="fill:none; 
stroke:#000000; stroke-width:0.4000; stroke-opacity:1; 
stroke-linecap:round; stroke-linejoin:round;">
<path d="M191.2400 76.0900
L191.4400 75.8900
" />
</g>
<g style="fill:none; 
stroke:#000000; stroke-width:0.5000; stroke-opacity:1; 
stroke-linecap:round; stroke-linejoin:round;">
<path d="M192.5100 75.8900
L193.1600 75.2400
" />
<path d="M191.4400 75.8900
L190.4000 75.8900
" />
<path d="M190.4000 75.8900
L188.8600 74.3500
" />
<path d="M191.4400 75.8900
L192.5100 75.8900
" />
<path d="M188.8600 74.3500
L186.8600 74.3500
" />
</g>
<g style="fill:none; 
stroke:#000000; stroke-width:0.4000; stroke-opacity:1; 
stroke-linecap:round; stroke-linejoin:round;">
<path d="M188.3500 76.5900
L188.3500 76.0100
" />
<path d="M190.5900 79.3075
L190.5900 77.7400
" />
<path d="M190.5900 77.7400
L190.0200 77.1700
" />
<path d="M188.9300 77.1700
L188.3500 76.5900
" />
<path d="M190.0200 77.1700
L188.9300 77.1700
" />
</g>
<g style="fill:none; 
stroke:#000000; stroke-width:0.5000; stroke-opacity:1; 
stroke-linecap:round; stroke-linejoin:round;">
<path d="M196.2200 55.2100
L198.4700 55.2100
" />
</g>
<g style="fill:none; 
stroke:#000000; stroke-width:0.4000; stroke-opacity:1; 
stroke-linecap:round; stroke-linejoin:round;">
<path d="M191.8900 79.3075
L191.8900 77.7750
" />
<path d="M193.7800 76.8400
L194.7800 75.8400
" />
</g>
<g style="fill:none; 
stroke:#000000; stroke-width:0.5000; stroke-opacity:1; 
stroke-linecap:round; stroke-linejoin:round;">
<path d="M198.0200 77.4900
L196.3700 75.8400
" />
</g>
<g style="fill:none; 
stroke:#000000; stroke-width:0.4000; stroke-opacity:1; 
stroke-linecap:round; stroke-linejoin:round;">
<path d="M191.8900 77.7750
L192.8250 76.8400
" />
</g>
<g style="fill:none; 
stroke:#000000; stroke-width:0.5000; stroke-opacity:1; 
stroke-linecap:round; stroke-linejoin:round;">
<path d="M198.6200 77.4900
L198.0200 77.4900
" />
</g>
<g style="fill:none; 
stroke:#000000; stroke-width:0.4000; stroke-opacity:1; 
stroke-linecap:round; stroke-linejoin:round;">
<path d="M192.8250 76.8400
L193.7800 76.8400
" />
</g>
<g style="fill:none; 
stroke:#000000; stroke-width:0.5000; stroke-opacity:1; 
stroke-linecap:round; stroke-linejoin:round;">
<path d="M196.3700 75.8400
L194.7800 75.8400
" />
<path d="M202.3100 59.7500
L204.1700 59.7500
" />
<path d="M199.2450 63.4700
L199.2450 62.8150
" />
<path d="M199.2450 62.8150
L202.3100 59.7500
" />
<path d="M196.7050 65.6550
L197.5700 66.5200
" />
<path d="M197.5700 66.5200
L201.1600 66.5200
" />
<path d="M196.7050 63.4700
L196.7050 65.6550
" />
<path d="M201.1600 66.5200
L202.8500 64.8300
" />
<path d="M202.8500 64.8300
L204.1700 64.8300
" />
<path d="M202.3100 67.7400
L202.6800 67.3700
" />
<path d="M197.6300 67.7400
L196.7050 68.6650
" />
<path d="M202.6800 67.3700
L204.1700 67.3700
" />
<path d="M193.1600 68.4500
L193.8700 67.7400
" />
<path d="M193.8700 67.7400
L197.6300 67.7400
" />
<path d="M196.7050 68.6650
L196.7050 70.7700
" />
<path d="M197.6300 67.7400
L202.3100 67.7400
" />
<path d="M197.2300 75.4900
L200.9000 75.4900
" />
<path d="M206.0000 73.0300
L205.4200 72.4500
" />
<path d="M197.9750 70.7700
L197.9750 72.1200
" />
<path d="M205.4200 72.4500
L204.1700 72.4500
" />
<path d="M204.9200 77.0500
L206.0000 75.9700
" />
<path d="M194.7800 73.8400
L195.5800 73.8400
" />
<path d="M200.9000 75.4900
L202.4600 77.0500
" />
<path d="M198.3050 72.4500
L204.1700 72.4500
" />
<path d="M206.0000 75.9700
L206.0000 73.0300
" />
<path d="M197.9750 72.1200
L198.3050 72.4500
" />
<path d="M195.5800 73.8400
L197.2300 75.4900
" />
<path d="M202.4600 77.0500
L204.9200 77.0500
" />
</g>
<g style="fill:none; 
stroke:#000000; stroke-width:1.0000; stroke-opacity:1; 
stroke-linecap:round; stroke-linejoin:round;">
<path d="M180.3250 62.7550
L185.0750 62.7550
" />
<path d="M178.4300 64.6500
L180.3250 62.7550
" />
</g>
<g style="fill:none; 
stroke:#000000; stroke-width:0.5000; stroke-opacity:1; 
stroke-linecap:round; stroke-linejoin:round;">
<path d="M197.0200 73.5600
L200.9800 73.5600
" />
<path d="M202.4100 74.9900
L204.1700 74.9900
" />
<path d="M195.4350 71.9750
L197.0200 73.5600
" />
<path d="M195.4350 70.7700
L195.4350 71.9750
" />
<path d="M200.9800 73.5600
L202.4100 74.9900
" />
<path style="fill:#000000; fill-opacity:1.0000; stroke:none;fill-rule:evenodd;"
d="M 192.1528,50.0988
192.9858,50.1288
192.9917,50.1292
193.8222,50.1991
193.8281,50.1997
194.6160,50.3042
194.6543,50.3093
194.6602,50.3102
195.4802,50.4593
195.4860,50.4605
195.8682,50.5492
196.2979,50.6488
196.3037,50.6503
197.1057,50.8772
197.1113,50.8790
197.9015,51.1441
197.9071,51.1461
198.6836,51.4489
198.6891,51.4511
199.4502,51.7907
199.4556,51.7933
200.1996,52.1690
200.2048,52.1718
200.9299,52.5828
200.9350,52.5858
201.6396,53.0311
201.6445,53.0343
202.3269,53.5128
202.3317,53.5164
202.6583,53.7696
202.9903,54.0270
202.9950,54.0308
203.6281,54.5722
203.6284,54.5724
203.6328,54.5764
204.2396,55.1478
204.2438,55.1520
204.7820,55.7100
204.8224,55.7519
204.8265,55.7562
205.3417,56.3444
205.3757,56.3831
205.3795,56.3877
205.6382,56.7132
205.8980,57.0402
205.9016,57.0449
206.3883,57.7216
206.3916,57.7265
206.8453,58.4256
206.8484,58.4307
207.2680,59.1508
207.2708,59.1560
207.6532,59.8912
207.6554,59.8954
207.6581,59.9008
207.7140,60.0222
208.0068,60.6578
208.0091,60.6632
208.3211,61.4361
208.3232,61.4416
208.4228,61.7269
208.5978,62.2286
208.5996,62.2342
208.8362,63.0334
208.8378,63.0391
209.0357,63.8487
209.0370,63.8545
209.1959,64.6727
209.1969,64.6785
209.3164,65.5034
209.3171,65.5093
209.3970,66.3389
209.3974,66.3449
209.4374,67.1777
209.4375,67.1829
209.4400,67.5993
209.4400,67.6007
209.4375,68.0171
209.4374,68.0223
209.3974,68.8551
209.3970,68.8611
209.3171,69.6907
209.3164,69.6966
209.1969,70.5215
209.1959,70.5273
209.0370,71.3455
209.0357,71.3513
208.8378,72.1609
208.8362,72.1666
208.5996,72.9658
208.5978,72.9714
208.3232,73.7584
208.3211,73.7639
208.0091,74.5368
208.0068,74.5422
207.6581,75.2992
207.6554,75.3046
207.2709,76.0440
207.2680,76.0492
206.8484,76.7693
206.8453,76.7744
206.3916,77.4735
206.3883,77.4784
205.9016,78.1551
205.8980,78.1598
205.3795,78.8123
205.3757,78.8169
204.8265,79.4438
204.8224,79.4481
204.2438,80.0480
204.2396,80.0522
203.6328,80.6236
203.6284,80.6275
202.9950,81.1692
202.9903,81.1730
202.3317,81.6836
202.3269,81.6872
201.6445,82.1657
201.6396,82.1689
200.9350,82.6142
200.9299,82.6172
200.2048,83.0282
200.1995,83.0310
199.4556,83.4067
199.4502,83.4093
198.6891,83.7489
198.6836,83.7511
197.9071,84.0539
197.9015,84.0559
197.1113,84.3210
197.1056,84.3228
196.3037,84.5497
196.2979,84.5512
195.4860,84.7395
195.4802,84.7407
194.6602,84.8898
194.6543,84.8907
193.8281,85.0003
193.8222,85.0009
192.9917,85.0708
192.9858,85.0712
192.1528,85.1012
192.1469,85.1012
191.3135,85.0912
191.3076,85.0910
190.4756,85.0411
190.4697,85.0406
189.6411,84.9508
189.6352,84.9500
188.8118,84.8206
188.8060,84.8196
187.9898,84.6508
187.9840,84.6495
187.1768,84.4419
187.1711,84.4402
186.3748,84.1941
186.3692,84.1922
185.5856,83.9082
185.5801,83.9060
184.8111,83.5848
184.8056,83.5824
184.0528,83.2246
184.0476,83.2219
183.6857,83.0282
183.3128,82.8285
183.3076,82.8256
182.5926,82.3974
182.5876,82.3942
182.1074,82.0744
181.8939,81.9322
181.8890,81.9288
181.8769,81.9198
181.2264,81.4400
181.2183,81.4340
181.2136,81.4304
180.5674,80.9041
180.5628,80.9002
180.5559,80.8940
180.1879,80.5637
179.9426,80.3435
179.9382,80.3394
179.4212,79.8286
179.3454,79.7536
179.3413,79.7494
178.7772,79.1358
178.7732,79.1314
178.7420,79.0940
178.5128,78.8192
178.2392,78.4915
178.2355,78.4868
178.2324,78.4827
177.7328,77.8221
177.7293,77.8172
177.6588,77.7141
177.2590,77.1291
177.2558,77.1242
177.2417,77.1013
176.9328,76.5992
176.8190,76.4143
176.8160,76.4092
176.8027,76.3849
176.5949,76.0078
176.5797,75.9395
176.6039,75.8740
176.6597,75.8319
176.7294,75.8266
176.7908,75.8599
176.7911,75.8602
177.0060,76.0750
177.2631,76.2765
177.2631,76.2765
177.2631,76.2765
177.5427,76.4455
177.8406,76.5796
177.8407,76.5796
177.8407,76.5796
178.0619,76.6486
178.1525,76.6768
178.4739,76.7357
178.8000,76.7554
179.1261,76.7357
179.4475,76.6768
179.6525,76.6129
179.7224,76.6118
179.7818,76.6486
179.8119,76.7116
179.8031,76.7809
179.7951,76.7962
179.7950,76.7963
179.7907,76.8047
179.7863,76.8133
179.7863,76.8134
179.7409,76.9514
179.7337,76.9924
179.7337,76.9924
179.7277,77.0387
179.7277,77.0387
179.7220,77.1070
179.7208,77.1257
179.7167,77.2149
179.7163,77.2258
179.7137,77.3294
179.7135,77.3373
179.7125,77.4452
179.7125,77.4489
179.7125,77.4497
179.7125,77.4559
179.7129,77.5691
179.7130,77.5764
179.7150,77.6848
179.7153,77.6938
179.7188,77.7909
179.7195,77.8048
179.7245,77.8842
179.7271,77.9119
179.7336,77.9672
179.7336,77.9672
179.7553,78.0654
179.7633,78.0901
179.7633,78.0902
179.7809,78.1320
179.7963,78.1684
179.8812,78.2862
179.9920,78.3723
179.9960,78.3754
179.9960,78.3754
180.0009,78.3782
180.0946,78.4197
180.0946,78.4197
180.1311,78.4317
180.1663,78.4418
180.1790,78.4450
180.2297,78.4577
180.2401,78.4601
180.2453,78.4613
180.3281,78.4793
180.3281,78.4793
180.3281,78.4793
180.3395,78.4816
180.4345,78.5000
180.4398,78.5010
180.4717,78.5068
180.4719,78.5069
180.4719,78.5068
180.5044,78.5128
180.6182,78.5337
180.6281,78.5355
180.6533,78.5403
180.7156,78.5720
180.7460,78.6171
180.7591,78.6506
180.7651,78.7203
180.7458,78.7659
180.6909,78.8459
180.6908,78.8459
180.6905,78.8464
180.6888,78.8490
180.6723,78.8730
180.6695,78.8772
180.6056,78.9723
180.6011,78.9790
180.5458,79.0644
180.5402,79.0733
180.4966,79.1435
180.4870,79.1596
180.4585,79.2096
180.4309,79.2659
180.4206,79.2907
180.3961,79.3648
180.3818,79.5094
180.4087,79.6522
180.4087,79.6522
180.4109,79.6587
180.4128,79.6640
180.4128,79.6640
180.4803,79.7927
180.5034,79.8247
180.5327,79.8615
180.5327,79.8615
180.5783,79.9138
180.5909,79.9277
180.6558,79.9967
180.6638,80.0050
180.7447,80.0872
180.7509,80.0934
180.8445,80.1854
180.8477,80.1885
180.8484,80.1892
180.9019,80.2407
180.9047,80.2433
180.9445,80.2811
180.9892,80.3234
180.9893,80.3235
180.9893,80.3235
180.9933,80.3273
181.0674,80.3960
181.0730,80.4012
181.1326,80.4547
181.1436,80.4644
181.1847,80.4992
181.2300,80.5336
181.2300,80.5336
181.2300,80.5336
181.2485,80.5460
181.2851,80.5685
181.2851,80.5685
181.4208,80.6204
181.4208,80.6204
181.5656,80.6321
181.5656,80.6321
181.5656,80.6321
181.5656,80.6321
181.6515,80.6141
181.7079,80.6024
181.7206,80.5978
181.7951,80.5637
181.8343,80.5418
181.8572,80.5283
181.9141,80.4925
181.9271,80.4841
181.9943,80.4389
181.9986,80.4360
181.9994,80.4355
181.9994,80.4355
181.9994,80.4355
182.0468,80.4028
182.1411,80.3381
182.2055,80.2942
182.2720,80.2727
182.3258,80.2833
182.3278,80.2842
182.3278,80.2842
182.3840,80.3054
182.3840,80.3054
182.4007,80.3105
182.4111,80.3138
182.4317,80.3197
182.4317,80.3197
182.4317,80.3197
182.5761,80.3365
182.7193,80.3120
182.8498,80.2482
182.9570,80.1501
182.9659,80.1393
183.0214,80.0563
183.0434,80.0152
183.0536,79.9951
183.0861,79.9273
183.0901,79.9187
183.1313,79.8286
183.1335,79.8237
183.1816,79.7155
183.1831,79.7121
183.1831,79.7120
183.1832,79.7119
183.2363,79.5900
183.2373,79.5876
183.2938,79.4560
183.2941,79.4553
183.2947,79.4539
183.3525,79.3173
183.3534,79.3152
183.4109,79.1778
183.4118,79.1756
183.4197,79.1566
183.4634,79.1022
183.5297,79.0800
183.5974,79.0972
183.6451,79.1483
183.6487,79.1562
183.7037,79.2879
183.7044,79.2898
183.7624,79.4271
183.7633,79.4291
183.7814,79.4715
183.8201,79.5620
183.8211,79.5643
183.8213,79.5646
183.8752,79.6888
183.8766,79.6919
183.9257,79.8030
183.9277,79.8074
183.9277,79.8076
183.9472,79.8505
183.9704,79.9016
183.9740,79.9093
184.0083,79.9817
184.0165,79.9983
184.0408,80.0449
184.0408,80.0450
184.0408,80.0450
184.0479,80.0563
184.0842,80.1144
184.0842,80.1144
184.0964,80.1308
184.0965,80.1309
184.0978,80.1327
184.2007,80.2353
184.3283,80.3048
184.4704,80.3355
184.4704,80.3355
184.4704,80.3355
184.5187,80.3320
184.6153,80.3249
184.6255,80.3227
184.7061,80.2979
184.7463,80.2818
184.7463,80.2818
184.7470,80.2815
184.8165,80.2749
184.8629,80.2941
184.8868,80.3104
184.8869,80.3105
184.9855,80.3780
185.0691,80.4355
185.0696,80.4358
185.0717,80.4373
185.0717,80.4373
185.0719,80.4374
185.1184,80.4690
185.1272,80.4748
185.1877,80.5141
185.2032,80.5238
185.2481,80.5507
185.2991,80.5775
185.2991,80.5775
185.2991,80.5775
185.3138,80.5842
185.3210,80.5875
185.4570,80.6278
185.6023,80.6286
185.7420,80.5884
185.7514,80.5842
185.8514,80.5246
185.8855,80.4987
185.9112,80.4777
185.9636,80.4321
185.9737,80.4231
186.0400,80.3622
186.0458,80.3567
186.1214,80.2851
186.1257,80.2811
186.2060,80.2032
186.2097,80.1996
186.2902,80.1199
186.2902,80.1199
186.2941,80.1160
186.3701,80.0392
186.3701,80.0392
186.3749,80.0343
186.4420,79.9646
186.4492,79.9570
186.5028,79.8990
186.5169,79.8830
186.5524,79.8413
186.5994,79.7763
186.6122,79.7552
186.6487,79.6830
186.6840,79.5421
186.6782,79.3969
186.6775,79.3929
186.6378,79.2691
186.6378,79.2691
186.6378,79.2691
186.6225,79.2364
186.6225,79.2364
186.6022,79.1974
186.5695,79.1409
186.5695,79.1409
186.5695,79.1408
186.5608,79.1265
186.5139,79.0512
186.5139,79.0512
186.5083,79.0424
186.4594,78.9674
186.4504,78.9535
186.4456,78.9463
186.3799,78.8491
186.3798,78.8490
186.3798,78.8490
186.3775,78.8457
186.3594,78.8192
186.3577,78.8169
186.3228,78.7659
186.3011,78.6995
186.3090,78.6520
186.3095,78.6506
186.3118,78.6445
186.3123,78.6433
186.3226,78.6169
186.3654,78.5617
186.4153,78.5403
186.4754,78.5291
186.5721,78.5113
186.6290,78.5009
186.6293,78.5008
186.6304,78.5006
186.6625,78.4947
186.6696,78.4933
186.7615,78.4749
186.7736,78.4723
186.8509,78.4548
186.8699,78.4502
186.9252,78.4354
186.9813,78.4169
187.0075,78.4066
187.0075,78.4066
187.0113,78.4047
187.0779,78.3723
187.1916,78.2818
187.2751,78.1629
187.2795,78.1543
187.2806,78.1520
187.2817,78.1498
187.2817,78.1498
187.2817,78.1498
187.3270,78.0118
187.3343,77.9704
187.3403,77.9247
187.3460,77.8561
187.3473,77.8375
187.3473,77.8375
187.3503,77.7745
187.3515,77.7482
187.3519,77.7373
187.3526,77.7120
187.3537,77.6710
187.3546,77.6336
187.3548,77.6257
187.3560,77.5140
187.3560,77.5070
187.3557,77.3938
187.3556,77.3865
187.3538,77.2783
187.3536,77.2692
187.3502,77.1722
187.3495,77.1583
187.3445,77.0792
187.3420,77.0511
187.3355,76.9962
187.3207,76.9295
187.3254,76.8598
187.3671,76.8037
187.4325,76.7790
187.5008,76.7936
187.5187,76.8054
187.5220,76.8080
187.6663,76.8970
187.6663,76.8970
187.6663,76.8970
187.6854,76.9033
187.7428,76.9431
187.7495,76.9521
187.8059,77.0365
188.4835,77.7141
188.5982,77.7908
188.7257,77.8436
188.7257,77.8436
188.7257,77.8436
188.7257,77.8436
188.8610,77.8705
188.8610,77.8705
188.8610,77.8705
189.0780,77.8705
189.1451,77.8902
189.1908,77.9430
189.2008,78.0121
189.1718,78.0757
189.1130,78.1135
189.1101,78.1143
188.9694,78.1520
188.9694,78.1520
188.7752,78.2426
188.7184,78.2823
189.3218,78.8858
189.2260,78.9115
189.1290,78.9674
189.0499,79.0465
188.9940,79.1435
188.9683,79.2393
188.3648,78.6359
188.3251,78.6927
188.2345,78.8869
188.2345,78.8869
188.1790,79.0940
188.1790,79.0940
188.1603,79.3075
188.1603,79.3075
188.1790,79.5210
188.1790,79.5210
188.2345,79.7281
188.2345,79.7281
188.3251,79.9223
188.3251,79.9223
188.3648,79.9791
188.3648,79.9791
188.9683,79.3757
188.9940,79.4715
189.0499,79.5685
189.1290,79.6476
189.2260,79.7035
189.3218,79.7292
188.7184,80.3327
188.7184,80.3333
188.7609,80.3865
188.7681,80.4560
188.7366,80.5184
188.6764,80.5538
188.6462,80.5575
188.3422,80.5575
188.2826,80.5639
188.2826,80.5639
188.1479,80.6141
188.1479,80.6141
188.0328,80.7003
188.0328,80.7003
187.9466,80.8154
187.9466,80.8154
187.9431,80.8250
187.9012,80.8809
187.8793,80.8940
187.7752,80.9426
187.7752,80.9426
187.7184,80.9823
187.7184,80.9823
188.3218,81.5858
188.2260,81.6115
188.1290,81.6674
188.0499,81.7465
187.9940,81.8435
187.9683,81.9393
187.3648,81.3359
187.3251,81.3927
187.2345,81.5869
187.2345,81.5869
187.1790,81.7940
187.1790,81.7940
187.1603,82.0075
187.1603,82.0075
187.1790,82.2210
187.1790,82.2210
187.2345,82.4281
187.2345,82.4281
187.3251,82.6223
187.3251,82.6223
187.3648,82.6791
187.3648,82.6791
187.9683,82.0757
187.9940,82.1715
188.0499,82.2685
188.1290,82.3476
188.2260,82.4035
188.3218,82.4292
187.7184,83.0327
187.7752,83.0724
187.8793,83.1210
187.9317,83.1672
187.9431,83.1900
187.9466,83.1996
188.0328,83.3147
188.0328,83.3147
188.1479,83.4008
188.1479,83.4009
188.2826,83.4511
188.2826,83.4511
188.3422,83.4575
188.3422,83.4575
188.7400,83.4575
189.2400,83.4575
189.6378,83.4575
189.6378,83.4575
189.6974,83.4511
189.6974,83.4511
189.8217,83.4047
189.8914,83.3998
189.9083,83.4047
190.0326,83.4511
190.0326,83.4511
190.0922,83.4575
190.0922,83.4575
190.6400,83.4575
191.1400,83.4575
191.6878,83.4575
191.6878,83.4575
191.7474,83.4511
191.7474,83.4511
191.8467,83.4141
191.9164,83.4091
191.9333,83.4141
192.0326,83.4511
192.0326,83.4511
192.0922,83.4575
192.0922,83.4575
192.6400,83.4575
193.1400,83.4575
193.6878,83.4575
193.6878,83.4575
193.7474,83.4511
193.7474,83.4511
193.8717,83.4047
193.9414,83.3998
193.9583,83.4047
194.0826,83.4511
194.0826,83.4511
194.1422,83.4575
194.1422,83.4575
194.5400,83.4575
194.5400,82.2575
193.1400,82.2575
193.1400,83.4575
192.6400,83.4575
192.6400,82.2575
191.1400,82.2575
191.1400,83.4575
190.6400,83.4575
190.6400,82.2575
189.2400,82.2575
189.2400,83.4575
188.7400,83.4575
188.7400,82.2513
188.7860,82.1715
188.8150,82.0635
188.8150,81.9515
188.7860,81.8435
188.7661,81.8089
188.8125,81.7687
188.8640,81.7575
194.9160,81.7575
194.9830,81.7772
195.0126,81.8113
194.9940,81.8435
194.9650,81.9515
194.9650,82.0635
194.9940,82.1715
195.0400,82.2513
195.0400,83.4575
195.4378,83.4575
195.4378,83.4575
195.4974,83.4511
195.4974,83.4511
195.6321,83.4009
195.6321,83.4008
195.7472,83.3147
195.7472,83.3147
195.8334,83.1996
195.8369,83.1901
195.8788,83.1341
195.9007,83.1210
196.0048,83.0724
196.0616,83.0327
195.4582,82.4292
195.5540,82.4035
195.6510,82.3476
195.7301,82.2685
195.7860,82.1715
195.8117,82.0757
196.4152,82.6791
196.4549,82.6223
196.5455,82.4281
196.5455,82.4281
196.6010,82.2210
196.6010,82.2210
196.6197,82.0075
196.6197,82.0075
196.6010,81.7940
196.6010,81.7940
196.5455,81.5869
196.5455,81.5869
196.4770,81.4400
197.2700,81.4400
197.2805,81.5427
197.3356,81.7091
197.3356,81.7091
197.4277,81.8583
197.5517,81.9823
197.7009,82.0744
197.7009,82.0744
197.8673,82.1295
197.8673,82.1295
197.9700,82.1400
198.3700,82.1400
198.8700,82.1400
199.2700,82.1400
199.2700,82.1400
199.3727,82.1295
199.5391,82.0744
199.5391,82.0744
199.6883,81.9823
199.8123,81.8583
199.9044,81.7091
199.9044,81.7091
199.9595,81.5427
199.9595,81.5427
199.9700,81.4400
199.9700,81.4400
199.9700,81.2400
198.8700,81.2400
198.8700,82.1400
198.3700,82.1400
198.3700,82.1400
198.3700,81.2400
197.2700,81.2400
197.2700,81.4400
196.4770,81.4400
196.4549,81.3927
196.4152,81.3359
195.8117,81.9393
195.7860,81.8435
195.7301,81.7465
195.6510,81.6674
195.5540,81.6115
195.4582,81.5858
196.0616,80.9823
196.0048,80.9426
196.0048,80.9426
195.9007,80.8940
195.8482,80.8478
195.8369,80.8249
195.8334,80.8154
195.8333,80.8154
195.7472,80.7003
195.7472,80.7003
195.6321,80.6141
195.6321,80.6141
195.4974,80.5639
195.4974,80.5639
195.4378,80.5575
195.1338,80.5575
195.0743,80.5400
197.2700,80.5400
197.2700,80.7400
198.3700,80.7400
198.8700,80.7400
199.9700,80.7400
199.9700,80.5400
199.9700,80.5400
199.9595,80.4373
199.9044,80.2709
199.9044,80.2709
199.8123,80.1217
199.6883,79.9977
199.5391,79.9056
199.5391,79.9056
199.3727,79.8505
199.3727,79.8505
199.2700,79.8400
198.8700,79.8400
198.8700,80.7400
198.3700,80.7400
198.3700,79.8400
197.9700,79.8400
197.9700,79.8400
197.8673,79.8505
197.7009,79.9056
197.7009,79.9056
197.5517,79.9977
197.4277,80.1217
197.3356,80.2709
197.3356,80.2709
197.2805,80.4373
197.2805,80.4373
197.2700,80.5400
195.0743,80.5400
195.0668,80.5378
195.0210,80.4850
195.0111,80.4159
195.0401,80.3523
195.0616,80.3329
195.0616,80.3327
194.4582,79.7292
194.5540,79.7035
194.6510,79.6476
194.7301,79.5685
194.7860,79.4715
194.8117,79.3757
195.4152,79.9791
195.4549,79.9223
195.5455,79.7281
195.5455,79.7281
195.6010,79.5210
195.6010,79.5210
195.6197,79.3075
195.6197,79.3075
195.6010,79.0940
195.6010,79.0940
195.5455,78.8869
195.5455,78.8869
195.4549,78.6927
195.4152,78.6359
194.8117,79.2393
194.7860,79.1435
194.7301,79.0465
194.6510,78.9674
194.5540,78.9115
194.4582,78.8858
195.0616,78.2823
195.0048,78.2426
195.0048,78.2426
194.8106,78.1520
194.8106,78.1520
194.6035,78.0965
194.6035,78.0965
194.3900,78.0778
194.3900,78.0778
194.1765,78.0965
194.1765,78.0965
193.9694,78.1520
193.9694,78.1520
193.7983,78.2318
193.7292,78.2423
193.6715,78.2187
193.6321,78.1891
193.6321,78.1891
193.4974,78.1389
193.4974,78.1389
193.4378,78.1325
193.3900,78.1325
193.3900,78.2931
193.3703,78.3601
193.3175,78.4059
193.2484,78.4158
193.1848,78.3868
193.1667,78.3674
193.0975,78.2750
193.0397,78.2316
192.9978,78.1757
192.9900,78.1325
192.9900,78.1325
192.9422,78.1325
192.8806,78.1391
192.8541,78.1391
192.8426,78.1379
192.8070,78.1341
192.7424,78.1073
192.7026,78.0499
192.7001,77.9801
192.7326,77.9231
193.0788,77.5768
193.1402,77.5433
193.1665,77.5405
193.8490,77.5405
193.9800,77.5144
193.9843,77.5136
194.0810,77.4735
194.1118,77.4608
194.1118,77.4608
194.1118,77.4608
194.2265,77.3841
194.6338,76.9768
194.6952,76.9433
194.7215,76.9405
195.2800,76.9405
195.2800,76.9405
195.3828,76.9300
195.5493,76.8748
195.6987,76.7827
195.8227,76.6587
195.8284,76.6494
195.8804,76.6027
195.9340,76.5905
196.0078,76.5905
196.0748,76.6102
196.0955,76.6268
197.2332,77.7645
197.2667,77.8259
197.2695,77.8522
197.2695,77.9400
197.2695,77.9400
197.2800,78.0428
197.2800,78.0428
197.3352,78.2093
197.3352,78.2093
197.3557,78.2426
197.4273,78.3587
197.5513,78.4827
197.7007,78.5748
197.8672,78.6300
197.9700,78.6405
199.2700,78.6405
199.3728,78.6300
199.5393,78.5748
199.6887,78.4827
199.8127,78.3587
199.9048,78.2093
199.9600,78.0428
199.9705,77.9400
199.9705,77.0400
199.9600,76.9372
199.9048,76.7707
199.8127,76.6213
199.6887,76.4973
199.6887,76.4973
199.6493,76.4730
199.6445,76.4700
199.5978,76.4181
199.5865,76.3491
199.6144,76.2850
199.6724,76.2462
199.7096,76.2405
200.5378,76.2405
200.6048,76.2602
200.6255,76.2768
201.2520,76.9033
201.8770,77.5284
201.9302,77.5815
201.9816,77.6330
202.1045,77.7151
202.1045,77.7151
202.2239,77.7645
202.2411,77.7717
202.2411,77.7717
202.2411,77.7717
202.3861,77.8005
202.3861,77.8005
204.9939,77.8005
205.0915,77.7811
205.1389,77.7717
205.2755,77.7151
205.3415,77.6710
205.3984,77.6330
206.5830,76.4484
206.6254,76.3849
206.6651,76.3255
206.6978,76.2465
206.6982,76.2455
206.7051,76.2289
206.7217,76.1889
206.7475,76.0589
206.7493,76.0498
206.7505,76.0439
206.7505,72.9561
206.7217,72.8111
206.7217,72.8111
206.7217,72.8111
206.6968,72.7510
206.6651,72.6745
206.6344,72.6285
206.5931,72.5668
206.5830,72.5516
205.8984,71.8670
205.8984,71.8670
205.8492,71.8341
205.8164,71.8122
205.7755,71.7849
205.7755,71.7849
205.7755,71.7849
205.7755,71.7849
205.6389,71.7283
205.6389,71.7283
205.4939,71.6995
205.4939,71.6995
205.3577,71.6995
205.2907,71.6798
205.2561,71.6466
205.2085,71.5786
205.0414,71.4115
205.0414,71.4115
204.8554,71.2813
204.8118,71.2267
204.8046,71.1572
204.8361,71.0948
204.8554,71.0781
205.0411,70.9481
205.2081,70.7811
205.3436,70.5876
205.4434,70.3735
205.4434,70.3735
205.5006,70.1600
204.6030,70.1600
204.6359,70.1030
204.6700,69.9758
204.6700,69.8442
204.6359,69.7170
204.6030,69.6600
205.5006,69.6600
205.5006,69.6600
205.4434,69.4465
205.4434,69.4465
205.3436,69.2324
205.3436,69.2324
205.2081,69.0389
205.2081,69.0389
205.0411,68.8719
204.8554,68.7419
204.8118,68.6873
204.8046,68.6178
204.8361,68.5554
204.8554,68.5387
204.8724,68.5268
205.0414,68.4085
205.2085,68.2414
205.3440,68.0478
205.4439,67.8337
205.5051,67.6054
205.5257,67.3700
205.5236,67.3467
205.5215,67.3229
205.5051,67.1346
205.4439,66.9063
205.3440,66.6922
205.3338,66.6775
205.2085,66.4986
205.0414,66.3315
205.0414,66.3315
204.8558,66.2016
204.8122,66.1470
204.8050,66.0775
204.8365,66.0151
204.8558,65.9984
204.8780,65.9829
205.0414,65.8685
205.2085,65.7014
205.3440,65.5078
205.4439,65.2937
205.5051,65.0654
205.5257,64.8300
205.5051,64.5946
205.4439,64.3663
205.3440,64.1522
205.3133,64.1083
205.2085,63.9586
205.0414,63.7915
205.0414,63.7915
204.8558,63.6616
204.8122,63.6070
204.8050,63.5375
204.8365,63.4751
204.8558,63.4584
204.9756,63.3745
205.0414,63.3285
205.2085,63.1614
205.3440,62.9678
205.4439,62.7537
205.5051,62.5254
205.5257,62.2900
205.5051,62.0546
205.4552,61.8684
205.4439,61.8263
205.4439,61.8263
205.4439,61.8263
205.3440,61.6122
205.3255,61.5857
205.2085,61.4186
205.1729,61.3830
205.0866,61.2967
205.0531,61.2354
205.0581,61.1657
205.0999,61.1097
205.1309,61.0928
205.2623,61.0438
205.3775,60.9575
205.4638,60.8423
205.5141,60.7075
205.5205,60.6479
205.5205,58.8521
205.5141,58.7925
205.5134,58.7908
205.4638,58.6577
205.4638,58.6577
205.3775,58.5425
205.3775,58.5425
205.2623,58.4562
205.2623,58.4562
205.1275,58.4059
205.1275,58.4059
205.0679,58.3995
205.0679,58.3995
205.0679,58.3995
205.0679,58.3995
203.2721,58.3995
203.2721,58.3995
203.2125,58.4059
203.0777,58.4562
203.0777,58.4562
202.9625,58.5425
202.9625,58.5425
202.8762,58.6577
202.8762,58.6577
202.8259,58.7925
202.8195,58.8521
202.8195,58.8521
202.8195,58.8521
202.8195,58.8755
202.7998,58.9425
202.7470,58.9883
202.6955,58.9995
202.2361,58.9995
202.2072,59.0052
202.2072,59.0052
202.0911,59.0283
202.0911,59.0283
202.0218,59.0570
201.9545,59.0849
201.9170,59.1100
201.8316,59.1670
201.8316,59.1671
201.7913,59.2073
201.7300,59.2408
201.6603,59.2358
201.6044,59.1939
201.5800,59.1285
201.5803,59.1132
201.5798,59.1131
201.5800,59.1100
201.5800,58.8600
200.7300,58.8600
200.7300,59.8100
200.8800,59.8100
200.8831,59.8098
200.8832,59.8116
200.9453,59.8229
200.9964,59.8706
201.0135,59.9383
200.9914,60.0045
200.9773,60.0213
198.9372,62.0615
198.8759,62.0949
198.8062,62.0900
198.7502,62.0481
198.7258,61.9826
198.7255,61.9738
198.7255,60.8211
198.7168,60.7775
198.7038,60.7121
198.7029,60.7075
198.6967,60.6761
198.6967,60.6761
198.6424,60.5451
198.6408,60.5405
198.5580,60.4166
198.5580,60.4166
198.5580,60.4166
198.4534,60.3120
198.1635,60.0222
198.1301,59.9609
198.1350,59.8912
198.1769,59.8352
198.2424,59.8108
198.2512,59.8105
198.8800,59.8105
198.8800,59.8105
198.8800,59.8105
198.9779,59.8005
198.9828,59.8000
199.1493,59.7448
199.2987,59.6527
199.3927,59.5587
199.4540,59.5252
199.5237,59.5302
199.5680,59.5587
199.6617,59.6523
199.8109,59.7444
199.8109,59.7444
199.9773,59.7995
199.9773,59.7995
200.0800,59.8100
200.2300,59.8100
200.2300,59.8100
200.2300,58.3600
200.7300,58.3600
201.5800,58.3600
201.5800,58.1100
201.5800,58.1100
201.5695,58.0073
201.5144,57.8409
201.5144,57.8409
201.4223,57.6917
201.2983,57.5677
201.1491,57.4756
201.1491,57.4756
200.9827,57.4205
200.9827,57.4205
200.8800,57.4100
200.7300,57.4100
200.7300,58.3600
200.2300,58.3600
200.2300,57.4100
200.0800,57.4100
200.0800,57.4100
199.9773,57.4205
199.8109,57.4756
199.8109,57.4756
199.6617,57.5677
199.5680,57.6613
199.5067,57.6948
199.4370,57.6898
199.3927,57.6613
199.2987,57.5673
199.2987,57.5673
199.1493,57.4752
198.9828,57.4200
198.9828,57.4200
198.8800,57.4095
198.0800,57.4095
198.0800,57.4095
197.9772,57.4200
197.9772,57.4200
197.8107,57.4752
197.8107,57.4752
197.6613,57.5673
197.5373,57.6913
197.4761,57.7906
197.4241,57.8373
197.3705,57.8495
197.3206,57.8495
197.2536,57.8298
197.2151,57.7906
197.1852,57.7421
197.1477,57.6813
197.0237,57.5573
196.8913,57.4756
196.8743,57.4652
196.8743,57.4652
196.8729,57.4647
196.7078,57.4100
196.7078,57.4100
196.6050,57.3995
195.8550,57.3995
195.8550,57.3995
195.7522,57.4100
195.7522,57.4100
195.5857,57.4652
195.5857,57.4652
195.4363,57.5573
195.3123,57.6813
195.3105,57.6842
195.3088,57.6857
195.3078,57.6870
195.3076,57.6868
195.2586,57.7309
195.1896,57.7421
195.1255,57.7143
195.0995,57.6842
195.0977,57.6813
194.9737,57.5573
194.9737,57.5573
194.8413,57.4756
194.8243,57.4652
194.8243,57.4652
194.8229,57.4647
194.6578,57.4100
194.6578,57.4100
194.5550,57.3995
193.8050,57.3995
193.8050,57.3995
193.7022,57.4100
193.7022,57.4100
193.5357,57.4652
193.5357,57.4652
193.3863,57.5573
193.2623,57.6813
193.2500,57.7012
193.1981,57.7479
193.1291,57.7591
193.0650,57.7313
193.0262,57.6732
193.0205,57.6361
193.0205,56.3345
193.0402,56.2675
193.0930,56.2217
193.1445,56.2105
193.2828,56.2105
193.3498,56.2302
193.3705,56.2468
193.3763,56.2527
193.5257,56.3448
193.6922,56.4000
193.7950,56.4105
194.5450,56.4105
194.5450,56.4105
194.5450,56.4105
194.6013,56.4047
194.6478,56.4000
194.8143,56.3448
194.9637,56.2527
195.0877,56.1287
195.0895,56.1258
195.0912,56.1243
195.0922,56.1230
195.0924,56.1232
195.1414,56.0791
195.2104,56.0679
195.2745,56.0957
195.3005,56.1258
195.3023,56.1287
195.4263,56.2527
195.5757,56.3448
195.7422,56.4000
195.8450,56.4105
196.5950,56.4105
196.5950,56.4105
196.5950,56.4105
196.6513,56.4047
196.6978,56.4000
196.8643,56.3448
197.0137,56.2527
197.1377,56.1287
197.2051,56.0194
197.2570,55.9727
197.3106,55.9605
197.3544,55.9605
197.4214,55.9802
197.4599,56.0194
197.5273,56.1287
197.6513,56.2527
197.8007,56.3448
197.9672,56.4000
198.0700,56.4105
198.8700,56.4105
198.8700,56.4105
198.8700,56.4105
198.9263,56.4047
198.9728,56.4000
199.1393,56.3448
199.2887,56.2527
199.3827,56.1587
199.4440,56.1252
199.5137,56.1302
199.5580,56.1587
199.6517,56.2523
199.8009,56.3444
199.8009,56.3444
199.9673,56.3995
199.9673,56.3995
200.0700,56.4100
200.2200,56.4100
200.7200,56.4100
200.8700,56.4100
200.8700,56.4100
200.9727,56.3995
201.1391,56.3444
201.1391,56.3444
201.2883,56.2523
201.4123,56.1283
201.5044,55.9791
201.5044,55.9791
201.5595,55.8127
201.5595,55.8127
201.5700,55.7100
201.5700,55.7100
201.5700,55.4600
200.7200,55.4600
200.7200,56.4100
200.2200,56.4100
200.2200,56.4100
200.2200,54.9600
200.7200,54.9600
201.5700,54.9600
201.5700,54.7100
201.5700,54.7100
201.5595,54.6073
201.5044,54.4409
201.5044,54.4409
201.4123,54.2917
201.2883,54.1677
201.1391,54.0756
201.1391,54.0756
200.9727,54.0205
200.9727,54.0205
200.8700,54.0100
200.7200,54.0100
200.7200,54.9600
200.2200,54.9600
200.2200,54.0100
200.0700,54.0100
200.0700,54.0100
199.9673,54.0205
199.8009,54.0756
199.8009,54.0756
199.6517,54.1677
199.5580,54.2613
199.4967,54.2948
199.4270,54.2898
199.3827,54.2613
199.2887,54.1673
199.2887,54.1673
199.1393,54.0752
198.9728,54.0200
198.9728,54.0200
198.8700,54.0095
198.0700,54.0095
198.0700,54.0095
197.9672,54.0200
197.9672,54.0200
197.8007,54.0752
197.8007,54.0752
197.6513,54.1673
197.5273,54.2913
197.4599,54.4006
197.4080,54.4473
197.3544,54.4595
197.3106,54.4595
197.2436,54.4398
197.2051,54.4006
197.1411,54.2968
197.1377,54.2913
197.0137,54.1673
196.8643,54.0752
196.6978,54.0200
196.6978,54.0200
196.5950,54.0095
195.8450,54.0095
195.8450,54.0095
195.7422,54.0200
195.7422,54.0200
195.5757,54.0752
195.5757,54.0752
195.4263,54.1673
195.3023,54.2913
195.3005,54.2942
195.2988,54.2957
195.2978,54.2970
195.2976,54.2968
195.2486,54.3409
195.1796,54.3521
195.1155,54.3243
195.0895,54.2942
195.0877,54.2913
194.9637,54.1673
194.9637,54.1673
194.8143,54.0752
194.6478,54.0200
194.6478,54.0200
194.5450,54.0095
193.7950,54.0095
193.7950,54.0095
193.6922,54.0200
193.6922,54.0200
193.5257,54.0752
193.5257,54.0752
193.3763,54.1673
193.3705,54.1732
193.3091,54.2067
193.2828,54.2095
192.4415,54.2095
192.3448,54.2287
192.2482,54.2479
192.2482,54.2479
192.1948,54.2700
192.1948,54.2700
192.1493,54.2889
192.0661,54.3234
192.0661,54.3234
191.9022,54.4329
191.8486,54.4865
191.7629,54.5722
191.7629,54.5722
191.3822,54.9529
191.3822,54.9529
191.3125,55.0225
191.2429,55.0922
191.1334,55.2561
191.1334,55.2561
191.0580,55.4382
191.0579,55.4382
191.0195,55.6315
191.0195,62.0385
191.0579,62.2318
191.0580,62.2318
191.0706,62.2625
191.0706,62.2625
191.0854,62.2980
191.0928,62.3675
191.0616,62.4300
191.0015,62.4656
190.9708,62.4695
190.8595,62.4695
190.7925,62.4498
190.7467,62.3970
190.7355,62.3455
190.7355,61.8550
190.7355,61.8550
190.7250,61.7522
190.7250,61.7522
190.6828,61.6249
190.6698,61.5857
190.5777,61.4363
190.4537,61.3123
190.3609,61.2551
190.3043,61.2202
190.3043,61.2202
190.2439,61.2001
190.1378,61.1650
190.1378,61.1650
190.0350,61.1545
189.2350,61.1545
189.2350,61.1545
189.1322,61.1650
189.1322,61.1650
188.9657,61.2202
188.9657,61.2202
188.8163,61.3123
188.6923,61.4363
188.6002,61.5857
188.6002,61.5857
188.5450,61.7522
188.5450,61.7522
188.5450,61.7522
188.5345,61.8550
188.5345,63.6550
188.5345,63.6550
188.5450,63.7578
188.5450,63.7578
188.6002,63.9243
188.6002,63.9243
188.6160,63.9500
188.6345,64.0151
188.6345,64.2392
188.6148,64.3063
188.5982,64.3269
188.1419,64.7832
188.0806,64.8167
188.0542,64.8195
186.6749,64.8195
186.6098,64.8010
186.6043,64.7977
186.6043,64.7977
186.6043,64.7977
186.4378,64.7425
186.4378,64.7425
186.3350,64.7320
185.2850,64.7320
185.2850,64.7320
185.1822,64.7425
185.1822,64.7425
185.0157,64.7977
185.0157,64.7977
185.0102,64.8010
184.9451,64.8195
183.6649,64.8195
183.5998,64.8010
183.5943,64.7977
183.5943,64.7977
183.5943,64.7977
183.4278,64.7425
183.4278,64.7425
183.3250,64.7320
182.2750,64.7320
182.2750,64.7320
182.1722,64.7425
182.1722,64.7425
182.0057,64.7977
182.0057,64.7977
182.0002,64.8010
181.9351,64.8195
181.0115,64.8195
180.9851,64.8247
180.9587,64.8300
180.9587,64.8300
180.8182,64.8579
180.8182,64.8580
180.7648,64.8800
180.7648,64.8800
180.7193,64.8989
180.6361,64.9334
180.6361,64.9334
180.4722,65.0429
180.4278,65.0873
180.3329,65.1822
180.0422,65.4729
179.9922,65.5229
179.9309,65.5564
179.8612,65.5514
179.8052,65.5095
179.7808,65.4441
179.7805,65.4352
179.7805,64.7658
179.8002,64.6987
179.8168,64.6781
180.0243,64.4706
180.7031,63.7918
180.7644,63.7583
180.7908,63.7555
183.8947,63.7555
183.9617,63.7752
184.0075,63.8280
184.0124,63.8405
184.0402,63.9243
184.1323,64.0737
184.2563,64.1977
184.4057,64.2898
184.5722,64.3450
184.6750,64.3555
185.4750,64.3555
185.4750,64.3555
185.4750,64.3555
185.5313,64.3497
185.5778,64.3450
185.7443,64.2898
185.8937,64.1977
186.0177,64.0737
186.1098,63.9243
186.1650,63.7578
186.1755,63.6550
186.1755,61.8550
186.1650,61.7522
186.1098,61.5857
186.0177,61.4363
185.8937,61.3123
185.8009,61.2551
185.7443,61.2202
185.7443,61.2202
185.6839,61.2001
185.5778,61.1650
185.5778,61.1650
185.4750,61.1545
184.6750,61.1545
184.6750,61.1545
184.5722,61.1650
184.5722,61.1650
184.4057,61.2202
184.4057,61.2202
184.2563,61.3123
184.1323,61.4363
184.0402,61.5857
184.0402,61.5857
184.0124,61.6695
183.9726,61.7269
183.9081,61.7538
183.8947,61.7545
180.2265,61.7545
180.1944,61.7609
180.1944,61.7609
180.0332,61.7929
180.0332,61.7929
179.8511,61.8684
179.8511,61.8684
179.6872,61.9779
179.6872,61.9779
178.4019,63.2632
178.3406,63.2967
178.3142,63.2995
177.5321,63.2995
177.5321,63.2995
177.4725,63.3059
177.3377,63.3562
177.3377,63.3562
177.2225,63.4425
177.2225,63.4425
177.1362,63.5577
177.1362,63.5577
177.0859,63.6925
177.0795,63.7521
177.0795,63.7521
177.0795,65.5479
177.0795,65.5479
177.0859,65.6075
177.1362,65.7423
177.1362,65.7423
177.2225,65.8575
177.2225,65.8575
177.3377,65.9438
177.3377,65.9438
177.3999,65.9670
177.4696,65.9930
177.5255,66.0349
177.5499,66.1003
177.5351,66.1686
177.5139,66.1969
177.3919,66.3189
177.2564,66.5124
177.2564,66.5124
177.1566,66.7265
177.1566,66.7265
177.0994,66.9400
177.0994,66.9400
177.9970,66.9400
177.9641,66.9970
177.9300,67.1242
177.9300,67.2558
177.9641,67.3830
177.9970,67.4400
177.0994,67.4400
177.1566,67.6535
177.1566,67.6535
177.2564,67.8676
177.3919,68.0611
177.5589,68.2281
177.7446,68.3581
177.7882,68.4127
177.7954,68.4822
177.7639,68.5445
177.7446,68.5613
177.5586,68.6915
177.3915,68.8586
177.2560,69.0522
177.2560,69.0522
177.1561,69.2663
177.1561,69.2663
177.0949,69.4946
177.0949,69.4946
177.0743,69.7300
177.0743,69.7300
177.0949,69.9654
177.0949,69.9654
177.1561,70.1937
177.1561,70.1937
177.1561,70.1937
177.2325,70.3576
177.2560,70.4078
177.2560,70.4078
177.3396,70.5273
177.3915,70.6014
177.5586,70.7685
177.6554,70.8363
177.7522,70.9040
177.7522,70.9040
177.7522,70.9040
177.9663,71.0039
178.1946,71.0651
178.3829,71.0815
178.4300,71.0857
178.4300,71.0857
178.4300,71.0857
178.4692,71.0822
178.6654,71.0651
178.8937,71.0039
179.1078,70.9040
179.3014,70.7685
179.3031,70.7668
179.3040,70.7663
179.3055,70.7650
179.3058,70.7653
179.3644,70.7333
179.3908,70.7305
180.1585,70.7305
180.1779,70.7267
180.2552,70.7113
180.3518,70.6921
180.4052,70.6700
180.5339,70.6166
180.6978,70.5071
180.8371,70.3678
180.8371,70.3678
181.4571,69.7478
181.5038,69.6779
181.5666,69.5839
181.5666,69.5839
181.5984,69.5073
181.6270,69.4382
181.6421,69.4018
181.6805,69.2085
181.6805,69.0115
181.6805,68.9383
181.7002,68.8713
181.7530,68.8255
181.8221,68.8156
181.8696,68.8328
182.0059,68.9169
182.0059,68.9169
182.1723,68.9720
182.1723,68.9720
182.2750,68.9825
182.5500,68.9825
183.0500,68.9825
183.3250,68.9825
183.3250,68.9825
183.4277,68.9720
183.5941,68.9169
183.5941,68.9169
183.7433,68.8248
183.8673,68.7008
183.9594,68.5516
183.9594,68.5516
184.0145,68.3852
184.0145,68.3852
184.0250,68.2825
184.5850,68.2825
184.5955,68.3852
184.6506,68.5516
184.6506,68.5516
184.7427,68.7008
184.8667,68.8248
185.0159,68.9169
185.0159,68.9169
185.1823,68.9720
185.1823,68.9720
185.2850,68.9825
185.5600,68.9825
186.0600,68.9825
186.3350,68.9825
186.3350,68.9825
186.4377,68.9720
186.6041,68.9169
186.6041,68.9169
186.7533,68.8248
186.8773,68.7008
186.9694,68.5516
186.9694,68.5516
187.0245,68.3852
187.0245,68.3852
187.0350,68.2825
187.0350,68.2825
187.0350,68.1450
186.0600,68.1450
186.0600,68.9825
185.5600,68.9825
185.5600,68.9825
185.5600,68.1450
184.5850,68.1450
184.5850,68.2825
184.0250,68.2825
184.0250,68.2825
184.0250,68.1450
183.0500,68.1450
183.0500,68.9825
182.5500,68.9825
182.5500,68.9825
182.5500,67.7690
182.5697,67.7020
182.6225,67.6562
182.6740,67.6450
184.0250,67.6450
184.0250,67.5075
184.0250,67.5075
184.0145,67.4048
183.9594,67.2384
183.9594,67.2384
183.8673,67.0892
183.8103,67.0322
183.7769,66.9709
183.7818,66.9012
183.8237,66.8452
183.8892,66.8208
183.8980,66.8205
184.7120,66.8205
184.7790,66.8402
184.8248,66.8930
184.8347,66.9621
184.8057,67.0257
184.7997,67.0322
184.7427,67.0892
184.6506,67.2384
184.6506,67.2384
184.5955,67.4048
184.5955,67.4048
184.5850,67.5075
184.5850,67.6450
187.0350,67.6450
187.0350,67.5075
187.0350,67.5075
187.0245,67.4048
186.9694,67.2384
186.9694,67.2384
186.8773,67.0892
186.8203,67.0322
186.7869,66.9709
186.7918,66.9012
186.8337,66.8452
186.8992,66.8208
186.9080,66.8205
188.5105,66.8205
188.5775,66.8402
188.6233,66.8930
188.6345,66.9445
188.6345,70.9592
188.6148,71.0263
188.5982,71.0469
187.9121,71.7330
187.8508,71.7665
187.8370,71.7687
187.8273,71.7697
187.6663,71.8230
187.6663,71.8230
187.5220,71.9120
187.5220,71.9120
187.4020,72.0320
187.4020,72.0320
187.3130,72.1763
187.3130,72.1763
187.3097,72.1862
187.2699,72.2437
187.2054,72.2705
187.1366,72.2582
187.0854,72.2106
187.0680,72.1472
187.0680,71.1600
187.0638,71.1193
187.0575,71.0572
187.0575,71.0572
187.0386,71.0003
187.0023,70.8907
186.9102,70.7413
186.7862,70.6173
186.6934,70.5601
186.6368,70.5252
186.6368,70.5252
186.6212,70.5200
186.4703,70.4700
186.4703,70.4700
186.3675,70.4595
185.4675,70.4595
185.4675,70.4595
185.3647,70.4700
185.3647,70.4700
185.1982,70.5252
185.1982,70.5252
185.0488,70.6173
184.9248,70.7413
184.8327,70.8907
184.8327,70.8907
184.8121,70.9528
184.7775,71.0572
184.7775,71.0572
184.7775,71.0572
184.7670,71.1600
184.7670,72.4600
184.7670,72.4600
184.7775,72.5628
184.7775,72.5628
184.8327,72.7293
184.8327,72.7293
184.8666,72.7844
184.9248,72.8787
185.0488,73.0027
185.1081,73.0393
185.1548,73.0912
185.1670,73.1448
185.1670,73.4814
185.1670,73.4814
185.1670,73.4814
185.1958,73.6264
185.1958,73.6264
185.2524,73.7630
185.2524,73.7630
185.2524,73.7630
185.2658,73.7830
185.2809,73.8057
185.2809,73.8057
185.3345,73.8859
185.3346,73.8859
185.5716,74.1230
185.6051,74.1843
185.6001,74.2540
185.5583,74.3100
185.4928,74.3344
185.4866,74.3347
185.4612,74.3352
185.4572,74.3353
185.3186,74.3791
185.3186,74.3791
185.3084,74.3841
185.2645,74.4079
185.2645,74.4080
185.2269,74.4309
185.2165,74.4374
185.1555,74.4766
185.1511,74.4794
185.0717,74.5316
185.0716,74.5318
185.0686,74.5337
185.0685,74.5338
184.9747,74.5964
184.9730,74.5975
184.9722,74.5981
184.9721,74.5982
184.8684,74.6683
184.8684,74.6683
184.8683,74.6683
184.8672,74.6691
184.8422,74.6861
184.7914,74.7207
184.7248,74.7421
184.6573,74.7241
184.6102,74.6725
184.5998,74.6411
184.5956,74.6188
184.5825,74.5494
184.4987,74.1047
184.4614,73.9872
184.4614,73.9872
184.3828,73.8650
184.3476,73.8345
184.2730,73.7698
184.2730,73.7698
184.2730,73.7698
184.1408,73.7095
184.1408,73.7095
184.0177,73.6918
183.9970,73.6888
183.0715,73.6888
183.0418,73.6924
182.9492,73.7037
182.8145,73.7582
182.7007,73.8485
182.6168,73.9672
182.6168,73.9672
182.5699,74.1047
182.5699,74.1047
182.5699,74.1047
182.5699,74.1047
182.4874,74.5422
182.4861,74.5494
182.4861,74.5494
182.4688,74.6411
182.4370,74.7033
182.3766,74.7385
182.3068,74.7355
182.2772,74.7207
182.2013,74.6691
182.2013,74.6691
182.2006,74.6686
182.2006,74.6686
182.1271,74.6188
182.1251,74.6175
182.1251,74.6175
182.0280,74.5523
182.0279,74.5523
182.0278,74.5522
182.0252,74.5505
181.9409,74.4947
181.9371,74.4922
181.9370,74.4922
181.8703,74.4488
181.8692,74.4482
181.8628,74.4441
181.8218,74.4185
181.8178,74.4160
181.8011,74.4063
181.7870,74.3982
181.7682,74.3882
181.7682,74.3882
181.7682,74.3882
181.6817,74.3520
181.5996,74.3385
181.5366,74.3083
181.5000,74.2488
181.4958,74.2087
181.5054,74.0500
181.4857,73.7239
181.4268,73.4025
181.3700,73.2202
181.3399,73.1237
181.3388,73.0539
181.3756,72.9945
181.4387,72.9644
181.5080,72.9732
181.5460,72.9992
181.5492,73.0023
181.6984,73.0944
181.6984,73.0944
181.8648,73.1495
181.8648,73.1495
181.9675,73.1600
182.1675,73.1600
182.6675,73.1600
182.8675,73.1600
182.8675,73.1600
182.9702,73.1495
183.1366,73.0944
183.1366,73.0944
183.2858,73.0023
183.4098,72.8783
183.5019,72.7291
183.5019,72.7291
183.5570,72.5627
183.5570,72.5627
183.5675,72.4600
183.5675,72.4600
183.5675,72.0600
182.6675,72.0600
182.6675,73.1600
182.1675,73.1600
182.1675,73.1600
182.1675,72.0600
181.2675,72.0600
181.2675,72.4600
181.2676,72.4610
181.2675,72.4612
181.2675,72.4631
181.2670,72.4631
181.2513,72.5290
181.2009,72.5773
181.1323,72.5908
181.0674,72.5650
181.0376,72.5314
181.0265,72.5131
181.0265,72.5131
180.8250,72.2560
180.5940,72.0250
180.3369,71.8235
180.2731,71.7849
180.0573,71.6545
179.7594,71.5204
179.7594,71.5204
179.7593,71.5204
179.4475,71.4232
179.1261,71.3643
178.8000,71.3446
178.4739,71.3643
178.1525,71.4232
177.8407,71.5204
177.8406,71.5204
177.8406,71.5204
177.7351,71.5679
177.5427,71.6545
177.5427,71.6545
177.2631,71.8235
177.0060,72.0250
176.7750,72.2560
176.5735,72.5131
176.4516,72.7148
176.4045,72.7927
176.2739,73.0827
176.2704,73.0906
176.2704,73.0907
176.1732,73.4025
176.1143,73.7239
176.0946,74.0500
176.1143,74.3761
176.1443,74.5398
176.1370,74.6093
176.0933,74.6638
176.0271,74.6861
175.9593,74.6690
175.9116,74.6180
175.9085,74.6114
175.7114,74.1550
175.7092,74.1494
175.6992,74.1230
175.4158,73.3694
175.4138,73.3637
175.4097,73.3509
175.1582,72.5704
175.1565,72.5648
174.9391,71.7601
174.9377,71.7544
174.8074,71.1600
181.2675,71.1600
181.2675,71.5600
182.1675,71.5600
182.6675,71.5600
183.5675,71.5600
183.5675,71.1600
183.5675,71.1600
183.5570,71.0573
183.5019,70.8909
183.5019,70.8909
183.4098,70.7417
183.2858,70.6177
183.1366,70.5256
183.1366,70.5256
182.9702,70.4705
182.9702,70.4705
182.8675,70.4600
182.6675,70.4600
182.6675,71.5600
182.1675,71.5600
182.1675,70.4600
181.9675,70.4600
181.9675,70.4600
181.8648,70.4705
181.6984,70.5256
181.6984,70.5256
181.5492,70.6177
181.4252,70.7417
181.3331,70.8909
181.3331,70.8909
181.2780,71.0573
181.2780,71.0573
181.2675,71.1600
174.8074,71.1600
174.7592,70.9403
174.7581,70.9344
174.6189,70.1127
174.6180,70.1068
174.5747,69.7478
174.5183,69.2793
174.5177,69.2734
174.5174,69.2687
174.4578,68.4421
174.4575,68.4362
174.4376,67.6030
174.4376,67.5970
174.4397,67.5075
174.4575,66.7638
174.4578,66.7579
174.5177,65.9266
174.5183,65.9207
174.5239,65.8739
174.6180,65.0932
174.6189,65.0873
174.6226,65.0654
174.7581,64.2656
174.7592,64.2597
174.7644,64.2365
174.9377,63.4456
174.9391,63.4399
175.1565,62.6352
175.1581,62.6296
175.4138,61.8362
175.4158,61.8307
175.7092,61.0505
175.7114,61.0451
176.0418,60.2799
176.0443,60.2745
176.4111,59.5260
176.4138,59.5208
176.4501,59.4550
183.9550,59.4550
183.9655,59.5577
184.0206,59.7241
184.0206,59.7241
184.1127,59.8733
184.2367,59.9973
184.3859,60.0894
184.3859,60.0894
184.5523,60.1445
184.5523,60.1445
184.6111,60.1505
184.6221,60.1550
184.6487,60.1550
184.6613,60.1556
184.6685,60.1564
184.6764,60.1550
184.7064,60.1550
184.7064,60.1550
185.5800,60.1550
186.0800,60.1550
187.1050,60.1550
187.6050,60.1550
188.6300,60.1550
189.1300,60.1550
190.0550,60.1550
190.0550,60.1550
190.1577,60.1445
190.3241,60.0894
190.3241,60.0894
190.4733,59.9973
190.5973,59.8733
190.6894,59.7241
190.6894,59.7241
190.7445,59.5577
190.7550,59.4550
190.7550,59.4550
190.7550,58.3800
189.1300,58.3800
189.1300,60.1550
188.6300,60.1550
188.6300,60.1550
188.6300,58.3800
187.6050,58.3800
187.6050,60.1550
187.1050,60.1550
187.1050,58.3800
186.0800,58.3800
186.0800,60.1550
185.5800,60.1550
185.5800,58.3800
183.9550,58.3800
183.9550,59.4550
176.4501,59.4550
176.8161,58.7908
176.8190,58.7857
177.2558,58.0758
177.2590,58.0709
177.3895,57.8800
183.9550,57.8800
183.9550,57.8800
185.5800,57.8800
186.0800,57.8800
187.1050,57.8800
187.6050,57.8800
188.6300,57.8800
189.1300,57.8800
190.7550,57.8800
190.7550,56.7050
189.1300,56.7050
189.1300,57.8800
188.6300,57.8800
188.6300,56.7050
187.6050,56.7050
187.6050,57.8800
187.1050,57.8800
187.1050,56.7050
186.0800,56.7050
186.0800,57.8800
185.5800,57.8800
185.5800,56.7050
183.9550,56.7050
183.9550,57.8800
177.3895,57.8800
177.7293,57.3827
177.7328,57.3780
178.2355,56.7132
178.2392,56.7085
178.2422,56.7050
178.6594,56.2050
183.9550,56.2050
185.5800,56.2050
186.0800,56.2050
187.1050,56.2050
187.6050,56.2050
188.6300,56.2050
189.1300,56.2050
190.7550,56.2050
190.7550,56.1111
190.7550,56.1111
190.7550,55.0300
189.1300,55.0300
189.1300,56.2050
188.6300,56.2050
188.6300,55.0300
187.6050,55.0300
187.6050,56.2050
187.1050,56.2050
187.1050,55.0300
186.0800,55.0300
186.0800,56.2050
185.5800,56.2050
185.5800,55.0300
183.9550,55.0300
183.9550,56.2050
178.6594,56.2050
178.7733,56.0686
178.7771,56.0642
179.3413,55.4506
179.3454,55.4464
179.9383,54.8605
179.9426,54.8565
180.5629,54.2998
180.5673,54.2959
181.2136,53.7696
181.2183,53.7660
181.6399,53.4550
183.9550,53.4550
183.9550,54.5300
185.5800,54.5300
186.0800,54.5300
187.1050,54.5300
187.6050,54.5300
188.6300,54.5300
189.1300,54.5300
190.7550,54.5300
190.7550,53.4550
190.7550,53.4550
190.7451,53.3586
190.7450,53.3552
190.7445,53.3523
190.6894,53.1859
190.6894,53.1859
190.5973,53.0367
190.4733,52.9127
190.3241,52.8206
190.3241,52.8206
190.1577,52.7655
190.0550,52.7550
189.1300,52.7550
189.1300,54.5300
188.6300,54.5300
188.6300,52.7550
187.6050,52.7550
187.6050,54.5300
187.1050,54.5300
187.1050,52.7550
186.0800,52.7550
186.0800,54.5300
185.5800,54.5300
185.5800,52.7550
184.6542,52.7550
184.6514,52.7554
184.5523,52.7655
184.3859,52.8206
184.3859,52.8206
184.2367,52.9127
184.1127,53.0367
184.0206,53.1859
184.0206,53.1859
183.9655,53.3523
183.9550,53.4550
181.6399,53.4550
181.8891,53.2712
181.8939,53.2678
182.5876,52.8058
182.5926,52.8027
183.3076,52.3744
183.3128,52.3715
184.0476,51.9780
184.0528,51.9754
184.8057,51.6176
184.8110,51.6152
185.5801,51.2939
185.5856,51.2918
186.3692,51.0078
186.3748,51.0059
187.1711,50.7598
187.1768,50.7582
187.9840,50.5505
187.9898,50.5492
188.8060,50.3804
188.8118,50.3794
189.6352,50.2500
189.6411,50.2492
190.4697,50.1594
190.4756,50.1589
191.3076,50.1090
191.3135,50.1088
192.1469,50.0988
Z" /> 
<path style="fill:#000000; fill-opacity:1.0000; stroke:none;fill-rule:evenodd;"
d="M 203.0503,68.1636
203.1062,68.2054
203.1086,68.2086
203.1315,68.2414
203.2986,68.4085
203.2986,68.4085
203.4846,68.5387
203.5282,68.5933
203.5354,68.6628
203.5039,68.7252
203.4846,68.7419
203.2989,68.8719
203.2989,68.8719
203.1319,69.0389
203.1319,69.0389
202.9964,69.2324
202.9964,69.2324
202.8966,69.4465
202.8966,69.4465
202.8394,69.6600
202.8394,69.6600
203.7370,69.6600
203.7041,69.7170
203.6700,69.8442
203.6700,69.9758
203.7041,70.1030
203.7370,70.1600
202.8394,70.1600
202.8966,70.3735
202.8966,70.3735
202.9964,70.5876
203.1319,70.7811
203.2989,70.9481
203.4846,71.0781
203.5282,71.1327
203.5354,71.2022
203.5039,71.2645
203.4846,71.2813
203.2986,71.4115
203.1315,71.5786
203.0839,71.6466
203.0293,71.6902
202.9823,71.6995
200.1940,71.6995
200.1270,71.6798
200.0812,71.6270
200.0700,71.5755
200.0700,71.0200
199.1190,71.0200
199.0520,71.0003
199.0062,70.9475
198.9950,70.8960
198.9950,70.5200
199.4950,70.5200
200.0700,70.5200
200.0700,69.8722
200.0700,69.8722
200.0636,69.8126
200.0636,69.8126
200.0134,69.6779
200.0134,69.6779
199.9272,69.5628
199.9272,69.5628
199.8121,69.4766
199.8121,69.4766
199.6774,69.4264
199.6774,69.4264
199.6178,69.4200
199.4950,69.4200
199.4950,70.5200
198.9950,70.5200
198.9950,69.4200
198.8722,69.4200
198.8126,69.4264
198.8126,69.4264
198.6779,69.4766
198.6701,69.4809
198.6684,69.4777
198.6191,69.4960
198.5508,69.4810
198.5490,69.4799
198.5423,69.4762
198.4075,69.4259
198.4075,69.4259
198.4075,69.4259
198.3479,69.4195
198.3479,69.4195
197.6021,69.4195
197.6021,69.4195
197.5927,69.4205
197.5240,69.4081
197.4729,69.3605
197.4555,69.2972
197.4555,69.0272
197.4752,68.9602
197.4918,68.9395
197.9045,68.5268
197.9659,68.4933
197.9922,68.4905
202.3839,68.4905
202.4815,68.4711
202.5289,68.4617
202.6655,68.4051
202.7173,68.3705
202.7173,68.3705
202.7173,68.3705
202.7528,68.3467
202.7884,68.3230
202.9193,68.1921
202.9806,68.1586
Z" /> 
</g>
<g style="fill:none; 
stroke:#000000; stroke-width:0.1000; stroke-opacity:1; 
stroke-linecap:round; stroke-linejoin:round;">
<circle cx="191.9400" cy="67.6000" r="17.5000" /> 
</g> 
</svg>
