<?xml version="1.0" standalone="no"?>
 <!DOCTYPE svg PUBLIC "-//W3C//DTD SVG 1.1//EN" 
 "http://www.w3.org/Graphics/SVG/1.1/DTD/svg11.dtd"> 
<svg
  xmlns:svg="http://www.w3.org/2000/svg"
  xmlns="http://www.w3.org/2000/svg"
  xmlns:xlink="http://www.w3.org/1999/xlink"
  version="1.1"
  width="297.0022mm" height="210.0072mm" viewBox="0.0000 0.0000 297.0022 210.0072">
<title>SVG Image created as circular PCB-B_Cu.svg date 2024/12/07 20:31:27 </title>
  <desc>Image generated by PCBNEW </desc>
<g style="fill:#000000; fill-opacity:1.0000;stroke:#000000; stroke-opacity:1.0000;
stroke-linecap:round; stroke-linejoin:round;"
 transform="translate(0 0) scale(1 1)">
</g>
<g style="fill:#000000; fill-opacity:1.0000; stroke:none;">
<circle cx="178.8000" cy="74.0500" r="2.2000" /> 
</g>
<g style="fill:#000000; fill-opacity:1.0000; stroke:none;">
<circle cx="178.4300" cy="69.7300" r="0.8500" /> 
<circle cx="178.4300" cy="67.1900" r="0.8500" /> 
<path style="fill:#000000; fill-opacity:1.0000; stroke:none;fill-rule:evenodd;"
d="M 177.5800,65.5000
177.5800,63.8000
179.2800,63.8000
179.2800,65.5000
Z" /> 
<circle cx="195.3900" cy="82.0075" r="0.7250" /> 
</g>
<g style="fill:#000000; fill-opacity:1.0000; stroke:none;">
<circle cx="194.3900" cy="79.3075" r="0.7250" /> 
</g>
<g style="fill:#000000; fill-opacity:1.0000; stroke:none;">
<circle cx="189.3900" cy="79.3075" r="0.7250" /> 
</g>
<g style="fill:#000000; fill-opacity:1.0000; stroke:none;">
<circle cx="188.3900" cy="82.0075" r="0.7250" /> 
</g>
<g style="fill:#000000; fill-opacity:1.0000; stroke:none;">
<circle cx="204.1700" cy="74.9900" r="0.8500" /> 
<circle cx="204.1700" cy="72.4500" r="0.8500" /> 
<circle cx="204.1700" cy="69.9100" r="0.8500" /> 
<circle cx="204.1700" cy="67.3700" r="0.8500" /> 
<circle cx="204.1700" cy="64.8300" r="0.8500" /> 
<circle cx="204.1700" cy="62.2900" r="0.8500" /> 
<path style="fill:#000000; fill-opacity:1.0000; stroke:none;fill-rule:evenodd;"
d="M 203.3200,60.6000
203.3200,58.9000
205.0200,58.9000
205.0200,60.6000
Z" /> 
</g>
<g style="fill:none; 
stroke:#000000; stroke-width:0.1000; stroke-opacity:1; 
stroke-linecap:round; stroke-linejoin:round;">
<circle cx="191.9400" cy="67.6000" r="17.5000" /> 
</g> 
</svg>
