<?xml version="1.0" standalone="no"?>
 <!DOCTYPE svg PUBLIC "-//W3C//DTD SVG 1.1//EN" 
 "http://www.w3.org/Graphics/SVG/1.1/DTD/svg11.dtd"> 
<svg
  xmlns:svg="http://www.w3.org/2000/svg"
  xmlns="http://www.w3.org/2000/svg"
  xmlns:xlink="http://www.w3.org/1999/xlink"
  version="1.1"
  width="297.0022mm" height="210.0072mm" viewBox="0.0000 0.0000 297.0022 210.0072">
<title>SVG Image created as circular PCB-B_Silkscreen.svg date 2024/12/07 20:31:33 </title>
  <desc>Image generated by PCBNEW </desc>
<g style="fill:#000000; fill-opacity:1.0000;stroke:#000000; stroke-opacity:1.0000;
stroke-linecap:round; stroke-linejoin:round;"
 transform="translate(0 0) scale(1 1)">
</g>
<g style="fill:none; 
stroke:#000000; stroke-width:0.1000; stroke-opacity:1; 
stroke-linecap:round; stroke-linejoin:round;">
<g transform="rotate(-270.000000 198.6600 73.9000)">
<text x="198.6600" y="73.9000"
transform="scale(-1 1) translate(-397.320000 0)"
textLength="2.7686" font-size="1.0667" lengthAdjust="spacingAndGlyphs"
text-anchor="start" opacity="0" stroke-opacity="0">PWM</text>
</g>
<g class="stroked-text"><desc>PWM</desc>
<path d="M198.7631 73.6437
L199.5631 73.6437
" />
<path d="M199.5631 73.6437
L199.5631 73.3390
" />
<path d="M199.5631 73.3390
L199.5250 73.2628
" />
<path d="M199.5250 73.2628
L199.4869 73.2247
" />
<path d="M199.4869 73.2247
L199.4107 73.1866
" />
<path d="M199.4107 73.1866
L199.2964 73.1866
" />
<path d="M199.2964 73.1866
L199.2202 73.2247
" />
<path d="M199.2202 73.2247
L199.1822 73.2628
" />
<path d="M199.1822 73.2628
L199.1441 73.3390
" />
<path d="M199.1441 73.3390
L199.1441 73.6437
" />
<path d="M199.5631 72.9199
L198.7631 72.7294
" />
<path d="M198.7631 72.7294
L199.3345 72.5771
" />
<path d="M199.3345 72.5771
L198.7631 72.4247
" />
<path d="M198.7631 72.4247
L199.5631 72.2342
" />
<path d="M198.7631 71.9294
L199.5631 71.9294
" />
<path d="M199.5631 71.9294
L198.9917 71.6628
" />
<path d="M198.9917 71.6628
L199.5631 71.3961
" />
<path d="M199.5631 71.3961
L198.7631 71.3961
" />
</g><g transform="rotate(-270.000000 200.0500 63.8800)">
<text x="200.0500" y="63.8800"
transform="scale(-1 1) translate(-400.100000 0)"
textLength="2.7686" font-size="1.0667" lengthAdjust="spacingAndGlyphs"
text-anchor="start" opacity="0" stroke-opacity="0">PWM</text>
</g>
<g class="stroked-text"><desc>PWM</desc>
<path d="M200.1531 63.6237
L200.9531 63.6237
" />
<path d="M200.9531 63.6237
L200.9531 63.3190
" />
<path d="M200.9531 63.3190
L200.9150 63.2428
" />
<path d="M200.9150 63.2428
L200.8769 63.2047
" />
<path d="M200.8769 63.2047
L200.8007 63.1666
" />
<path d="M200.8007 63.1666
L200.6864 63.1666
" />
<path d="M200.6864 63.1666
L200.6102 63.2047
" />
<path d="M200.6102 63.2047
L200.5722 63.2428
" />
<path d="M200.5722 63.2428
L200.5341 63.3190
" />
<path d="M200.5341 63.3190
L200.5341 63.6237
" />
<path d="M200.9531 62.8999
L200.1531 62.7094
" />
<path d="M200.1531 62.7094
L200.7245 62.5571
" />
<path d="M200.7245 62.5571
L200.1531 62.4047
" />
<path d="M200.1531 62.4047
L200.9531 62.2142
" />
<path d="M200.1531 61.9094
L200.9531 61.9094
" />
<path d="M200.9531 61.9094
L200.3817 61.6428
" />
<path d="M200.3817 61.6428
L200.9531 61.3761
" />
<path d="M200.9531 61.3761
L200.1531 61.3761
" />
</g><g transform="rotate(-270.000000 198.7000 60.8700)">
<text x="198.7000" y="60.8700"
transform="scale(-1 1) translate(-397.400000 0)"
textLength="2.7686" font-size="1.0667" lengthAdjust="spacingAndGlyphs"
text-anchor="start" opacity="0" stroke-opacity="0">PWM</text>
</g>
<g class="stroked-text"><desc>PWM</desc>
<path d="M198.8031 60.6137
L199.6031 60.6137
" />
<path d="M199.6031 60.6137
L199.6031 60.3090
" />
<path d="M199.6031 60.3090
L199.5650 60.2328
" />
<path d="M199.5650 60.2328
L199.5269 60.1947
" />
<path d="M199.5269 60.1947
L199.4507 60.1566
" />
<path d="M199.4507 60.1566
L199.3364 60.1566
" />
<path d="M199.3364 60.1566
L199.2602 60.1947
" />
<path d="M199.2602 60.1947
L199.2222 60.2328
" />
<path d="M199.2222 60.2328
L199.1841 60.3090
" />
<path d="M199.1841 60.3090
L199.1841 60.6137
" />
<path d="M199.6031 59.8899
L198.8031 59.6994
" />
<path d="M198.8031 59.6994
L199.3745 59.5471
" />
<path d="M199.3745 59.5471
L198.8031 59.3947
" />
<path d="M198.8031 59.3947
L199.6031 59.2042
" />
<path d="M198.8031 58.8994
L199.6031 58.8994
" />
<path d="M199.6031 58.8994
L199.0317 58.6328
" />
<path d="M199.0317 58.6328
L199.6031 58.3661
" />
<path d="M199.6031 58.3661
L198.8031 58.3661
" />
</g><g transform="rotate(-270.000000 201.2900 73.6000)">
<text x="201.2900" y="73.6000"
transform="scale(-1 1) translate(-402.580000 0)"
textLength="1.7019" font-size="1.0667" lengthAdjust="spacingAndGlyphs"
text-anchor="start" opacity="0" stroke-opacity="0">P4</text>
</g>
<g class="stroked-text"><desc>P4</desc>
<path d="M201.3931 73.3437
L202.1931 73.3437
" />
<path d="M202.1931 73.3437
L202.1931 73.0390
" />
<path d="M202.1931 73.0390
L202.1550 72.9628
" />
<path d="M202.1550 72.9628
L202.1169 72.9247
" />
<path d="M202.1169 72.9247
L202.0407 72.8866
" />
<path d="M202.0407 72.8866
L201.9264 72.8866
" />
<path d="M201.9264 72.8866
L201.8502 72.9247
" />
<path d="M201.8502 72.9247
L201.8122 72.9628
" />
<path d="M201.8122 72.9628
L201.7741 73.0390
" />
<path d="M201.7741 73.0390
L201.7741 73.3437
" />
<path d="M201.9264 72.2009
L201.3931 72.2009
" />
<path d="M202.2312 72.3914
L201.6598 72.5818
" />
<path d="M201.6598 72.5818
L201.6598 72.0866
" />
</g><g transform="rotate(-270.000000 201.4100 65.8200)">
<text x="201.4100" y="65.8200"
transform="scale(-1 1) translate(-402.820000 0)"
textLength="1.7019" font-size="1.0667" lengthAdjust="spacingAndGlyphs"
text-anchor="start" opacity="0" stroke-opacity="0">P2</text>
</g>
<g class="stroked-text"><desc>P2</desc>
<path d="M201.5131 65.5637
L202.3131 65.5637
" />
<path d="M202.3131 65.5637
L202.3131 65.2590
" />
<path d="M202.3131 65.2590
L202.2750 65.1828
" />
<path d="M202.2750 65.1828
L202.2369 65.1447
" />
<path d="M202.2369 65.1447
L202.1607 65.1066
" />
<path d="M202.1607 65.1066
L202.0464 65.1066
" />
<path d="M202.0464 65.1066
L201.9702 65.1447
" />
<path d="M201.9702 65.1447
L201.9322 65.1828
" />
<path d="M201.9322 65.1828
L201.8941 65.2590
" />
<path d="M201.8941 65.2590
L201.8941 65.5637
" />
<path d="M202.2369 64.8018
L202.2750 64.7637
" />
<path d="M202.2750 64.7637
L202.3131 64.6875
" />
<path d="M202.3131 64.6875
L202.3131 64.4971
" />
<path d="M202.3131 64.4971
L202.2750 64.4209
" />
<path d="M202.2750 64.4209
L202.2369 64.3828
" />
<path d="M202.2369 64.3828
L202.1607 64.3447
" />
<path d="M202.1607 64.3447
L202.0845 64.3447
" />
<path d="M202.0845 64.3447
L201.9702 64.3828
" />
<path d="M201.9702 64.3828
L201.5131 64.8399
" />
<path d="M201.5131 64.8399
L201.5131 64.3447
" />
</g><g transform="rotate(-270.000000 200.0300 73.8600)">
<text x="200.0300" y="73.8600"
transform="scale(-1 1) translate(-400.060000 0)"
textLength="3.5305" font-size="1.0667" lengthAdjust="spacingAndGlyphs"
text-anchor="start" opacity="0" stroke-opacity="0">USB-</text>
</g>
<g class="stroked-text"><desc>USB-</desc>
<path d="M200.9331 73.6037
L200.2855 73.6037
" />
<path d="M200.2855 73.6037
L200.2093 73.5656
" />
<path d="M200.2093 73.5656
L200.1712 73.5275
" />
<path d="M200.1712 73.5275
L200.1331 73.4514
" />
<path d="M200.1331 73.4514
L200.1331 73.2990
" />
<path d="M200.1331 73.2990
L200.1712 73.2228
" />
<path d="M200.1712 73.2228
L200.2093 73.1847
" />
<path d="M200.2093 73.1847
L200.2855 73.1466
" />
<path d="M200.2855 73.1466
L200.9331 73.1466
" />
<path d="M200.1712 72.8037
L200.1331 72.6894
" />
<path d="M200.1331 72.6894
L200.1331 72.4990
" />
<path d="M200.1331 72.4990
L200.1712 72.4228
" />
<path d="M200.1712 72.4228
L200.2093 72.3847
" />
<path d="M200.2093 72.3847
L200.2855 72.3466
" />
<path d="M200.2855 72.3466
L200.3617 72.3466
" />
<path d="M200.3617 72.3466
L200.4379 72.3847
" />
<path d="M200.4379 72.3847
L200.4760 72.4228
" />
<path d="M200.4760 72.4228
L200.5141 72.4990
" />
<path d="M200.5141 72.4990
L200.5522 72.6514
" />
<path d="M200.5522 72.6514
L200.5902 72.7275
" />
<path d="M200.5902 72.7275
L200.6283 72.7656
" />
<path d="M200.6283 72.7656
L200.7045 72.8037
" />
<path d="M200.7045 72.8037
L200.7807 72.8037
" />
<path d="M200.7807 72.8037
L200.8569 72.7656
" />
<path d="M200.8569 72.7656
L200.8950 72.7275
" />
<path d="M200.8950 72.7275
L200.9331 72.6514
" />
<path d="M200.9331 72.6514
L200.9331 72.4609
" />
<path d="M200.9331 72.4609
L200.8950 72.3466
" />
<path d="M200.5522 71.7371
L200.5141 71.6228
" />
<path d="M200.5141 71.6228
L200.4760 71.5847
" />
<path d="M200.4760 71.5847
L200.3998 71.5466
" />
<path d="M200.3998 71.5466
L200.2855 71.5466
" />
<path d="M200.2855 71.5466
L200.2093 71.5847
" />
<path d="M200.2093 71.5847
L200.1712 71.6228
" />
<path d="M200.1712 71.6228
L200.1331 71.6990
" />
<path d="M200.1331 71.6990
L200.1331 72.0037
" />
<path d="M200.1331 72.0037
L200.9331 72.0037
" />
<path d="M200.9331 72.0037
L200.9331 71.7371
" />
<path d="M200.9331 71.7371
L200.8950 71.6609
" />
<path d="M200.8950 71.6609
L200.8569 71.6228
" />
<path d="M200.8569 71.6228
L200.7807 71.5847
" />
<path d="M200.7807 71.5847
L200.7045 71.5847
" />
<path d="M200.7045 71.5847
L200.6283 71.6228
" />
<path d="M200.6283 71.6228
L200.5902 71.6609
" />
<path d="M200.5902 71.6609
L200.5522 71.7371
" />
<path d="M200.5522 71.7371
L200.5522 72.0037
" />
<path d="M200.4379 71.2037
L200.4379 70.5942
" />
</g><g transform="rotate(-270.000000 200.0100 60.7100)">
<text x="200.0100" y="60.7100"
transform="scale(-1 1) translate(-400.020000 0)"
textLength="2.3876" font-size="1.0667" lengthAdjust="spacingAndGlyphs"
text-anchor="start" opacity="0" stroke-opacity="0">SDA</text>
</g>
<g class="stroked-text"><desc>SDA</desc>
<path d="M200.1512 60.4918
L200.1131 60.3775
" />
<path d="M200.1131 60.3775
L200.1131 60.1871
" />
<path d="M200.1131 60.1871
L200.1512 60.1109
" />
<path d="M200.1512 60.1109
L200.1893 60.0728
" />
<path d="M200.1893 60.0728
L200.2655 60.0347
" />
<path d="M200.2655 60.0347
L200.3417 60.0347
" />
<path d="M200.3417 60.0347
L200.4179 60.0728
" />
<path d="M200.4179 60.0728
L200.4560 60.1109
" />
<path d="M200.4560 60.1109
L200.4941 60.1871
" />
<path d="M200.4941 60.1871
L200.5322 60.3394
" />
<path d="M200.5322 60.3394
L200.5702 60.4156
" />
<path d="M200.5702 60.4156
L200.6083 60.4537
" />
<path d="M200.6083 60.4537
L200.6845 60.4918
" />
<path d="M200.6845 60.4918
L200.7607 60.4918
" />
<path d="M200.7607 60.4918
L200.8369 60.4537
" />
<path d="M200.8369 60.4537
L200.8750 60.4156
" />
<path d="M200.8750 60.4156
L200.9131 60.3394
" />
<path d="M200.9131 60.3394
L200.9131 60.1490
" />
<path d="M200.9131 60.1490
L200.8750 60.0347
" />
<path d="M200.1131 59.6918
L200.9131 59.6918
" />
<path d="M200.9131 59.6918
L200.9131 59.5014
" />
<path d="M200.9131 59.5014
L200.8750 59.3871
" />
<path d="M200.8750 59.3871
L200.7988 59.3109
" />
<path d="M200.7988 59.3109
L200.7226 59.2728
" />
<path d="M200.7226 59.2728
L200.5702 59.2347
" />
<path d="M200.5702 59.2347
L200.4560 59.2347
" />
<path d="M200.4560 59.2347
L200.3036 59.2728
" />
<path d="M200.3036 59.2728
L200.2274 59.3109
" />
<path d="M200.2274 59.3109
L200.1512 59.3871
" />
<path d="M200.1512 59.3871
L200.1131 59.5014
" />
<path d="M200.1131 59.5014
L200.1131 59.6918
" />
<path d="M200.3417 58.9299
L200.3417 58.5490
" />
<path d="M200.1131 59.0061
L200.9131 58.7394
" />
<path d="M200.9131 58.7394
L200.1131 58.4728
" />
</g><g transform="rotate(-270.000000 201.3100 75.9000)">
<text x="201.3100" y="75.9000"
transform="scale(-1 1) translate(-402.620000 0)"
textLength="1.7019" font-size="1.0667" lengthAdjust="spacingAndGlyphs"
text-anchor="start" opacity="0" stroke-opacity="0">P5</text>
</g>
<g class="stroked-text"><desc>P5</desc>
<path d="M201.4131 75.6437
L202.2131 75.6437
" />
<path d="M202.2131 75.6437
L202.2131 75.3390
" />
<path d="M202.2131 75.3390
L202.1750 75.2628
" />
<path d="M202.1750 75.2628
L202.1369 75.2247
" />
<path d="M202.1369 75.2247
L202.0607 75.1866
" />
<path d="M202.0607 75.1866
L201.9464 75.1866
" />
<path d="M201.9464 75.1866
L201.8702 75.2247
" />
<path d="M201.8702 75.2247
L201.8322 75.2628
" />
<path d="M201.8322 75.2628
L201.7941 75.3390
" />
<path d="M201.7941 75.3390
L201.7941 75.6437
" />
<path d="M202.2131 74.4628
L202.2131 74.8437
" />
<path d="M202.2131 74.8437
L201.8322 74.8818
" />
<path d="M201.8322 74.8818
L201.8702 74.8437
" />
<path d="M201.8702 74.8437
L201.9083 74.7675
" />
<path d="M201.9083 74.7675
L201.9083 74.5771
" />
<path d="M201.9083 74.5771
L201.8702 74.5009
" />
<path d="M201.8702 74.5009
L201.8322 74.4628
" />
<path d="M201.8322 74.4628
L201.7560 74.4247
" />
<path d="M201.7560 74.4247
L201.5655 74.4247
" />
<path d="M201.5655 74.4247
L201.4893 74.4628
" />
<path d="M201.4893 74.4628
L201.4512 74.5009
" />
<path d="M201.4512 74.5009
L201.4131 74.5771
" />
<path d="M201.4131 74.5771
L201.4131 74.7675
" />
<path d="M201.4131 74.7675
L201.4512 74.8437
" />
<path d="M201.4512 74.8437
L201.4893 74.8818
" />
</g><g transform="rotate(-270.000000 181.1000 65.4000)">
<text x="181.1000" y="65.4000"
transform="scale(-1 1) translate(-362.200000 0)"
textLength="2.0448" font-size="1.0667" lengthAdjust="spacingAndGlyphs"
text-anchor="start" opacity="0" stroke-opacity="0">VIN</text>
</g>
<g class="stroked-text"><desc>VIN</desc>
<path d="M182.0031 65.2580
L181.2031 64.9914
" />
<path d="M181.2031 64.9914
L182.0031 64.7247
" />
<path d="M181.2031 64.4580
L182.0031 64.4580
" />
<path d="M181.2031 64.0771
L182.0031 64.0771
" />
<path d="M182.0031 64.0771
L181.2031 63.6199
" />
<path d="M181.2031 63.6199
L182.0031 63.6199
" />
</g><g transform="rotate(-270.000000 181.0750 70.5250)">
<text x="181.0750" y="70.5250"
transform="scale(-1 1) translate(-362.150000 0)"
textLength="1.5876" font-size="1.0667" lengthAdjust="spacingAndGlyphs"
text-anchor="start" opacity="0" stroke-opacity="0">5V</text>
</g>
<g class="stroked-text"><desc>5V</desc>
<path d="M181.9781 69.8878
L181.9781 70.2687
" />
<path d="M181.9781 70.2687
L181.5972 70.3068
" />
<path d="M181.5972 70.3068
L181.6352 70.2687
" />
<path d="M181.6352 70.2687
L181.6733 70.1925
" />
<path d="M181.6733 70.1925
L181.6733 70.0021
" />
<path d="M181.6733 70.0021
L181.6352 69.9259
" />
<path d="M181.6352 69.9259
L181.5972 69.8878
" />
<path d="M181.5972 69.8878
L181.5210 69.8497
" />
<path d="M181.5210 69.8497
L181.3305 69.8497
" />
<path d="M181.3305 69.8497
L181.2543 69.8878
" />
<path d="M181.2543 69.8878
L181.2162 69.9259
" />
<path d="M181.2162 69.9259
L181.1781 70.0021
" />
<path d="M181.1781 70.0021
L181.1781 70.1925
" />
<path d="M181.1781 70.1925
L181.2162 70.2687
" />
<path d="M181.2162 70.2687
L181.2543 70.3068
" />
<path d="M181.9781 69.6211
L181.1781 69.3544
" />
<path d="M181.1781 69.3544
L181.9781 69.0878
" />
</g><g transform="rotate(-270.000000 181.0750 68.2500)">
<text x="181.0750" y="68.2500"
transform="scale(-1 1) translate(-362.150000 0)"
textLength="2.3876" font-size="1.0667" lengthAdjust="spacingAndGlyphs"
text-anchor="start" opacity="0" stroke-opacity="0">Gnd</text>
</g>
<g class="stroked-text"><desc>Gnd</desc>
<path d="M181.9400 67.5747
L181.9781 67.6509
" />
<path d="M181.9781 67.6509
L181.9781 67.7652
" />
<path d="M181.9781 67.7652
L181.9400 67.8794
" />
<path d="M181.9400 67.8794
L181.8638 67.9556
" />
<path d="M181.8638 67.9556
L181.7876 67.9937
" />
<path d="M181.7876 67.9937
L181.6352 68.0318
" />
<path d="M181.6352 68.0318
L181.5210 68.0318
" />
<path d="M181.5210 68.0318
L181.3686 67.9937
" />
<path d="M181.3686 67.9937
L181.2924 67.9556
" />
<path d="M181.2924 67.9556
L181.2162 67.8794
" />
<path d="M181.2162 67.8794
L181.1781 67.7652
" />
<path d="M181.1781 67.7652
L181.1781 67.6890
" />
<path d="M181.1781 67.6890
L181.2162 67.5747
" />
<path d="M181.2162 67.5747
L181.2543 67.5366
" />
<path d="M181.2543 67.5366
L181.5210 67.5366
" />
<path d="M181.5210 67.5366
L181.5210 67.6890
" />
<path d="M181.7114 67.1937
L181.1781 67.1937
" />
<path d="M181.6352 67.1937
L181.6733 67.1556
" />
<path d="M181.6733 67.1556
L181.7114 67.0794
" />
<path d="M181.7114 67.0794
L181.7114 66.9652
" />
<path d="M181.7114 66.9652
L181.6733 66.8890
" />
<path d="M181.6733 66.8890
L181.5972 66.8509
" />
<path d="M181.5972 66.8509
L181.1781 66.8509
" />
<path d="M181.1781 66.1271
L181.9781 66.1271
" />
<path d="M181.2162 66.1271
L181.1781 66.2033
" />
<path d="M181.1781 66.2033
L181.1781 66.3556
" />
<path d="M181.1781 66.3556
L181.2162 66.4318
" />
<path d="M181.2162 66.4318
L181.2543 66.4699
" />
<path d="M181.2543 66.4699
L181.3305 66.5080
" />
<path d="M181.3305 66.5080
L181.5591 66.5080
" />
<path d="M181.5591 66.5080
L181.6352 66.4699
" />
<path d="M181.6352 66.4699
L181.6733 66.4318
" />
<path d="M181.6733 66.4318
L181.7114 66.3556
" />
<path d="M181.7114 66.3556
L181.7114 66.2033
" />
<path d="M181.7114 66.2033
L181.6733 66.1271
" />
</g><g transform="rotate(-270.000000 201.3800 68.4100)">
<text x="201.3800" y="68.4100"
transform="scale(-1 1) translate(-402.760000 0)"
textLength="1.7019" font-size="1.0667" lengthAdjust="spacingAndGlyphs"
text-anchor="start" opacity="0" stroke-opacity="0">P3</text>
</g>
<g class="stroked-text"><desc>P3</desc>
<path d="M201.4831 68.1537
L202.2831 68.1537
" />
<path d="M202.2831 68.1537
L202.2831 67.8490
" />
<path d="M202.2831 67.8490
L202.2450 67.7728
" />
<path d="M202.2450 67.7728
L202.2069 67.7347
" />
<path d="M202.2069 67.7347
L202.1307 67.6966
" />
<path d="M202.1307 67.6966
L202.0164 67.6966
" />
<path d="M202.0164 67.6966
L201.9402 67.7347
" />
<path d="M201.9402 67.7347
L201.9022 67.7728
" />
<path d="M201.9022 67.7728
L201.8641 67.8490
" />
<path d="M201.8641 67.8490
L201.8641 68.1537
" />
<path d="M202.2831 67.4299
L202.2831 66.9347
" />
<path d="M202.2831 66.9347
L201.9783 67.2014
" />
<path d="M201.9783 67.2014
L201.9783 67.0871
" />
<path d="M201.9783 67.0871
L201.9402 67.0109
" />
<path d="M201.9402 67.0109
L201.9022 66.9728
" />
<path d="M201.9022 66.9728
L201.8260 66.9347
" />
<path d="M201.8260 66.9347
L201.6355 66.9347
" />
<path d="M201.6355 66.9347
L201.5593 66.9728
" />
<path d="M201.5593 66.9728
L201.5212 67.0109
" />
<path d="M201.5212 67.0109
L201.4831 67.0871
" />
<path d="M201.4831 67.0871
L201.4831 67.3156
" />
<path d="M201.4831 67.3156
L201.5212 67.3918
" />
<path d="M201.5212 67.3918
L201.5593 67.4299
" />
</g><g transform="rotate(-270.000000 200.0300 66.4800)">
<text x="200.0300" y="66.4800"
transform="scale(-1 1) translate(-400.060000 0)"
textLength="2.5019" font-size="1.0667" lengthAdjust="spacingAndGlyphs"
text-anchor="start" opacity="0" stroke-opacity="0">SCK</text>
</g>
<g class="stroked-text"><desc>SCK</desc>
<path d="M200.1712 66.2618
L200.1331 66.1475
" />
<path d="M200.1331 66.1475
L200.1331 65.9571
" />
<path d="M200.1331 65.9571
L200.1712 65.8809
" />
<path d="M200.1712 65.8809
L200.2093 65.8428
" />
<path d="M200.2093 65.8428
L200.2855 65.8047
" />
<path d="M200.2855 65.8047
L200.3617 65.8047
" />
<path d="M200.3617 65.8047
L200.4379 65.8428
" />
<path d="M200.4379 65.8428
L200.4760 65.8809
" />
<path d="M200.4760 65.8809
L200.5141 65.9571
" />
<path d="M200.5141 65.9571
L200.5522 66.1094
" />
<path d="M200.5522 66.1094
L200.5902 66.1856
" />
<path d="M200.5902 66.1856
L200.6283 66.2237
" />
<path d="M200.6283 66.2237
L200.7045 66.2618
" />
<path d="M200.7045 66.2618
L200.7807 66.2618
" />
<path d="M200.7807 66.2618
L200.8569 66.2237
" />
<path d="M200.8569 66.2237
L200.8950 66.1856
" />
<path d="M200.8950 66.1856
L200.9331 66.1094
" />
<path d="M200.9331 66.1094
L200.9331 65.9190
" />
<path d="M200.9331 65.9190
L200.8950 65.8047
" />
<path d="M200.2093 65.0047
L200.1712 65.0428
" />
<path d="M200.1712 65.0428
L200.1331 65.1571
" />
<path d="M200.1331 65.1571
L200.1331 65.2333
" />
<path d="M200.1331 65.2333
L200.1712 65.3475
" />
<path d="M200.1712 65.3475
L200.2474 65.4237
" />
<path d="M200.2474 65.4237
L200.3236 65.4618
" />
<path d="M200.3236 65.4618
L200.4760 65.4999
" />
<path d="M200.4760 65.4999
L200.5902 65.4999
" />
<path d="M200.5902 65.4999
L200.7426 65.4618
" />
<path d="M200.7426 65.4618
L200.8188 65.4237
" />
<path d="M200.8188 65.4237
L200.8950 65.3475
" />
<path d="M200.8950 65.3475
L200.9331 65.2333
" />
<path d="M200.9331 65.2333
L200.9331 65.1571
" />
<path d="M200.9331 65.1571
L200.8950 65.0428
" />
<path d="M200.8950 65.0428
L200.8569 65.0047
" />
<path d="M200.1331 64.6618
L200.9331 64.6618
" />
<path d="M200.1331 64.2047
L200.5902 64.5475
" />
<path d="M200.9331 64.2047
L200.4760 64.6618
" />
</g><g transform="rotate(-270.000000 201.4600 63.2500)">
<text x="201.4600" y="63.2500"
transform="scale(-1 1) translate(-402.920000 0)"
textLength="1.7019" font-size="1.0667" lengthAdjust="spacingAndGlyphs"
text-anchor="start" opacity="0" stroke-opacity="0">P1</text>
</g>
<g class="stroked-text"><desc>P1</desc>
<path d="M201.5631 62.9937
L202.3631 62.9937
" />
<path d="M202.3631 62.9937
L202.3631 62.6890
" />
<path d="M202.3631 62.6890
L202.3250 62.6128
" />
<path d="M202.3250 62.6128
L202.2869 62.5747
" />
<path d="M202.2869 62.5747
L202.2107 62.5366
" />
<path d="M202.2107 62.5366
L202.0964 62.5366
" />
<path d="M202.0964 62.5366
L202.0202 62.5747
" />
<path d="M202.0202 62.5747
L201.9822 62.6128
" />
<path d="M201.9822 62.6128
L201.9441 62.6890
" />
<path d="M201.9441 62.6890
L201.9441 62.9937
" />
<path d="M201.5631 61.7747
L201.5631 62.2318
" />
<path d="M201.5631 62.0033
L202.3631 62.0033
" />
<path d="M202.3631 62.0033
L202.2488 62.0794
" />
<path d="M202.2488 62.0794
L202.1726 62.1556
" />
<path d="M202.1726 62.1556
L202.1345 62.2318
" />
</g><g transform="rotate(-270.000000 201.3800 71.3700)">
<text x="201.3800" y="71.3700"
transform="scale(-1 1) translate(-402.760000 0)"
textLength="2.3876" font-size="1.0667" lengthAdjust="spacingAndGlyphs"
text-anchor="start" opacity="0" stroke-opacity="0">Gnd</text>
</g>
<g class="stroked-text"><desc>Gnd</desc>
<path d="M202.2450 70.6947
L202.2831 70.7709
" />
<path d="M202.2831 70.7709
L202.2831 70.8852
" />
<path d="M202.2831 70.8852
L202.2450 70.9994
" />
<path d="M202.2450 70.9994
L202.1688 71.0756
" />
<path d="M202.1688 71.0756
L202.0926 71.1137
" />
<path d="M202.0926 71.1137
L201.9402 71.1518
" />
<path d="M201.9402 71.1518
L201.8260 71.1518
" />
<path d="M201.8260 71.1518
L201.6736 71.1137
" />
<path d="M201.6736 71.1137
L201.5974 71.0756
" />
<path d="M201.5974 71.0756
L201.5212 70.9994
" />
<path d="M201.5212 70.9994
L201.4831 70.8852
" />
<path d="M201.4831 70.8852
L201.4831 70.8090
" />
<path d="M201.4831 70.8090
L201.5212 70.6947
" />
<path d="M201.5212 70.6947
L201.5593 70.6566
" />
<path d="M201.5593 70.6566
L201.8260 70.6566
" />
<path d="M201.8260 70.6566
L201.8260 70.8090
" />
<path d="M202.0164 70.3137
L201.4831 70.3137
" />
<path d="M201.9402 70.3137
L201.9783 70.2756
" />
<path d="M201.9783 70.2756
L202.0164 70.1994
" />
<path d="M202.0164 70.1994
L202.0164 70.0852
" />
<path d="M202.0164 70.0852
L201.9783 70.0090
" />
<path d="M201.9783 70.0090
L201.9022 69.9709
" />
<path d="M201.9022 69.9709
L201.4831 69.9709
" />
<path d="M201.4831 69.2471
L202.2831 69.2471
" />
<path d="M201.5212 69.2471
L201.4831 69.3233
" />
<path d="M201.4831 69.3233
L201.4831 69.4756
" />
<path d="M201.4831 69.4756
L201.5212 69.5518
" />
<path d="M201.5212 69.5518
L201.5593 69.5899
" />
<path d="M201.5593 69.5899
L201.6355 69.6280
" />
<path d="M201.6355 69.6280
L201.8641 69.6280
" />
<path d="M201.8641 69.6280
L201.9402 69.5899
" />
<path d="M201.9402 69.5899
L201.9783 69.5518
" />
<path d="M201.9783 69.5518
L202.0164 69.4756
" />
<path d="M202.0164 69.4756
L202.0164 69.3233
" />
<path d="M202.0164 69.3233
L201.9783 69.2471
" />
</g><g transform="rotate(-270.000000 201.4700 60.2900)">
<text x="201.4700" y="60.2900"
transform="scale(-1 1) translate(-402.940000 0)"
textLength="1.7019" font-size="1.0667" lengthAdjust="spacingAndGlyphs"
text-anchor="start" opacity="0" stroke-opacity="0">P0</text>
</g>
<g class="stroked-text"><desc>P0</desc>
<path d="M201.5731 60.0337
L202.3731 60.0337
" />
<path d="M202.3731 60.0337
L202.3731 59.7290
" />
<path d="M202.3731 59.7290
L202.3350 59.6528
" />
<path d="M202.3350 59.6528
L202.2969 59.6147
" />
<path d="M202.2969 59.6147
L202.2207 59.5766
" />
<path d="M202.2207 59.5766
L202.1064 59.5766
" />
<path d="M202.1064 59.5766
L202.0302 59.6147
" />
<path d="M202.0302 59.6147
L201.9922 59.6528
" />
<path d="M201.9922 59.6528
L201.9541 59.7290
" />
<path d="M201.9541 59.7290
L201.9541 60.0337
" />
<path d="M202.3731 59.0814
L202.3731 59.0052
" />
<path d="M202.3731 59.0052
L202.3350 58.9290
" />
<path d="M202.3350 58.9290
L202.2969 58.8909
" />
<path d="M202.2969 58.8909
L202.2207 58.8528
" />
<path d="M202.2207 58.8528
L202.0683 58.8147
" />
<path d="M202.0683 58.8147
L201.8779 58.8147
" />
<path d="M201.8779 58.8147
L201.7255 58.8528
" />
<path d="M201.7255 58.8528
L201.6493 58.8909
" />
<path d="M201.6493 58.8909
L201.6112 58.9290
" />
<path d="M201.6112 58.9290
L201.5731 59.0052
" />
<path d="M201.5731 59.0052
L201.5731 59.0814
" />
<path d="M201.5731 59.0814
L201.6112 59.1575
" />
<path d="M201.6112 59.1575
L201.6493 59.1956
" />
<path d="M201.6493 59.1956
L201.7255 59.2337
" />
<path d="M201.7255 59.2337
L201.8779 59.2718
" />
<path d="M201.8779 59.2718
L202.0683 59.2718
" />
<path d="M202.0683 59.2718
L202.2207 59.2337
" />
<path d="M202.2207 59.2337
L202.2969 59.1956
" />
<path d="M202.2969 59.1956
L202.3350 59.1575
" />
<path d="M202.3350 59.1575
L202.3731 59.0814
" />
</g><g transform="rotate(-270.000000 197.3000 60.9900)">
<text x="197.3000" y="60.9900"
transform="scale(-1 1) translate(-394.600000 0)"
textLength="3.6448" font-size="1.0667" lengthAdjust="spacingAndGlyphs"
text-anchor="start" opacity="0" stroke-opacity="0">AREF </text>
</g>
<g class="stroked-text"><desc>AREF </desc>
<path d="M197.6317 60.7718
L197.6317 60.3909
" />
<path d="M197.4031 60.8480
L198.2031 60.5814
" />
<path d="M198.2031 60.5814
L197.4031 60.3147
" />
<path d="M197.4031 59.5909
L197.7841 59.8575
" />
<path d="M197.4031 60.0480
L198.2031 60.0480
" />
<path d="M198.2031 60.0480
L198.2031 59.7433
" />
<path d="M198.2031 59.7433
L198.1650 59.6671
" />
<path d="M198.1650 59.6671
L198.1269 59.6290
" />
<path d="M198.1269 59.6290
L198.0507 59.5909
" />
<path d="M198.0507 59.5909
L197.9364 59.5909
" />
<path d="M197.9364 59.5909
L197.8602 59.6290
" />
<path d="M197.8602 59.6290
L197.8222 59.6671
" />
<path d="M197.8222 59.6671
L197.7841 59.7433
" />
<path d="M197.7841 59.7433
L197.7841 60.0480
" />
<path d="M197.8222 59.2480
L197.8222 58.9814
" />
<path d="M197.4031 58.8671
L197.4031 59.2480
" />
<path d="M197.4031 59.2480
L198.2031 59.2480
" />
<path d="M198.2031 59.2480
L198.2031 58.8671
" />
<path d="M197.8222 58.2575
L197.8222 58.5242
" />
<path d="M197.4031 58.5242
L198.2031 58.5242
" />
<path d="M198.2031 58.5242
L198.2031 58.1433
" />
</g><g transform="rotate(-270.000000 198.7000 68.8500)">
<text x="198.7000" y="68.8500"
transform="scale(-1 1) translate(-397.400000 0)"
textLength="3.5305" font-size="1.0667" lengthAdjust="spacingAndGlyphs"
text-anchor="start" opacity="0" stroke-opacity="0">USB+</text>
</g>
<g class="stroked-text"><desc>USB+</desc>
<path d="M199.6031 68.5937
L198.9555 68.5937
" />
<path d="M198.9555 68.5937
L198.8793 68.5556
" />
<path d="M198.8793 68.5556
L198.8412 68.5175
" />
<path d="M198.8412 68.5175
L198.8031 68.4414
" />
<path d="M198.8031 68.4414
L198.8031 68.2890
" />
<path d="M198.8031 68.2890
L198.8412 68.2128
" />
<path d="M198.8412 68.2128
L198.8793 68.1747
" />
<path d="M198.8793 68.1747
L198.9555 68.1366
" />
<path d="M198.9555 68.1366
L199.6031 68.1366
" />
<path d="M198.8412 67.7937
L198.8031 67.6794
" />
<path d="M198.8031 67.6794
L198.8031 67.4890
" />
<path d="M198.8031 67.4890
L198.8412 67.4128
" />
<path d="M198.8412 67.4128
L198.8793 67.3747
" />
<path d="M198.8793 67.3747
L198.9555 67.3366
" />
<path d="M198.9555 67.3366
L199.0317 67.3366
" />
<path d="M199.0317 67.3366
L199.1079 67.3747
" />
<path d="M199.1079 67.3747
L199.1460 67.4128
" />
<path d="M199.1460 67.4128
L199.1841 67.4890
" />
<path d="M199.1841 67.4890
L199.2222 67.6414
" />
<path d="M199.2222 67.6414
L199.2602 67.7175
" />
<path d="M199.2602 67.7175
L199.2983 67.7556
" />
<path d="M199.2983 67.7556
L199.3745 67.7937
" />
<path d="M199.3745 67.7937
L199.4507 67.7937
" />
<path d="M199.4507 67.7937
L199.5269 67.7556
" />
<path d="M199.5269 67.7556
L199.5650 67.7175
" />
<path d="M199.5650 67.7175
L199.6031 67.6414
" />
<path d="M199.6031 67.6414
L199.6031 67.4509
" />
<path d="M199.6031 67.4509
L199.5650 67.3366
" />
<path d="M199.2222 66.7271
L199.1841 66.6128
" />
<path d="M199.1841 66.6128
L199.1460 66.5747
" />
<path d="M199.1460 66.5747
L199.0698 66.5366
" />
<path d="M199.0698 66.5366
L198.9555 66.5366
" />
<path d="M198.9555 66.5366
L198.8793 66.5747
" />
<path d="M198.8793 66.5747
L198.8412 66.6128
" />
<path d="M198.8412 66.6128
L198.8031 66.6890
" />
<path d="M198.8031 66.6890
L198.8031 66.9937
" />
<path d="M198.8031 66.9937
L199.6031 66.9937
" />
<path d="M199.6031 66.9937
L199.6031 66.7271
" />
<path d="M199.6031 66.7271
L199.5650 66.6509
" />
<path d="M199.5650 66.6509
L199.5269 66.6128
" />
<path d="M199.5269 66.6128
L199.4507 66.5747
" />
<path d="M199.4507 66.5747
L199.3745 66.5747
" />
<path d="M199.3745 66.5747
L199.2983 66.6128
" />
<path d="M199.2983 66.6128
L199.2602 66.6509
" />
<path d="M199.2602 66.6509
L199.2222 66.7271
" />
<path d="M199.2222 66.7271
L199.2222 66.9937
" />
<path d="M199.1079 66.1937
L199.1079 65.5842
" />
<path d="M198.8031 65.8890
L199.4126 65.8890
" />
</g><path style="fill:#000000; fill-opacity:1.0000; 
stroke:#000000; stroke-width:0.0100; stroke-opacity:1; 
stroke-linecap:round; stroke-linejoin:round;fill-rule:evenodd;"
d="M 185.4094,66.9127
185.4241,66.9364
185.4309,66.9594
185.4251,66.9804
185.4094,67.0061
185.3878,67.0328
184.7403,67.0328
184.7187,67.0061
184.7013,66.9748
184.7004,66.9390
184.7209,66.9075
184.7256,66.9037
184.7351,66.8982
184.7487,66.8940
184.7693,66.8909
184.7992,66.8887
184.8413,66.8873
184.8981,66.8865
184.9722,66.8861
185.0662,66.8860
185.3878,66.8860
Z" /> 
<path style="fill:#000000; fill-opacity:1.0000; 
stroke:#000000; stroke-width:0.0100; stroke-opacity:1; 
stroke-linecap:round; stroke-linejoin:round;fill-rule:evenodd;"
d="M 185.1397,74.0263
185.2176,74.0265
185.2776,74.0272
185.3224,74.0284
185.3544,74.0303
185.3764,74.0332
185.3910,74.0371
185.4008,74.0422
185.4084,74.0488
185.4274,74.0780
185.4265,74.1111
185.4032,74.1453
185.3755,74.1730
185.0625,74.1730
184.9784,74.1730
184.9042,74.1727
184.8475,74.1720
184.8055,74.1708
184.7756,74.1687
184.7551,74.1656
184.7414,74.1613
184.7317,74.1557
184.7233,74.1485
184.7018,74.1170
184.7001,74.0818
184.7197,74.0488
184.7256,74.0435
184.7347,74.0381
184.7480,74.0339
184.7682,74.0308
184.7980,74.0287
184.8398,74.0274
184.8963,74.0266
184.9702,74.0263
185.0640,74.0262
Z" /> 
<path style="fill:#000000; fill-opacity:1.0000; 
stroke:#000000; stroke-width:0.0100; stroke-opacity:1; 
stroke-linecap:round; stroke-linejoin:round;fill-rule:evenodd;"
d="M 190.2865,73.0081
190.3828,73.0344
190.4715,73.0794
190.5466,73.1404
190.6064,73.2152
190.6492,73.3018
190.6734,73.3980
190.6774,73.5019
190.6671,73.5796
190.6399,73.6623
190.5945,73.7374
190.5287,73.8093
190.4844,73.8478
190.4260,73.8873
190.3654,73.9124
190.2961,73.9259
190.2118,73.9299
190.1657,73.9297
190.1245,73.9275
190.0924,73.9219
190.0619,73.9116
190.0255,73.8951
189.9983,73.8812
189.9126,73.8227
189.8434,73.7506
189.7923,73.6669
189.7608,73.5735
189.7538,73.5404
189.7469,73.5000
189.7451,73.4670
189.7481,73.4327
189.7556,73.3882
189.7680,73.3369
189.8059,73.2464
189.8602,73.1673
189.9282,73.1015
190.0075,73.0508
190.0953,73.0171
190.1892,73.0023
Z" /> 
<path style="fill:#000000; fill-opacity:1.0000; 
stroke:#000000; stroke-width:0.0100; stroke-opacity:1; 
stroke-linecap:round; stroke-linejoin:round;fill-rule:evenodd;"
d="M 185.3786,65.8635
185.4112,65.8892
185.4149,65.8941
185.4197,65.9043
185.4235,65.9198
185.4263,65.9429
185.4283,65.9762
185.4297,66.0221
185.4305,66.0832
185.4308,66.1619
185.4309,66.2607
185.4309,66.2808
185.4308,66.3749
185.4305,66.4494
185.4298,66.5068
185.4285,66.5496
185.4265,66.5803
185.4236,66.6014
185.4197,66.6154
185.4147,66.6247
185.4084,66.6320
185.3756,66.6508
185.3381,66.6523
185.3048,66.6359
185.3034,66.6346
185.2950,66.6234
185.2895,66.6063
185.2862,66.5791
185.2846,66.5377
185.2842,66.4779
185.2842,66.3385
185.0204,66.3385
184.9446,66.3384
184.8779,66.3380
184.8281,66.3370
184.7922,66.3353
184.7671,66.3324
184.7499,66.3283
184.7375,66.3226
184.7269,66.3151
184.7241,66.3128
184.7015,66.2816
184.6999,66.2473
184.7197,66.2143
184.7278,66.2074
184.7384,66.2019
184.7543,66.1979
184.7782,66.1951
184.8132,66.1933
184.8621,66.1923
184.9278,66.1919
185.0132,66.1918
185.2842,66.1918
185.2842,66.0458
185.2842,66.0347
185.2844,65.9782
185.2855,65.9394
185.2883,65.9140
185.2935,65.8978
185.3019,65.8867
185.3142,65.8763
185.3449,65.8604
Z" /> 
<path style="fill:#000000; fill-opacity:1.0000; 
stroke:#000000; stroke-width:0.0100; stroke-opacity:1; 
stroke-linecap:round; stroke-linejoin:round;fill-rule:evenodd;"
d="M 185.4032,64.8648
185.4255,64.8962
185.4282,64.9294
185.4084,64.9613
185.3986,64.9696
185.3827,64.9770
185.3587,64.9813
185.3219,64.9833
185.2672,64.9838
185.1487,64.9838
185.1487,65.4806
185.2642,65.4806
185.3159,65.4810
185.3504,65.4830
185.3730,65.4875
185.3889,65.4956
185.4032,65.5083
185.4255,65.5396
185.4282,65.5729
185.4084,65.6047
185.4022,65.6104
185.3940,65.6155
185.3822,65.6195
185.3647,65.6227
185.3395,65.6251
185.3043,65.6267
185.2571,65.6278
185.1958,65.6283
185.1183,65.6284
185.0224,65.6281
184.9060,65.6276
184.8918,65.6276
184.8301,65.6270
184.7864,65.6256
184.7570,65.6231
184.7381,65.6188
184.7260,65.6124
184.7169,65.6033
184.6995,65.5698
184.7024,65.5349
184.7269,65.5040
184.7401,65.4949
184.7586,65.4875
184.7847,65.4831
184.8232,65.4811
184.8793,65.4806
185.0020,65.4806
185.0020,64.9838
184.8671,64.9838
184.8313,64.9838
184.7850,64.9830
184.7545,64.9808
184.7354,64.9765
184.7236,64.9694
184.7147,64.9588
184.6997,64.9265
184.7023,64.8912
184.7269,64.8605
184.7332,64.8558
184.7437,64.8499
184.7576,64.8454
184.7777,64.8420
184.8066,64.8398
184.8472,64.8383
184.9022,64.8375
184.9742,64.8372
185.0661,64.8371
185.3755,64.8371
Z" /> 
<path style="fill:#000000; fill-opacity:1.0000; 
stroke:#000000; stroke-width:0.0100; stroke-opacity:1; 
stroke-linecap:round; stroke-linejoin:round;fill-rule:evenodd;"
d="M 185.1225,69.5204
185.1846,69.5445
185.1863,69.5453
185.2558,69.5858
185.3124,69.6365
185.3569,69.6992
185.3903,69.7758
185.4131,69.8680
185.4264,69.9777
185.4307,70.1067
185.4307,70.1103
185.4306,70.1703
185.4296,70.2122
185.4270,70.2403
185.4221,70.2589
185.4145,70.2722
185.4032,70.2845
185.3755,70.3122
185.0661,70.3122
185.0045,70.3122
184.9257,70.3119
184.8650,70.3113
184.8439,70.3108
184.8196,70.3101
184.7868,70.3082
184.7639,70.3052
184.7481,70.3012
184.7367,70.2957
184.7269,70.2888
184.6972,70.2654
184.6977,70.0997
184.6980,70.0649
184.6982,70.0603
184.8439,70.0603
184.8439,70.1542
185.2842,70.1542
185.2837,70.0667
185.2813,69.9997
185.2700,69.9073
185.2505,69.8280
185.2235,69.7661
185.2028,69.7351
185.1730,69.7070
185.1306,69.6837
185.1146,69.6765
185.0821,69.6647
185.0577,69.6623
185.0329,69.6679
185.0171,69.6736
184.9572,69.7065
184.9114,69.7539
184.8783,69.8177
184.8562,69.8999
184.8557,69.9027
184.8497,69.9489
184.8455,70.0053
184.8439,70.0603
184.6982,70.0603
184.7015,69.9664
184.7092,69.8855
184.7217,69.8184
184.7398,69.7615
184.7639,69.7112
184.7659,69.7078
184.8026,69.6500
184.8395,69.6076
184.8830,69.5748
184.9393,69.5456
184.9489,69.5413
185.0121,69.5188
185.0675,69.5118
Z" /> 
<path style="fill:#000000; fill-opacity:1.0000; 
stroke:#000000; stroke-width:0.0100; stroke-opacity:1; 
stroke-linecap:round; stroke-linejoin:round;fill-rule:evenodd;"
d="M 185.0853,76.6127
185.1427,76.6250
185.2026,76.6475
185.2566,76.6767
185.2965,76.7092
185.3135,76.7287
185.3527,76.7834
185.3828,76.8437
185.4048,76.9129
185.4194,76.9943
185.4277,77.0912
185.4305,77.2069
185.4309,77.2464
185.4313,77.2921
185.4295,77.3279
185.4233,77.3550
185.4102,77.3746
185.3882,77.3878
185.3549,77.3960
185.3081,77.4003
185.2842,77.4009
185.2456,77.4018
185.1650,77.4019
185.0640,77.4016
184.9884,77.4016
184.9105,77.4013
184.8505,77.4007
184.8057,77.3995
184.7737,77.3975
184.7517,77.3947
184.7371,77.3908
184.7273,77.3856
184.7197,77.3790
184.7135,77.3721
184.7062,77.3591
184.7014,77.3399
184.6987,77.3105
184.6975,77.2668
184.6974,77.2549
184.8439,77.2549
185.2842,77.2549
185.2842,77.1787
185.2842,77.1756
185.2822,77.1245
185.2775,77.0644
185.2710,77.0077
185.2617,76.9577
185.2354,76.8830
185.1961,76.8255
185.1431,76.7840
185.0918,76.7628
185.0440,76.7614
184.9930,76.7796
184.9471,76.8093
184.9047,76.8560
184.8749,76.9174
184.8558,76.9965
184.8555,76.9980
184.8497,77.0470
184.8456,77.1057
184.8440,77.1617
184.8439,77.2549
184.6974,77.2549
184.6972,77.2045
184.6975,77.1556
184.7020,77.0487
184.7120,76.9595
184.7286,76.8847
184.7526,76.8211
184.7847,76.7656
184.8258,76.7149
184.8317,76.7089
184.8802,76.6720
184.9410,76.6409
185.0052,76.6194
185.0640,76.6114
Z" /> 
<path style="fill:#000000; fill-opacity:1.0000; 
stroke:#000000; stroke-width:0.0100; stroke-opacity:1; 
stroke-linecap:round; stroke-linejoin:round;fill-rule:evenodd;"
d="M 184.9802,71.7134
185.0728,71.7144
185.3878,71.7177
185.4094,71.7443
185.4256,71.7704
185.4283,71.8032
185.4094,71.8378
185.4058,71.8421
185.3973,71.8502
185.3857,71.8562
185.3678,71.8606
185.3403,71.8637
185.3000,71.8661
185.2436,71.8680
185.1680,71.8701
184.9481,71.8757
185.1119,72.0563
185.1905,72.1431
185.2589,72.2188
185.3143,72.2810
185.3577,72.3311
185.3901,72.3707
185.4127,72.4015
185.4266,72.4251
185.4327,72.4430
185.4321,72.4569
185.4260,72.4683
185.4153,72.4788
185.4012,72.4901
185.3952,72.4946
185.3847,72.5006
185.3709,72.5052
185.3510,72.5085
185.3223,72.5108
185.2820,72.5123
185.2273,72.5131
185.1556,72.5135
185.0640,72.5135
185.0055,72.5135
184.9264,72.5133
184.8655,72.5127
184.8199,72.5115
184.7870,72.5095
184.7640,72.5066
184.7482,72.5025
184.7367,72.4971
184.7269,72.4901
184.7025,72.4597
184.6996,72.4248
184.7187,72.3878
184.7222,72.3836
184.7307,72.3754
184.7423,72.3694
184.7601,72.3650
184.7875,72.3618
184.8276,72.3595
184.8839,72.3575
184.9594,72.3555
185.1785,72.3498
184.9379,72.0846
184.8711,72.0107
184.8130,71.9455
184.7681,71.8933
184.7351,71.8523
184.7131,71.8205
184.7009,71.7960
184.6974,71.7771
184.7014,71.7619
184.7118,71.7484
184.7275,71.7349
184.7360,71.7287
184.7466,71.7231
184.7607,71.7188
184.7812,71.7159
184.8107,71.7140
184.8518,71.7131
184.9075,71.7130
Z" /> 
<path style="fill:#000000; fill-opacity:1.0000; 
stroke:#000000; stroke-width:0.0100; stroke-opacity:1; 
stroke-linecap:round; stroke-linejoin:round;fill-rule:evenodd;"
d="M 184.9922,72.8531
185.0395,72.8578
185.0716,72.8695
185.0912,72.8912
185.1009,72.9262
185.1036,72.9775
185.1018,73.0481
185.0988,73.0967
185.0906,73.1469
185.0766,73.1794
185.0553,73.1969
185.0256,73.2020
185.0211,73.2019
184.9863,73.1932
184.9629,73.1692
184.9497,73.1279
184.9455,73.0674
184.9455,72.9990
184.9072,72.9990
184.8980,72.9990
184.8808,73.0012
184.8705,73.0105
184.8635,73.0319
184.8564,73.0704
184.8554,73.0759
184.8455,73.1729
184.8484,73.2629
184.8632,73.3438
184.8887,73.4135
184.9240,73.4698
184.9681,73.5107
185.0200,73.5341
185.0786,73.5377
185.1075,73.5321
185.1634,73.5055
185.2091,73.4593
185.2439,73.3943
185.2673,73.3112
185.2718,73.2866
185.2823,73.1972
185.2810,73.1174
185.2681,73.0393
185.2613,73.0042
185.2603,72.9587
185.2728,72.9274
185.2996,72.9073
185.3279,72.9009
185.3591,72.9104
185.3725,72.9197
185.3960,72.9539
185.4139,73.0066
185.4254,73.0751
185.4298,73.1570
185.4258,73.2541
185.4095,73.3602
185.3815,73.4540
185.3425,73.5328
185.2937,73.5937
185.2608,73.6198
185.2116,73.6493
185.1577,73.6746
185.1066,73.6922
185.0655,73.6989
185.0457,73.6973
184.9944,73.6844
184.9379,73.6612
184.8840,73.6313
184.8405,73.5982
184.8301,73.5880
184.7783,73.5209
184.7384,73.4408
184.7140,73.3546
184.7059,73.2996
184.6993,73.2061
184.7014,73.1164
184.7117,73.0339
184.7295,72.9623
184.7545,72.9052
184.7860,72.8663
184.7880,72.8649
184.8132,72.8578
184.8605,72.8536
184.9299,72.8522
Z" /> 
<path style="fill:#000000; fill-opacity:1.0000; 
stroke:#000000; stroke-width:0.0100; stroke-opacity:1; 
stroke-linecap:round; stroke-linejoin:round;fill-rule:evenodd;"
d="M 185.3610,70.6509
185.3811,70.6520
185.3969,70.6568
185.4089,70.6676
185.4177,70.6868
185.4238,70.7167
185.4277,70.7598
185.4298,70.8183
185.4307,70.8947
185.4309,70.9912
185.4309,71.2814
185.4012,71.3048
185.3945,71.3098
185.3839,71.3156
185.3698,71.3201
185.3495,71.3233
185.3202,71.3256
185.2793,71.3270
185.2239,71.3278
185.1514,71.3281
185.0590,71.3282
184.9931,71.3282
184.9148,71.3279
184.8545,71.3273
184.8096,71.3261
184.7774,71.3242
184.7552,71.3213
184.7403,71.3173
184.7301,71.3120
184.7219,71.3052
184.7172,71.3007
184.7107,71.2924
184.7058,71.2811
184.7023,71.2638
184.6998,71.2379
184.6983,71.2004
184.6975,71.1488
184.6972,71.0801
184.6972,70.9916
184.6972,70.9719
184.6974,70.8849
184.6982,70.8173
184.6996,70.7663
184.7018,70.7294
184.7050,70.7038
184.7092,70.6869
184.7147,70.6760
184.7247,70.6655
184.7558,70.6522
184.7917,70.6534
184.8233,70.6696
184.8255,70.6717
184.8318,70.6804
184.8365,70.6938
184.8398,70.7148
184.8419,70.7464
184.8432,70.7916
184.8438,70.8534
184.8439,70.9348
184.8439,71.1814
185.0020,71.1814
185.0020,71.0190
185.0020,70.9833
185.0028,70.9276
185.0048,70.8884
185.0085,70.8620
185.0142,70.8443
185.0224,70.8313
185.0256,70.8277
185.0566,70.8093
185.0929,70.8086
185.1265,70.8262
185.1266,70.8262
185.1352,70.8359
185.1413,70.8492
185.1452,70.8699
185.1474,70.9018
185.1485,70.9487
185.1487,71.0144
185.1487,71.1826
185.2136,71.1792
185.2785,71.1758
185.2816,70.9337
185.2819,70.9087
185.2834,70.8271
185.2858,70.7648
185.2898,70.7192
185.2961,70.6877
185.3054,70.6677
185.3185,70.6566
185.3360,70.6519
185.3587,70.6509
Z" /> 
<path style="fill:#000000; fill-opacity:1.0000; 
stroke:#000000; stroke-width:0.0100; stroke-opacity:1; 
stroke-linecap:round; stroke-linejoin:round;fill-rule:evenodd;"
d="M 184.7944,75.5896
184.8213,75.6067
184.8259,75.6117
184.8322,75.6214
184.8369,75.6356
184.8401,75.6571
184.8421,75.6890
184.8433,75.7343
184.8438,75.7962
184.8439,75.8776
184.8439,76.1260
185.0020,76.1260
185.0020,75.9648
185.0021,75.9290
185.0038,75.8634
185.0083,75.8161
185.0164,75.7844
185.0291,75.7653
185.0474,75.7559
185.0723,75.7534
185.0925,75.7542
185.1143,75.7595
185.1297,75.7723
185.1397,75.7956
185.1454,75.8325
185.1481,75.8860
185.1487,75.9590
185.1487,76.1271
185.2136,76.1237
185.2785,76.1203
185.2816,75.8726
185.2825,75.8100
185.2839,75.7416
185.2858,75.6907
185.2885,75.6544
185.2921,75.6299
185.2969,75.6142
185.3031,75.6045
185.3095,75.5985
185.3412,75.5855
185.3769,75.5890
185.4079,75.6088
185.4108,75.6121
185.4172,75.6210
185.4220,75.6332
185.4256,75.6512
185.4281,75.6778
185.4296,75.7160
185.4305,75.7684
185.4309,75.8378
185.4309,75.9270
185.4309,75.9817
185.4307,76.0588
185.4301,76.1178
185.4289,76.1614
185.4269,76.1924
185.4239,76.2136
185.4196,76.2279
185.4138,76.2379
185.4064,76.2466
185.4047,76.2484
185.3972,76.2556
185.3881,76.2613
185.3750,76.2655
185.3551,76.2686
185.3258,76.2706
185.2845,76.2718
185.2286,76.2725
185.1553,76.2727
185.0621,76.2727
184.9893,76.2727
184.9111,76.2724
184.8509,76.2718
184.8060,76.2706
184.7738,76.2687
184.7518,76.2658
184.7371,76.2619
184.7273,76.2568
184.7197,76.2502
184.7166,76.2468
184.7104,76.2383
184.7058,76.2263
184.7023,76.2081
184.7000,76.1809
184.6984,76.1421
184.6976,76.0889
184.6972,76.0186
184.6972,75.9284
184.6972,75.8863
184.6973,75.8052
184.6979,75.7427
184.6990,75.6961
184.7009,75.6627
184.7037,75.6398
184.7077,75.6247
184.7129,75.6145
184.7197,75.6067
184.7413,75.5920
184.7705,75.5841
Z" /> 
<path style="fill:#000000; fill-opacity:1.0000; 
stroke:#000000; stroke-width:0.0100; stroke-opacity:1; 
stroke-linecap:round; stroke-linejoin:round;fill-rule:evenodd;"
d="M 185.3804,67.3187
185.4013,67.3334
185.4216,67.3600
185.4220,67.3607
185.4290,67.3803
185.4295,67.3978
185.4215,67.4147
185.4030,67.4327
185.3719,67.4533
185.3262,67.4781
185.2639,67.5087
185.1829,67.5468
185.1515,67.5615
185.0884,67.5912
185.0338,67.6173
184.9907,67.6383
184.9622,67.6527
184.9512,67.6592
184.9518,67.6606
184.9658,67.6705
184.9953,67.6878
185.0369,67.7104
185.0871,67.7363
185.1186,67.7523
185.1739,67.7813
185.2130,67.8037
185.2384,67.8220
185.2532,67.8381
185.2600,67.8543
185.2616,67.8729
185.2611,67.8834
185.2569,67.8995
185.2461,67.9148
185.2258,67.9314
185.1933,67.9514
185.1460,67.9768
185.0810,68.0098
185.0617,68.0195
185.0151,68.0439
184.9789,68.0642
184.9565,68.0783
184.9512,68.0845
184.9544,68.0858
184.9753,68.0952
185.0123,68.1121
185.0621,68.1350
185.1218,68.1625
185.1881,68.1933
185.2453,68.2200
185.3073,68.2496
185.3531,68.2727
185.3851,68.2906
185.4060,68.3050
185.4183,68.3172
185.4245,68.3286
185.4274,68.3380
185.4276,68.3631
185.4122,68.3903
185.4112,68.3916
185.3886,68.4137
185.3664,68.4247
185.3657,68.4248
185.3481,68.4202
185.3135,68.4074
185.2652,68.3876
185.2062,68.3624
185.1396,68.3331
185.0687,68.3012
184.9965,68.2682
184.9261,68.2354
184.8607,68.2043
184.8034,68.1763
184.7573,68.1528
184.7256,68.1353
184.7113,68.1252
184.6979,68.0907
184.7043,68.0490
184.7090,68.0437
184.7311,68.0279
184.7679,68.0057
184.8156,67.9792
184.8706,67.9508
185.0298,67.8710
184.8833,67.7978
184.8640,67.7881
184.8116,67.7611
184.7668,67.7371
184.7338,67.7183
184.7169,67.7071
184.7157,67.7060
184.7004,67.6779
184.6987,67.6428
184.7113,67.6118
184.7141,67.6093
184.7347,67.5971
184.7723,67.5774
184.8241,67.5514
184.8876,67.5207
184.9600,67.4864
185.0388,67.4498
185.0829,67.4296
185.1636,67.3928
185.2273,67.3644
185.2762,67.3433
185.3127,67.3289
185.3391,67.3200
185.3576,67.3160
185.3706,67.3159
Z" /> 
<path style="fill:#000000; fill-opacity:1.0000; 
stroke:#000000; stroke-width:0.0100; stroke-opacity:1; 
stroke-linecap:round; stroke-linejoin:round;fill-rule:evenodd;"
d="M 184.9240,74.5118
184.9567,74.5157
184.9832,74.5281
185.0140,74.5532
185.0362,74.5744
185.0587,74.6008
185.0771,74.6306
185.0923,74.6668
185.1056,74.7127
185.1178,74.7715
185.1301,74.8465
185.1436,74.9406
185.1506,74.9860
185.1652,75.0539
185.1817,75.1030
185.1996,75.1326
185.2183,75.1419
185.2374,75.1300
185.2562,75.0964
185.2574,75.0934
185.2695,75.0470
185.2777,74.9844
185.2819,74.9109
185.2818,74.8322
185.2774,74.7537
185.2685,74.6810
185.2678,74.6771
185.2601,74.6283
185.2565,74.5960
185.2571,74.5750
185.2620,74.5600
185.2714,74.5455
185.2723,74.5444
185.3026,74.5198
185.3381,74.5151
185.3727,74.5309
185.3772,74.5354
185.3923,74.5650
185.4055,74.6120
185.4162,74.6723
185.4244,74.7419
185.4296,74.8167
185.4316,74.8927
185.4301,74.9659
185.4246,75.0321
185.4150,75.0874
185.4002,75.1383
185.3670,75.2096
185.3244,75.2608
185.2723,75.2916
185.2110,75.3019
185.1798,75.3010
185.1550,75.2952
185.1333,75.2804
185.1060,75.2524
185.0986,75.2444
185.0777,75.2207
185.0607,75.1983
185.0468,75.1743
185.0349,75.1456
185.0243,75.1095
185.0139,75.0628
185.0029,75.0026
184.9903,74.9261
184.9752,74.8302
184.9722,74.8118
184.9585,74.7495
184.9428,74.7043
184.9257,74.6780
184.9081,74.6724
184.9038,74.6751
184.8888,74.6930
184.8721,74.7211
184.8661,74.7339
184.8589,74.7552
184.8542,74.7816
184.8514,74.8175
184.8500,74.8671
184.8498,74.9350
184.8498,74.9528
184.8509,75.0204
184.8532,75.0853
184.8562,75.1410
184.8599,75.1807
184.8639,75.2162
184.8647,75.2454
184.8601,75.2643
184.8494,75.2794
184.8459,75.2831
184.8141,75.2994
184.7784,75.2981
184.7478,75.2792
184.7362,75.2588
184.7235,75.2228
184.7135,75.1804
184.7129,75.1769
184.7076,75.1343
184.7033,75.0769
184.7002,75.0118
184.6988,74.9463
184.6988,74.9301
184.7013,74.8317
184.7093,74.7517
184.7238,74.6865
184.7459,74.6328
184.7764,74.5872
184.8165,74.5463
184.8427,74.5262
184.8723,74.5146
184.9120,74.5117
Z" /> 
<path style="fill:#000000; fill-opacity:1.0000; 
stroke:#000000; stroke-width:0.0100; stroke-opacity:1; 
stroke-linecap:round; stroke-linejoin:round;fill-rule:evenodd;"
d="M 186.5560,69.8601
186.5759,69.8713
186.6116,69.8921
186.6605,69.9213
186.7204,69.9572
186.7886,69.9984
186.8627,70.0435
187.1600,70.2248
187.1155,70.2713
187.0371,70.3627
186.9626,70.4763
186.9085,70.5941
186.8757,70.7146
186.8648,70.8361
186.8661,70.8776
186.8844,70.9951
186.9234,71.1051
186.9823,71.2064
187.0604,71.2979
187.1569,71.3784
187.2710,71.4466
187.3053,71.4629
187.4288,71.5090
187.5671,71.5441
187.7164,71.5682
187.8730,71.5812
188.0330,71.5829
188.1927,71.5734
188.3482,71.5526
188.4956,71.5203
188.6313,71.4764
188.7179,71.4390
188.8313,71.3742
188.9249,71.2988
188.9990,71.2124
189.0539,71.1148
189.0898,71.0056
189.1069,70.8844
189.1081,70.8150
189.0939,70.6922
189.0588,70.5767
189.0033,70.4700
188.9280,70.3735
188.9136,70.3577
188.8870,70.3272
188.8699,70.3048
188.8652,70.2947
188.8674,70.2927
188.8863,70.2782
188.9196,70.2544
188.9646,70.2230
189.0186,70.1860
189.0787,70.1451
189.1423,70.1022
189.2065,70.0592
189.2687,70.0179
189.3260,69.9801
189.3757,69.9477
189.4151,69.9226
189.4414,69.9065
189.4519,69.9014
189.4561,69.9060
189.4611,69.9253
189.4636,69.9348
189.4748,69.9628
189.4932,70.0044
189.5173,70.0560
189.5453,70.1137
189.5508,70.1250
189.6301,70.3027
189.6896,70.4725
189.7298,70.6364
189.7509,70.7966
189.7535,70.9550
189.7380,71.1137
189.7205,71.2093
189.6754,71.3736
189.6123,71.5276
189.5301,71.6735
189.4275,71.8135
189.3036,71.9496
189.2583,71.9935
189.1261,72.1058
188.9882,72.1990
188.8402,72.2757
188.6782,72.3386
188.6666,72.3424
188.4806,72.3925
188.2845,72.4259
188.0824,72.4426
187.8787,72.4426
187.6774,72.4258
187.4829,72.3923
187.2992,72.3420
187.1819,72.2982
187.0190,72.2203
186.8651,72.1268
186.7233,72.0198
186.5968,71.9015
186.4886,71.7741
186.4359,71.6966
186.3662,71.5697
186.3075,71.4322
186.2624,71.2907
186.2336,71.1517
186.2319,71.1376
186.2286,71.0942
186.2257,71.0367
186.2236,70.9711
186.2225,70.9032
186.2249,70.7764
186.2379,70.6287
186.2629,70.4908
186.3007,70.3570
186.3091,70.3336
186.3286,70.2856
186.3535,70.2291
186.3823,70.1674
186.4132,70.1036
186.4447,70.0409
186.4751,69.9827
186.5027,69.9321
186.5260,69.8924
186.5433,69.8669
186.5529,69.8586
Z" /> 
<path style="fill:#000000; fill-opacity:1.0000; 
stroke:#000000; stroke-width:0.0100; stroke-opacity:1; 
stroke-linecap:round; stroke-linejoin:round;fill-rule:evenodd;"
d="M 186.3270,64.8712
186.3361,64.8764
186.3508,64.8847
186.3648,64.8923
186.3795,64.8991
186.3958,64.9052
186.4148,64.9107
186.4377,64.9155
186.4656,64.9197
186.4995,64.9234
186.5406,64.9265
186.5900,64.9292
186.6487,64.9315
186.7179,64.9333
186.7987,64.9348
186.8921,64.9360
186.9993,64.9368
187.1214,64.9375
187.2594,64.9379
187.4145,64.9382
187.5878,64.9384
187.7804,64.9384
187.9933,64.9385
188.2278,64.9385
189.9126,64.9387
189.9126,65.8440
189.8759,65.8196
189.8664,65.8133
189.8200,65.7872
189.7729,65.7695
189.7177,65.7579
189.6473,65.7503
189.6403,65.7498
189.6024,65.7481
189.5484,65.7464
189.4813,65.7450
189.4037,65.7437
189.3185,65.7427
189.2283,65.7418
189.1359,65.7412
189.0441,65.7408
188.9556,65.7407
188.8731,65.7408
188.7995,65.7412
188.7375,65.7419
188.6897,65.7428
188.6591,65.7441
188.6483,65.7457
188.6527,65.7540
188.6676,65.7756
188.6896,65.8050
188.7238,65.8539
188.7703,65.9421
188.8040,66.0409
188.8258,66.1535
188.8367,66.2832
188.8378,66.3757
188.8280,66.4970
188.8038,66.6071
188.7642,66.7104
188.7081,66.8113
188.6771,66.8565
188.5859,66.9619
188.4769,67.0535
188.3503,67.1313
188.2062,67.1952
188.0447,67.2452
187.8659,67.2812
187.6701,67.3031
187.5141,67.3089
187.4573,67.3110
187.3798,67.3103
187.2284,67.3017
187.0917,67.2828
186.9657,67.2528
186.8464,67.2108
186.7296,67.1560
186.6188,67.0892
186.5053,66.9984
186.4098,66.8947
186.3329,66.7789
186.2752,66.6516
186.2371,66.5135
186.2313,66.4758
186.2256,66.3968
186.2254,66.3086
186.2305,66.2192
186.2404,66.1364
186.2451,66.1143
186.8385,66.1143
186.8466,66.1989
186.8742,66.2722
186.9214,66.3346
186.9883,66.3865
187.0754,66.4282
187.1826,66.4600
187.1950,66.4625
187.2562,66.4710
187.3333,66.4767
187.4210,66.4796
187.5141,66.4798
187.6073,66.4773
187.6954,66.4723
187.7732,66.4646
187.8355,66.4544
187.8413,66.4532
187.9519,66.4241
188.0424,66.3896
188.1150,66.3485
188.1718,66.2995
188.2148,66.2416
188.2304,66.2096
188.2493,66.1368
188.2525,66.0554
188.2406,65.9703
188.2140,65.8861
188.1730,65.8076
188.1295,65.7402
186.9793,65.7402
186.9329,65.8108
186.9092,65.8514
186.8834,65.9055
186.8652,65.9547
186.8494,66.0182
186.8385,66.1143
186.2451,66.1143
186.2550,66.0679
186.2646,66.0370
186.2949,65.9597
186.3324,65.8827
186.3734,65.8132
186.4141,65.7586
186.4335,65.7359
186.4513,65.7132
186.4582,65.7018
186.4566,65.7005
186.4388,65.6977
186.4056,65.6958
186.3623,65.6950
186.2663,65.6950
186.2663,64.8369
Z" /> 
<path style="fill:#000000; fill-opacity:1.0000; 
stroke:#000000; stroke-width:0.0100; stroke-opacity:1; 
stroke-linecap:round; stroke-linejoin:round;fill-rule:evenodd;"
d="M 186.2765,67.5126
186.2921,67.5196
186.3149,67.5354
186.3204,67.5397
186.3344,67.5508
186.3478,67.5603
186.3623,67.5685
186.3794,67.5754
186.4010,67.5811
186.4285,67.5859
186.4637,67.5897
186.5082,67.5928
186.5638,67.5953
186.6319,67.5973
186.7144,67.5989
186.8128,67.6002
186.9288,67.6014
187.0640,67.6026
187.2202,67.6040
187.3630,67.6052
187.5081,67.6067
187.6340,67.6082
187.7426,67.6099
187.8357,67.6121
187.9151,67.6147
187.9827,67.6179
188.0404,67.6219
188.0898,67.6267
188.1329,67.6326
188.1716,67.6396
188.2076,67.6479
188.2427,67.6576
188.2789,67.6688
188.3178,67.6816
188.3609,67.6971
188.4531,67.7400
188.5329,67.7937
188.6070,67.8626
188.6706,67.9402
188.7323,68.0448
188.7798,68.1642
188.8134,68.2995
188.8334,68.4514
188.8401,68.6209
188.8397,68.6789
188.8377,68.7444
188.8333,68.8057
188.8260,68.8671
188.8150,68.9329
188.7999,69.0075
188.7798,69.0952
188.7542,69.2002
188.7472,69.2288
188.7292,69.3041
188.7132,69.3744
188.7000,69.4356
188.6905,69.4834
188.6858,69.5135
188.6821,69.5418
188.6768,69.5681
188.6721,69.5781
188.6632,69.5750
188.6359,69.5642
188.5931,69.5469
188.5376,69.5241
188.4722,69.4971
188.3999,69.4671
188.3841,69.4605
188.2935,69.4219
188.2238,69.3908
188.1746,69.3669
188.1456,69.3502
188.1365,69.3405
188.1386,69.3328
188.1482,69.3064
188.1638,69.2680
188.1832,69.2228
188.2212,69.1283
188.2622,68.9915
188.2874,68.8503
188.2914,68.8123
188.2936,68.7091
188.2804,68.6220
188.2512,68.5501
188.2055,68.4927
188.1426,68.4489
188.0619,68.4178
187.9628,68.3985
187.9038,68.3910
187.9106,68.5529
187.9122,68.6795
187.9058,68.8310
187.8912,68.9794
187.8691,69.1156
187.8542,69.1802
187.8113,69.3125
187.7547,69.4348
187.6860,69.5447
187.6068,69.6399
187.5188,69.7180
187.4235,69.7766
187.3711,69.8006
187.3004,69.8262
187.2292,69.8425
187.1503,69.8508
187.0597,69.8527
187.0565,69.8528
187.0226,69.8523
186.9478,69.8486
186.8856,69.8410
186.8290,69.8287
186.7029,69.7843
186.5883,69.7214
186.4874,69.6412
186.4011,69.5447
186.3301,69.4328
186.2752,69.3064
186.2374,69.1664
186.2316,69.1301
186.2257,69.0512
186.2254,68.9628
186.2303,68.8731
186.2403,68.7897
186.2455,68.7656
186.7886,68.7656
186.7915,68.8410
186.8034,68.9017
186.8260,68.9535
186.8608,69.0017
186.8652,69.0068
186.9208,69.0553
186.9847,69.0835
187.0597,69.0928
187.1313,69.0855
187.1944,69.0608
187.2522,69.0162
187.2992,68.9613
187.3390,68.8889
187.3667,68.8023
187.3829,68.6997
187.3882,68.5789
187.3881,68.5700
187.3873,68.5147
187.3855,68.4677
187.3829,68.4340
187.3797,68.4180
187.3733,68.4139
187.3511,68.4096
187.3120,68.4066
187.2541,68.4049
187.1754,68.4044
186.9795,68.4044
186.9230,68.4490
186.9078,68.4618
186.8652,68.5086
186.8293,68.5693
186.8242,68.5799
186.8073,68.6187
186.7971,68.6537
186.7917,68.6937
186.7890,68.7475
186.7886,68.7656
186.2455,68.7656
186.2550,68.7207
186.2853,68.6342
186.3399,68.5243
186.4075,68.4270
186.4584,68.3649
186.3624,68.3616
186.2663,68.3583
186.2663,67.9355
186.2663,67.9245
186.2666,67.8301
186.2674,67.7433
186.2685,67.6668
186.2701,67.6030
186.2719,67.5544
186.2739,67.5234
186.2761,67.5126
Z" /> 
<path style="fill:#000000; fill-opacity:1.0000; 
stroke:#000000; stroke-width:0.0100; stroke-opacity:1; 
stroke-linecap:round; stroke-linejoin:round;fill-rule:evenodd;"
d="M 190.2694,72.7212
190.2931,72.7484
190.3049,72.7753
190.3077,72.8116
190.3077,72.8635
190.2198,72.8635
190.1699,72.8654
190.0595,72.8842
189.9580,72.9212
189.8668,72.9744
189.7873,73.0415
189.7208,73.1206
189.6686,73.2095
189.6321,73.3061
189.6126,73.4083
189.6114,73.5139
189.6300,73.6210
189.6696,73.7272
189.7275,73.8242
189.8023,73.9093
189.8904,73.9780
189.9894,74.0289
190.0970,74.0605
190.2109,74.0714
190.3077,74.0714
190.3077,75.6918
190.3077,75.9029
190.3077,76.1070
190.3076,76.2907
190.3074,76.4550
190.3072,76.6010
190.3068,76.7299
190.3064,76.8427
190.3059,76.9405
190.3052,77.0244
190.3044,77.0955
190.3035,77.1549
190.3024,77.2038
190.3011,77.2431
190.2997,77.2740
190.2980,77.2975
190.2961,77.3149
190.2940,77.3271
190.2917,77.3353
190.2891,77.3405
190.2856,77.3465
190.2820,77.3533
190.2785,77.3595
190.2741,77.3651
190.2678,77.3702
190.2587,77.3749
190.2459,77.3790
190.2283,77.3827
190.2052,77.3860
190.1755,77.3889
190.1382,77.3914
190.0926,77.3935
190.0375,77.3954
189.9721,77.3969
189.8954,77.3982
189.8065,77.3992
189.7044,77.4000
189.6981,77.4000
189.5882,77.4006
189.4570,77.4011
189.3098,77.4014
189.1457,77.4015
188.9636,77.4016
188.7628,77.4017
188.5423,77.4017
188.3010,77.4016
188.0381,77.4016
187.9960,77.4016
187.7353,77.4016
187.4962,77.4017
187.2776,77.4017
187.0787,77.4017
186.8985,77.4016
186.7360,77.4014
186.5903,77.4011
186.4606,77.4006
186.3458,77.3999
186.2450,77.3990
186.1573,77.3978
186.0817,77.3964
186.0174,77.3946
185.9633,77.3925
185.9186,77.3901
185.8823,77.3872
185.8535,77.3839
185.8313,77.3802
185.8146,77.3760
185.8026,77.3712
185.7944,77.3659
185.7889,77.3601
185.7854,77.3536
185.7827,77.3465
185.7801,77.3387
185.7765,77.3303
185.7749,77.3259
185.7729,77.3174
185.7711,77.3047
185.7694,77.2869
185.7680,77.2630
185.7666,77.2323
185.7654,77.1936
185.7643,77.1462
185.7633,77.0890
185.7625,77.0213
185.7617,76.9420
185.7611,76.8502
185.7606,76.7450
185.7601,76.6256
185.7597,76.4909
185.7594,76.3401
185.7591,76.1722
185.7589,75.9863
185.7588,75.7816
185.7587,75.5570
185.7586,75.3201
186.2776,75.3201
186.3538,75.3195
186.3958,75.3206
186.4317,75.3263
186.4692,75.3389
186.5174,75.3606
186.5241,75.3638
186.5736,75.3892
186.6216,75.4160
186.6585,75.4389
186.6652,75.4435
186.6964,75.4655
186.7413,75.4977
186.7979,75.5385
186.8638,75.5862
186.9370,75.6395
187.0155,75.6967
187.0969,75.7562
187.1793,75.8164
187.2605,75.8759
187.3383,75.9331
187.4106,75.9864
187.4753,76.0342
187.5302,76.0750
187.5733,76.1072
187.6024,76.1292
187.6153,76.1396
187.6196,76.1440
187.6217,76.1482
187.6191,76.1516
187.6100,76.1543
187.5927,76.1563
187.5654,76.1577
187.5262,76.1586
187.4735,76.1590
187.4053,76.1589
187.3199,76.1585
187.2156,76.1577
187.0904,76.1567
187.0457,76.1563
186.9246,76.1552
186.8233,76.1540
186.7397,76.1526
186.6718,76.1511
186.6174,76.1492
186.5745,76.1470
186.5409,76.1442
186.5146,76.1410
186.4936,76.1371
186.4756,76.1325
186.4492,76.1242
186.3872,76.1006
186.3344,76.0747
186.2974,76.0495
186.2959,76.0483
186.2916,76.0462
186.2880,76.0483
186.2850,76.0566
186.2827,76.0729
186.2809,76.0990
186.2796,76.1368
186.2787,76.1880
186.2781,76.2544
186.2778,76.3380
186.2776,76.4405
186.2776,76.5637
186.2776,77.0953
186.3352,77.0565
186.3441,77.0504
186.3589,77.0400
186.3726,77.0306
186.3862,77.0222
186.4011,77.0147
186.4183,77.0082
186.4391,77.0024
186.4647,76.9975
186.4962,76.9933
186.5349,76.9897
186.5819,76.9867
186.6384,76.9843
186.7056,76.9824
186.7847,76.9810
186.8768,76.9799
186.9833,76.9791
187.1051,76.9786
187.2437,76.9784
187.4000,76.9782
187.5754,76.9782
187.7709,76.9783
187.9879,76.9783
188.1105,76.9783
188.3156,76.9782
188.4999,76.9782
188.6647,76.9783
188.8111,76.9785
188.9403,76.9789
189.0536,76.9795
189.1520,76.9804
189.2369,76.9817
189.3093,76.9835
189.3704,76.9857
189.4215,76.9884
189.4637,76.9917
189.4983,76.9957
189.5263,77.0003
189.5490,77.0057
189.5676,77.0120
189.5833,77.0191
189.5972,77.0271
189.6106,77.0362
189.6245,77.0462
189.6403,77.0574
189.6981,77.0972
189.6981,76.0373
189.6350,76.0753
189.6100,76.0900
189.5824,76.1045
189.5543,76.1166
189.5234,76.1265
189.4877,76.1345
189.4447,76.1408
189.3924,76.1456
189.3286,76.1492
189.2510,76.1519
189.1574,76.1539
189.0457,76.1554
188.9136,76.1567
188.7936,76.1576
188.6769,76.1580
188.5815,76.1578
188.5074,76.1569
188.4551,76.1553
188.4249,76.1531
188.4168,76.1502
188.4201,76.1472
188.4416,76.1290
188.4781,76.0993
188.5276,76.0596
188.5878,76.0118
188.6567,75.9573
188.7321,75.8980
188.8118,75.8355
188.8938,75.7714
188.9758,75.7075
189.0558,75.6453
189.1316,75.5867
189.2010,75.5331
189.2620,75.4864
189.3123,75.4482
189.3499,75.4202
189.3725,75.4039
189.4448,75.3586
189.5245,75.3187
189.5928,75.2971
189.6502,75.2938
189.6981,75.2991
189.6979,74.1674
189.6673,74.2069
189.6599,74.2162
189.6056,74.2792
189.5377,74.3480
189.4545,74.4246
189.3538,74.5109
189.3332,74.5281
189.2836,74.5688
189.2227,74.6186
189.1521,74.6760
189.0736,74.7396
188.9888,74.8081
188.8995,74.8801
188.8073,74.9543
188.7883,74.9695
188.7139,75.0292
188.6212,75.1037
188.5306,75.1761
188.4440,75.2453
188.3631,75.3098
188.2895,75.3683
188.2250,75.4195
188.1712,75.4618
188.1298,75.4941
188.1027,75.5149
188.0913,75.5229
188.0872,75.5211
188.0667,75.5082
188.0304,75.4839
187.9802,75.4492
187.9175,75.4055
187.8441,75.3538
187.7615,75.2953
187.6714,75.2312
187.5754,75.1626
187.4751,75.0908
187.3722,75.0169
187.2683,74.9421
187.1651,74.8675
187.0641,74.7944
186.9670,74.7238
186.8754,74.6570
186.7910,74.5951
186.7153,74.5394
186.6501,74.4909
186.5969,74.4508
186.5573,74.4204
186.5320,74.3999
186.4777,74.3539
186.4212,74.3036
186.3713,74.2568
186.2776,74.1657
186.2776,75.3201
185.7586,75.3201
185.7586,75.3117
185.7586,75.0447
185.7586,75.0063
185.7585,74.7409
185.7585,74.4971
185.7585,74.2738
185.7585,74.0702
185.7586,73.8854
185.7588,73.7184
185.7591,73.5683
185.7594,73.4674
186.2776,73.4674
186.2777,73.5364
186.2779,73.6346
186.2784,73.7240
186.2790,73.8023
186.2798,73.8672
186.2807,73.9164
186.2817,73.9476
186.2827,73.9585
186.2860,73.9573
186.3035,73.9472
186.3298,73.9300
186.3423,73.9215
186.3564,73.9123
186.3706,73.9042
186.3865,73.8972
186.4054,73.8911
186.4287,73.8860
186.4577,73.8817
186.4940,73.8781
186.5388,73.8753
186.5937,73.8731
186.6599,73.8715
186.7389,73.8704
186.8321,73.8698
186.9409,73.8695
187.0667,73.8695
187.2109,73.8698
187.3748,73.8702
187.5599,73.8707
187.7388,73.8713
187.8976,73.8718
188.0367,73.8723
188.1573,73.8729
188.2610,73.8736
188.3490,73.8744
188.4228,73.8753
188.4837,73.8764
188.5332,73.8777
188.5727,73.8792
188.6035,73.8810
188.6271,73.8831
188.6447,73.8855
188.6579,73.8882
188.6681,73.8914
188.6765,73.8949
188.6846,73.8988
188.7215,73.9184
188.7516,73.9372
188.7531,73.9383
188.7753,73.9526
188.7883,73.9585
188.7888,73.9575
188.7902,73.9403
188.7915,73.9037
188.7927,73.8500
188.7937,73.7816
188.7944,73.7011
188.7949,73.6107
188.7950,73.5129
188.7950,73.0672
187.6182,73.0641
186.4413,73.0610
186.3824,73.0344
186.3578,73.0225
186.3276,73.0052
186.3104,72.9921
186.3024,72.9841
186.2875,72.9764
186.2862,72.9803
186.2842,73.0035
186.2824,73.0459
186.2808,73.1051
186.2795,73.1791
186.2785,73.2656
186.2778,73.3625
186.2776,73.4674
185.7594,73.4674
185.7595,73.4342
185.7601,73.3152
185.7609,73.2103
185.7619,73.1186
185.7632,73.0392
185.7647,72.9712
185.7664,72.9137
185.7685,72.8657
185.7710,72.8262
185.7737,72.7945
185.7769,72.7695
185.7804,72.7504
185.7844,72.7361
185.7888,72.7259
185.7937,72.7187
185.7991,72.7136
185.8050,72.7098
185.8115,72.7063
185.8185,72.7021
185.8203,72.7010
185.8258,72.6988
185.8341,72.6968
185.8462,72.6949
185.8629,72.6933
185.8853,72.6917
185.9143,72.6904
185.9507,72.6892
185.9956,72.6881
186.0499,72.6871
186.1146,72.6863
186.1905,72.6856
186.2787,72.6850
186.3800,72.6845
186.4954,72.6840
186.6258,72.6837
186.7723,72.6834
186.9357,72.6832
187.1169,72.6831
187.3170,72.6830
187.5368,72.6829
187.7773,72.6829
188.0394,72.6829
190.2310,72.6829
Z" /> 
</g>
<g style="fill:none; 
stroke:#000000; stroke-width:0.4000; stroke-opacity:1; 
stroke-linecap:round; stroke-linejoin:round;">
<circle cx="191.9506" cy="60.9000" r="2.5000" /> 
<path style="fill:#000000; fill-opacity:1.0000; stroke:none;fill-rule:evenodd;"
d="M 192.3704,59.6147
192.4375,59.6263
192.5028,59.6401
192.5661,59.6559
192.6275,59.6739
192.6870,59.6939
192.7445,59.7161
192.8002,59.7404
192.8539,59.7668
192.9057,59.7953
192.9555,59.8259
193.0035,59.8586
193.0495,59.8934
193.0936,59.9304
193.1358,59.9694
193.1760,60.0106
193.2143,60.0538
193.2505,60.0988
193.2844,60.1449
193.3159,60.1922
193.3451,60.2407
193.3720,60.2904
193.3965,60.3413
193.4187,60.3934
193.4385,60.4467
193.4561,60.5012
193.4712,60.5569
193.4841,60.6138
193.4946,60.6719
193.5028,60.7312
193.5086,60.7917
193.5121,60.8534
193.5133,60.9164
193.5115,61.0025
193.5062,61.0865
193.4974,61.1682
193.4851,61.2477
193.4693,61.3250
193.4500,61.4000
193.4272,61.4728
193.4008,61.5434
193.3709,61.6117
193.3376,61.6778
193.3007,61.7417
193.2603,61.8034
193.2164,61.8628
193.1689,61.9200
193.1180,61.9749
193.0636,62.0276
193.0064,62.0776
192.9472,62.1243
192.8860,62.1679
192.8228,62.2082
192.7577,62.2453
192.6905,62.2791
192.6214,62.3097
192.5503,62.3372
192.4772,62.3613
192.4021,62.3823
192.3251,62.4000
192.2460,62.4145
192.1650,62.4258
192.0820,62.4339
191.9970,62.4387
191.9100,62.4403
191.8256,62.4387
191.7429,62.4337
191.6621,62.4253
191.5831,62.4136
191.5058,62.3985
191.4304,62.3801
191.3568,62.3583
191.2849,62.3332
191.2149,62.3047
191.1467,62.2729
191.0802,62.2378
191.0156,62.1993
190.9528,62.1575
190.8917,62.1123
190.8325,62.0637
190.7751,62.0119
190.7203,61.9573
190.6690,61.9007
190.6213,61.8421
190.5772,61.7816
190.5365,61.7191
190.4994,61.6546
190.4658,61.5881
190.4358,61.5196
190.4092,61.4492
190.3863,61.3768
190.3668,61.3023
190.3509,61.2259
190.3385,61.1475
190.3297,61.0672
190.3244,60.9848
190.3226,60.9004
190.3238,60.8381
190.3273,60.7769
190.3332,60.7168
190.3414,60.6577
190.3520,60.5997
190.3650,60.5428
190.3803,60.4869
190.3980,60.4321
190.4180,60.3784
190.4404,60.3258
190.4651,60.2742
190.4922,60.2238
190.5217,60.1744
190.5535,60.1261
190.5877,60.0788
190.6242,60.0326
190.6629,59.9881
190.7036,59.9459
190.7463,59.9059
190.7909,59.8683
190.8375,59.8329
190.8862,59.7997
190.9368,59.7689
190.9893,59.7403
191.0439,59.7140
191.1005,59.6899
191.1590,59.6682
191.2195,59.6487
191.2820,59.6315
191.3465,59.6165
191.4130,59.6038
191.4814,59.5934
191.4814,60.3397
191.4482,60.3419
191.4161,60.3454
191.3850,60.3499
191.3549,60.3557
191.3259,60.3626
191.2980,60.3706
191.2711,60.3799
191.2453,60.3903
191.2205,60.4019
191.1968,60.4146
191.1741,60.4285
191.1525,60.4436
191.1319,60.4599
191.1124,60.4773
191.0940,60.4959
191.0766,60.5156
191.0603,60.5366
191.0450,60.5587
191.0307,60.5819
191.0176,60.6064
191.0054,60.6319
190.9944,60.6587
190.9843,60.6866
190.9754,60.7158
190.9675,60.7460
190.9606,60.7775
190.9548,60.8101
190.9501,60.8438
190.9464,60.8788
190.9438,60.9149
190.9422,60.9522
190.9417,60.9906
190.9427,61.0292
190.9459,61.0667
190.9511,61.1034
190.9585,61.1391
190.9680,61.1738
190.9796,61.2076
190.9933,61.2404
191.0091,61.2723
191.0271,61.3033
191.0471,61.3333
191.0692,61.3623
191.0935,61.3904
191.1198,61.4176
191.1483,61.4438
191.1788,61.4690
191.2115,61.4933
191.2459,61.5164
191.2818,61.5380
191.3190,61.5581
191.3577,61.5767
191.3977,61.5938
191.4392,61.6095
191.4821,61.6236
191.5263,61.6363
191.5720,61.6475
191.6191,61.6572
191.6676,61.6653
191.7175,61.6720
191.7688,61.6773
191.8215,61.6810
191.8756,61.6832
191.9311,61.6840
191.9891,61.6833
192.0454,61.6812
192.0998,61.6778
192.1526,61.6730
192.2035,61.6669
192.2527,61.6594
192.3002,61.6505
192.3459,61.6403
192.3898,61.6287
192.4320,61.6157
192.4724,61.6014
192.5111,61.5857
192.5480,61.5687
192.5831,61.5503
192.6165,61.5305
192.6482,61.5094
192.6780,61.4870
192.7058,61.4633
192.7318,61.4385
192.7558,61.4125
192.7779,61.3852
192.7981,61.3568
192.8163,61.3272
192.8327,61.2964
192.8471,61.2644
192.8596,61.2311
192.8702,61.1967
192.8788,61.1611
192.8856,61.1243
192.8904,61.0862
192.8932,61.0470
192.8942,61.0066
192.8922,60.9345
192.8860,60.8665
192.8758,60.8025
192.8615,60.7426
192.8528,60.7141
192.8431,60.6867
192.8323,60.6603
192.8206,60.6349
192.8078,60.6105
192.7940,60.5872
192.7791,60.5648
192.7633,60.5435
192.7464,60.5232
192.7285,60.5038
192.7096,60.4855
192.6896,60.4683
192.6687,60.4520
192.6467,60.4367
192.6236,60.4225
192.5996,60.4092
192.5745,60.3970
192.5485,60.3858
192.5213,60.3756
192.4932,60.3664
192.4641,60.3582
192.4339,60.3511
192.3704,60.3398
192.3704,60.5568
191.7831,59.9695
192.3704,59.3821
Z" /> 
<path style="fill:#000000; fill-opacity:1.0000; stroke:none;fill-rule:evenodd;"
d="M 191.6000,54.3750
191.4000,54.3750
191.4000,55.9750
191.6000,55.9750
Z" /> 
<path style="fill:#000000; fill-opacity:1.0000; stroke:none;fill-rule:evenodd;"
d="M 191.8000,54.7250
189.9500,54.7250
189.9500,55.6250
191.8000,55.6250
Z" /> 
<path style="fill:#000000; fill-opacity:1.0000; 
stroke:#000000; stroke-width:0.4000; stroke-opacity:1; 
stroke-linecap:round; stroke-linejoin:round;fill-rule:evenodd;"
d="M 192.6000,54.5750
191.6000,54.5750
191.6000,55.7750
192.6000,55.7750
Z" /> 
</g>
<g style="fill:none; 
stroke:#000000; stroke-width:0.4000; stroke-opacity:1; 
stroke-linecap:round; stroke-linejoin:round;">
<circle cx="191.8000" cy="55.1756" r="2.5000" /> 
</g>
<g style="fill:#000000; fill-opacity:1.0000; stroke:none;">
<circle cx="193.3900" cy="55.1750" r="0.4000" /> 
</g>
<g style="fill:none; 
stroke:#000000; stroke-width:0.4000; stroke-opacity:1; 
stroke-linecap:round; stroke-linejoin:round;">
<circle cx="185.7750" cy="58.2750" r="2.5000" /> 
<path style="fill:#000000; fill-opacity:1.0000; stroke:none;fill-rule:evenodd;"
d="M 186.3302,58.3460
186.3600,58.3638
186.3890,58.3825
186.4171,58.4019
186.4443,58.4221
186.4708,58.4432
186.4964,58.4650
186.5212,58.4877
186.5452,58.5112
186.5683,58.5354
186.5906,58.5605
186.6121,58.5864
186.6328,58.6130
186.6526,58.6405
186.6716,58.6688
186.6898,58.6979
186.7070,58.7275
186.7231,58.7576
186.7381,58.7880
186.7520,58.8187
186.7647,58.8499
186.7764,58.8815
186.7869,58.9134
186.7964,58.9457
186.8047,58.9784
186.8119,59.0115
186.8180,59.0450
186.8230,59.0788
186.8269,59.1130
186.8297,59.1476
186.8313,59.1826
186.8319,59.2180
186.8308,59.2740
186.8275,59.3286
186.8221,59.3819
186.8145,59.4338
186.8047,59.4843
186.7928,59.5335
186.7787,59.5813
186.7624,59.6277
186.7439,59.6728
186.7233,59.7165
186.7004,59.7588
186.6754,59.7997
186.6483,59.8393
186.6189,59.8775
186.5874,59.9143
186.5536,59.9498
186.5180,59.9835
186.4807,60.0150
186.4417,60.0443
186.4010,60.0715
186.3585,60.0965
186.3144,60.1193
186.2686,60.1399
186.2211,60.1584
186.1719,60.1747
186.1209,60.1888
186.0683,60.2008
186.0140,60.2105
185.9580,60.2181
185.9002,60.2236
185.8408,60.2268
185.7797,60.2279
185.7200,60.2268
185.6618,60.2235
185.6053,60.2180
185.5503,60.2103
185.4968,60.2005
185.4449,60.1884
185.3946,60.1741
185.3458,60.1576
185.2986,60.1389
185.2529,60.1181
185.2088,60.0950
185.1663,60.0697
185.1253,60.0423
185.0858,60.0126
185.0480,59.9808
185.0117,59.9467
184.9772,59.9110
184.9451,59.8741
184.9151,59.8361
184.8873,59.7969
184.8618,59.7565
184.8385,59.7150
184.8174,59.6723
184.7985,59.6285
184.7818,59.5835
184.7674,59.5373
184.7552,59.4900
184.7452,59.4416
184.7374,59.3919
184.7318,59.3411
184.7285,59.2892
184.7274,59.2360
184.7293,59.1588
184.7350,59.0844
184.7445,59.0127
184.7579,58.9438
184.7751,58.8777
184.7961,58.8145
184.8210,58.7540
184.8497,58.6962
184.8822,58.6413
184.9186,58.5892
184.9587,58.5398
185.0027,58.4933
185.0506,58.4495
185.1023,58.4085
185.1578,58.3703
185.2171,58.3349
185.4530,58.7886
185.4345,58.7978
185.4166,58.8073
185.3995,58.8170
185.3831,58.8270
185.3674,58.8372
185.3524,58.8477
185.3381,58.8585
185.3245,58.8695
185.3116,58.8808
185.2995,58.8923
185.2880,58.9041
185.2772,58.9161
185.2672,58.9284
185.2579,58.9410
185.2492,58.9538
185.2413,58.9669
185.2340,58.9801
185.2272,58.9931
185.2208,59.0061
185.2149,59.0189
185.2095,59.0316
185.2045,59.0442
185.2000,59.0567
185.1960,59.0690
185.1925,59.0812
185.1894,59.0933
185.1868,59.1053
185.1847,59.1172
185.1830,59.1290
185.1818,59.1406
185.1811,59.1521
185.1809,59.1636
185.1815,59.1914
185.1832,59.2185
185.1861,59.2446
185.1902,59.2698
185.1955,59.2942
185.2019,59.3177
185.2095,59.3402
185.2183,59.3619
185.2282,59.3828
185.2393,59.4027
185.2516,59.4217
185.2651,59.4399
185.2797,59.4572
185.2955,59.4736
185.3124,59.4891
185.3305,59.5037
185.3498,59.5174
185.3703,59.5303
185.3919,59.5423
185.4147,59.5533
185.4387,59.5635
185.4638,59.5728
185.4901,59.5812
185.5176,59.5888
185.5463,59.5954
185.5761,59.6012
185.6071,59.6061
185.6392,59.6101
185.6726,59.6132
185.7071,59.6154
185.7427,59.6167
185.7796,59.6172
185.8132,59.6167
185.8459,59.6154
185.8778,59.6131
185.9088,59.6100
185.9390,59.6059
185.9683,59.6010
185.9968,59.5952
186.0244,59.5884
186.0512,59.5808
186.0771,59.5723
186.1022,59.5629
186.1264,59.5525
186.1498,59.5413
186.1723,59.5292
186.1940,59.5162
186.2149,59.5023
186.2347,59.4875
186.2532,59.4719
186.2704,59.4554
186.2864,59.4381
186.2939,59.4291
186.3010,59.4199
186.3079,59.4104
186.3144,59.4008
186.3207,59.3910
186.3266,59.3809
186.3322,59.3706
186.3374,59.3602
186.3470,59.3386
186.3553,59.3161
186.3623,59.2928
186.3681,59.2687
186.3725,59.2437
186.3757,59.2178
186.3776,59.1911
186.3783,59.1636
186.3771,59.1272
186.3737,59.0922
186.3681,59.0586
186.3601,59.0263
186.3499,58.9955
186.3374,58.9659
186.3227,58.9378
186.3057,58.9110
186.2864,58.8856
186.2649,58.8616
186.2410,58.8389
186.2150,58.8176
186.1866,58.7977
186.1560,58.7792
186.1231,58.7620
186.0880,58.7461
186.2996,58.3290
Z" /> 
<path style="fill:#000000; fill-opacity:1.0000; stroke:none;fill-rule:evenodd;"
d="M 186.3302,56.3874
186.3600,56.4059
186.3890,56.4252
186.4171,56.4452
186.4443,56.4660
186.4708,56.4875
186.4964,56.5098
186.5212,56.5329
186.5452,56.5567
186.5683,56.5812
186.5906,56.6066
186.6121,56.6326
186.6328,56.6594
186.6526,56.6870
186.6716,56.7153
186.6898,56.7444
186.7070,56.7741
186.7231,56.8040
186.7381,56.8344
186.7520,56.8650
186.7647,56.8960
186.7764,56.9273
186.7869,56.9589
186.7964,56.9909
186.8047,57.0232
186.8119,57.0558
186.8180,57.0887
186.8230,57.1220
186.8269,57.1556
186.8297,57.1896
186.8313,57.2238
186.8319,57.2584
186.8308,57.3152
186.8275,57.3705
186.8221,57.4243
186.8145,57.4768
186.8047,57.5277
186.7928,57.5772
186.7787,57.6253
186.7624,57.6719
186.7439,57.7171
186.7233,57.7609
186.7004,57.8032
186.6754,57.8440
186.6483,57.8834
186.6189,57.9214
186.5874,57.9579
186.5536,57.9930
186.5180,58.0264
186.4807,58.0576
186.4417,58.0867
186.4010,58.1136
186.3585,58.1383
186.3144,58.1609
186.2686,58.1813
186.2211,58.1996
186.1719,58.2158
186.1209,58.2297
186.0683,58.2416
186.0140,58.2512
185.9580,58.2587
185.9002,58.2641
185.8408,58.2673
185.7797,58.2684
185.7200,58.2673
185.6618,58.2640
185.6053,58.2585
185.5503,58.2508
185.4968,58.2410
185.4449,58.2289
185.3946,58.2146
185.3458,58.1981
185.2986,58.1795
185.2529,58.1586
185.2088,58.1355
185.1663,58.1102
185.1253,58.0827
185.0858,58.0531
185.0480,58.0212
185.0117,57.9871
184.9772,57.9514
184.9451,57.9145
184.9151,57.8765
184.8873,57.8373
184.8618,57.7970
184.8385,57.7555
184.8174,57.7128
184.7985,57.6690
184.7818,57.6240
184.7674,57.5779
184.7552,57.5306
184.7452,57.4821
184.7374,57.4325
184.7318,57.3817
184.7285,57.3297
184.7274,57.2766
184.7293,57.1994
184.7350,57.1251
184.7445,57.0535
184.7579,56.9848
184.7751,56.9189
184.7961,56.8559
184.8210,56.7957
184.8497,56.7383
184.8822,56.6838
184.9186,56.6321
184.9587,56.5832
185.0027,56.5372
185.0506,56.4940
185.1023,56.4537
185.1578,56.4162
185.2171,56.3815
185.2171,56.3815
185.4530,56.8291
185.4345,56.8383
185.4166,56.8477
185.3995,56.8575
185.3831,56.8675
185.3674,56.8777
185.3524,56.8882
185.3381,56.8990
185.3245,56.9100
185.3116,56.9213
185.2995,56.9328
185.2880,56.9446
185.2772,56.9567
185.2672,56.9690
185.2579,56.9816
185.2492,56.9944
185.2413,57.0075
185.2340,57.0207
185.2272,57.0339
185.2208,57.0470
185.2149,57.0600
185.2095,57.0729
185.2045,57.0857
185.2000,57.0985
185.1960,57.1112
185.1925,57.1238
185.1894,57.1364
185.1868,57.1489
185.1847,57.1613
185.1830,57.1736
185.1818,57.1858
185.1811,57.1980
185.1809,57.2101
185.1815,57.2380
185.1832,57.2650
185.1861,57.2911
185.1902,57.3164
185.1955,57.3408
185.2019,57.3642
185.2095,57.3868
185.2183,57.4085
185.2282,57.4294
185.2393,57.4493
185.2516,57.4683
185.2651,57.4865
185.2797,57.5038
185.2955,57.5202
185.3124,57.5357
185.3305,57.5503
185.3498,57.5641
185.3703,57.5769
185.3919,57.5889
185.4147,57.6000
185.4387,57.6102
185.4638,57.6195
185.4901,57.6279
185.5176,57.6354
185.5463,57.6421
185.5761,57.6478
185.6071,57.6527
185.6392,57.6567
185.6726,57.6598
185.7071,57.6620
185.7427,57.6633
185.7796,57.6638
185.8132,57.6633
185.8459,57.6620
185.8778,57.6597
185.9088,57.6566
185.9390,57.6525
185.9683,57.6476
185.9968,57.6418
186.0244,57.6350
186.0512,57.6274
186.0771,57.6188
186.1022,57.6094
186.1264,57.5991
186.1498,57.5879
186.1723,57.5758
186.1940,57.5628
186.2149,57.5489
186.2347,57.5341
186.2532,57.5185
186.2704,57.5020
186.2785,57.4934
186.2864,57.4847
186.2939,57.4757
186.3010,57.4665
186.3079,57.4571
186.3144,57.4474
186.3207,57.4376
186.3266,57.4276
186.3322,57.4173
186.3374,57.4068
186.3470,57.3852
186.3553,57.3628
186.3623,57.3395
186.3681,57.3153
186.3725,57.2903
186.3757,57.2644
186.3776,57.2377
186.3783,57.2101
186.3771,57.1738
186.3737,57.1388
186.3681,57.1052
186.3601,57.0730
186.3499,57.0421
186.3374,57.0126
186.3227,56.9845
186.3057,56.9577
186.2864,56.9323
186.2649,56.9083
186.2410,56.8857
186.2150,56.8644
186.1866,56.8445
186.1560,56.8259
186.1231,56.8088
186.0880,56.7930
186.2996,56.3697
Z" /> 
</g>
<g style="fill:none; 
stroke:#000000; stroke-width:0.1000; stroke-opacity:1; 
stroke-linecap:round; stroke-linejoin:round;">
<circle cx="191.9400" cy="67.6000" r="17.5000" /> 
</g> 
</svg>
