%TF.GenerationSoftware,KiCad,Pcbnew,8.0.6*%
%TF.CreationDate,2024-12-07T20:29:56+01:00*%
%TF.ProjectId,circular PCB,63697263-756c-4617-9220-5043422e6b69,rev?*%
%TF.SameCoordinates,Original*%
%TF.FileFunction,Copper,L1,Top*%
%TF.FilePolarity,Positive*%
%FSLAX46Y46*%
G04 Gerber Fmt 4.6, Leading zero omitted, Abs format (unit mm)*
G04 Created by KiCad (PCBNEW 8.0.6) date 2024-12-07 20:29:56*
%MOMM*%
%LPD*%
G01*
G04 APERTURE LIST*
G04 Aperture macros list*
%AMRoundRect*
0 Rectangle with rounded corners*
0 $1 Rounding radius*
0 $2 $3 $4 $5 $6 $7 $8 $9 X,Y pos of 4 corners*
0 Add a 4 corners polygon primitive as box body*
4,1,4,$2,$3,$4,$5,$6,$7,$8,$9,$2,$3,0*
0 Add four circle primitives for the rounded corners*
1,1,$1+$1,$2,$3*
1,1,$1+$1,$4,$5*
1,1,$1+$1,$6,$7*
1,1,$1+$1,$8,$9*
0 Add four rect primitives between the rounded corners*
20,1,$1+$1,$2,$3,$4,$5,0*
20,1,$1+$1,$4,$5,$6,$7,0*
20,1,$1+$1,$6,$7,$8,$9,0*
20,1,$1+$1,$8,$9,$2,$3,0*%
G04 Aperture macros list end*
%TA.AperFunction,EtchedComponent*%
%ADD10C,0.010000*%
%TD*%
%TA.AperFunction,ComponentPad*%
%ADD11C,4.400000*%
%TD*%
%TA.AperFunction,SMDPad,CuDef*%
%ADD12RoundRect,0.250000X-0.475000X0.337500X-0.475000X-0.337500X0.475000X-0.337500X0.475000X0.337500X0*%
%TD*%
%TA.AperFunction,SMDPad,CuDef*%
%ADD13RoundRect,0.250000X0.450000X-0.350000X0.450000X0.350000X-0.450000X0.350000X-0.450000X-0.350000X0*%
%TD*%
%TA.AperFunction,SMDPad,CuDef*%
%ADD14RoundRect,0.250000X-0.350000X-0.450000X0.350000X-0.450000X0.350000X0.450000X-0.350000X0.450000X0*%
%TD*%
%TA.AperFunction,SMDPad,CuDef*%
%ADD15RoundRect,0.250000X0.400000X0.600000X-0.400000X0.600000X-0.400000X-0.600000X0.400000X-0.600000X0*%
%TD*%
%TA.AperFunction,SMDPad,CuDef*%
%ADD16RoundRect,0.250000X0.325000X0.450000X-0.325000X0.450000X-0.325000X-0.450000X0.325000X-0.450000X0*%
%TD*%
%TA.AperFunction,SMDPad,CuDef*%
%ADD17R,0.650000X1.700000*%
%TD*%
%TA.AperFunction,ComponentPad*%
%ADD18O,1.700000X1.700000*%
%TD*%
%TA.AperFunction,ComponentPad*%
%ADD19R,1.700000X1.700000*%
%TD*%
%TA.AperFunction,SMDPad,CuDef*%
%ADD20RoundRect,0.250000X-0.600000X0.400000X-0.600000X-0.400000X0.600000X-0.400000X0.600000X0.400000X0*%
%TD*%
%TA.AperFunction,ComponentPad*%
%ADD21C,1.450000*%
%TD*%
%TA.AperFunction,SMDPad,CuDef*%
%ADD22R,1.200000X1.900000*%
%TD*%
%TA.AperFunction,SMDPad,CuDef*%
%ADD23R,0.400000X1.350000*%
%TD*%
%TA.AperFunction,SMDPad,CuDef*%
%ADD24R,1.500000X1.900000*%
%TD*%
%TA.AperFunction,SMDPad,CuDef*%
%ADD25RoundRect,0.250000X0.350000X-0.850000X0.350000X0.850000X-0.350000X0.850000X-0.350000X-0.850000X0*%
%TD*%
%TA.AperFunction,SMDPad,CuDef*%
%ADD26RoundRect,0.250000X1.125000X-1.275000X1.125000X1.275000X-1.125000X1.275000X-1.125000X-1.275000X0*%
%TD*%
%TA.AperFunction,SMDPad,CuDef*%
%ADD27RoundRect,0.249997X2.650003X-2.950003X2.650003X2.950003X-2.650003X2.950003X-2.650003X-2.950003X0*%
%TD*%
%TA.AperFunction,SMDPad,CuDef*%
%ADD28RoundRect,0.225000X0.375000X-0.225000X0.375000X0.225000X-0.375000X0.225000X-0.375000X-0.225000X0*%
%TD*%
%TA.AperFunction,Conductor*%
%ADD29C,1.000000*%
%TD*%
%TA.AperFunction,Conductor*%
%ADD30C,0.500000*%
%TD*%
%TA.AperFunction,Conductor*%
%ADD31C,0.400000*%
%TD*%
G04 APERTURE END LIST*
D10*
%TO.C,REF\u002A\u002A*%
X184080814Y-74643931D02*
X184164635Y-75088555D01*
X184473920Y-75216053D01*
X184783206Y-75343551D01*
X185154246Y-75091246D01*
X185258157Y-75020996D01*
X185352087Y-74958272D01*
X185431652Y-74905938D01*
X185492470Y-74866857D01*
X185530157Y-74843893D01*
X185540421Y-74838942D01*
X185558910Y-74851676D01*
X185598420Y-74886882D01*
X185654522Y-74940062D01*
X185722787Y-75006718D01*
X185798786Y-75082354D01*
X185878092Y-75162472D01*
X185956275Y-75242574D01*
X186028907Y-75318164D01*
X186091559Y-75384745D01*
X186139803Y-75437818D01*
X186169210Y-75472887D01*
X186176241Y-75484623D01*
X186166123Y-75506260D01*
X186137759Y-75553662D01*
X186094129Y-75622193D01*
X186038218Y-75707215D01*
X185973006Y-75804093D01*
X185935219Y-75859350D01*
X185866343Y-75960248D01*
X185805140Y-76051299D01*
X185754578Y-76127970D01*
X185717628Y-76185728D01*
X185697258Y-76220043D01*
X185694197Y-76227254D01*
X185701136Y-76247748D01*
X185720051Y-76295513D01*
X185748087Y-76363832D01*
X185782391Y-76445989D01*
X185820109Y-76535270D01*
X185858387Y-76624958D01*
X185894370Y-76708338D01*
X185925206Y-76778694D01*
X185948039Y-76829310D01*
X185960017Y-76853471D01*
X185960724Y-76854422D01*
X185979531Y-76859036D01*
X186029618Y-76869328D01*
X186105793Y-76884287D01*
X186202865Y-76902901D01*
X186315643Y-76924159D01*
X186381442Y-76936418D01*
X186501950Y-76959362D01*
X186610797Y-76981195D01*
X186702476Y-77000722D01*
X186771481Y-77016748D01*
X186812304Y-77028079D01*
X186820511Y-77031674D01*
X186828548Y-77056006D01*
X186835033Y-77110959D01*
X186839970Y-77190108D01*
X186843364Y-77287026D01*
X186845218Y-77395287D01*
X186845538Y-77508465D01*
X186844327Y-77620135D01*
X186841590Y-77723868D01*
X186837331Y-77813241D01*
X186831555Y-77881826D01*
X186824267Y-77923197D01*
X186819895Y-77931810D01*
X186793764Y-77942133D01*
X186738393Y-77956892D01*
X186661107Y-77974352D01*
X186569230Y-77992780D01*
X186537158Y-77998741D01*
X186382524Y-78027066D01*
X186260375Y-78049876D01*
X186166673Y-78068080D01*
X186097384Y-78082583D01*
X186048471Y-78094292D01*
X186015897Y-78104115D01*
X185995628Y-78112956D01*
X185983626Y-78121724D01*
X185981947Y-78123457D01*
X185965184Y-78151371D01*
X185939614Y-78205695D01*
X185907788Y-78279777D01*
X185872260Y-78366965D01*
X185835583Y-78460608D01*
X185800311Y-78554052D01*
X185768996Y-78640647D01*
X185744193Y-78713740D01*
X185728454Y-78766678D01*
X185724332Y-78792811D01*
X185724676Y-78793726D01*
X185738641Y-78815086D01*
X185770322Y-78862084D01*
X185816391Y-78929827D01*
X185873518Y-79013423D01*
X185938373Y-79107982D01*
X185956843Y-79134854D01*
X186022699Y-79232275D01*
X186080650Y-79321163D01*
X186127538Y-79396412D01*
X186160207Y-79452920D01*
X186175500Y-79485581D01*
X186176241Y-79489593D01*
X186163392Y-79510684D01*
X186127888Y-79552464D01*
X186074293Y-79610445D01*
X186007171Y-79680135D01*
X185931087Y-79757045D01*
X185850604Y-79836683D01*
X185770287Y-79914561D01*
X185694699Y-79986186D01*
X185628405Y-80047070D01*
X185575969Y-80092721D01*
X185541955Y-80118650D01*
X185532545Y-80122883D01*
X185510643Y-80112912D01*
X185465800Y-80086020D01*
X185405321Y-80046736D01*
X185358789Y-80015117D01*
X185274475Y-79957098D01*
X185174626Y-79888784D01*
X185074473Y-79820579D01*
X185020627Y-79784075D01*
X184838371Y-79660800D01*
X184685381Y-79743520D01*
X184615682Y-79779759D01*
X184556414Y-79807926D01*
X184516311Y-79823991D01*
X184506103Y-79826226D01*
X184493829Y-79809722D01*
X184469613Y-79763082D01*
X184435263Y-79690609D01*
X184392588Y-79596606D01*
X184343394Y-79485374D01*
X184289490Y-79361215D01*
X184232684Y-79228432D01*
X184174782Y-79091327D01*
X184117593Y-78954202D01*
X184062924Y-78821358D01*
X184012584Y-78697098D01*
X183968380Y-78585725D01*
X183932119Y-78491539D01*
X183905609Y-78418844D01*
X183890658Y-78371941D01*
X183888254Y-78355833D01*
X183907311Y-78335286D01*
X183949036Y-78301933D01*
X184004706Y-78262702D01*
X184009378Y-78259599D01*
X184153264Y-78144423D01*
X184269283Y-78010053D01*
X184356430Y-77860784D01*
X184413699Y-77700913D01*
X184440086Y-77534737D01*
X184434585Y-77366552D01*
X184396190Y-77200655D01*
X184323895Y-77041342D01*
X184302626Y-77006487D01*
X184191996Y-76865737D01*
X184061302Y-76752714D01*
X183915064Y-76668003D01*
X183757808Y-76612194D01*
X183594057Y-76585874D01*
X183428333Y-76589630D01*
X183265162Y-76624050D01*
X183109065Y-76689723D01*
X182964567Y-76787235D01*
X182919869Y-76826813D01*
X182806112Y-76950703D01*
X182723218Y-77081124D01*
X182666356Y-77227315D01*
X182634687Y-77372088D01*
X182626869Y-77534860D01*
X182652938Y-77698440D01*
X182710245Y-77857298D01*
X182796144Y-78005906D01*
X182907986Y-78138735D01*
X183043123Y-78250256D01*
X183060883Y-78262011D01*
X183117150Y-78300508D01*
X183159923Y-78333863D01*
X183180372Y-78355160D01*
X183180669Y-78355833D01*
X183176279Y-78378871D01*
X183158876Y-78431157D01*
X183130268Y-78508390D01*
X183092265Y-78606268D01*
X183046674Y-78720491D01*
X182995303Y-78846758D01*
X182939962Y-78980767D01*
X182882458Y-79118218D01*
X182824601Y-79254808D01*
X182768198Y-79386237D01*
X182715058Y-79508205D01*
X182666990Y-79616409D01*
X182625801Y-79706549D01*
X182593301Y-79774323D01*
X182571297Y-79815430D01*
X182562436Y-79826226D01*
X182535360Y-79817819D01*
X182484697Y-79795272D01*
X182419183Y-79762613D01*
X182383159Y-79743520D01*
X182230168Y-79660800D01*
X182047912Y-79784075D01*
X181954875Y-79847228D01*
X181853015Y-79916727D01*
X181757562Y-79982165D01*
X181709750Y-80015117D01*
X181642505Y-80060273D01*
X181585564Y-80096057D01*
X181546354Y-80117938D01*
X181533619Y-80122563D01*
X181515083Y-80110085D01*
X181474059Y-80075252D01*
X181414525Y-80021678D01*
X181340458Y-79952983D01*
X181255835Y-79872781D01*
X181202315Y-79821286D01*
X181108681Y-79729286D01*
X181027759Y-79646999D01*
X180962823Y-79577945D01*
X180917142Y-79525644D01*
X180893989Y-79493616D01*
X180891768Y-79487116D01*
X180902076Y-79462394D01*
X180930561Y-79412405D01*
X180974063Y-79342212D01*
X181029423Y-79256875D01*
X181093480Y-79161456D01*
X181111697Y-79134854D01*
X181178073Y-79038167D01*
X181237622Y-78951117D01*
X181287016Y-78878595D01*
X181322925Y-78825493D01*
X181342019Y-78796703D01*
X181343864Y-78793726D01*
X181341105Y-78770782D01*
X181326462Y-78720336D01*
X181302487Y-78649041D01*
X181271734Y-78563547D01*
X181236756Y-78470507D01*
X181200107Y-78376574D01*
X181164339Y-78288399D01*
X181132006Y-78212634D01*
X181105662Y-78155931D01*
X181087858Y-78124943D01*
X181086593Y-78123457D01*
X181075706Y-78114601D01*
X181057318Y-78105843D01*
X181027394Y-78096277D01*
X180981897Y-78084996D01*
X180916791Y-78071093D01*
X180828039Y-78053663D01*
X180711607Y-78031798D01*
X180563458Y-78004591D01*
X180531382Y-77998741D01*
X180436314Y-77980374D01*
X180353435Y-77962405D01*
X180290070Y-77946569D01*
X180253542Y-77934600D01*
X180248644Y-77931810D01*
X180240573Y-77907072D01*
X180234013Y-77851790D01*
X180228967Y-77772389D01*
X180225441Y-77675296D01*
X180223439Y-77566938D01*
X180222964Y-77453740D01*
X180224023Y-77342128D01*
X180226618Y-77238529D01*
X180230754Y-77149368D01*
X180236437Y-77081072D01*
X180243669Y-77040066D01*
X180248029Y-77031674D01*
X180272302Y-77023208D01*
X180327574Y-77009435D01*
X180408338Y-76991550D01*
X180509088Y-76970748D01*
X180624317Y-76948223D01*
X180687098Y-76936418D01*
X180806213Y-76914151D01*
X180912435Y-76893979D01*
X181000573Y-76876915D01*
X181065434Y-76863969D01*
X181101826Y-76856155D01*
X181107816Y-76854422D01*
X181117939Y-76834890D01*
X181139338Y-76787843D01*
X181169161Y-76720003D01*
X181204555Y-76638091D01*
X181242668Y-76548828D01*
X181280647Y-76458935D01*
X181315640Y-76375135D01*
X181344794Y-76304147D01*
X181365257Y-76252694D01*
X181374177Y-76227497D01*
X181374343Y-76226396D01*
X181364231Y-76206519D01*
X181335883Y-76160777D01*
X181292277Y-76093717D01*
X181236394Y-76009884D01*
X181171213Y-75913826D01*
X181133321Y-75858650D01*
X181064275Y-75757481D01*
X181002950Y-75665630D01*
X180952337Y-75587744D01*
X180915429Y-75528469D01*
X180895218Y-75492451D01*
X180892299Y-75484377D01*
X180904847Y-75465584D01*
X180939537Y-75425457D01*
X180991937Y-75368493D01*
X181057616Y-75299185D01*
X181132144Y-75222031D01*
X181211087Y-75141525D01*
X181290017Y-75062163D01*
X181364500Y-74988440D01*
X181430106Y-74924852D01*
X181482404Y-74875894D01*
X181516961Y-74846061D01*
X181528522Y-74838942D01*
X181547346Y-74848953D01*
X181592369Y-74877078D01*
X181659213Y-74920454D01*
X181743501Y-74976218D01*
X181840856Y-75041506D01*
X181914293Y-75091246D01*
X182285333Y-75343551D01*
X182903905Y-75088555D01*
X182987725Y-74643931D01*
X183071546Y-74199307D01*
X183996994Y-74199307D01*
X184080814Y-74643931D01*
%TA.AperFunction,EtchedComponent*%
G36*
X184080814Y-74643931D02*
G01*
X184164635Y-75088555D01*
X184473920Y-75216053D01*
X184783206Y-75343551D01*
X185154246Y-75091246D01*
X185258157Y-75020996D01*
X185352087Y-74958272D01*
X185431652Y-74905938D01*
X185492470Y-74866857D01*
X185530157Y-74843893D01*
X185540421Y-74838942D01*
X185558910Y-74851676D01*
X185598420Y-74886882D01*
X185654522Y-74940062D01*
X185722787Y-75006718D01*
X185798786Y-75082354D01*
X185878092Y-75162472D01*
X185956275Y-75242574D01*
X186028907Y-75318164D01*
X186091559Y-75384745D01*
X186139803Y-75437818D01*
X186169210Y-75472887D01*
X186176241Y-75484623D01*
X186166123Y-75506260D01*
X186137759Y-75553662D01*
X186094129Y-75622193D01*
X186038218Y-75707215D01*
X185973006Y-75804093D01*
X185935219Y-75859350D01*
X185866343Y-75960248D01*
X185805140Y-76051299D01*
X185754578Y-76127970D01*
X185717628Y-76185728D01*
X185697258Y-76220043D01*
X185694197Y-76227254D01*
X185701136Y-76247748D01*
X185720051Y-76295513D01*
X185748087Y-76363832D01*
X185782391Y-76445989D01*
X185820109Y-76535270D01*
X185858387Y-76624958D01*
X185894370Y-76708338D01*
X185925206Y-76778694D01*
X185948039Y-76829310D01*
X185960017Y-76853471D01*
X185960724Y-76854422D01*
X185979531Y-76859036D01*
X186029618Y-76869328D01*
X186105793Y-76884287D01*
X186202865Y-76902901D01*
X186315643Y-76924159D01*
X186381442Y-76936418D01*
X186501950Y-76959362D01*
X186610797Y-76981195D01*
X186702476Y-77000722D01*
X186771481Y-77016748D01*
X186812304Y-77028079D01*
X186820511Y-77031674D01*
X186828548Y-77056006D01*
X186835033Y-77110959D01*
X186839970Y-77190108D01*
X186843364Y-77287026D01*
X186845218Y-77395287D01*
X186845538Y-77508465D01*
X186844327Y-77620135D01*
X186841590Y-77723868D01*
X186837331Y-77813241D01*
X186831555Y-77881826D01*
X186824267Y-77923197D01*
X186819895Y-77931810D01*
X186793764Y-77942133D01*
X186738393Y-77956892D01*
X186661107Y-77974352D01*
X186569230Y-77992780D01*
X186537158Y-77998741D01*
X186382524Y-78027066D01*
X186260375Y-78049876D01*
X186166673Y-78068080D01*
X186097384Y-78082583D01*
X186048471Y-78094292D01*
X186015897Y-78104115D01*
X185995628Y-78112956D01*
X185983626Y-78121724D01*
X185981947Y-78123457D01*
X185965184Y-78151371D01*
X185939614Y-78205695D01*
X185907788Y-78279777D01*
X185872260Y-78366965D01*
X185835583Y-78460608D01*
X185800311Y-78554052D01*
X185768996Y-78640647D01*
X185744193Y-78713740D01*
X185728454Y-78766678D01*
X185724332Y-78792811D01*
X185724676Y-78793726D01*
X185738641Y-78815086D01*
X185770322Y-78862084D01*
X185816391Y-78929827D01*
X185873518Y-79013423D01*
X185938373Y-79107982D01*
X185956843Y-79134854D01*
X186022699Y-79232275D01*
X186080650Y-79321163D01*
X186127538Y-79396412D01*
X186160207Y-79452920D01*
X186175500Y-79485581D01*
X186176241Y-79489593D01*
X186163392Y-79510684D01*
X186127888Y-79552464D01*
X186074293Y-79610445D01*
X186007171Y-79680135D01*
X185931087Y-79757045D01*
X185850604Y-79836683D01*
X185770287Y-79914561D01*
X185694699Y-79986186D01*
X185628405Y-80047070D01*
X185575969Y-80092721D01*
X185541955Y-80118650D01*
X185532545Y-80122883D01*
X185510643Y-80112912D01*
X185465800Y-80086020D01*
X185405321Y-80046736D01*
X185358789Y-80015117D01*
X185274475Y-79957098D01*
X185174626Y-79888784D01*
X185074473Y-79820579D01*
X185020627Y-79784075D01*
X184838371Y-79660800D01*
X184685381Y-79743520D01*
X184615682Y-79779759D01*
X184556414Y-79807926D01*
X184516311Y-79823991D01*
X184506103Y-79826226D01*
X184493829Y-79809722D01*
X184469613Y-79763082D01*
X184435263Y-79690609D01*
X184392588Y-79596606D01*
X184343394Y-79485374D01*
X184289490Y-79361215D01*
X184232684Y-79228432D01*
X184174782Y-79091327D01*
X184117593Y-78954202D01*
X184062924Y-78821358D01*
X184012584Y-78697098D01*
X183968380Y-78585725D01*
X183932119Y-78491539D01*
X183905609Y-78418844D01*
X183890658Y-78371941D01*
X183888254Y-78355833D01*
X183907311Y-78335286D01*
X183949036Y-78301933D01*
X184004706Y-78262702D01*
X184009378Y-78259599D01*
X184153264Y-78144423D01*
X184269283Y-78010053D01*
X184356430Y-77860784D01*
X184413699Y-77700913D01*
X184440086Y-77534737D01*
X184434585Y-77366552D01*
X184396190Y-77200655D01*
X184323895Y-77041342D01*
X184302626Y-77006487D01*
X184191996Y-76865737D01*
X184061302Y-76752714D01*
X183915064Y-76668003D01*
X183757808Y-76612194D01*
X183594057Y-76585874D01*
X183428333Y-76589630D01*
X183265162Y-76624050D01*
X183109065Y-76689723D01*
X182964567Y-76787235D01*
X182919869Y-76826813D01*
X182806112Y-76950703D01*
X182723218Y-77081124D01*
X182666356Y-77227315D01*
X182634687Y-77372088D01*
X182626869Y-77534860D01*
X182652938Y-77698440D01*
X182710245Y-77857298D01*
X182796144Y-78005906D01*
X182907986Y-78138735D01*
X183043123Y-78250256D01*
X183060883Y-78262011D01*
X183117150Y-78300508D01*
X183159923Y-78333863D01*
X183180372Y-78355160D01*
X183180669Y-78355833D01*
X183176279Y-78378871D01*
X183158876Y-78431157D01*
X183130268Y-78508390D01*
X183092265Y-78606268D01*
X183046674Y-78720491D01*
X182995303Y-78846758D01*
X182939962Y-78980767D01*
X182882458Y-79118218D01*
X182824601Y-79254808D01*
X182768198Y-79386237D01*
X182715058Y-79508205D01*
X182666990Y-79616409D01*
X182625801Y-79706549D01*
X182593301Y-79774323D01*
X182571297Y-79815430D01*
X182562436Y-79826226D01*
X182535360Y-79817819D01*
X182484697Y-79795272D01*
X182419183Y-79762613D01*
X182383159Y-79743520D01*
X182230168Y-79660800D01*
X182047912Y-79784075D01*
X181954875Y-79847228D01*
X181853015Y-79916727D01*
X181757562Y-79982165D01*
X181709750Y-80015117D01*
X181642505Y-80060273D01*
X181585564Y-80096057D01*
X181546354Y-80117938D01*
X181533619Y-80122563D01*
X181515083Y-80110085D01*
X181474059Y-80075252D01*
X181414525Y-80021678D01*
X181340458Y-79952983D01*
X181255835Y-79872781D01*
X181202315Y-79821286D01*
X181108681Y-79729286D01*
X181027759Y-79646999D01*
X180962823Y-79577945D01*
X180917142Y-79525644D01*
X180893989Y-79493616D01*
X180891768Y-79487116D01*
X180902076Y-79462394D01*
X180930561Y-79412405D01*
X180974063Y-79342212D01*
X181029423Y-79256875D01*
X181093480Y-79161456D01*
X181111697Y-79134854D01*
X181178073Y-79038167D01*
X181237622Y-78951117D01*
X181287016Y-78878595D01*
X181322925Y-78825493D01*
X181342019Y-78796703D01*
X181343864Y-78793726D01*
X181341105Y-78770782D01*
X181326462Y-78720336D01*
X181302487Y-78649041D01*
X181271734Y-78563547D01*
X181236756Y-78470507D01*
X181200107Y-78376574D01*
X181164339Y-78288399D01*
X181132006Y-78212634D01*
X181105662Y-78155931D01*
X181087858Y-78124943D01*
X181086593Y-78123457D01*
X181075706Y-78114601D01*
X181057318Y-78105843D01*
X181027394Y-78096277D01*
X180981897Y-78084996D01*
X180916791Y-78071093D01*
X180828039Y-78053663D01*
X180711607Y-78031798D01*
X180563458Y-78004591D01*
X180531382Y-77998741D01*
X180436314Y-77980374D01*
X180353435Y-77962405D01*
X180290070Y-77946569D01*
X180253542Y-77934600D01*
X180248644Y-77931810D01*
X180240573Y-77907072D01*
X180234013Y-77851790D01*
X180228967Y-77772389D01*
X180225441Y-77675296D01*
X180223439Y-77566938D01*
X180222964Y-77453740D01*
X180224023Y-77342128D01*
X180226618Y-77238529D01*
X180230754Y-77149368D01*
X180236437Y-77081072D01*
X180243669Y-77040066D01*
X180248029Y-77031674D01*
X180272302Y-77023208D01*
X180327574Y-77009435D01*
X180408338Y-76991550D01*
X180509088Y-76970748D01*
X180624317Y-76948223D01*
X180687098Y-76936418D01*
X180806213Y-76914151D01*
X180912435Y-76893979D01*
X181000573Y-76876915D01*
X181065434Y-76863969D01*
X181101826Y-76856155D01*
X181107816Y-76854422D01*
X181117939Y-76834890D01*
X181139338Y-76787843D01*
X181169161Y-76720003D01*
X181204555Y-76638091D01*
X181242668Y-76548828D01*
X181280647Y-76458935D01*
X181315640Y-76375135D01*
X181344794Y-76304147D01*
X181365257Y-76252694D01*
X181374177Y-76227497D01*
X181374343Y-76226396D01*
X181364231Y-76206519D01*
X181335883Y-76160777D01*
X181292277Y-76093717D01*
X181236394Y-76009884D01*
X181171213Y-75913826D01*
X181133321Y-75858650D01*
X181064275Y-75757481D01*
X181002950Y-75665630D01*
X180952337Y-75587744D01*
X180915429Y-75528469D01*
X180895218Y-75492451D01*
X180892299Y-75484377D01*
X180904847Y-75465584D01*
X180939537Y-75425457D01*
X180991937Y-75368493D01*
X181057616Y-75299185D01*
X181132144Y-75222031D01*
X181211087Y-75141525D01*
X181290017Y-75062163D01*
X181364500Y-74988440D01*
X181430106Y-74924852D01*
X181482404Y-74875894D01*
X181516961Y-74846061D01*
X181528522Y-74838942D01*
X181547346Y-74848953D01*
X181592369Y-74877078D01*
X181659213Y-74920454D01*
X181743501Y-74976218D01*
X181840856Y-75041506D01*
X181914293Y-75091246D01*
X182285333Y-75343551D01*
X182903905Y-75088555D01*
X182987725Y-74643931D01*
X183071546Y-74199307D01*
X183996994Y-74199307D01*
X184080814Y-74643931D01*
G37*
%TD.AperFunction*%
%TD*%
D11*
%TO.P,M2,1*%
%TO.N,N/C*%
X178800000Y-74050000D03*
%TD*%
D12*
%TO.P,C1,2*%
%TO.N,GND1*%
X185810000Y-67895000D03*
%TO.P,C1,1*%
%TO.N,+5V*%
X185810000Y-65820000D03*
%TD*%
D13*
%TO.P,R2,2*%
%TO.N,Net-(J1-Pin_4)*%
X193160000Y-68450000D03*
%TO.P,R2,1*%
%TO.N,Net-(D2-K)*%
X193160000Y-70450000D03*
%TD*%
D12*
%TO.P,C2,2*%
%TO.N,GND1*%
X182800000Y-67895000D03*
%TO.P,C2,1*%
%TO.N,+5V*%
X182800000Y-65820000D03*
%TD*%
D13*
%TO.P,R4,2*%
%TO.N,Net-(J1-Pin_6)*%
X194780000Y-73840000D03*
%TO.P,R4,1*%
%TO.N,Net-(D5-K)*%
X194780000Y-75840000D03*
%TD*%
D14*
%TO.P,R3,2*%
%TO.N,GND1*%
X200470000Y-55210000D03*
%TO.P,R3,1*%
%TO.N,Net-(D4-K)*%
X198470000Y-55210000D03*
%TD*%
D15*
%TO.P,D2,2,A*%
%TO.N,GND1*%
X182417500Y-71810000D03*
%TO.P,D2,1,K*%
%TO.N,Net-(D2-K)*%
X185917500Y-71810000D03*
%TD*%
D16*
%TO.P,L1,1,K*%
%TO.N,Net-(D1-K)*%
X196230000Y-58600000D03*
%TO.P,L1,2,A*%
%TO.N,Net-(D1-A)*%
X194180000Y-58600000D03*
%TD*%
D17*
%TO.P,U1,8,VCC*%
%TO.N,+5V*%
X195435000Y-63470000D03*
%TO.P,U1,7,PB2*%
%TO.N,Net-(J1-Pin_3)*%
X196705000Y-63470000D03*
%TO.P,U1,6,PB1*%
%TO.N,Net-(D1-A)*%
X197975000Y-63470000D03*
%TO.P,U1,5,AREF/PB0*%
%TO.N,Net-(J1-Pin_1)*%
X199245000Y-63470000D03*
%TO.P,U1,4,GND*%
%TO.N,GND1*%
X199245000Y-70770000D03*
%TO.P,U1,3,XTAL2/PB4*%
%TO.N,Net-(J1-Pin_6)*%
X197975000Y-70770000D03*
%TO.P,U1,2,XTAL1/PB3*%
%TO.N,Net-(J1-Pin_4)*%
X196705000Y-70770000D03*
%TO.P,U1,1,~{RESET}/PB5*%
%TO.N,Net-(J1-Pin_7)*%
X195435000Y-70770000D03*
%TD*%
D18*
%TO.P,J2,3,Pin_3*%
%TO.N,+5V*%
X178430000Y-69730000D03*
%TO.P,J2,2,Pin_2*%
%TO.N,GND1*%
X178430000Y-67190000D03*
D19*
%TO.P,J2,1,Pin_1*%
%TO.N,Net-(J2-Pin_1)*%
X178430000Y-64650000D03*
%TD*%
D14*
%TO.P,R1,2*%
%TO.N,GND1*%
X200480000Y-58610000D03*
%TO.P,R1,1*%
%TO.N,Net-(D1-K)*%
X198480000Y-58610000D03*
%TD*%
D20*
%TO.P,D5,2,A*%
%TO.N,GND1*%
X198620000Y-80990000D03*
%TO.P,D5,1,K*%
%TO.N,Net-(D5-K)*%
X198620000Y-77490000D03*
%TD*%
D21*
%TO.P,J3,5,GND*%
%TO.N,GND1*%
X195390000Y-82007500D03*
D22*
X194790000Y-82007500D03*
D21*
X194390000Y-79307500D03*
D23*
X193190000Y-79307500D03*
D24*
X192890000Y-82007500D03*
X190890000Y-82007500D03*
D21*
X189390000Y-79307500D03*
D22*
X188990000Y-82007500D03*
D21*
X188390000Y-82007500D03*
D23*
%TO.P,J3,4,ID*%
%TO.N,unconnected-(J3-ID-Pad4)*%
X192540000Y-79307500D03*
%TO.P,J3,3,D+*%
%TO.N,Net-(D5-K)*%
X191890000Y-79307500D03*
%TO.P,J3,2,D-*%
%TO.N,Net-(D2-K)*%
X191240000Y-79307500D03*
%TO.P,J3,1,VBUS*%
%TO.N,Net-(D3-K)*%
X190590000Y-79307500D03*
%TD*%
D13*
%TO.P,R5,2*%
%TO.N,+5V*%
X191440000Y-73890000D03*
%TO.P,R5,1*%
%TO.N,Net-(D2-K)*%
X191440000Y-75890000D03*
%TD*%
D16*
%TO.P,L2,1,K*%
%TO.N,Net-(D4-K)*%
X196220000Y-55210000D03*
%TO.P,L2,2,A*%
%TO.N,+5V*%
X194170000Y-55210000D03*
%TD*%
D25*
%TO.P,U2,3,OUT*%
%TO.N,+5V*%
X189635000Y-62755000D03*
D26*
%TO.P,U2,2,GND*%
%TO.N,GND1*%
X188880000Y-54780000D03*
X185830000Y-54780000D03*
D27*
X187355000Y-56455000D03*
D26*
X188880000Y-58130000D03*
X185830000Y-58130000D03*
D25*
%TO.P,U2,1,IN*%
%TO.N,Net-(J2-Pin_1)*%
X185075000Y-62755000D03*
%TD*%
D18*
%TO.P,J1,7,Pin_7*%
%TO.N,Net-(J1-Pin_7)*%
X204170000Y-74990000D03*
%TO.P,J1,6,Pin_6*%
%TO.N,Net-(J1-Pin_6)*%
X204170000Y-72450000D03*
%TO.P,J1,5,Pin_5*%
%TO.N,GND1*%
X204170000Y-69910000D03*
%TO.P,J1,4,Pin_4*%
%TO.N,Net-(J1-Pin_4)*%
X204170000Y-67370000D03*
%TO.P,J1,3,Pin_3*%
%TO.N,Net-(J1-Pin_3)*%
X204170000Y-64830000D03*
%TO.P,J1,2,Pin_2*%
%TO.N,Net-(D1-A)*%
X204170000Y-62290000D03*
D19*
%TO.P,J1,1,Pin_1*%
%TO.N,Net-(J1-Pin_1)*%
X204170000Y-59750000D03*
%TD*%
D28*
%TO.P,D3,2,A*%
%TO.N,+5V*%
X188350000Y-72710000D03*
%TO.P,D3,1,K*%
%TO.N,Net-(D3-K)*%
X188350000Y-76010000D03*
%TD*%
D29*
%TO.N,+5V*%
X188350000Y-72710000D02*
X189635000Y-71425000D01*
X192020000Y-55730000D02*
X192020000Y-61940000D01*
X181110000Y-65820000D02*
X182800000Y-65820000D01*
X189635000Y-71425000D02*
X189635000Y-64705000D01*
X190350000Y-63470000D02*
X189635000Y-62755000D01*
X195435000Y-63470000D02*
X193550000Y-63470000D01*
X192540000Y-55210000D02*
X192020000Y-55730000D01*
X191060000Y-72710000D02*
X188350000Y-72710000D01*
X189635000Y-64705000D02*
X189635000Y-62755000D01*
X194170000Y-55210000D02*
X192540000Y-55210000D01*
X193550000Y-63470000D02*
X190350000Y-63470000D01*
X180680000Y-69110000D02*
X180680000Y-66250000D01*
X178430000Y-69730000D02*
X180060000Y-69730000D01*
X188520000Y-65820000D02*
X189635000Y-64705000D01*
X180060000Y-69730000D02*
X180680000Y-69110000D01*
X180680000Y-66250000D02*
X181110000Y-65820000D01*
X182800000Y-65820000D02*
X185810000Y-65820000D01*
X191440000Y-73890000D02*
X191440000Y-73090000D01*
X185810000Y-65820000D02*
X188520000Y-65820000D01*
X191440000Y-73090000D02*
X191060000Y-72710000D01*
X192020000Y-61940000D02*
X193550000Y-63470000D01*
D30*
%TO.N,GND1*%
X199245000Y-70770000D02*
X203310000Y-70770000D01*
D29*
X182800000Y-70010000D02*
X182417500Y-70392500D01*
D31*
X196270000Y-77760000D02*
X193690000Y-77760000D01*
X197360000Y-80990000D02*
X196950000Y-80580000D01*
D30*
X203310000Y-70770000D02*
X204170000Y-69910000D01*
D29*
X200470000Y-58600000D02*
X200480000Y-58610000D01*
D31*
X198620000Y-80990000D02*
X197360000Y-80990000D01*
D30*
X189400000Y-81140000D02*
X189000000Y-81540000D01*
D29*
X182800000Y-67895000D02*
X185810000Y-67895000D01*
X200470000Y-55210000D02*
X200470000Y-58600000D01*
X178430000Y-67190000D02*
X176520000Y-67190000D01*
D30*
X194400000Y-78840000D02*
X194400000Y-81140000D01*
D29*
X182417500Y-71810000D02*
X182417500Y-70392500D01*
D30*
X189400000Y-78840000D02*
X189400000Y-81140000D01*
D31*
X193190000Y-78260000D02*
X193190000Y-79307500D01*
X193690000Y-77760000D02*
X193190000Y-78260000D01*
D30*
X194400000Y-81140000D02*
X194800000Y-81540000D01*
X189000000Y-81540000D02*
X195400000Y-81540000D01*
D31*
X196950000Y-78440000D02*
X196270000Y-77760000D01*
D30*
X203780000Y-69910000D02*
X204170000Y-69910000D01*
D31*
X196950000Y-80580000D02*
X196950000Y-78440000D01*
D29*
X182800000Y-67895000D02*
X182800000Y-70010000D01*
D30*
%TO.N,Net-(D1-K)*%
X196230000Y-58600000D02*
X198470000Y-58600000D01*
X198470000Y-58600000D02*
X198480000Y-58610000D01*
%TO.N,Net-(D1-A)*%
X200170000Y-65410000D02*
X201090000Y-64490000D01*
X194180000Y-59640000D02*
X195100000Y-60560000D01*
X194180000Y-58600000D02*
X194180000Y-59640000D01*
X198390000Y-65410000D02*
X200170000Y-65410000D01*
X197975000Y-64995000D02*
X198390000Y-65410000D01*
X201090000Y-64490000D02*
X201090000Y-63100000D01*
X197975000Y-60895000D02*
X197975000Y-63470000D01*
X201090000Y-63100000D02*
X201900000Y-62290000D01*
X197975000Y-63470000D02*
X197975000Y-64995000D01*
X197640000Y-60560000D02*
X197975000Y-60895000D01*
X201900000Y-62290000D02*
X204170000Y-62290000D01*
X195100000Y-60560000D02*
X197640000Y-60560000D01*
D31*
%TO.N,Net-(D2-K)*%
X191240000Y-79307500D02*
X191240000Y-76090000D01*
D30*
X186860000Y-74350000D02*
X185917500Y-73407500D01*
X193160000Y-75240000D02*
X193160000Y-70450000D01*
X185917500Y-73407500D02*
X185917500Y-71810000D01*
D31*
X191240000Y-76090000D02*
X191440000Y-75890000D01*
D30*
X192510000Y-75890000D02*
X193160000Y-75240000D01*
X191440000Y-75890000D02*
X190400000Y-75890000D01*
X190400000Y-75890000D02*
X188860000Y-74350000D01*
X191440000Y-75890000D02*
X192510000Y-75890000D01*
X188860000Y-74350000D02*
X186860000Y-74350000D01*
D31*
%TO.N,Net-(D3-K)*%
X188350000Y-76590000D02*
X188350000Y-76010000D01*
X190590000Y-79307500D02*
X190590000Y-77740000D01*
X190590000Y-77740000D02*
X190020000Y-77170000D01*
X188930000Y-77170000D02*
X188350000Y-76590000D01*
X190020000Y-77170000D02*
X188930000Y-77170000D01*
D30*
%TO.N,Net-(D4-K)*%
X196220000Y-55210000D02*
X198470000Y-55210000D01*
D31*
%TO.N,Net-(D5-K)*%
X191890000Y-79307500D02*
X191890000Y-77775000D01*
X193780000Y-76840000D02*
X194780000Y-75840000D01*
D30*
X198020000Y-77490000D02*
X196370000Y-75840000D01*
D31*
X191890000Y-77775000D02*
X192825000Y-76840000D01*
D30*
X198620000Y-77490000D02*
X198020000Y-77490000D01*
D31*
X192825000Y-76840000D02*
X193780000Y-76840000D01*
D30*
X196370000Y-75840000D02*
X194780000Y-75840000D01*
%TO.N,Net-(J1-Pin_1)*%
X202310000Y-59750000D02*
X204170000Y-59750000D01*
X199245000Y-63470000D02*
X199245000Y-62815000D01*
X199245000Y-62815000D02*
X202310000Y-59750000D01*
%TO.N,Net-(J1-Pin_3)*%
X196705000Y-65655000D02*
X197570000Y-66520000D01*
X197570000Y-66520000D02*
X201160000Y-66520000D01*
X196705000Y-63470000D02*
X196705000Y-65655000D01*
X201160000Y-66520000D02*
X202850000Y-64830000D01*
X202850000Y-64830000D02*
X204170000Y-64830000D01*
%TO.N,Net-(J1-Pin_4)*%
X202310000Y-67740000D02*
X202680000Y-67370000D01*
X197630000Y-67740000D02*
X196705000Y-68665000D01*
X202680000Y-67370000D02*
X204170000Y-67370000D01*
X193160000Y-68450000D02*
X193870000Y-67740000D01*
X193870000Y-67740000D02*
X197630000Y-67740000D01*
X196705000Y-68665000D02*
X196705000Y-70770000D01*
X197630000Y-67740000D02*
X202310000Y-67740000D01*
%TO.N,Net-(J1-Pin_6)*%
X197230000Y-75490000D02*
X200900000Y-75490000D01*
X206000000Y-73030000D02*
X205420000Y-72450000D01*
X197975000Y-70770000D02*
X197975000Y-72120000D01*
X205420000Y-72450000D02*
X204170000Y-72450000D01*
X204920000Y-77050000D02*
X206000000Y-75970000D01*
X194780000Y-73840000D02*
X195580000Y-73840000D01*
X200900000Y-75490000D02*
X202460000Y-77050000D01*
X198305000Y-72450000D02*
X204170000Y-72450000D01*
X206000000Y-75970000D02*
X206000000Y-73030000D01*
X197975000Y-72120000D02*
X198305000Y-72450000D01*
X195580000Y-73840000D02*
X197230000Y-75490000D01*
X202460000Y-77050000D02*
X204920000Y-77050000D01*
D29*
%TO.N,Net-(J2-Pin_1)*%
X180325000Y-62755000D02*
X185075000Y-62755000D01*
X178430000Y-64650000D02*
X180325000Y-62755000D01*
D30*
%TO.N,Net-(J1-Pin_7)*%
X197020000Y-73560000D02*
X200980000Y-73560000D01*
X202410000Y-74990000D02*
X204170000Y-74990000D01*
X195435000Y-71975000D02*
X197020000Y-73560000D01*
X195435000Y-70770000D02*
X195435000Y-71975000D01*
X200980000Y-73560000D02*
X202410000Y-74990000D01*
%TD*%
%TA.AperFunction,Conductor*%
%TO.N,GND1*%
G36*
X192152799Y-50098847D02*
G01*
X192985780Y-50128824D01*
X192991675Y-50129178D01*
X193822218Y-50199055D01*
X193828065Y-50199688D01*
X194615993Y-50304222D01*
X194654311Y-50309306D01*
X194660188Y-50310229D01*
X195480203Y-50459330D01*
X195486015Y-50460531D01*
X195868245Y-50549152D01*
X196297939Y-50648777D01*
X196303700Y-50650259D01*
X197105669Y-50877217D01*
X197111292Y-50878955D01*
X197901491Y-51144112D01*
X197907068Y-51146134D01*
X198683593Y-51448853D01*
X198689081Y-51451145D01*
X199450202Y-51790748D01*
X199455557Y-51793292D01*
X200199556Y-52169013D01*
X200204782Y-52171812D01*
X200929880Y-52582754D01*
X200934965Y-52585799D01*
X201639568Y-53031060D01*
X201644486Y-53034336D01*
X202326890Y-53512838D01*
X202331671Y-53516364D01*
X202658309Y-53769606D01*
X202990349Y-54027035D01*
X202994956Y-54030787D01*
X203628121Y-54572218D01*
X203628393Y-54572450D01*
X203632819Y-54576422D01*
X204239565Y-55147840D01*
X204243795Y-55152020D01*
X204782042Y-55709986D01*
X204822434Y-55751857D01*
X204826452Y-55756227D01*
X205341709Y-56344358D01*
X205375674Y-56383126D01*
X205379476Y-56387681D01*
X205638158Y-56713200D01*
X205898013Y-57040195D01*
X205901601Y-57044939D01*
X206388253Y-57721560D01*
X206391608Y-57726469D01*
X206845260Y-58425644D01*
X206848376Y-58430709D01*
X207267981Y-59150821D01*
X207270845Y-59156020D01*
X207653226Y-59891165D01*
X207655445Y-59895431D01*
X207658058Y-59900764D01*
X207713988Y-60022180D01*
X208006764Y-60657763D01*
X208009122Y-60663222D01*
X208321133Y-61436065D01*
X208323223Y-61441623D01*
X208422789Y-61726949D01*
X208597825Y-62228552D01*
X208599649Y-62234212D01*
X208836205Y-63033397D01*
X208837755Y-63039138D01*
X209035714Y-63848716D01*
X209036988Y-63854525D01*
X209195909Y-64672680D01*
X209196903Y-64678543D01*
X209316416Y-65503395D01*
X209317127Y-65509299D01*
X209396955Y-66338919D01*
X209397382Y-66344851D01*
X209437358Y-67177686D01*
X209437499Y-67182888D01*
X209439995Y-67599257D01*
X209439995Y-67600743D01*
X209437499Y-68017111D01*
X209437358Y-68022313D01*
X209397382Y-68855148D01*
X209396955Y-68861080D01*
X209317127Y-69690700D01*
X209316416Y-69696604D01*
X209196903Y-70521456D01*
X209195909Y-70527319D01*
X209036988Y-71345474D01*
X209035714Y-71351283D01*
X208837755Y-72160861D01*
X208836205Y-72166602D01*
X208599649Y-72965787D01*
X208597825Y-72971447D01*
X208323227Y-73758367D01*
X208321133Y-73763934D01*
X208009122Y-74536777D01*
X208006764Y-74542236D01*
X207658062Y-75299228D01*
X207655445Y-75304568D01*
X207270851Y-76043969D01*
X207267981Y-76049178D01*
X206848376Y-76769290D01*
X206845260Y-76774355D01*
X206391608Y-77473530D01*
X206388253Y-77478439D01*
X205901601Y-78155060D01*
X205898013Y-78159804D01*
X205379484Y-78812308D01*
X205375674Y-78816873D01*
X204826459Y-79443764D01*
X204822434Y-79448142D01*
X204243795Y-80047979D01*
X204239565Y-80052159D01*
X203632819Y-80623577D01*
X203628393Y-80627549D01*
X202994960Y-81169209D01*
X202990349Y-81172964D01*
X202331676Y-81683631D01*
X202326890Y-81687161D01*
X201644502Y-82165652D01*
X201639553Y-82168949D01*
X200934973Y-82614195D01*
X200929871Y-82617250D01*
X200204791Y-83028182D01*
X200199548Y-83030990D01*
X199455565Y-83406703D01*
X199450194Y-83409255D01*
X198689080Y-83748854D01*
X198683593Y-83751146D01*
X197907068Y-84053865D01*
X197901477Y-84055892D01*
X197111328Y-84321033D01*
X197105646Y-84322789D01*
X196303698Y-84549740D01*
X196297939Y-84551222D01*
X195486021Y-84739466D01*
X195480197Y-84740670D01*
X194660186Y-84889770D01*
X194654311Y-84890693D01*
X193828098Y-85000307D01*
X193822186Y-85000947D01*
X192991695Y-85070819D01*
X192985759Y-85071176D01*
X192152830Y-85101151D01*
X192146883Y-85101222D01*
X191313499Y-85091228D01*
X191307556Y-85091014D01*
X190475619Y-85041076D01*
X190469693Y-85040578D01*
X189641083Y-84950809D01*
X189635188Y-84950027D01*
X188811840Y-84820633D01*
X188805989Y-84819569D01*
X187989782Y-84650847D01*
X187983989Y-84649503D01*
X187176848Y-84441851D01*
X187171126Y-84440232D01*
X186374837Y-84194112D01*
X186369199Y-84192220D01*
X185585639Y-83908209D01*
X185580098Y-83906049D01*
X184811054Y-83584797D01*
X184805623Y-83582374D01*
X184052843Y-83224607D01*
X184047553Y-83221935D01*
X183685718Y-83028182D01*
X183312815Y-82828501D01*
X183307641Y-82825569D01*
X182592599Y-82397354D01*
X182587572Y-82394177D01*
X182107369Y-82074356D01*
X181893888Y-81932175D01*
X181889028Y-81928767D01*
X181876895Y-81919818D01*
X181226358Y-81439986D01*
X181218293Y-81434037D01*
X181213593Y-81430393D01*
X180567355Y-80904080D01*
X180562835Y-80900215D01*
X180555910Y-80894000D01*
X180187924Y-80563727D01*
X179942569Y-80343517D01*
X179938240Y-80339440D01*
X179421241Y-79828604D01*
X179345378Y-79753645D01*
X179341255Y-79749371D01*
X178777155Y-79135819D01*
X178773243Y-79131354D01*
X178742045Y-79093972D01*
X178512761Y-78819237D01*
X178239204Y-78491454D01*
X178235505Y-78486799D01*
X178232413Y-78482710D01*
X177732778Y-77822057D01*
X177729320Y-77817249D01*
X177658830Y-77714112D01*
X177259018Y-77129133D01*
X177255786Y-77124151D01*
X177241726Y-77101300D01*
X176932796Y-76599201D01*
X176819030Y-76414299D01*
X176816036Y-76409161D01*
X176802681Y-76384924D01*
X176594857Y-76007751D01*
X176579746Y-75939536D01*
X176603913Y-75873979D01*
X176659687Y-75831894D01*
X176729359Y-75826644D01*
X176790809Y-75859895D01*
X176791144Y-75860229D01*
X177005960Y-76075045D01*
X177263131Y-76276526D01*
X177263134Y-76276528D01*
X177263137Y-76276530D01*
X177542721Y-76445545D01*
X177840639Y-76579627D01*
X177840652Y-76579631D01*
X177840657Y-76579633D01*
X178061860Y-76648562D01*
X178152547Y-76676821D01*
X178473896Y-76735710D01*
X178800000Y-76755436D01*
X179126104Y-76735710D01*
X179447453Y-76676821D01*
X179652542Y-76612913D01*
X179722402Y-76611761D01*
X179781794Y-76648562D01*
X179811862Y-76711631D01*
X179803060Y-76780944D01*
X179795121Y-76796151D01*
X179795022Y-76796311D01*
X179790654Y-76804719D01*
X179786273Y-76813350D01*
X179786267Y-76813364D01*
X179740929Y-76951392D01*
X179733698Y-76992389D01*
X179733693Y-76992419D01*
X179727697Y-77038720D01*
X179727694Y-77038746D01*
X179722013Y-77107017D01*
X179720801Y-77125726D01*
X179716666Y-77214873D01*
X179716276Y-77225781D01*
X179713682Y-77329386D01*
X179713545Y-77337283D01*
X179712522Y-77445185D01*
X179712487Y-77448896D01*
X179712485Y-77449739D01*
X179712468Y-77455943D01*
X179712943Y-77569089D01*
X179713025Y-77576351D01*
X179715028Y-77684774D01*
X179715277Y-77693822D01*
X179718800Y-77790857D01*
X179719497Y-77804821D01*
X179724540Y-77884171D01*
X179727068Y-77911933D01*
X179733628Y-77967217D01*
X179733631Y-77967236D01*
X179755251Y-78065419D01*
X179763317Y-78090141D01*
X179763325Y-78090162D01*
X179780945Y-78132000D01*
X179796262Y-78168370D01*
X179881233Y-78286239D01*
X179991996Y-78372305D01*
X179995969Y-78375392D01*
X179995972Y-78375394D01*
X180000870Y-78378184D01*
X180094583Y-78419721D01*
X180094587Y-78419722D01*
X180131112Y-78431690D01*
X180166297Y-78441837D01*
X180178979Y-78445006D01*
X180229659Y-78457672D01*
X180240075Y-78460102D01*
X180245282Y-78461318D01*
X180328094Y-78479272D01*
X180328117Y-78479276D01*
X180328146Y-78479283D01*
X180339477Y-78481605D01*
X180434545Y-78499972D01*
X180439788Y-78500957D01*
X180471712Y-78506779D01*
X180471854Y-78506850D01*
X180471863Y-78506807D01*
X180504417Y-78512785D01*
X180618231Y-78533686D01*
X180628138Y-78535546D01*
X180653330Y-78540278D01*
X180715584Y-78571999D01*
X180745960Y-78617077D01*
X180759057Y-78650646D01*
X180765086Y-78720255D01*
X180745768Y-78765895D01*
X180690871Y-78845861D01*
X180690828Y-78845926D01*
X180690493Y-78846414D01*
X180688754Y-78848954D01*
X180672315Y-78872958D01*
X180669468Y-78877158D01*
X180605610Y-78972280D01*
X180601149Y-78979041D01*
X180545800Y-79064360D01*
X180540157Y-79073258D01*
X180496617Y-79143512D01*
X180487025Y-79159648D01*
X180458539Y-79209637D01*
X180430893Y-79265931D01*
X180420582Y-79290662D01*
X180396137Y-79364804D01*
X180381754Y-79509394D01*
X180408689Y-79652179D01*
X180408691Y-79652183D01*
X180410903Y-79658659D01*
X180412766Y-79664012D01*
X180412769Y-79664020D01*
X180480270Y-79792693D01*
X180503423Y-79824721D01*
X180532652Y-79861467D01*
X180532666Y-79861483D01*
X180578340Y-79913777D01*
X180590923Y-79927661D01*
X180655838Y-79996693D01*
X180663785Y-80004956D01*
X180744701Y-80087237D01*
X180750904Y-80093437D01*
X180844455Y-80185357D01*
X180847699Y-80188510D01*
X180848364Y-80189156D01*
X180901884Y-80240651D01*
X180904666Y-80243308D01*
X180944500Y-80281061D01*
X180989205Y-80323431D01*
X180989264Y-80323487D01*
X180989289Y-80323510D01*
X180993309Y-80327279D01*
X181067376Y-80395974D01*
X181073042Y-80401151D01*
X181132576Y-80454725D01*
X181143640Y-80464397D01*
X181184664Y-80499230D01*
X181230003Y-80533570D01*
X181230017Y-80533579D01*
X181230026Y-80533586D01*
X181248526Y-80546040D01*
X181285099Y-80568487D01*
X181285108Y-80568491D01*
X181420797Y-80620440D01*
X181420800Y-80620441D01*
X181565638Y-80632058D01*
X181565638Y-80632057D01*
X181565639Y-80632058D01*
X181565641Y-80632058D01*
X181651548Y-80614145D01*
X181707882Y-80602399D01*
X181720617Y-80597774D01*
X181795123Y-80563723D01*
X181834333Y-80541842D01*
X181857197Y-80528291D01*
X181914138Y-80492507D01*
X181927100Y-80484084D01*
X181994345Y-80438928D01*
X181998634Y-80436010D01*
X181999366Y-80435513D01*
X181999390Y-80435495D01*
X181999448Y-80435457D01*
X182046806Y-80402817D01*
X182141138Y-80338148D01*
X182205539Y-80294206D01*
X182272009Y-80272683D01*
X182325839Y-80283347D01*
X182327793Y-80284216D01*
X182327803Y-80284220D01*
X182383971Y-80305355D01*
X182383983Y-80305359D01*
X182400667Y-80310539D01*
X182411057Y-80313765D01*
X182431747Y-80319714D01*
X182431746Y-80319714D01*
X182431750Y-80319715D01*
X182576076Y-80336544D01*
X182719297Y-80312029D01*
X182849809Y-80248158D01*
X182957041Y-80150105D01*
X182965902Y-80139309D01*
X183021373Y-80056349D01*
X183043377Y-80015242D01*
X183053612Y-79995058D01*
X183086112Y-79927284D01*
X183090122Y-79918718D01*
X183131311Y-79828578D01*
X183133527Y-79823661D01*
X183181595Y-79715457D01*
X183183067Y-79712111D01*
X183183095Y-79712044D01*
X183183160Y-79711899D01*
X183236272Y-79589994D01*
X183237324Y-79587561D01*
X183293783Y-79456001D01*
X183294095Y-79455266D01*
X183294670Y-79453920D01*
X183352527Y-79317330D01*
X183353405Y-79315243D01*
X183410909Y-79177792D01*
X183411811Y-79175624D01*
X183419664Y-79156605D01*
X183463445Y-79102157D01*
X183529715Y-79080020D01*
X183597433Y-79097225D01*
X183645099Y-79148311D01*
X183648722Y-79156206D01*
X183703662Y-79287939D01*
X183704438Y-79289789D01*
X183762412Y-79427066D01*
X183763276Y-79429098D01*
X183781435Y-79471544D01*
X183820137Y-79562009D01*
X183821126Y-79564305D01*
X183821264Y-79564624D01*
X183875159Y-79688762D01*
X183876555Y-79691948D01*
X183925676Y-79803016D01*
X183927652Y-79807424D01*
X183927746Y-79807633D01*
X183947204Y-79850494D01*
X183970420Y-79901634D01*
X183973971Y-79909289D01*
X184008307Y-79981731D01*
X184016541Y-79998318D01*
X184040751Y-80044947D01*
X184040753Y-80044950D01*
X184040759Y-80044961D01*
X184047886Y-80056349D01*
X184084189Y-80114362D01*
X184084207Y-80114388D01*
X184096381Y-80130756D01*
X184096467Y-80130871D01*
X184097839Y-80132707D01*
X184200722Y-80235313D01*
X184328345Y-80304778D01*
X184470369Y-80335474D01*
X184470370Y-80335473D01*
X184470372Y-80335474D01*
X184518675Y-80331953D01*
X184615288Y-80324913D01*
X184625496Y-80322678D01*
X184706148Y-80297881D01*
X184746251Y-80281816D01*
X184746261Y-80281811D01*
X184746994Y-80281518D01*
X184816546Y-80274861D01*
X184862902Y-80294134D01*
X184886770Y-80310388D01*
X184886941Y-80310504D01*
X184985544Y-80377966D01*
X185069091Y-80435457D01*
X185069553Y-80435775D01*
X185071725Y-80437260D01*
X185071726Y-80437260D01*
X185071871Y-80437359D01*
X185118403Y-80468978D01*
X185127241Y-80474850D01*
X185187720Y-80514134D01*
X185203249Y-80523830D01*
X185248092Y-80550722D01*
X185299123Y-80577530D01*
X185299129Y-80577532D01*
X185299141Y-80577539D01*
X185313794Y-80584209D01*
X185321025Y-80587501D01*
X185457026Y-80627766D01*
X185602327Y-80628591D01*
X185741974Y-80588447D01*
X185751384Y-80584214D01*
X185851443Y-80524640D01*
X185885457Y-80498711D01*
X185911176Y-80477749D01*
X185963612Y-80432098D01*
X185973715Y-80423064D01*
X186040009Y-80362180D01*
X186045832Y-80356747D01*
X186121420Y-80285122D01*
X186125657Y-80281061D01*
X186205974Y-80203183D01*
X186209672Y-80199561D01*
X186290155Y-80119923D01*
X186290197Y-80119881D01*
X186294086Y-80115993D01*
X186370054Y-80039198D01*
X186370093Y-80039159D01*
X186374860Y-80034275D01*
X186441982Y-79964585D01*
X186449171Y-79956966D01*
X186502766Y-79898985D01*
X186516899Y-79883040D01*
X186552403Y-79841260D01*
X186599359Y-79776283D01*
X186612208Y-79755192D01*
X186648686Y-79683000D01*
X186684037Y-79542062D01*
X186678250Y-79396874D01*
X186677509Y-79392862D01*
X186637828Y-79269103D01*
X186637825Y-79269096D01*
X186637823Y-79269090D01*
X186622536Y-79236444D01*
X186622535Y-79236442D01*
X186602164Y-79197411D01*
X186569495Y-79140903D01*
X186569482Y-79140881D01*
X186569461Y-79140845D01*
X186560828Y-79126466D01*
X186513934Y-79051209D01*
X186513922Y-79051189D01*
X186508293Y-79042359D01*
X186459434Y-78967416D01*
X186450365Y-78953506D01*
X186445583Y-78946302D01*
X186379904Y-78849144D01*
X186379836Y-78849044D01*
X186379775Y-78848954D01*
X186377549Y-78845689D01*
X186359367Y-78819236D01*
X186357746Y-78816873D01*
X186322768Y-78765875D01*
X186301082Y-78699456D01*
X186309014Y-78651952D01*
X186309507Y-78650646D01*
X186311843Y-78644456D01*
X186312291Y-78643290D01*
X186322614Y-78616933D01*
X186365390Y-78561694D01*
X186415306Y-78540268D01*
X186475362Y-78529053D01*
X186572062Y-78511340D01*
X186628998Y-78500912D01*
X186629332Y-78500850D01*
X186630443Y-78500645D01*
X186662515Y-78494684D01*
X186669623Y-78493311D01*
X186761500Y-78474883D01*
X186773601Y-78472303D01*
X186850887Y-78454843D01*
X186869875Y-78450170D01*
X186925246Y-78435411D01*
X186981330Y-78416927D01*
X187007451Y-78406608D01*
X187007457Y-78406606D01*
X187011269Y-78404750D01*
X187077919Y-78372303D01*
X187191568Y-78281766D01*
X187275107Y-78162878D01*
X187279479Y-78154265D01*
X187280625Y-78151981D01*
X187281707Y-78149822D01*
X187281707Y-78149821D01*
X187281708Y-78149820D01*
X187327026Y-78011764D01*
X187334314Y-77970393D01*
X187340254Y-77924667D01*
X187346030Y-77856082D01*
X187347252Y-77837541D01*
X187347253Y-77837532D01*
X187350257Y-77774483D01*
X187351511Y-77748168D01*
X187351912Y-77737333D01*
X187352580Y-77712036D01*
X187353662Y-77671006D01*
X187354649Y-77633600D01*
X187354797Y-77625671D01*
X187356008Y-77514001D01*
X187356036Y-77507022D01*
X187355716Y-77393844D01*
X187355643Y-77386546D01*
X187353789Y-77278285D01*
X187353551Y-77269160D01*
X187350157Y-77172242D01*
X187349480Y-77158327D01*
X187344543Y-77079178D01*
X187342015Y-77051130D01*
X187335530Y-76996177D01*
X187320747Y-76929520D01*
X187325449Y-76859810D01*
X187367093Y-76803707D01*
X187432458Y-76779025D01*
X187500790Y-76793600D01*
X187518716Y-76805406D01*
X187521959Y-76807970D01*
X187666294Y-76896998D01*
X187666296Y-76896999D01*
X187666303Y-76897003D01*
X187685393Y-76903328D01*
X187742837Y-76943098D01*
X187749493Y-76952144D01*
X187805887Y-77036545D01*
X188483454Y-77714112D01*
X188598192Y-77790777D01*
X188725667Y-77843578D01*
X188725672Y-77843580D01*
X188725676Y-77843580D01*
X188725677Y-77843581D01*
X188861003Y-77870500D01*
X188861006Y-77870500D01*
X188861007Y-77870500D01*
X189078049Y-77870500D01*
X189145088Y-77890185D01*
X189190843Y-77942989D01*
X189200787Y-78012147D01*
X189171762Y-78075703D01*
X189112984Y-78113477D01*
X189110142Y-78114275D01*
X188969432Y-78151977D01*
X188969423Y-78151981D01*
X188775162Y-78242566D01*
X188718378Y-78282326D01*
X189321827Y-78885774D01*
X189225956Y-78911463D01*
X189129044Y-78967416D01*
X189049916Y-79046544D01*
X188993963Y-79143456D01*
X188968274Y-79239326D01*
X188364826Y-78635878D01*
X188325066Y-78692662D01*
X188234481Y-78886923D01*
X188234477Y-78886932D01*
X188179004Y-79093962D01*
X188179002Y-79093972D01*
X188160321Y-79307499D01*
X188160321Y-79307500D01*
X188179002Y-79521027D01*
X188179004Y-79521037D01*
X188234477Y-79728067D01*
X188234481Y-79728076D01*
X188325066Y-79922338D01*
X188325067Y-79922340D01*
X188364825Y-79979120D01*
X188364826Y-79979121D01*
X188968274Y-79375672D01*
X188993963Y-79471544D01*
X189049916Y-79568456D01*
X189129044Y-79647584D01*
X189225956Y-79703537D01*
X189321825Y-79729225D01*
X188718377Y-80332673D01*
X188718435Y-80333335D01*
X188760933Y-80386501D01*
X188768127Y-80455999D01*
X188736605Y-80518354D01*
X188676376Y-80553769D01*
X188646185Y-80557500D01*
X188342155Y-80557500D01*
X188282627Y-80563901D01*
X188282620Y-80563903D01*
X188147913Y-80614145D01*
X188147906Y-80614149D01*
X188032812Y-80700309D01*
X188032809Y-80700312D01*
X187946648Y-80815407D01*
X187946647Y-80815410D01*
X187943085Y-80824959D01*
X187901210Y-80880890D01*
X187879312Y-80894000D01*
X187775157Y-80942569D01*
X187775156Y-80942570D01*
X187718378Y-80982325D01*
X187718378Y-80982326D01*
X188321827Y-81585774D01*
X188225956Y-81611463D01*
X188129044Y-81667416D01*
X188049916Y-81746544D01*
X187993963Y-81843456D01*
X187968274Y-81939326D01*
X187364826Y-81335878D01*
X187325066Y-81392662D01*
X187234481Y-81586923D01*
X187234477Y-81586932D01*
X187179004Y-81793962D01*
X187179002Y-81793972D01*
X187160321Y-82007499D01*
X187160321Y-82007500D01*
X187179002Y-82221027D01*
X187179004Y-82221037D01*
X187234477Y-82428067D01*
X187234481Y-82428076D01*
X187325066Y-82622338D01*
X187325067Y-82622340D01*
X187364825Y-82679120D01*
X187364826Y-82679121D01*
X187968274Y-82075672D01*
X187993963Y-82171544D01*
X188049916Y-82268456D01*
X188129044Y-82347584D01*
X188225956Y-82403537D01*
X188321826Y-82429225D01*
X187718377Y-83032673D01*
X187775161Y-83072433D01*
X187879311Y-83120999D01*
X187931750Y-83167171D01*
X187943086Y-83190042D01*
X187946648Y-83199592D01*
X188032809Y-83314687D01*
X188032812Y-83314690D01*
X188147906Y-83400850D01*
X188147913Y-83400854D01*
X188282620Y-83451096D01*
X188282627Y-83451098D01*
X188342155Y-83457499D01*
X188342172Y-83457500D01*
X188740000Y-83457500D01*
X189240000Y-83457500D01*
X189637828Y-83457500D01*
X189637844Y-83457499D01*
X189697372Y-83451098D01*
X189697383Y-83451095D01*
X189821666Y-83404740D01*
X189891357Y-83399755D01*
X189908334Y-83404740D01*
X190032616Y-83451095D01*
X190032627Y-83451098D01*
X190092155Y-83457499D01*
X190092172Y-83457500D01*
X190640000Y-83457500D01*
X191140000Y-83457500D01*
X191687828Y-83457500D01*
X191687844Y-83457499D01*
X191747372Y-83451098D01*
X191747376Y-83451097D01*
X191846666Y-83414064D01*
X191916358Y-83409080D01*
X191933334Y-83414064D01*
X192032623Y-83451097D01*
X192032627Y-83451098D01*
X192092155Y-83457499D01*
X192092172Y-83457500D01*
X192640000Y-83457500D01*
X193140000Y-83457500D01*
X193687828Y-83457500D01*
X193687844Y-83457499D01*
X193747372Y-83451098D01*
X193747383Y-83451095D01*
X193871666Y-83404740D01*
X193941357Y-83399755D01*
X193958334Y-83404740D01*
X194082616Y-83451095D01*
X194082627Y-83451098D01*
X194142155Y-83457499D01*
X194142172Y-83457500D01*
X194540000Y-83457500D01*
X194540000Y-82257500D01*
X193140000Y-82257500D01*
X193140000Y-83457500D01*
X192640000Y-83457500D01*
X192640000Y-82257500D01*
X191140000Y-82257500D01*
X191140000Y-83457500D01*
X190640000Y-83457500D01*
X190640000Y-82257500D01*
X189240000Y-82257500D01*
X189240000Y-83457500D01*
X188740000Y-83457500D01*
X188740000Y-82251281D01*
X188786037Y-82171544D01*
X188815000Y-82063452D01*
X188815000Y-81951548D01*
X188786037Y-81843456D01*
X188766091Y-81808909D01*
X188812489Y-81768706D01*
X188864000Y-81757500D01*
X194916000Y-81757500D01*
X194983039Y-81777185D01*
X195012557Y-81811250D01*
X194993963Y-81843456D01*
X194965000Y-81951548D01*
X194965000Y-82063452D01*
X194993963Y-82171544D01*
X195040000Y-82251281D01*
X195040000Y-83457500D01*
X195437828Y-83457500D01*
X195437844Y-83457499D01*
X195497372Y-83451098D01*
X195497379Y-83451096D01*
X195632086Y-83400854D01*
X195632093Y-83400850D01*
X195747187Y-83314690D01*
X195747190Y-83314687D01*
X195833351Y-83199591D01*
X195836909Y-83190053D01*
X195878777Y-83134117D01*
X195900690Y-83120997D01*
X196004839Y-83072432D01*
X196061621Y-83032673D01*
X195458173Y-82429225D01*
X195554044Y-82403537D01*
X195650956Y-82347584D01*
X195730084Y-82268456D01*
X195786037Y-82171544D01*
X195811725Y-82075672D01*
X196415173Y-82679121D01*
X196454933Y-82622339D01*
X196545518Y-82428076D01*
X196545522Y-82428067D01*
X196600995Y-82221037D01*
X196600997Y-82221027D01*
X196619679Y-82007500D01*
X196619679Y-82007499D01*
X196600997Y-81793972D01*
X196600995Y-81793962D01*
X196545522Y-81586932D01*
X196545518Y-81586923D01*
X196477000Y-81439986D01*
X197270001Y-81439986D01*
X197280494Y-81542697D01*
X197335641Y-81709119D01*
X197335643Y-81709124D01*
X197427684Y-81858345D01*
X197551654Y-81982315D01*
X197700875Y-82074356D01*
X197700880Y-82074358D01*
X197867302Y-82129505D01*
X197867309Y-82129506D01*
X197970019Y-82139999D01*
X198369999Y-82139999D01*
X198870000Y-82139999D01*
X199269972Y-82139999D01*
X199269986Y-82139998D01*
X199372697Y-82129505D01*
X199539119Y-82074358D01*
X199539124Y-82074356D01*
X199688345Y-81982315D01*
X199812315Y-81858345D01*
X199904356Y-81709124D01*
X199904358Y-81709119D01*
X199959505Y-81542697D01*
X199959506Y-81542690D01*
X199969999Y-81439986D01*
X199970000Y-81439973D01*
X199970000Y-81240000D01*
X198870000Y-81240000D01*
X198870000Y-82139999D01*
X198369999Y-82139999D01*
X198370000Y-82139998D01*
X198370000Y-81240000D01*
X197270001Y-81240000D01*
X197270001Y-81439986D01*
X196477000Y-81439986D01*
X196454933Y-81392662D01*
X196415172Y-81335879D01*
X195811725Y-81939326D01*
X195786037Y-81843456D01*
X195730084Y-81746544D01*
X195650956Y-81667416D01*
X195554044Y-81611463D01*
X195458172Y-81585774D01*
X196061621Y-80982325D01*
X196004840Y-80942567D01*
X196004838Y-80942566D01*
X195900688Y-80894000D01*
X195848249Y-80847827D01*
X195836910Y-80824948D01*
X195833353Y-80815412D01*
X195833350Y-80815406D01*
X195747190Y-80700312D01*
X195747187Y-80700309D01*
X195632093Y-80614149D01*
X195632086Y-80614145D01*
X195497379Y-80563903D01*
X195497372Y-80563901D01*
X195437844Y-80557500D01*
X195133814Y-80557500D01*
X195074260Y-80540013D01*
X197270000Y-80540013D01*
X197270000Y-80740000D01*
X198370000Y-80740000D01*
X198870000Y-80740000D01*
X199969999Y-80740000D01*
X199969999Y-80540028D01*
X199969998Y-80540013D01*
X199959505Y-80437302D01*
X199904358Y-80270880D01*
X199904356Y-80270875D01*
X199812315Y-80121654D01*
X199688345Y-79997684D01*
X199539124Y-79905643D01*
X199539119Y-79905641D01*
X199372697Y-79850494D01*
X199372690Y-79850493D01*
X199269986Y-79840000D01*
X198870000Y-79840000D01*
X198870000Y-80740000D01*
X198370000Y-80740000D01*
X198370000Y-79840000D01*
X197970028Y-79840000D01*
X197970012Y-79840001D01*
X197867302Y-79850494D01*
X197700880Y-79905641D01*
X197700875Y-79905643D01*
X197551654Y-79997684D01*
X197427684Y-80121654D01*
X197335643Y-80270875D01*
X197335641Y-80270880D01*
X197280494Y-80437302D01*
X197280493Y-80437309D01*
X197270000Y-80540013D01*
X195074260Y-80540013D01*
X195066775Y-80537815D01*
X195021020Y-80485011D01*
X195011076Y-80415853D01*
X195040101Y-80352297D01*
X195061601Y-80332907D01*
X195061621Y-80332673D01*
X194458173Y-79729225D01*
X194554044Y-79703537D01*
X194650956Y-79647584D01*
X194730084Y-79568456D01*
X194786037Y-79471544D01*
X194811725Y-79375672D01*
X195415173Y-79979121D01*
X195454933Y-79922339D01*
X195545518Y-79728076D01*
X195545522Y-79728067D01*
X195600995Y-79521037D01*
X195600997Y-79521027D01*
X195619679Y-79307500D01*
X195619679Y-79307499D01*
X195600997Y-79093972D01*
X195600995Y-79093962D01*
X195545522Y-78886932D01*
X195545518Y-78886923D01*
X195454933Y-78692662D01*
X195415172Y-78635879D01*
X194811725Y-79239326D01*
X194786037Y-79143456D01*
X194730084Y-79046544D01*
X194650956Y-78967416D01*
X194554044Y-78911463D01*
X194458172Y-78885774D01*
X195061621Y-78282325D01*
X195004840Y-78242567D01*
X195004838Y-78242566D01*
X194810576Y-78151981D01*
X194810567Y-78151977D01*
X194603537Y-78096504D01*
X194603527Y-78096502D01*
X194390001Y-78077821D01*
X194389999Y-78077821D01*
X194176472Y-78096502D01*
X194176462Y-78096504D01*
X193969432Y-78151977D01*
X193969418Y-78151982D01*
X193798257Y-78231796D01*
X193729180Y-78242288D01*
X193671543Y-78218681D01*
X193632093Y-78189149D01*
X193632086Y-78189145D01*
X193497379Y-78138903D01*
X193497372Y-78138901D01*
X193437844Y-78132500D01*
X193390000Y-78132500D01*
X193390000Y-78293065D01*
X193370315Y-78360104D01*
X193317511Y-78405859D01*
X193248353Y-78415803D01*
X193184797Y-78386778D01*
X193166734Y-78367376D01*
X193097547Y-78274955D01*
X193039688Y-78231641D01*
X192997818Y-78175707D01*
X192990027Y-78132527D01*
X192990000Y-78132500D01*
X192942166Y-78132500D01*
X192880595Y-78139119D01*
X192854089Y-78139119D01*
X192842585Y-78137882D01*
X192806995Y-78134055D01*
X192742446Y-78107320D01*
X192702597Y-78049928D01*
X192700102Y-77980103D01*
X192732568Y-77923088D01*
X193078838Y-77576819D01*
X193140161Y-77543334D01*
X193166519Y-77540500D01*
X193848996Y-77540500D01*
X193979989Y-77514443D01*
X193984328Y-77513580D01*
X194081018Y-77473530D01*
X194111807Y-77460777D01*
X194111808Y-77460776D01*
X194111811Y-77460775D01*
X194226543Y-77384114D01*
X194633838Y-76976817D01*
X194695161Y-76943333D01*
X194721519Y-76940499D01*
X195280002Y-76940499D01*
X195280008Y-76940499D01*
X195382797Y-76929999D01*
X195549334Y-76874814D01*
X195698656Y-76782712D01*
X195822712Y-76658656D01*
X195828420Y-76649402D01*
X195880368Y-76602678D01*
X195933958Y-76590500D01*
X196007770Y-76590500D01*
X196074809Y-76610185D01*
X196095451Y-76626819D01*
X197233181Y-77764549D01*
X197266666Y-77825872D01*
X197269500Y-77852229D01*
X197269500Y-77940000D01*
X197269501Y-77940019D01*
X197280000Y-78042796D01*
X197280001Y-78042799D01*
X197335185Y-78209331D01*
X197335187Y-78209336D01*
X197355684Y-78242567D01*
X197427288Y-78358656D01*
X197551344Y-78482712D01*
X197700666Y-78574814D01*
X197867203Y-78629999D01*
X197969991Y-78640500D01*
X199270008Y-78640499D01*
X199372797Y-78629999D01*
X199539334Y-78574814D01*
X199688656Y-78482712D01*
X199812712Y-78358656D01*
X199904814Y-78209334D01*
X199959999Y-78042797D01*
X199970500Y-77940009D01*
X199970499Y-77039992D01*
X199959999Y-76937203D01*
X199904814Y-76770666D01*
X199812712Y-76621344D01*
X199688656Y-76497288D01*
X199688655Y-76497287D01*
X199649279Y-76473000D01*
X199644477Y-76470038D01*
X199597753Y-76418091D01*
X199586530Y-76349129D01*
X199614373Y-76285047D01*
X199672442Y-76246190D01*
X199709574Y-76240500D01*
X200537770Y-76240500D01*
X200604809Y-76260185D01*
X200625451Y-76276819D01*
X201251960Y-76903327D01*
X201877049Y-77528416D01*
X201930162Y-77581529D01*
X201981585Y-77632952D01*
X202104498Y-77715080D01*
X202104511Y-77715087D01*
X202223924Y-77764549D01*
X202241087Y-77771658D01*
X202241091Y-77771658D01*
X202241092Y-77771659D01*
X202386079Y-77800500D01*
X202386082Y-77800500D01*
X204993920Y-77800500D01*
X205091462Y-77781096D01*
X205138913Y-77771658D01*
X205275495Y-77715084D01*
X205341463Y-77671006D01*
X205398416Y-77632952D01*
X206582952Y-76448415D01*
X206625380Y-76384916D01*
X206665084Y-76325495D01*
X206697790Y-76246536D01*
X206698221Y-76245496D01*
X206705085Y-76228922D01*
X206721659Y-76188912D01*
X206747517Y-76058912D01*
X206749322Y-76049842D01*
X206750500Y-76043919D01*
X206750500Y-72956079D01*
X206721659Y-72811092D01*
X206721658Y-72811091D01*
X206721658Y-72811087D01*
X206696783Y-72751033D01*
X206665085Y-72674507D01*
X206634361Y-72628525D01*
X206593091Y-72566759D01*
X206582952Y-72551584D01*
X205898416Y-71867048D01*
X205898413Y-71867045D01*
X205849179Y-71834150D01*
X205816355Y-71812218D01*
X205775495Y-71784916D01*
X205775494Y-71784915D01*
X205775492Y-71784914D01*
X205775490Y-71784913D01*
X205638917Y-71728343D01*
X205638907Y-71728340D01*
X205493920Y-71699500D01*
X205493918Y-71699500D01*
X205357701Y-71699500D01*
X205290662Y-71679815D01*
X205256126Y-71646623D01*
X205208494Y-71578597D01*
X205041402Y-71411506D01*
X205041401Y-71411505D01*
X204855405Y-71281269D01*
X204811781Y-71226692D01*
X204804588Y-71157193D01*
X204836110Y-71094839D01*
X204855405Y-71078119D01*
X205041082Y-70948105D01*
X205208105Y-70781082D01*
X205343600Y-70587578D01*
X205443429Y-70373492D01*
X205443432Y-70373486D01*
X205500636Y-70160000D01*
X204603012Y-70160000D01*
X204635925Y-70102993D01*
X204670000Y-69975826D01*
X204670000Y-69844174D01*
X204635925Y-69717007D01*
X204603012Y-69660000D01*
X205500636Y-69660000D01*
X205500635Y-69659999D01*
X205443432Y-69446513D01*
X205443429Y-69446507D01*
X205343600Y-69232422D01*
X205343599Y-69232420D01*
X205208113Y-69038926D01*
X205208108Y-69038920D01*
X205041078Y-68871890D01*
X204855405Y-68741879D01*
X204811780Y-68687302D01*
X204804588Y-68617804D01*
X204836110Y-68555449D01*
X204855406Y-68538730D01*
X204872417Y-68526819D01*
X205041401Y-68408495D01*
X205208495Y-68241401D01*
X205344035Y-68047830D01*
X205443903Y-67833663D01*
X205505063Y-67605408D01*
X205525659Y-67370000D01*
X205523617Y-67346666D01*
X205521539Y-67322918D01*
X205505063Y-67134592D01*
X205443903Y-66906337D01*
X205344035Y-66692171D01*
X205333768Y-66677507D01*
X205208494Y-66498597D01*
X205041402Y-66331506D01*
X205041396Y-66331501D01*
X204855842Y-66201575D01*
X204812217Y-66146998D01*
X204805023Y-66077500D01*
X204836546Y-66015145D01*
X204855842Y-65998425D01*
X204878026Y-65982891D01*
X205041401Y-65868495D01*
X205208495Y-65701401D01*
X205344035Y-65507830D01*
X205443903Y-65293663D01*
X205505063Y-65065408D01*
X205525659Y-64830000D01*
X205505063Y-64594592D01*
X205443903Y-64366337D01*
X205344035Y-64152171D01*
X205313347Y-64108343D01*
X205208494Y-63958597D01*
X205041402Y-63791506D01*
X205041396Y-63791501D01*
X204855842Y-63661575D01*
X204812217Y-63606998D01*
X204805023Y-63537500D01*
X204836546Y-63475145D01*
X204855842Y-63458425D01*
X204975629Y-63374549D01*
X205041401Y-63328495D01*
X205208495Y-63161401D01*
X205344035Y-62967830D01*
X205443903Y-62753663D01*
X205505063Y-62525408D01*
X205525659Y-62290000D01*
X205505063Y-62054592D01*
X205455165Y-61868368D01*
X205443905Y-61826344D01*
X205443904Y-61826343D01*
X205443903Y-61826337D01*
X205344035Y-61612171D01*
X205325477Y-61585668D01*
X205208496Y-61418600D01*
X205172885Y-61382989D01*
X205086567Y-61296671D01*
X205053084Y-61235351D01*
X205058068Y-61165659D01*
X205099939Y-61109725D01*
X205130915Y-61092810D01*
X205262331Y-61043796D01*
X205377546Y-60957546D01*
X205463796Y-60842331D01*
X205514091Y-60707483D01*
X205520500Y-60647873D01*
X205520499Y-58852128D01*
X205514091Y-58792517D01*
X205513446Y-58790789D01*
X205463797Y-58657671D01*
X205463793Y-58657664D01*
X205377547Y-58542455D01*
X205377544Y-58542452D01*
X205262335Y-58456206D01*
X205262328Y-58456202D01*
X205127482Y-58405908D01*
X205127483Y-58405908D01*
X205067883Y-58399501D01*
X205067881Y-58399500D01*
X205067873Y-58399500D01*
X205067864Y-58399500D01*
X203272129Y-58399500D01*
X203272123Y-58399501D01*
X203212516Y-58405908D01*
X203077671Y-58456202D01*
X203077664Y-58456206D01*
X202962455Y-58542452D01*
X202962452Y-58542455D01*
X202876206Y-58657664D01*
X202876202Y-58657671D01*
X202825908Y-58792517D01*
X202819501Y-58852116D01*
X202819501Y-58852123D01*
X202819500Y-58852135D01*
X202819500Y-58875500D01*
X202799815Y-58942539D01*
X202747011Y-58988294D01*
X202695500Y-58999500D01*
X202236076Y-58999500D01*
X202207242Y-59005234D01*
X202207243Y-59005235D01*
X202091093Y-59028339D01*
X202091089Y-59028340D01*
X202021784Y-59057048D01*
X201954508Y-59084914D01*
X201916951Y-59110009D01*
X201831582Y-59167049D01*
X201831578Y-59167052D01*
X201791341Y-59207290D01*
X201730018Y-59240775D01*
X201660326Y-59235789D01*
X201604393Y-59193917D01*
X201579977Y-59128453D01*
X201580252Y-59113157D01*
X201579839Y-59113136D01*
X201580000Y-59109973D01*
X201580000Y-58860000D01*
X200730000Y-58860000D01*
X200730000Y-59809999D01*
X200879972Y-59809999D01*
X200883134Y-59809838D01*
X200883221Y-59811563D01*
X200945292Y-59822866D01*
X200996353Y-59870558D01*
X201013523Y-59938285D01*
X200991351Y-60004544D01*
X200977290Y-60021341D01*
X198937181Y-62061450D01*
X198875858Y-62094935D01*
X198806166Y-62089951D01*
X198750233Y-62048079D01*
X198725816Y-61982615D01*
X198725500Y-61973769D01*
X198725500Y-60821080D01*
X198716824Y-60777469D01*
X198703812Y-60712051D01*
X198702903Y-60707483D01*
X198696660Y-60676095D01*
X198696659Y-60676088D01*
X198642408Y-60545117D01*
X198640764Y-60540522D01*
X198557954Y-60416588D01*
X198557953Y-60416587D01*
X198557951Y-60416584D01*
X198453416Y-60312049D01*
X198163548Y-60022180D01*
X198130064Y-59960857D01*
X198135048Y-59891165D01*
X198176920Y-59835232D01*
X198242384Y-59810815D01*
X198251207Y-59810499D01*
X198880008Y-59810499D01*
X198880016Y-59810498D01*
X198880019Y-59810498D01*
X198977892Y-59800500D01*
X198982797Y-59799999D01*
X199149334Y-59744814D01*
X199298656Y-59652712D01*
X199392675Y-59558692D01*
X199453994Y-59525210D01*
X199523686Y-59530194D01*
X199568034Y-59558695D01*
X199661654Y-59652315D01*
X199810875Y-59744356D01*
X199810880Y-59744358D01*
X199977302Y-59799505D01*
X199977309Y-59799506D01*
X200080019Y-59809999D01*
X200229999Y-59809999D01*
X200230000Y-59809998D01*
X200230000Y-58360000D01*
X200730000Y-58360000D01*
X201579999Y-58360000D01*
X201579999Y-58110028D01*
X201579998Y-58110013D01*
X201569505Y-58007302D01*
X201514358Y-57840880D01*
X201514356Y-57840875D01*
X201422315Y-57691654D01*
X201298345Y-57567684D01*
X201149124Y-57475643D01*
X201149119Y-57475641D01*
X200982697Y-57420494D01*
X200982690Y-57420493D01*
X200879986Y-57410000D01*
X200730000Y-57410000D01*
X200730000Y-58360000D01*
X200230000Y-58360000D01*
X200230000Y-57410000D01*
X200080027Y-57410000D01*
X200080012Y-57410001D01*
X199977302Y-57420494D01*
X199810880Y-57475641D01*
X199810875Y-57475643D01*
X199661657Y-57567682D01*
X199568034Y-57661305D01*
X199506710Y-57694789D01*
X199437019Y-57689805D01*
X199392672Y-57661304D01*
X199298657Y-57567289D01*
X199298656Y-57567288D01*
X199149334Y-57475186D01*
X198982797Y-57420001D01*
X198982795Y-57420000D01*
X198880010Y-57409500D01*
X198079998Y-57409500D01*
X198079980Y-57409501D01*
X197977203Y-57420000D01*
X197977200Y-57420001D01*
X197810668Y-57475185D01*
X197810663Y-57475187D01*
X197661342Y-57567289D01*
X197537289Y-57691342D01*
X197476069Y-57790597D01*
X197424121Y-57837321D01*
X197370530Y-57849500D01*
X197320638Y-57849500D01*
X197253599Y-57829815D01*
X197215099Y-57790597D01*
X197185202Y-57742126D01*
X197147712Y-57681344D01*
X197023656Y-57557288D01*
X196891288Y-57475643D01*
X196874336Y-57465187D01*
X196874331Y-57465185D01*
X196872862Y-57464698D01*
X196707797Y-57410001D01*
X196707795Y-57410000D01*
X196605010Y-57399500D01*
X195854998Y-57399500D01*
X195854980Y-57399501D01*
X195752203Y-57410000D01*
X195752200Y-57410001D01*
X195585668Y-57465185D01*
X195585663Y-57465187D01*
X195436342Y-57557289D01*
X195312285Y-57681346D01*
X195310537Y-57684182D01*
X195308829Y-57685717D01*
X195307807Y-57687011D01*
X195307585Y-57686836D01*
X195258589Y-57730905D01*
X195189626Y-57742126D01*
X195125544Y-57714282D01*
X195099463Y-57684182D01*
X195097714Y-57681346D01*
X194973657Y-57557289D01*
X194973656Y-57557288D01*
X194841288Y-57475643D01*
X194824336Y-57465187D01*
X194824331Y-57465185D01*
X194822862Y-57464698D01*
X194657797Y-57410001D01*
X194657795Y-57410000D01*
X194555010Y-57399500D01*
X193804998Y-57399500D01*
X193804980Y-57399501D01*
X193702203Y-57410000D01*
X193702200Y-57410001D01*
X193535668Y-57465185D01*
X193535663Y-57465187D01*
X193386342Y-57557289D01*
X193262287Y-57681344D01*
X193250038Y-57701204D01*
X193198090Y-57747928D01*
X193129127Y-57759149D01*
X193065045Y-57731305D01*
X193026190Y-57673236D01*
X193020500Y-57636106D01*
X193020500Y-56334500D01*
X193040185Y-56267461D01*
X193092989Y-56221706D01*
X193144500Y-56210500D01*
X193282770Y-56210500D01*
X193349809Y-56230185D01*
X193370451Y-56246819D01*
X193376344Y-56252712D01*
X193525666Y-56344814D01*
X193692203Y-56399999D01*
X193794991Y-56410500D01*
X194545008Y-56410499D01*
X194545016Y-56410498D01*
X194545019Y-56410498D01*
X194601302Y-56404748D01*
X194647797Y-56399999D01*
X194814334Y-56344814D01*
X194963656Y-56252712D01*
X195087712Y-56128656D01*
X195089461Y-56125819D01*
X195091169Y-56124283D01*
X195092193Y-56122989D01*
X195092414Y-56123163D01*
X195141406Y-56079096D01*
X195210368Y-56067872D01*
X195274451Y-56095713D01*
X195300537Y-56125817D01*
X195302288Y-56128656D01*
X195426344Y-56252712D01*
X195575666Y-56344814D01*
X195742203Y-56399999D01*
X195844991Y-56410500D01*
X196595008Y-56410499D01*
X196595016Y-56410498D01*
X196595019Y-56410498D01*
X196651302Y-56404748D01*
X196697797Y-56399999D01*
X196864334Y-56344814D01*
X197013656Y-56252712D01*
X197137712Y-56128656D01*
X197205099Y-56019402D01*
X197257047Y-55972679D01*
X197310638Y-55960500D01*
X197354362Y-55960500D01*
X197421401Y-55980185D01*
X197459899Y-56019401D01*
X197527288Y-56128656D01*
X197651344Y-56252712D01*
X197800666Y-56344814D01*
X197967203Y-56399999D01*
X198069991Y-56410500D01*
X198870008Y-56410499D01*
X198870016Y-56410498D01*
X198870019Y-56410498D01*
X198926302Y-56404748D01*
X198972797Y-56399999D01*
X199139334Y-56344814D01*
X199288656Y-56252712D01*
X199382675Y-56158692D01*
X199443994Y-56125210D01*
X199513686Y-56130194D01*
X199558034Y-56158695D01*
X199651654Y-56252315D01*
X199800875Y-56344356D01*
X199800880Y-56344358D01*
X199967302Y-56399505D01*
X199967309Y-56399506D01*
X200070019Y-56409999D01*
X200219999Y-56409999D01*
X200720000Y-56409999D01*
X200869972Y-56409999D01*
X200869986Y-56409998D01*
X200972697Y-56399505D01*
X201139119Y-56344358D01*
X201139124Y-56344356D01*
X201288345Y-56252315D01*
X201412315Y-56128345D01*
X201504356Y-55979124D01*
X201504358Y-55979119D01*
X201559505Y-55812697D01*
X201559506Y-55812690D01*
X201569999Y-55709986D01*
X201570000Y-55709973D01*
X201570000Y-55460000D01*
X200720000Y-55460000D01*
X200720000Y-56409999D01*
X200219999Y-56409999D01*
X200220000Y-56409998D01*
X200220000Y-54960000D01*
X200720000Y-54960000D01*
X201569999Y-54960000D01*
X201569999Y-54710028D01*
X201569998Y-54710013D01*
X201559505Y-54607302D01*
X201504358Y-54440880D01*
X201504356Y-54440875D01*
X201412315Y-54291654D01*
X201288345Y-54167684D01*
X201139124Y-54075643D01*
X201139119Y-54075641D01*
X200972697Y-54020494D01*
X200972690Y-54020493D01*
X200869986Y-54010000D01*
X200720000Y-54010000D01*
X200720000Y-54960000D01*
X200220000Y-54960000D01*
X200220000Y-54010000D01*
X200070027Y-54010000D01*
X200070012Y-54010001D01*
X199967302Y-54020494D01*
X199800880Y-54075641D01*
X199800875Y-54075643D01*
X199651657Y-54167682D01*
X199558034Y-54261305D01*
X199496710Y-54294789D01*
X199427019Y-54289805D01*
X199382672Y-54261304D01*
X199288657Y-54167289D01*
X199288656Y-54167288D01*
X199139334Y-54075186D01*
X198972797Y-54020001D01*
X198972795Y-54020000D01*
X198870010Y-54009500D01*
X198069998Y-54009500D01*
X198069980Y-54009501D01*
X197967203Y-54020000D01*
X197967200Y-54020001D01*
X197800668Y-54075185D01*
X197800663Y-54075187D01*
X197651342Y-54167289D01*
X197527289Y-54291342D01*
X197459901Y-54400597D01*
X197407953Y-54447321D01*
X197354362Y-54459500D01*
X197310638Y-54459500D01*
X197243599Y-54439815D01*
X197205099Y-54400597D01*
X197141099Y-54296836D01*
X197137712Y-54291344D01*
X197013656Y-54167288D01*
X196864334Y-54075186D01*
X196697797Y-54020001D01*
X196697795Y-54020000D01*
X196595010Y-54009500D01*
X195844998Y-54009500D01*
X195844980Y-54009501D01*
X195742203Y-54020000D01*
X195742200Y-54020001D01*
X195575668Y-54075185D01*
X195575663Y-54075187D01*
X195426342Y-54167289D01*
X195302285Y-54291346D01*
X195300537Y-54294182D01*
X195298829Y-54295717D01*
X195297807Y-54297011D01*
X195297585Y-54296836D01*
X195248589Y-54340905D01*
X195179626Y-54352126D01*
X195115544Y-54324282D01*
X195089463Y-54294182D01*
X195087714Y-54291346D01*
X194963657Y-54167289D01*
X194963656Y-54167288D01*
X194814334Y-54075186D01*
X194647797Y-54020001D01*
X194647795Y-54020000D01*
X194545010Y-54009500D01*
X193794998Y-54009500D01*
X193794980Y-54009501D01*
X193692203Y-54020000D01*
X193692200Y-54020001D01*
X193525668Y-54075185D01*
X193525663Y-54075187D01*
X193376342Y-54167289D01*
X193370451Y-54173181D01*
X193309128Y-54206666D01*
X193282770Y-54209500D01*
X192441455Y-54209500D01*
X192344812Y-54228724D01*
X192248167Y-54247947D01*
X192248161Y-54247949D01*
X192194834Y-54270037D01*
X192194834Y-54270038D01*
X192149315Y-54288892D01*
X192066089Y-54323366D01*
X192066079Y-54323371D01*
X191902219Y-54432859D01*
X191848585Y-54486494D01*
X191762861Y-54572218D01*
X191762858Y-54572221D01*
X191382221Y-54952858D01*
X191382218Y-54952861D01*
X191312538Y-55022540D01*
X191242859Y-55092219D01*
X191133371Y-55256079D01*
X191133364Y-55256092D01*
X191057950Y-55438160D01*
X191057947Y-55438170D01*
X191019500Y-55631456D01*
X191019500Y-62038544D01*
X191057947Y-62231829D01*
X191057950Y-62231839D01*
X191070632Y-62262454D01*
X191070633Y-62262457D01*
X191085375Y-62298048D01*
X191092844Y-62367517D01*
X191061568Y-62429996D01*
X191001479Y-62465648D01*
X190970814Y-62469500D01*
X190859499Y-62469500D01*
X190792460Y-62449815D01*
X190746705Y-62397011D01*
X190735499Y-62345500D01*
X190735499Y-61854998D01*
X190735498Y-61854981D01*
X190724999Y-61752203D01*
X190724998Y-61752200D01*
X190682820Y-61624916D01*
X190669814Y-61585666D01*
X190577712Y-61436344D01*
X190453656Y-61312288D01*
X190360888Y-61255069D01*
X190304336Y-61220187D01*
X190304331Y-61220185D01*
X190243854Y-61200145D01*
X190137797Y-61165001D01*
X190137795Y-61165000D01*
X190035010Y-61154500D01*
X189234998Y-61154500D01*
X189234980Y-61154501D01*
X189132203Y-61165000D01*
X189132200Y-61165001D01*
X188965668Y-61220185D01*
X188965663Y-61220187D01*
X188816342Y-61312289D01*
X188692289Y-61436342D01*
X188600187Y-61585663D01*
X188600186Y-61585666D01*
X188545001Y-61752203D01*
X188545001Y-61752204D01*
X188545000Y-61752204D01*
X188534500Y-61854983D01*
X188534500Y-63655001D01*
X188534501Y-63655018D01*
X188545000Y-63757796D01*
X188545001Y-63757799D01*
X188600185Y-63924331D01*
X188600186Y-63924334D01*
X188616039Y-63950036D01*
X188634500Y-64015132D01*
X188634500Y-64239218D01*
X188614815Y-64306257D01*
X188598181Y-64326899D01*
X188141899Y-64783181D01*
X188080576Y-64816666D01*
X188054218Y-64819500D01*
X186674866Y-64819500D01*
X186609768Y-64801038D01*
X186604338Y-64797688D01*
X186604335Y-64797686D01*
X186604334Y-64797686D01*
X186437797Y-64742501D01*
X186437795Y-64742500D01*
X186335010Y-64732000D01*
X185284998Y-64732000D01*
X185284980Y-64732001D01*
X185182203Y-64742500D01*
X185182200Y-64742501D01*
X185015668Y-64797685D01*
X185015661Y-64797688D01*
X185010232Y-64801038D01*
X184945134Y-64819500D01*
X183664866Y-64819500D01*
X183599768Y-64801038D01*
X183594338Y-64797688D01*
X183594335Y-64797686D01*
X183594334Y-64797686D01*
X183427797Y-64742501D01*
X183427795Y-64742500D01*
X183325010Y-64732000D01*
X182274998Y-64732000D01*
X182274980Y-64732001D01*
X182172203Y-64742500D01*
X182172200Y-64742501D01*
X182005668Y-64797685D01*
X182005661Y-64797688D01*
X182000232Y-64801038D01*
X181935134Y-64819500D01*
X181011458Y-64819500D01*
X180985066Y-64824750D01*
X180958673Y-64830000D01*
X180958672Y-64830000D01*
X180818167Y-64857947D01*
X180818159Y-64857950D01*
X180764834Y-64880037D01*
X180764834Y-64880038D01*
X180719315Y-64898892D01*
X180636089Y-64933366D01*
X180636079Y-64933371D01*
X180472219Y-65042859D01*
X180427769Y-65087310D01*
X180332861Y-65182218D01*
X180042216Y-65472863D01*
X179992178Y-65522899D01*
X179930855Y-65556383D01*
X179861163Y-65551397D01*
X179805230Y-65509524D01*
X179780815Y-65444060D01*
X179780499Y-65435240D01*
X179780499Y-64765781D01*
X179800184Y-64698743D01*
X179816818Y-64678101D01*
X180024284Y-64470636D01*
X180703102Y-63791819D01*
X180764425Y-63758334D01*
X180790783Y-63755500D01*
X183894699Y-63755500D01*
X183961738Y-63775185D01*
X184007493Y-63827989D01*
X184012403Y-63840492D01*
X184040186Y-63924334D01*
X184132288Y-64073656D01*
X184256344Y-64197712D01*
X184405666Y-64289814D01*
X184572203Y-64344999D01*
X184674991Y-64355500D01*
X185475008Y-64355499D01*
X185475016Y-64355498D01*
X185475019Y-64355498D01*
X185531302Y-64349748D01*
X185577797Y-64344999D01*
X185744334Y-64289814D01*
X185893656Y-64197712D01*
X186017712Y-64073656D01*
X186109814Y-63924334D01*
X186164999Y-63757797D01*
X186175500Y-63655009D01*
X186175499Y-61854992D01*
X186164999Y-61752203D01*
X186109814Y-61585666D01*
X186017712Y-61436344D01*
X185893656Y-61312288D01*
X185800888Y-61255069D01*
X185744336Y-61220187D01*
X185744331Y-61220185D01*
X185683854Y-61200145D01*
X185577797Y-61165001D01*
X185577795Y-61165000D01*
X185475010Y-61154500D01*
X184674998Y-61154500D01*
X184674980Y-61154501D01*
X184572203Y-61165000D01*
X184572200Y-61165001D01*
X184405668Y-61220185D01*
X184405663Y-61220187D01*
X184256342Y-61312289D01*
X184132289Y-61436342D01*
X184040187Y-61585663D01*
X184040185Y-61585668D01*
X184012405Y-61669504D01*
X183972632Y-61726949D01*
X183908116Y-61753772D01*
X183894699Y-61754500D01*
X180226454Y-61754500D01*
X180194391Y-61760876D01*
X180194392Y-61760877D01*
X180033170Y-61792946D01*
X180033164Y-61792948D01*
X179851088Y-61868366D01*
X179851079Y-61868371D01*
X179687219Y-61977859D01*
X179687215Y-61977862D01*
X178401897Y-63263181D01*
X178340574Y-63296666D01*
X178314216Y-63299500D01*
X177532129Y-63299500D01*
X177532123Y-63299501D01*
X177472516Y-63305908D01*
X177337671Y-63356202D01*
X177337664Y-63356206D01*
X177222455Y-63442452D01*
X177222452Y-63442455D01*
X177136206Y-63557664D01*
X177136202Y-63557671D01*
X177085908Y-63692517D01*
X177079501Y-63752116D01*
X177079500Y-63752135D01*
X177079500Y-65547870D01*
X177079501Y-65547876D01*
X177085908Y-65607483D01*
X177136202Y-65742328D01*
X177136206Y-65742335D01*
X177222452Y-65857544D01*
X177222455Y-65857547D01*
X177337664Y-65943793D01*
X177337671Y-65943797D01*
X177399902Y-65967007D01*
X177469598Y-65993002D01*
X177525531Y-66034873D01*
X177549949Y-66100337D01*
X177535098Y-66168610D01*
X177513947Y-66196865D01*
X177391886Y-66318926D01*
X177256400Y-66512420D01*
X177256399Y-66512422D01*
X177156570Y-66726507D01*
X177156567Y-66726513D01*
X177099364Y-66939999D01*
X177099364Y-66940000D01*
X177996988Y-66940000D01*
X177964075Y-66997007D01*
X177930000Y-67124174D01*
X177930000Y-67255826D01*
X177964075Y-67382993D01*
X177996988Y-67440000D01*
X177099364Y-67440000D01*
X177156567Y-67653486D01*
X177156570Y-67653492D01*
X177256399Y-67867578D01*
X177391894Y-68061082D01*
X177558917Y-68228105D01*
X177744595Y-68358119D01*
X177788219Y-68412696D01*
X177795412Y-68482195D01*
X177763890Y-68544549D01*
X177744595Y-68561269D01*
X177558594Y-68691508D01*
X177391505Y-68858597D01*
X177255965Y-69052169D01*
X177255964Y-69052171D01*
X177156098Y-69266335D01*
X177156094Y-69266344D01*
X177094938Y-69494586D01*
X177094936Y-69494596D01*
X177074341Y-69729999D01*
X177074341Y-69730000D01*
X177094936Y-69965403D01*
X177094938Y-69965413D01*
X177156094Y-70193655D01*
X177156096Y-70193659D01*
X177156097Y-70193663D01*
X177232531Y-70357576D01*
X177255965Y-70407830D01*
X177255967Y-70407834D01*
X177339632Y-70527319D01*
X177391505Y-70601401D01*
X177558599Y-70768495D01*
X177655384Y-70836265D01*
X177752165Y-70904032D01*
X177752167Y-70904033D01*
X177752170Y-70904035D01*
X177966337Y-71003903D01*
X178194592Y-71065063D01*
X178382918Y-71081539D01*
X178429999Y-71085659D01*
X178430000Y-71085659D01*
X178430001Y-71085659D01*
X178469234Y-71082226D01*
X178665408Y-71065063D01*
X178893663Y-71003903D01*
X179107830Y-70904035D01*
X179301401Y-70768495D01*
X179303077Y-70766819D01*
X179303995Y-70766317D01*
X179305544Y-70765018D01*
X179305805Y-70765329D01*
X179364400Y-70733334D01*
X179390758Y-70730500D01*
X180158542Y-70730500D01*
X180177870Y-70726655D01*
X180255188Y-70711275D01*
X180351836Y-70692051D01*
X180405165Y-70669961D01*
X180533914Y-70616632D01*
X180697782Y-70507139D01*
X180837139Y-70367782D01*
X180837140Y-70367779D01*
X181457139Y-69747782D01*
X181503824Y-69677913D01*
X181566631Y-69583916D01*
X181566635Y-69583908D01*
X181598371Y-69507288D01*
X181627003Y-69438164D01*
X181642051Y-69401836D01*
X181680500Y-69208541D01*
X181680500Y-69011460D01*
X181680500Y-68938337D01*
X181700185Y-68871298D01*
X181752989Y-68825543D01*
X181822147Y-68815599D01*
X181869597Y-68832799D01*
X182005869Y-68916853D01*
X182005880Y-68916858D01*
X182172302Y-68972005D01*
X182172309Y-68972006D01*
X182275019Y-68982499D01*
X182549999Y-68982499D01*
X183050000Y-68982499D01*
X183324972Y-68982499D01*
X183324986Y-68982498D01*
X183427697Y-68972005D01*
X183594119Y-68916858D01*
X183594124Y-68916856D01*
X183743345Y-68824815D01*
X183867315Y-68700845D01*
X183959356Y-68551624D01*
X183959358Y-68551619D01*
X184014505Y-68385197D01*
X184014506Y-68385190D01*
X184024999Y-68282486D01*
X184585001Y-68282486D01*
X184595494Y-68385197D01*
X184650641Y-68551619D01*
X184650643Y-68551624D01*
X184742684Y-68700845D01*
X184866654Y-68824815D01*
X185015875Y-68916856D01*
X185015880Y-68916858D01*
X185182302Y-68972005D01*
X185182309Y-68972006D01*
X185285019Y-68982499D01*
X185559999Y-68982499D01*
X186060000Y-68982499D01*
X186334972Y-68982499D01*
X186334986Y-68982498D01*
X186437697Y-68972005D01*
X186604119Y-68916858D01*
X186604124Y-68916856D01*
X186753345Y-68824815D01*
X186877315Y-68700845D01*
X186969356Y-68551624D01*
X186969358Y-68551619D01*
X187024505Y-68385197D01*
X187024506Y-68385190D01*
X187034999Y-68282486D01*
X187035000Y-68282473D01*
X187035000Y-68145000D01*
X186060000Y-68145000D01*
X186060000Y-68982499D01*
X185559999Y-68982499D01*
X185560000Y-68982498D01*
X185560000Y-68145000D01*
X184585001Y-68145000D01*
X184585001Y-68282486D01*
X184024999Y-68282486D01*
X184025000Y-68282473D01*
X184025000Y-68145000D01*
X183050000Y-68145000D01*
X183050000Y-68982499D01*
X182549999Y-68982499D01*
X182550000Y-68982498D01*
X182550000Y-67769000D01*
X182569685Y-67701961D01*
X182622489Y-67656206D01*
X182674000Y-67645000D01*
X184024999Y-67645000D01*
X184024999Y-67507528D01*
X184024998Y-67507513D01*
X184014505Y-67404802D01*
X183959358Y-67238380D01*
X183959356Y-67238375D01*
X183867315Y-67089154D01*
X183810342Y-67032181D01*
X183776857Y-66970858D01*
X183781841Y-66901166D01*
X183823713Y-66845233D01*
X183889177Y-66820816D01*
X183898023Y-66820500D01*
X184711977Y-66820500D01*
X184779016Y-66840185D01*
X184824771Y-66892989D01*
X184834715Y-66962147D01*
X184805690Y-67025703D01*
X184799658Y-67032181D01*
X184742684Y-67089154D01*
X184650643Y-67238375D01*
X184650641Y-67238380D01*
X184595494Y-67404802D01*
X184595493Y-67404809D01*
X184585000Y-67507513D01*
X184585000Y-67645000D01*
X187034999Y-67645000D01*
X187034999Y-67507528D01*
X187034998Y-67507513D01*
X187024505Y-67404802D01*
X186969358Y-67238380D01*
X186969356Y-67238375D01*
X186877315Y-67089154D01*
X186820342Y-67032181D01*
X186786857Y-66970858D01*
X186791841Y-66901166D01*
X186833713Y-66845233D01*
X186899177Y-66820816D01*
X186908023Y-66820500D01*
X188510500Y-66820500D01*
X188577539Y-66840185D01*
X188623294Y-66892989D01*
X188634500Y-66944500D01*
X188634500Y-70959217D01*
X188614815Y-71026256D01*
X188598181Y-71046898D01*
X187912098Y-71732980D01*
X187850775Y-71766465D01*
X187837021Y-71768657D01*
X187827290Y-71769651D01*
X187666305Y-71822996D01*
X187666294Y-71823001D01*
X187521959Y-71912029D01*
X187521955Y-71912032D01*
X187402032Y-72031955D01*
X187402029Y-72031959D01*
X187313001Y-72176294D01*
X187312995Y-72176308D01*
X187309703Y-72186242D01*
X187269927Y-72243685D01*
X187205410Y-72270505D01*
X187136635Y-72258186D01*
X187085437Y-72210640D01*
X187067999Y-72147234D01*
X187067999Y-71159992D01*
X187063845Y-71119331D01*
X187057499Y-71057203D01*
X187057498Y-71057200D01*
X187038648Y-71000315D01*
X187002314Y-70890666D01*
X186910212Y-70741344D01*
X186786156Y-70617288D01*
X186693388Y-70560069D01*
X186636836Y-70525187D01*
X186636831Y-70525185D01*
X186621184Y-70520000D01*
X186470297Y-70470001D01*
X186470295Y-70470000D01*
X186367510Y-70459500D01*
X185467498Y-70459500D01*
X185467480Y-70459501D01*
X185364703Y-70470000D01*
X185364700Y-70470001D01*
X185198168Y-70525185D01*
X185198163Y-70525187D01*
X185048842Y-70617289D01*
X184924789Y-70741342D01*
X184832687Y-70890663D01*
X184832685Y-70890668D01*
X184812098Y-70952795D01*
X184777501Y-71057203D01*
X184777501Y-71057204D01*
X184777500Y-71057204D01*
X184767000Y-71159983D01*
X184767000Y-72460001D01*
X184767001Y-72460018D01*
X184777500Y-72562796D01*
X184777501Y-72562799D01*
X184832685Y-72729331D01*
X184832687Y-72729336D01*
X184866628Y-72784363D01*
X184924788Y-72878656D01*
X185048844Y-73002712D01*
X185108096Y-73039258D01*
X185154821Y-73091204D01*
X185167000Y-73144797D01*
X185167000Y-73481418D01*
X185167000Y-73481420D01*
X185166999Y-73481420D01*
X185195840Y-73626407D01*
X185195843Y-73626417D01*
X185252414Y-73762992D01*
X185252415Y-73762994D01*
X185252416Y-73762995D01*
X185265775Y-73782989D01*
X185280922Y-73805657D01*
X185280923Y-73805660D01*
X185334546Y-73885914D01*
X185334552Y-73885921D01*
X185571637Y-74123006D01*
X185605122Y-74184329D01*
X185600138Y-74254021D01*
X185558266Y-74309954D01*
X185492802Y-74334371D01*
X185486571Y-74334659D01*
X185461203Y-74335193D01*
X185457153Y-74335279D01*
X185318629Y-74379139D01*
X185318626Y-74379141D01*
X185308366Y-74384089D01*
X185264529Y-74407943D01*
X185264514Y-74407951D01*
X185226857Y-74430897D01*
X185216501Y-74437379D01*
X185155514Y-74476569D01*
X185151149Y-74479407D01*
X185071746Y-74531634D01*
X185071550Y-74531764D01*
X185068587Y-74533727D01*
X185068502Y-74533784D01*
X184974710Y-74596414D01*
X184973026Y-74597547D01*
X184972238Y-74598077D01*
X184972129Y-74598151D01*
X184868413Y-74668267D01*
X184868414Y-74668268D01*
X184868327Y-74668327D01*
X184867188Y-74669099D01*
X184842192Y-74686096D01*
X184791351Y-74720667D01*
X184724845Y-74742085D01*
X184657317Y-74724148D01*
X184610207Y-74672549D01*
X184599772Y-74641099D01*
X184595575Y-74618838D01*
X184582477Y-74549357D01*
X184498657Y-74104734D01*
X184461361Y-73987238D01*
X184461361Y-73987237D01*
X184382805Y-73865002D01*
X184347604Y-73834500D01*
X184272991Y-73769847D01*
X184272989Y-73769846D01*
X184272987Y-73769844D01*
X184140824Y-73709487D01*
X184140817Y-73709485D01*
X184017672Y-73691780D01*
X183996994Y-73688807D01*
X183071546Y-73688807D01*
X183041780Y-73692427D01*
X182949177Y-73703690D01*
X182814496Y-73758244D01*
X182700651Y-73848526D01*
X182616847Y-73967229D01*
X182616846Y-73967231D01*
X182569885Y-74104723D01*
X182569884Y-74104728D01*
X182569884Y-74104729D01*
X182569883Y-74104733D01*
X182487405Y-74542236D01*
X182486062Y-74549358D01*
X182486061Y-74549359D01*
X182468765Y-74641100D01*
X182437001Y-74703332D01*
X182376635Y-74738512D01*
X182306831Y-74735471D01*
X182277186Y-74720666D01*
X182201306Y-74669068D01*
X182201306Y-74669067D01*
X182200625Y-74668605D01*
X182200625Y-74668606D01*
X182127147Y-74618838D01*
X182125098Y-74617458D01*
X182125098Y-74617457D01*
X182027997Y-74552340D01*
X182027930Y-74552295D01*
X182027834Y-74552231D01*
X182025177Y-74550461D01*
X181940889Y-74494697D01*
X181937103Y-74492216D01*
X181937003Y-74492151D01*
X181870267Y-74448845D01*
X181869177Y-74448151D01*
X181862834Y-74444113D01*
X181821850Y-74418511D01*
X181817807Y-74415985D01*
X181801052Y-74406313D01*
X181787050Y-74398229D01*
X181768226Y-74388218D01*
X181768223Y-74388216D01*
X181768213Y-74388212D01*
X181681750Y-74351979D01*
X181599603Y-74338550D01*
X181536618Y-74308307D01*
X181499982Y-74248813D01*
X181495836Y-74208690D01*
X181505436Y-74050000D01*
X181485710Y-73723896D01*
X181426821Y-73402547D01*
X181369995Y-73220185D01*
X181339942Y-73123740D01*
X181338790Y-73053880D01*
X181375591Y-72994488D01*
X181438660Y-72964420D01*
X181507973Y-72973222D01*
X181546008Y-72999169D01*
X181549154Y-73002315D01*
X181698375Y-73094356D01*
X181698380Y-73094358D01*
X181864802Y-73149505D01*
X181864809Y-73149506D01*
X181967519Y-73159999D01*
X182167499Y-73159999D01*
X182667500Y-73159999D01*
X182867472Y-73159999D01*
X182867486Y-73159998D01*
X182970197Y-73149505D01*
X183136619Y-73094358D01*
X183136624Y-73094356D01*
X183285845Y-73002315D01*
X183409815Y-72878345D01*
X183501856Y-72729124D01*
X183501858Y-72729119D01*
X183557005Y-72562697D01*
X183557006Y-72562690D01*
X183567499Y-72459986D01*
X183567500Y-72459973D01*
X183567500Y-72060000D01*
X182667500Y-72060000D01*
X182667500Y-73159999D01*
X182167499Y-73159999D01*
X182167500Y-73159998D01*
X182167500Y-72060000D01*
X181267501Y-72060000D01*
X181267501Y-72459983D01*
X181267553Y-72461008D01*
X181267501Y-72461225D01*
X181267501Y-72463134D01*
X181267044Y-72463134D01*
X181251291Y-72528959D01*
X181200874Y-72577331D01*
X181132308Y-72590766D01*
X181067363Y-72565000D01*
X181037595Y-72531442D01*
X181026530Y-72513137D01*
X181026527Y-72513132D01*
X180825045Y-72255960D01*
X180594039Y-72024954D01*
X180336868Y-71823473D01*
X180273082Y-71784913D01*
X180057279Y-71654455D01*
X179759361Y-71520373D01*
X179759354Y-71520370D01*
X179759342Y-71520366D01*
X179447452Y-71423178D01*
X179126099Y-71364289D01*
X178800000Y-71344564D01*
X178473900Y-71364289D01*
X178152547Y-71423178D01*
X177840657Y-71520366D01*
X177840641Y-71520372D01*
X177840639Y-71520373D01*
X177735143Y-71567853D01*
X177542725Y-71654453D01*
X177542723Y-71654454D01*
X177263131Y-71823473D01*
X177005960Y-72024954D01*
X176774954Y-72255960D01*
X176573473Y-72513131D01*
X176451580Y-72714767D01*
X176404455Y-72792721D01*
X176273943Y-73082708D01*
X176270372Y-73090642D01*
X176270366Y-73090657D01*
X176173178Y-73402547D01*
X176114289Y-73723900D01*
X176094564Y-74050000D01*
X176114289Y-74376099D01*
X176144294Y-74539837D01*
X176137016Y-74609327D01*
X176093324Y-74663850D01*
X176027090Y-74686096D01*
X175959344Y-74669003D01*
X175911593Y-74617996D01*
X175908498Y-74611375D01*
X175711378Y-74154955D01*
X175709155Y-74149448D01*
X175699210Y-74123006D01*
X175415769Y-73369351D01*
X175413812Y-73363743D01*
X175409660Y-73350858D01*
X175158150Y-72570425D01*
X175156474Y-72564762D01*
X174939148Y-71760125D01*
X174937746Y-71754396D01*
X174807428Y-71160013D01*
X181267500Y-71160013D01*
X181267500Y-71560000D01*
X182167500Y-71560000D01*
X182667500Y-71560000D01*
X183567499Y-71560000D01*
X183567499Y-71160028D01*
X183567498Y-71160013D01*
X183557005Y-71057302D01*
X183501858Y-70890880D01*
X183501856Y-70890875D01*
X183409815Y-70741654D01*
X183285845Y-70617684D01*
X183136624Y-70525643D01*
X183136619Y-70525641D01*
X182970197Y-70470494D01*
X182970190Y-70470493D01*
X182867486Y-70460000D01*
X182667500Y-70460000D01*
X182667500Y-71560000D01*
X182167500Y-71560000D01*
X182167500Y-70460000D01*
X181967529Y-70460000D01*
X181967512Y-70460001D01*
X181864802Y-70470494D01*
X181698380Y-70525641D01*
X181698375Y-70525643D01*
X181549154Y-70617684D01*
X181425184Y-70741654D01*
X181333143Y-70890875D01*
X181333141Y-70890880D01*
X181277994Y-71057302D01*
X181277993Y-71057309D01*
X181267500Y-71160013D01*
X174807428Y-71160013D01*
X174759246Y-70940254D01*
X174758112Y-70934416D01*
X174618857Y-70112689D01*
X174618004Y-70106804D01*
X174574746Y-69747777D01*
X174518303Y-69279311D01*
X174517735Y-69273401D01*
X174517393Y-69268657D01*
X174457823Y-68442094D01*
X174457541Y-68436205D01*
X174437555Y-67602960D01*
X174437555Y-67597027D01*
X174439702Y-67507513D01*
X174457541Y-66763792D01*
X174457823Y-66757907D01*
X174517736Y-65926585D01*
X174518304Y-65920678D01*
X174523940Y-65873907D01*
X174618004Y-65093192D01*
X174618857Y-65087310D01*
X174622568Y-65065413D01*
X174758112Y-64265577D01*
X174759246Y-64259745D01*
X174764353Y-64236452D01*
X174937749Y-63445594D01*
X174939145Y-63439883D01*
X175156477Y-62635225D01*
X175158146Y-62629585D01*
X175413818Y-61836236D01*
X175415764Y-61830661D01*
X175709163Y-61050529D01*
X175711372Y-61045058D01*
X176041844Y-60279870D01*
X176044302Y-60274533D01*
X176411094Y-59526046D01*
X176413799Y-59520845D01*
X176450086Y-59454988D01*
X183955001Y-59454988D01*
X183965494Y-59557699D01*
X184020640Y-59724120D01*
X184020642Y-59724125D01*
X184112683Y-59873346D01*
X184236653Y-59997316D01*
X184385874Y-60089357D01*
X184385879Y-60089359D01*
X184552302Y-60144506D01*
X184552300Y-60144506D01*
X184611134Y-60150516D01*
X184622124Y-60155000D01*
X184648701Y-60155000D01*
X184661304Y-60155642D01*
X184668461Y-60156373D01*
X184676419Y-60155000D01*
X184706375Y-60155000D01*
X184706384Y-60154999D01*
X185580000Y-60154999D01*
X186080000Y-60154999D01*
X187105000Y-60154999D01*
X187605000Y-60154999D01*
X188629999Y-60154999D01*
X189130000Y-60154999D01*
X190054974Y-60154999D01*
X190054988Y-60154998D01*
X190157699Y-60144505D01*
X190324120Y-60089359D01*
X190324125Y-60089357D01*
X190473346Y-59997316D01*
X190597316Y-59873346D01*
X190689357Y-59724125D01*
X190689359Y-59724120D01*
X190744505Y-59557698D01*
X190754999Y-59454988D01*
X190755000Y-59454975D01*
X190755000Y-58380000D01*
X189130000Y-58380000D01*
X189130000Y-60154999D01*
X188629999Y-60154999D01*
X188630000Y-60154998D01*
X188630000Y-58380000D01*
X187605000Y-58380000D01*
X187605000Y-60154999D01*
X187105000Y-60154999D01*
X187105000Y-58380000D01*
X186080000Y-58380000D01*
X186080000Y-60154999D01*
X185580000Y-60154999D01*
X185580000Y-58380000D01*
X183955001Y-58380000D01*
X183955001Y-59454988D01*
X176450086Y-59454988D01*
X176816063Y-58790789D01*
X176819009Y-58785733D01*
X177255803Y-58075821D01*
X177259006Y-58070885D01*
X177389469Y-57879999D01*
X183955000Y-57879999D01*
X183955002Y-57880000D01*
X185580000Y-57880000D01*
X186080000Y-57880000D01*
X187105000Y-57880000D01*
X187605000Y-57880000D01*
X188630000Y-57880000D01*
X189130000Y-57880000D01*
X190754999Y-57880000D01*
X190754999Y-56705000D01*
X189130000Y-56705000D01*
X189130000Y-57880000D01*
X188630000Y-57880000D01*
X188630000Y-56705000D01*
X187605000Y-56705000D01*
X187605000Y-57880000D01*
X187105000Y-57880000D01*
X187105000Y-56705000D01*
X186080000Y-56705000D01*
X186080000Y-57880000D01*
X185580000Y-57880000D01*
X185580000Y-56705000D01*
X183955000Y-56705000D01*
X183955000Y-57879999D01*
X177389469Y-57879999D01*
X177729334Y-57382729D01*
X177732763Y-57377962D01*
X178235526Y-56713172D01*
X178239204Y-56708545D01*
X178242163Y-56705000D01*
X178659446Y-56205000D01*
X183955000Y-56205000D01*
X185580000Y-56205000D01*
X186080000Y-56205000D01*
X187105000Y-56205000D01*
X187605000Y-56205000D01*
X188630000Y-56205000D01*
X189130000Y-56205000D01*
X190754999Y-56205000D01*
X190754999Y-56111113D01*
X190755000Y-56111092D01*
X190755000Y-55030000D01*
X189130000Y-55030000D01*
X189130000Y-56205000D01*
X188630000Y-56205000D01*
X188630000Y-55030000D01*
X187605000Y-55030000D01*
X187605000Y-56205000D01*
X187105000Y-56205000D01*
X187105000Y-55030000D01*
X186080000Y-55030000D01*
X186080000Y-56205000D01*
X185580000Y-56205000D01*
X185580000Y-55030000D01*
X183955000Y-55030000D01*
X183955000Y-56205000D01*
X178659446Y-56205000D01*
X178773267Y-56068616D01*
X178777136Y-56064200D01*
X179341280Y-55450601D01*
X179345358Y-55446374D01*
X179938256Y-54860543D01*
X179942553Y-54856496D01*
X180562863Y-54299759D01*
X180567327Y-54295942D01*
X181213610Y-53769592D01*
X181218275Y-53765975D01*
X181639868Y-53455011D01*
X183955000Y-53455011D01*
X183955000Y-54530000D01*
X185580000Y-54530000D01*
X186080000Y-54530000D01*
X187105000Y-54530000D01*
X187605000Y-54530000D01*
X188630000Y-54530000D01*
X189130000Y-54530000D01*
X190754999Y-54530000D01*
X190754999Y-53455028D01*
X190754998Y-53455013D01*
X190745148Y-53358589D01*
X190744976Y-53355219D01*
X190744505Y-53352300D01*
X190689359Y-53185879D01*
X190689357Y-53185874D01*
X190597316Y-53036653D01*
X190473346Y-52912683D01*
X190324125Y-52820642D01*
X190324120Y-52820640D01*
X190157698Y-52765494D01*
X190054988Y-52755000D01*
X189130000Y-52755000D01*
X189130000Y-54530000D01*
X188630000Y-54530000D01*
X188630000Y-52755000D01*
X187605000Y-52755000D01*
X187605000Y-54530000D01*
X187105000Y-54530000D01*
X187105000Y-52755000D01*
X186080000Y-52755000D01*
X186080000Y-54530000D01*
X185580000Y-54530000D01*
X185580000Y-52755000D01*
X184654197Y-52755000D01*
X184651364Y-52755374D01*
X184552300Y-52765494D01*
X184385879Y-52820640D01*
X184385874Y-52820642D01*
X184236653Y-52912683D01*
X184112683Y-53036653D01*
X184020642Y-53185874D01*
X184020640Y-53185879D01*
X183965494Y-53352301D01*
X183955000Y-53455011D01*
X181639868Y-53455011D01*
X181889064Y-53271206D01*
X181893860Y-53267843D01*
X182587592Y-52805808D01*
X182592578Y-52802658D01*
X183307650Y-52374424D01*
X183312805Y-52371503D01*
X184047586Y-51978046D01*
X184052809Y-51975408D01*
X184805661Y-51617607D01*
X184811015Y-51615218D01*
X185580127Y-51293938D01*
X185585608Y-51291801D01*
X186369218Y-51007772D01*
X186374817Y-51005893D01*
X187171147Y-50759760D01*
X187176827Y-50758153D01*
X187984011Y-50550490D01*
X187989759Y-50549157D01*
X188806020Y-50380424D01*
X188811809Y-50379371D01*
X189635211Y-50249968D01*
X189641060Y-50249192D01*
X190469699Y-50159420D01*
X190475613Y-50158923D01*
X191307572Y-50108984D01*
X191313483Y-50108771D01*
X192146914Y-50098777D01*
X192152799Y-50098847D01*
G37*
%TD.AperFunction*%
%TA.AperFunction,Conductor*%
G36*
X203050314Y-68163567D02*
G01*
X203106248Y-68205438D01*
X203108555Y-68208625D01*
X203131505Y-68241401D01*
X203298597Y-68408493D01*
X203298603Y-68408498D01*
X203484594Y-68538730D01*
X203528219Y-68593307D01*
X203535413Y-68662805D01*
X203503890Y-68725160D01*
X203484595Y-68741880D01*
X203298922Y-68871890D01*
X203298920Y-68871891D01*
X203131891Y-69038920D01*
X203131886Y-69038926D01*
X202996400Y-69232420D01*
X202996399Y-69232422D01*
X202896570Y-69446507D01*
X202896567Y-69446513D01*
X202839364Y-69659999D01*
X202839364Y-69660000D01*
X203736988Y-69660000D01*
X203704075Y-69717007D01*
X203670000Y-69844174D01*
X203670000Y-69975826D01*
X203704075Y-70102993D01*
X203736988Y-70160000D01*
X202839364Y-70160000D01*
X202896567Y-70373486D01*
X202896570Y-70373492D01*
X202996399Y-70587578D01*
X203131894Y-70781082D01*
X203298917Y-70948105D01*
X203484595Y-71078119D01*
X203528219Y-71132696D01*
X203535412Y-71202195D01*
X203503890Y-71264549D01*
X203484595Y-71281269D01*
X203298594Y-71411508D01*
X203131506Y-71578596D01*
X203083874Y-71646623D01*
X203029297Y-71690248D01*
X202982299Y-71699500D01*
X200194000Y-71699500D01*
X200126961Y-71679815D01*
X200081206Y-71627011D01*
X200070000Y-71575500D01*
X200070000Y-71020000D01*
X199119000Y-71020000D01*
X199051961Y-71000315D01*
X199006206Y-70947511D01*
X198995000Y-70896000D01*
X198995000Y-70520000D01*
X199495000Y-70520000D01*
X200070000Y-70520000D01*
X200070000Y-69872172D01*
X200069999Y-69872155D01*
X200063598Y-69812627D01*
X200063596Y-69812620D01*
X200013354Y-69677913D01*
X200013350Y-69677906D01*
X199927190Y-69562812D01*
X199927187Y-69562809D01*
X199812093Y-69476649D01*
X199812086Y-69476645D01*
X199677379Y-69426403D01*
X199677372Y-69426401D01*
X199617844Y-69420000D01*
X199495000Y-69420000D01*
X199495000Y-70520000D01*
X198995000Y-70520000D01*
X198995000Y-69420000D01*
X198872155Y-69420000D01*
X198812627Y-69426401D01*
X198812620Y-69426403D01*
X198677913Y-69476645D01*
X198670128Y-69480897D01*
X198668366Y-69477671D01*
X198619094Y-69495973D01*
X198550842Y-69481029D01*
X198549027Y-69479861D01*
X198542327Y-69476202D01*
X198407486Y-69425910D01*
X198407485Y-69425909D01*
X198407483Y-69425909D01*
X198347873Y-69419500D01*
X198347863Y-69419500D01*
X197602129Y-69419500D01*
X197602108Y-69419502D01*
X197592747Y-69420508D01*
X197523988Y-69408098D01*
X197472854Y-69360485D01*
X197455500Y-69297218D01*
X197455500Y-69027229D01*
X197475185Y-68960190D01*
X197491819Y-68939548D01*
X197904548Y-68526819D01*
X197965871Y-68493334D01*
X197992229Y-68490500D01*
X202383920Y-68490500D01*
X202481462Y-68471096D01*
X202528913Y-68461658D01*
X202665495Y-68405084D01*
X202717254Y-68370500D01*
X202717254Y-68370499D01*
X202717256Y-68370499D01*
X202752835Y-68346726D01*
X202788416Y-68322952D01*
X202919301Y-68192066D01*
X202980622Y-68158583D01*
X203050314Y-68163567D01*
G37*
%TD.AperFunction*%
%TD*%
M02*
