<?xml version="1.0" standalone="no"?>
 <!DOCTYPE svg PUBLIC "-//W3C//DTD SVG 1.1//EN" 
 "http://www.w3.org/Graphics/SVG/1.1/DTD/svg11.dtd"> 
<svg
  xmlns:svg="http://www.w3.org/2000/svg"
  xmlns="http://www.w3.org/2000/svg"
  xmlns:xlink="http://www.w3.org/1999/xlink"
  version="1.1"
  width="297.0022mm" height="210.0072mm" viewBox="0.0000 0.0000 297.0022 210.0072">
<title>SVG Image created as circular PCB-F_Mask.svg date 2024/12/07 20:31:36 </title>
  <desc>Image generated by PCBNEW </desc>
<g style="fill:#000000; fill-opacity:1.0000;stroke:#000000; stroke-opacity:1.0000;
stroke-linecap:round; stroke-linejoin:round;"
 transform="translate(0 0) scale(1 1)">
</g>
<g style="fill:#000000; fill-opacity:1.0000; stroke:none;">
<circle cx="178.8000" cy="74.0500" r="2.2000" /> 
<path style="fill:#000000; fill-opacity:1.0000; stroke:none;fill-rule:evenodd;"
d="M 186.2850,67.3075
186.3807,67.3265
186.4618,67.3807
186.5160,67.4618
186.5350,67.5575
186.5350,68.2325
186.5160,68.3282
186.4618,68.4093
186.3807,68.4635
186.2850,68.4825
185.3350,68.4825
185.2393,68.4635
185.1582,68.4093
185.1040,68.3282
185.0850,68.2325
185.0850,67.5575
185.1040,67.4618
185.1582,67.3807
185.2393,67.3265
185.3350,67.3075
Z" /> 
<path style="fill:#000000; fill-opacity:1.0000; stroke:none;fill-rule:evenodd;"
d="M 186.2850,65.2325
186.3807,65.2515
186.4618,65.3057
186.5160,65.3868
186.5350,65.4825
186.5350,66.1575
186.5160,66.2532
186.4618,66.3343
186.3807,66.3885
186.2850,66.4075
185.3350,66.4075
185.2393,66.3885
185.1582,66.3343
185.1040,66.2532
185.0850,66.1575
185.0850,65.4825
185.1040,65.3868
185.1582,65.3057
185.2393,65.2515
185.3350,65.2325
Z" /> 
<path style="fill:#000000; fill-opacity:1.0000; stroke:none;fill-rule:evenodd;"
d="M 192.7100,69.0500
192.6143,69.0310
192.5332,68.9768
192.4790,68.8957
192.4600,68.8000
192.4600,68.1000
192.4790,68.0043
192.5332,67.9232
192.6143,67.8690
192.7100,67.8500
193.6100,67.8500
193.7057,67.8690
193.7868,67.9232
193.8410,68.0043
193.8600,68.1000
193.8600,68.8000
193.8410,68.8957
193.7868,68.9768
193.7057,69.0310
193.6100,69.0500
Z" /> 
<path style="fill:#000000; fill-opacity:1.0000; stroke:none;fill-rule:evenodd;"
d="M 192.7100,71.0500
192.6143,71.0310
192.5332,70.9768
192.4790,70.8957
192.4600,70.8000
192.4600,70.1000
192.4790,70.0043
192.5332,69.9232
192.6143,69.8690
192.7100,69.8500
193.6100,69.8500
193.7057,69.8690
193.7868,69.9232
193.8410,70.0043
193.8600,70.1000
193.8600,70.8000
193.8410,70.8957
193.7868,70.9768
193.7057,71.0310
193.6100,71.0500
Z" /> 
<path style="fill:#000000; fill-opacity:1.0000; stroke:none;fill-rule:evenodd;"
d="M 183.2750,67.3075
183.3707,67.3265
183.4518,67.3807
183.5060,67.4618
183.5250,67.5575
183.5250,68.2325
183.5060,68.3282
183.4518,68.4093
183.3707,68.4635
183.2750,68.4825
182.3250,68.4825
182.2293,68.4635
182.1482,68.4093
182.0940,68.3282
182.0750,68.2325
182.0750,67.5575
182.0940,67.4618
182.1482,67.3807
182.2293,67.3265
182.3250,67.3075
Z" /> 
<path style="fill:#000000; fill-opacity:1.0000; stroke:none;fill-rule:evenodd;"
d="M 183.2750,65.2325
183.3707,65.2515
183.4518,65.3057
183.5060,65.3868
183.5250,65.4825
183.5250,66.1575
183.5060,66.2532
183.4518,66.3343
183.3707,66.3885
183.2750,66.4075
182.3250,66.4075
182.2293,66.3885
182.1482,66.3343
182.0940,66.2532
182.0750,66.1575
182.0750,65.4825
182.0940,65.3868
182.1482,65.3057
182.2293,65.2515
182.3250,65.2325
Z" /> 
<path style="fill:#000000; fill-opacity:1.0000; stroke:none;fill-rule:evenodd;"
d="M 194.3300,74.4400
194.2343,74.4210
194.1532,74.3668
194.0990,74.2857
194.0800,74.1900
194.0800,73.4900
194.0990,73.3943
194.1532,73.3132
194.2343,73.2590
194.3300,73.2400
195.2300,73.2400
195.3257,73.2590
195.4068,73.3132
195.4610,73.3943
195.4800,73.4900
195.4800,74.1900
195.4610,74.2857
195.4068,74.3668
195.3257,74.4210
195.2300,74.4400
Z" /> 
<path style="fill:#000000; fill-opacity:1.0000; stroke:none;fill-rule:evenodd;"
d="M 194.3300,76.4400
194.2343,76.4210
194.1532,76.3668
194.0990,76.2857
194.0800,76.1900
194.0800,75.4900
194.0990,75.3943
194.1532,75.3132
194.2343,75.2590
194.3300,75.2400
195.2300,75.2400
195.3257,75.2590
195.4068,75.3132
195.4610,75.3943
195.4800,75.4900
195.4800,76.1900
195.4610,76.2857
195.4068,76.3668
195.3257,76.4210
195.2300,76.4400
Z" /> 
<path style="fill:#000000; fill-opacity:1.0000; stroke:none;fill-rule:evenodd;"
d="M 199.8700,54.7600
199.8890,54.6643
199.9432,54.5832
200.0243,54.5290
200.1200,54.5100
200.8200,54.5100
200.9157,54.5290
200.9968,54.5832
201.0510,54.6643
201.0700,54.7600
201.0700,55.6600
201.0510,55.7557
200.9968,55.8368
200.9157,55.8910
200.8200,55.9100
200.1200,55.9100
200.0243,55.8910
199.9432,55.8368
199.8890,55.7557
199.8700,55.6600
Z" /> 
<path style="fill:#000000; fill-opacity:1.0000; stroke:none;fill-rule:evenodd;"
d="M 197.8700,54.7600
197.8890,54.6643
197.9432,54.5832
198.0243,54.5290
198.1200,54.5100
198.8200,54.5100
198.9157,54.5290
198.9968,54.5832
199.0510,54.6643
199.0700,54.7600
199.0700,55.6600
199.0510,55.7557
198.9968,55.8368
198.9157,55.8910
198.8200,55.9100
198.1200,55.9100
198.0243,55.8910
197.9432,55.8368
197.8890,55.7557
197.8700,55.6600
Z" /> 
<path style="fill:#000000; fill-opacity:1.0000; stroke:none;fill-rule:evenodd;"
d="M 183.0675,72.4100
183.0485,72.5057
182.9943,72.5868
182.9132,72.6410
182.8175,72.6600
182.0175,72.6600
181.9218,72.6410
181.8407,72.5868
181.7865,72.5057
181.7675,72.4100
181.7675,71.2100
181.7865,71.1143
181.8407,71.0332
181.9218,70.9790
182.0175,70.9600
182.8175,70.9600
182.9132,70.9790
182.9943,71.0332
183.0485,71.1143
183.0675,71.2100
Z" /> 
<path style="fill:#000000; fill-opacity:1.0000; stroke:none;fill-rule:evenodd;"
d="M 186.5675,72.4100
186.5485,72.5057
186.4943,72.5868
186.4132,72.6410
186.3175,72.6600
185.5175,72.6600
185.4218,72.6410
185.3407,72.5868
185.2865,72.5057
185.2675,72.4100
185.2675,71.2100
185.2865,71.1143
185.3407,71.0332
185.4218,70.9790
185.5175,70.9600
186.3175,70.9600
186.4132,70.9790
186.4943,71.0332
186.5485,71.1143
186.5675,71.2100
Z" /> 
<path style="fill:#000000; fill-opacity:1.0000; stroke:none;fill-rule:evenodd;"
d="M 196.8050,59.0500
196.7860,59.1457
196.7318,59.2268
196.6507,59.2810
196.5550,59.3000
195.9050,59.3000
195.8093,59.2810
195.7282,59.2268
195.6740,59.1457
195.6550,59.0500
195.6550,58.1500
195.6740,58.0543
195.7282,57.9732
195.8093,57.9190
195.9050,57.9000
196.5550,57.9000
196.6507,57.9190
196.7318,57.9732
196.7860,58.0543
196.8050,58.1500
Z" /> 
<path style="fill:#000000; fill-opacity:1.0000; stroke:none;fill-rule:evenodd;"
d="M 194.7550,59.0500
194.7360,59.1457
194.6818,59.2268
194.6007,59.2810
194.5050,59.3000
193.8550,59.3000
193.7593,59.2810
193.6782,59.2268
193.6240,59.1457
193.6050,59.0500
193.6050,58.1500
193.6240,58.0543
193.6782,57.9732
193.7593,57.9190
193.8550,57.9000
194.5050,57.9000
194.6007,57.9190
194.6818,57.9732
194.7360,58.0543
194.7550,58.1500
Z" /> 
<path style="fill:#000000; fill-opacity:1.0000; stroke:none;fill-rule:evenodd;"
d="M 195.7600,64.3200
195.1100,64.3200
195.1100,62.6200
195.7600,62.6200
Z" /> 
<path style="fill:#000000; fill-opacity:1.0000; stroke:none;fill-rule:evenodd;"
d="M 197.0300,64.3200
196.3800,64.3200
196.3800,62.6200
197.0300,62.6200
Z" /> 
<path style="fill:#000000; fill-opacity:1.0000; stroke:none;fill-rule:evenodd;"
d="M 198.3000,64.3200
197.6500,64.3200
197.6500,62.6200
198.3000,62.6200
Z" /> 
<path style="fill:#000000; fill-opacity:1.0000; stroke:none;fill-rule:evenodd;"
d="M 199.5700,64.3200
198.9200,64.3200
198.9200,62.6200
199.5700,62.6200
Z" /> 
<path style="fill:#000000; fill-opacity:1.0000; stroke:none;fill-rule:evenodd;"
d="M 199.5700,71.6200
198.9200,71.6200
198.9200,69.9200
199.5700,69.9200
Z" /> 
<path style="fill:#000000; fill-opacity:1.0000; stroke:none;fill-rule:evenodd;"
d="M 198.3000,71.6200
197.6500,71.6200
197.6500,69.9200
198.3000,69.9200
Z" /> 
<path style="fill:#000000; fill-opacity:1.0000; stroke:none;fill-rule:evenodd;"
d="M 197.0300,71.6200
196.3800,71.6200
196.3800,69.9200
197.0300,69.9200
Z" /> 
<path style="fill:#000000; fill-opacity:1.0000; stroke:none;fill-rule:evenodd;"
d="M 195.7600,71.6200
195.1100,71.6200
195.1100,69.9200
195.7600,69.9200
Z" /> 
</g>
<g style="fill:#000000; fill-opacity:1.0000; stroke:none;">
<circle cx="178.4300" cy="69.7300" r="0.8500" /> 
<circle cx="178.4300" cy="67.1900" r="0.8500" /> 
<path style="fill:#000000; fill-opacity:1.0000; stroke:none;fill-rule:evenodd;"
d="M 177.5800,65.5000
177.5800,63.8000
179.2800,63.8000
179.2800,65.5000
Z" /> 
<path style="fill:#000000; fill-opacity:1.0000; stroke:none;fill-rule:evenodd;"
d="M 199.8800,58.1600
199.8990,58.0643
199.9532,57.9832
200.0343,57.9290
200.1300,57.9100
200.8300,57.9100
200.9257,57.9290
201.0068,57.9832
201.0610,58.0643
201.0800,58.1600
201.0800,59.0600
201.0610,59.1557
201.0068,59.2368
200.9257,59.2910
200.8300,59.3100
200.1300,59.3100
200.0343,59.2910
199.9532,59.2368
199.8990,59.1557
199.8800,59.0600
Z" /> 
<path style="fill:#000000; fill-opacity:1.0000; stroke:none;fill-rule:evenodd;"
d="M 197.8800,58.1600
197.8990,58.0643
197.9532,57.9832
198.0343,57.9290
198.1300,57.9100
198.8300,57.9100
198.9257,57.9290
199.0068,57.9832
199.0610,58.0643
199.0800,58.1600
199.0800,59.0600
199.0610,59.1557
199.0068,59.2368
198.9257,59.2910
198.8300,59.3100
198.1300,59.3100
198.0343,59.2910
197.9532,59.2368
197.8990,59.1557
197.8800,59.0600
Z" /> 
<path style="fill:#000000; fill-opacity:1.0000; stroke:none;fill-rule:evenodd;"
d="M 199.2200,80.3400
199.3157,80.3590
199.3968,80.4132
199.4510,80.4943
199.4700,80.5900
199.4700,81.3900
199.4510,81.4857
199.3968,81.5668
199.3157,81.6210
199.2200,81.6400
198.0200,81.6400
197.9243,81.6210
197.8432,81.5668
197.7890,81.4857
197.7700,81.3900
197.7700,80.5900
197.7890,80.4943
197.8432,80.4132
197.9243,80.3590
198.0200,80.3400
Z" /> 
<path style="fill:#000000; fill-opacity:1.0000; stroke:none;fill-rule:evenodd;"
d="M 199.2200,76.8400
199.3157,76.8590
199.3968,76.9132
199.4510,76.9943
199.4700,77.0900
199.4700,77.8900
199.4510,77.9857
199.3968,78.0668
199.3157,78.1210
199.2200,78.1400
198.0200,78.1400
197.9243,78.1210
197.8432,78.0668
197.7890,77.9857
197.7700,77.8900
197.7700,77.0900
197.7890,76.9943
197.8432,76.9132
197.9243,76.8590
198.0200,76.8400
Z" /> 
<circle cx="195.3900" cy="82.0075" r="0.7250" /> 
<path style="fill:#000000; fill-opacity:1.0000; stroke:none;fill-rule:evenodd;"
d="M 194.1900,82.9575
194.1900,81.0575
195.3900,81.0575
195.3900,82.9575
Z" /> 
</g>
<g style="fill:#000000; fill-opacity:1.0000; stroke:none;">
<circle cx="194.3900" cy="79.3075" r="0.7250" /> 
<path style="fill:#000000; fill-opacity:1.0000; stroke:none;fill-rule:evenodd;"
d="M 192.9900,79.9825
192.9900,78.6325
193.3900,78.6325
193.3900,79.9825
Z" /> 
<path style="fill:#000000; fill-opacity:1.0000; stroke:none;fill-rule:evenodd;"
d="M 192.1400,82.9575
192.1400,81.0575
193.6400,81.0575
193.6400,82.9575
Z" /> 
<path style="fill:#000000; fill-opacity:1.0000; stroke:none;fill-rule:evenodd;"
d="M 190.1400,82.9575
190.1400,81.0575
191.6400,81.0575
191.6400,82.9575
Z" /> 
</g>
<g style="fill:#000000; fill-opacity:1.0000; stroke:none;">
<circle cx="189.3900" cy="79.3075" r="0.7250" /> 
<path style="fill:#000000; fill-opacity:1.0000; stroke:none;fill-rule:evenodd;"
d="M 188.3900,82.9575
188.3900,81.0575
189.5900,81.0575
189.5900,82.9575
Z" /> 
</g>
<g style="fill:#000000; fill-opacity:1.0000; stroke:none;">
<circle cx="188.3900" cy="82.0075" r="0.7250" /> 
<path style="fill:#000000; fill-opacity:1.0000; stroke:none;fill-rule:evenodd;"
d="M 192.3400,79.9825
192.3400,78.6325
192.7400,78.6325
192.7400,79.9825
Z" /> 
<path style="fill:#000000; fill-opacity:1.0000; stroke:none;fill-rule:evenodd;"
d="M 191.6900,79.9825
191.6900,78.6325
192.0900,78.6325
192.0900,79.9825
Z" /> 
<path style="fill:#000000; fill-opacity:1.0000; stroke:none;fill-rule:evenodd;"
d="M 191.0400,79.9825
191.0400,78.6325
191.4400,78.6325
191.4400,79.9825
Z" /> 
<path style="fill:#000000; fill-opacity:1.0000; stroke:none;fill-rule:evenodd;"
d="M 190.3900,79.9825
190.3900,78.6325
190.7900,78.6325
190.7900,79.9825
Z" /> 
<path style="fill:#000000; fill-opacity:1.0000; stroke:none;fill-rule:evenodd;"
d="M 190.9900,74.4900
190.8943,74.4710
190.8132,74.4168
190.7590,74.3357
190.7400,74.2400
190.7400,73.5400
190.7590,73.4443
190.8132,73.3632
190.8943,73.3090
190.9900,73.2900
191.8900,73.2900
191.9857,73.3090
192.0668,73.3632
192.1210,73.4443
192.1400,73.5400
192.1400,74.2400
192.1210,74.3357
192.0668,74.4168
191.9857,74.4710
191.8900,74.4900
Z" /> 
<path style="fill:#000000; fill-opacity:1.0000; stroke:none;fill-rule:evenodd;"
d="M 190.9900,76.4900
190.8943,76.4710
190.8132,76.4168
190.7590,76.3357
190.7400,76.2400
190.7400,75.5400
190.7590,75.4443
190.8132,75.3632
190.8943,75.3090
190.9900,75.2900
191.8900,75.2900
191.9857,75.3090
192.0668,75.3632
192.1210,75.4443
192.1400,75.5400
192.1400,76.2400
192.1210,76.3357
192.0668,76.4168
191.9857,76.4710
191.8900,76.4900
Z" /> 
<path style="fill:#000000; fill-opacity:1.0000; stroke:none;fill-rule:evenodd;"
d="M 196.7950,55.6600
196.7760,55.7557
196.7218,55.8368
196.6407,55.8910
196.5450,55.9100
195.8950,55.9100
195.7993,55.8910
195.7182,55.8368
195.6640,55.7557
195.6450,55.6600
195.6450,54.7600
195.6640,54.6643
195.7182,54.5832
195.7993,54.5290
195.8950,54.5100
196.5450,54.5100
196.6407,54.5290
196.7218,54.5832
196.7760,54.6643
196.7950,54.7600
Z" /> 
<path style="fill:#000000; fill-opacity:1.0000; stroke:none;fill-rule:evenodd;"
d="M 194.7450,55.6600
194.7260,55.7557
194.6718,55.8368
194.5907,55.8910
194.4950,55.9100
193.8450,55.9100
193.7493,55.8910
193.6682,55.8368
193.6140,55.7557
193.5950,55.6600
193.5950,54.7600
193.6140,54.6643
193.6682,54.5832
193.7493,54.5290
193.8450,54.5100
194.4950,54.5100
194.5907,54.5290
194.6718,54.5832
194.7260,54.6643
194.7450,54.7600
Z" /> 
<path style="fill:#000000; fill-opacity:1.0000; stroke:none;fill-rule:evenodd;"
d="M 189.2850,63.8550
189.1893,63.8360
189.1082,63.7818
189.0540,63.7007
189.0350,63.6050
189.0350,61.9050
189.0540,61.8093
189.1082,61.7282
189.1893,61.6740
189.2850,61.6550
189.9850,61.6550
190.0807,61.6740
190.1618,61.7282
190.2160,61.8093
190.2350,61.9050
190.2350,63.6050
190.2160,63.7007
190.1618,63.7818
190.0807,63.8360
189.9850,63.8550
Z" /> 
<path style="fill:#000000; fill-opacity:1.0000; stroke:none;fill-rule:evenodd;"
d="M 184.7050,59.6550
184.6093,59.6360
184.5282,59.5818
184.4740,59.5007
184.4550,59.4050
184.4550,53.5050
184.4740,53.4093
184.5282,53.3282
184.6093,53.2740
184.7050,53.2550
190.0050,53.2550
190.1007,53.2740
190.1818,53.3282
190.2360,53.4093
190.2550,53.5050
190.2550,59.4050
190.2360,59.5007
190.1818,59.5818
190.1007,59.6360
190.0050,59.6550
Z" /> 
<path style="fill:#000000; fill-opacity:1.0000; stroke:none;fill-rule:evenodd;"
d="M 184.7250,63.8550
184.6293,63.8360
184.5482,63.7818
184.4940,63.7007
184.4750,63.6050
184.4750,61.9050
184.4940,61.8093
184.5482,61.7282
184.6293,61.6740
184.7250,61.6550
185.4250,61.6550
185.5207,61.6740
185.6018,61.7282
185.6560,61.8093
185.6750,61.9050
185.6750,63.6050
185.6560,63.7007
185.6018,63.7818
185.5207,63.8360
185.4250,63.8550
Z" /> 
</g>
<g style="fill:#000000; fill-opacity:1.0000; stroke:none;">
<circle cx="204.1700" cy="74.9900" r="0.8500" /> 
<circle cx="204.1700" cy="72.4500" r="0.8500" /> 
<circle cx="204.1700" cy="69.9100" r="0.8500" /> 
<circle cx="204.1700" cy="67.3700" r="0.8500" /> 
<circle cx="204.1700" cy="64.8300" r="0.8500" /> 
<circle cx="204.1700" cy="62.2900" r="0.8500" /> 
<path style="fill:#000000; fill-opacity:1.0000; stroke:none;fill-rule:evenodd;"
d="M 203.3200,60.6000
203.3200,58.9000
205.0200,58.9000
205.0200,60.6000
Z" /> 
<path style="fill:#000000; fill-opacity:1.0000; stroke:none;fill-rule:evenodd;"
d="M 187.9750,73.1600
187.8889,73.1429
187.8159,73.0941
187.7671,73.0211
187.7500,72.9350
187.7500,72.4850
187.7671,72.3989
187.8159,72.3259
187.8889,72.2771
187.9750,72.2600
188.7250,72.2600
188.8111,72.2771
188.8841,72.3259
188.9329,72.3989
188.9500,72.4850
188.9500,72.9350
188.9329,73.0211
188.8841,73.0941
188.8111,73.1429
188.7250,73.1600
Z" /> 
<path style="fill:#000000; fill-opacity:1.0000; stroke:none;fill-rule:evenodd;"
d="M 187.9750,76.4600
187.8889,76.4429
187.8159,76.3941
187.7671,76.3211
187.7500,76.2350
187.7500,75.7850
187.7671,75.6989
187.8159,75.6259
187.8889,75.5771
187.9750,75.5600
188.7250,75.5600
188.8111,75.5771
188.8841,75.6259
188.9329,75.6989
188.9500,75.7850
188.9500,76.2350
188.9329,76.3211
188.8841,76.3941
188.8111,76.4429
188.7250,76.4600
Z" /> 
</g>
<g style="fill:none; 
stroke:#000000; stroke-width:0.1000; stroke-opacity:1; 
stroke-linecap:round; stroke-linejoin:round;">
<circle cx="191.9400" cy="67.6000" r="17.5000" /> 
</g> 
</svg>
