%TF.GenerationSoftware,KiCad,Pcbnew,8.0.6*%
%TF.CreationDate,2024-12-07T20:30:00+01:00*%
%TF.ProjectId,circular PCB,63697263-756c-4617-9220-5043422e6b69,rev?*%
%TF.SameCoordinates,Original*%
%TF.FileFunction,Legend,Top*%
%TF.FilePolarity,Positive*%
%FSLAX46Y46*%
G04 Gerber Fmt 4.6, Leading zero omitted, Abs format (unit mm)*
G04 Created by KiCad (PCBNEW 8.0.6) date 2024-12-07 20:30:00*
%MOMM*%
%LPD*%
G01*
G04 APERTURE LIST*
%ADD10C,0.200000*%
%ADD11C,0.080000*%
%ADD12C,0.100000*%
%ADD13C,0.150000*%
%ADD14C,0.120000*%
%ADD15C,0.010000*%
G04 APERTURE END LIST*
D10*
X205063720Y-57888171D02*
X205135149Y-57959600D01*
X205135149Y-57959600D02*
X205063720Y-58031028D01*
X205063720Y-58031028D02*
X204992292Y-57959600D01*
X204992292Y-57959600D02*
X205063720Y-57888171D01*
X205063720Y-57888171D02*
X205063720Y-58031028D01*
D11*
X182597869Y-81184840D02*
X182669297Y-81222935D01*
X182669297Y-81222935D02*
X182788345Y-81222935D01*
X182788345Y-81222935D02*
X182835964Y-81184840D01*
X182835964Y-81184840D02*
X182859773Y-81146744D01*
X182859773Y-81146744D02*
X182883583Y-81070554D01*
X182883583Y-81070554D02*
X182883583Y-80994363D01*
X182883583Y-80994363D02*
X182859773Y-80918173D01*
X182859773Y-80918173D02*
X182835964Y-80880078D01*
X182835964Y-80880078D02*
X182788345Y-80841982D01*
X182788345Y-80841982D02*
X182693107Y-80803887D01*
X182693107Y-80803887D02*
X182645488Y-80765792D01*
X182645488Y-80765792D02*
X182621678Y-80727697D01*
X182621678Y-80727697D02*
X182597869Y-80651506D01*
X182597869Y-80651506D02*
X182597869Y-80575316D01*
X182597869Y-80575316D02*
X182621678Y-80499125D01*
X182621678Y-80499125D02*
X182645488Y-80461030D01*
X182645488Y-80461030D02*
X182693107Y-80422935D01*
X182693107Y-80422935D02*
X182812154Y-80422935D01*
X182812154Y-80422935D02*
X182883583Y-80461030D01*
X183312154Y-81184840D02*
X183264535Y-81222935D01*
X183264535Y-81222935D02*
X183169297Y-81222935D01*
X183169297Y-81222935D02*
X183121678Y-81184840D01*
X183121678Y-81184840D02*
X183097868Y-81146744D01*
X183097868Y-81146744D02*
X183074059Y-81070554D01*
X183074059Y-81070554D02*
X183074059Y-80841982D01*
X183074059Y-80841982D02*
X183097868Y-80765792D01*
X183097868Y-80765792D02*
X183121678Y-80727697D01*
X183121678Y-80727697D02*
X183169297Y-80689601D01*
X183169297Y-80689601D02*
X183264535Y-80689601D01*
X183264535Y-80689601D02*
X183312154Y-80727697D01*
X183526439Y-81222935D02*
X183526439Y-80422935D01*
X183740725Y-81222935D02*
X183740725Y-80803887D01*
X183740725Y-80803887D02*
X183716915Y-80727697D01*
X183716915Y-80727697D02*
X183669296Y-80689601D01*
X183669296Y-80689601D02*
X183597868Y-80689601D01*
X183597868Y-80689601D02*
X183550249Y-80727697D01*
X183550249Y-80727697D02*
X183526439Y-80765792D01*
X183978820Y-81222935D02*
X183978820Y-80689601D01*
X183978820Y-80841982D02*
X184002630Y-80765792D01*
X184002630Y-80765792D02*
X184026439Y-80727697D01*
X184026439Y-80727697D02*
X184074058Y-80689601D01*
X184074058Y-80689601D02*
X184121677Y-80689601D01*
X184359773Y-81222935D02*
X184312154Y-81184840D01*
X184312154Y-81184840D02*
X184288344Y-81146744D01*
X184288344Y-81146744D02*
X184264535Y-81070554D01*
X184264535Y-81070554D02*
X184264535Y-80841982D01*
X184264535Y-80841982D02*
X184288344Y-80765792D01*
X184288344Y-80765792D02*
X184312154Y-80727697D01*
X184312154Y-80727697D02*
X184359773Y-80689601D01*
X184359773Y-80689601D02*
X184431201Y-80689601D01*
X184431201Y-80689601D02*
X184478820Y-80727697D01*
X184478820Y-80727697D02*
X184502630Y-80765792D01*
X184502630Y-80765792D02*
X184526439Y-80841982D01*
X184526439Y-80841982D02*
X184526439Y-81070554D01*
X184526439Y-81070554D02*
X184502630Y-81146744D01*
X184502630Y-81146744D02*
X184478820Y-81184840D01*
X184478820Y-81184840D02*
X184431201Y-81222935D01*
X184431201Y-81222935D02*
X184359773Y-81222935D01*
X184955011Y-81222935D02*
X184955011Y-80422935D01*
X184955011Y-81184840D02*
X184907392Y-81222935D01*
X184907392Y-81222935D02*
X184812154Y-81222935D01*
X184812154Y-81222935D02*
X184764535Y-81184840D01*
X184764535Y-81184840D02*
X184740725Y-81146744D01*
X184740725Y-81146744D02*
X184716916Y-81070554D01*
X184716916Y-81070554D02*
X184716916Y-80841982D01*
X184716916Y-80841982D02*
X184740725Y-80765792D01*
X184740725Y-80765792D02*
X184764535Y-80727697D01*
X184764535Y-80727697D02*
X184812154Y-80689601D01*
X184812154Y-80689601D02*
X184907392Y-80689601D01*
X184907392Y-80689601D02*
X184955011Y-80727697D01*
X185193106Y-81222935D02*
X185193106Y-80689601D01*
X185193106Y-80422935D02*
X185169297Y-80461030D01*
X185169297Y-80461030D02*
X185193106Y-80499125D01*
X185193106Y-80499125D02*
X185216916Y-80461030D01*
X185216916Y-80461030D02*
X185193106Y-80422935D01*
X185193106Y-80422935D02*
X185193106Y-80499125D01*
X185431201Y-80689601D02*
X185431201Y-81222935D01*
X185431201Y-80765792D02*
X185455011Y-80727697D01*
X185455011Y-80727697D02*
X185502630Y-80689601D01*
X185502630Y-80689601D02*
X185574058Y-80689601D01*
X185574058Y-80689601D02*
X185621677Y-80727697D01*
X185621677Y-80727697D02*
X185645487Y-80803887D01*
X185645487Y-80803887D02*
X185645487Y-81222935D01*
X186097868Y-80689601D02*
X186097868Y-81337220D01*
X186097868Y-81337220D02*
X186074058Y-81413411D01*
X186074058Y-81413411D02*
X186050249Y-81451506D01*
X186050249Y-81451506D02*
X186002630Y-81489601D01*
X186002630Y-81489601D02*
X185931201Y-81489601D01*
X185931201Y-81489601D02*
X185883582Y-81451506D01*
X186097868Y-81184840D02*
X186050249Y-81222935D01*
X186050249Y-81222935D02*
X185955011Y-81222935D01*
X185955011Y-81222935D02*
X185907392Y-81184840D01*
X185907392Y-81184840D02*
X185883582Y-81146744D01*
X185883582Y-81146744D02*
X185859773Y-81070554D01*
X185859773Y-81070554D02*
X185859773Y-80841982D01*
X185859773Y-80841982D02*
X185883582Y-80765792D01*
X185883582Y-80765792D02*
X185907392Y-80727697D01*
X185907392Y-80727697D02*
X185955011Y-80689601D01*
X185955011Y-80689601D02*
X186050249Y-80689601D01*
X186050249Y-80689601D02*
X186097868Y-80727697D01*
X186526439Y-81184840D02*
X186478820Y-81222935D01*
X186478820Y-81222935D02*
X186383582Y-81222935D01*
X186383582Y-81222935D02*
X186335963Y-81184840D01*
X186335963Y-81184840D02*
X186312154Y-81108649D01*
X186312154Y-81108649D02*
X186312154Y-80803887D01*
X186312154Y-80803887D02*
X186335963Y-80727697D01*
X186335963Y-80727697D02*
X186383582Y-80689601D01*
X186383582Y-80689601D02*
X186478820Y-80689601D01*
X186478820Y-80689601D02*
X186526439Y-80727697D01*
X186526439Y-80727697D02*
X186550249Y-80803887D01*
X186550249Y-80803887D02*
X186550249Y-80880078D01*
X186550249Y-80880078D02*
X186312154Y-80956268D01*
X186764534Y-81222935D02*
X186764534Y-80689601D01*
X186764534Y-80841982D02*
X186788344Y-80765792D01*
X186788344Y-80765792D02*
X186812153Y-80727697D01*
X186812153Y-80727697D02*
X186859772Y-80689601D01*
X186859772Y-80689601D02*
X186907391Y-80689601D01*
D10*
X194363720Y-71488171D02*
X194435149Y-71559600D01*
X194435149Y-71559600D02*
X194363720Y-71631028D01*
X194363720Y-71631028D02*
X194292292Y-71559600D01*
X194292292Y-71559600D02*
X194363720Y-71488171D01*
X194363720Y-71488171D02*
X194363720Y-71631028D01*
D11*
X184308583Y-81511030D02*
X184260964Y-81472935D01*
X184260964Y-81472935D02*
X184189535Y-81472935D01*
X184189535Y-81472935D02*
X184118107Y-81511030D01*
X184118107Y-81511030D02*
X184070488Y-81587220D01*
X184070488Y-81587220D02*
X184046678Y-81663411D01*
X184046678Y-81663411D02*
X184022869Y-81815792D01*
X184022869Y-81815792D02*
X184022869Y-81930078D01*
X184022869Y-81930078D02*
X184046678Y-82082459D01*
X184046678Y-82082459D02*
X184070488Y-82158649D01*
X184070488Y-82158649D02*
X184118107Y-82234840D01*
X184118107Y-82234840D02*
X184189535Y-82272935D01*
X184189535Y-82272935D02*
X184237154Y-82272935D01*
X184237154Y-82272935D02*
X184308583Y-82234840D01*
X184308583Y-82234840D02*
X184332392Y-82196744D01*
X184332392Y-82196744D02*
X184332392Y-81930078D01*
X184332392Y-81930078D02*
X184237154Y-81930078D01*
X184760964Y-81739601D02*
X184760964Y-82272935D01*
X184546678Y-81739601D02*
X184546678Y-82158649D01*
X184546678Y-82158649D02*
X184570488Y-82234840D01*
X184570488Y-82234840D02*
X184618107Y-82272935D01*
X184618107Y-82272935D02*
X184689535Y-82272935D01*
X184689535Y-82272935D02*
X184737154Y-82234840D01*
X184737154Y-82234840D02*
X184760964Y-82196744D01*
X184999059Y-82272935D02*
X184999059Y-81739601D01*
X184999059Y-81891982D02*
X185022869Y-81815792D01*
X185022869Y-81815792D02*
X185046678Y-81777697D01*
X185046678Y-81777697D02*
X185094297Y-81739601D01*
X185094297Y-81739601D02*
X185141916Y-81739601D01*
X185522869Y-81739601D02*
X185522869Y-82272935D01*
X185308583Y-81739601D02*
X185308583Y-82158649D01*
X185308583Y-82158649D02*
X185332393Y-82234840D01*
X185332393Y-82234840D02*
X185380012Y-82272935D01*
X185380012Y-82272935D02*
X185451440Y-82272935D01*
X185451440Y-82272935D02*
X185499059Y-82234840D01*
X185499059Y-82234840D02*
X185522869Y-82196744D01*
D12*
X175770238Y-72489895D02*
X175770238Y-71689895D01*
X175770238Y-71689895D02*
X175936905Y-72261323D01*
X175936905Y-72261323D02*
X176103571Y-71689895D01*
X176103571Y-71689895D02*
X176103571Y-72489895D01*
X176317858Y-71766085D02*
X176341667Y-71727990D01*
X176341667Y-71727990D02*
X176389286Y-71689895D01*
X176389286Y-71689895D02*
X176508334Y-71689895D01*
X176508334Y-71689895D02*
X176555953Y-71727990D01*
X176555953Y-71727990D02*
X176579762Y-71766085D01*
X176579762Y-71766085D02*
X176603572Y-71842276D01*
X176603572Y-71842276D02*
X176603572Y-71918466D01*
X176603572Y-71918466D02*
X176579762Y-72032752D01*
X176579762Y-72032752D02*
X176294048Y-72489895D01*
X176294048Y-72489895D02*
X176603572Y-72489895D01*
D13*
X186858333Y-64884580D02*
X186810714Y-64932200D01*
X186810714Y-64932200D02*
X186667857Y-64979819D01*
X186667857Y-64979819D02*
X186572619Y-64979819D01*
X186572619Y-64979819D02*
X186429762Y-64932200D01*
X186429762Y-64932200D02*
X186334524Y-64836961D01*
X186334524Y-64836961D02*
X186286905Y-64741723D01*
X186286905Y-64741723D02*
X186239286Y-64551247D01*
X186239286Y-64551247D02*
X186239286Y-64408390D01*
X186239286Y-64408390D02*
X186286905Y-64217914D01*
X186286905Y-64217914D02*
X186334524Y-64122676D01*
X186334524Y-64122676D02*
X186429762Y-64027438D01*
X186429762Y-64027438D02*
X186572619Y-63979819D01*
X186572619Y-63979819D02*
X186667857Y-63979819D01*
X186667857Y-63979819D02*
X186810714Y-64027438D01*
X186810714Y-64027438D02*
X186858333Y-64075057D01*
X187810714Y-64979819D02*
X187239286Y-64979819D01*
X187525000Y-64979819D02*
X187525000Y-63979819D01*
X187525000Y-63979819D02*
X187429762Y-64122676D01*
X187429762Y-64122676D02*
X187334524Y-64217914D01*
X187334524Y-64217914D02*
X187239286Y-64265533D01*
X192903333Y-67134819D02*
X192570000Y-66658628D01*
X192331905Y-67134819D02*
X192331905Y-66134819D01*
X192331905Y-66134819D02*
X192712857Y-66134819D01*
X192712857Y-66134819D02*
X192808095Y-66182438D01*
X192808095Y-66182438D02*
X192855714Y-66230057D01*
X192855714Y-66230057D02*
X192903333Y-66325295D01*
X192903333Y-66325295D02*
X192903333Y-66468152D01*
X192903333Y-66468152D02*
X192855714Y-66563390D01*
X192855714Y-66563390D02*
X192808095Y-66611009D01*
X192808095Y-66611009D02*
X192712857Y-66658628D01*
X192712857Y-66658628D02*
X192331905Y-66658628D01*
X193284286Y-66230057D02*
X193331905Y-66182438D01*
X193331905Y-66182438D02*
X193427143Y-66134819D01*
X193427143Y-66134819D02*
X193665238Y-66134819D01*
X193665238Y-66134819D02*
X193760476Y-66182438D01*
X193760476Y-66182438D02*
X193808095Y-66230057D01*
X193808095Y-66230057D02*
X193855714Y-66325295D01*
X193855714Y-66325295D02*
X193855714Y-66420533D01*
X193855714Y-66420533D02*
X193808095Y-66563390D01*
X193808095Y-66563390D02*
X193236667Y-67134819D01*
X193236667Y-67134819D02*
X193855714Y-67134819D01*
X182933333Y-64834580D02*
X182885714Y-64882200D01*
X182885714Y-64882200D02*
X182742857Y-64929819D01*
X182742857Y-64929819D02*
X182647619Y-64929819D01*
X182647619Y-64929819D02*
X182504762Y-64882200D01*
X182504762Y-64882200D02*
X182409524Y-64786961D01*
X182409524Y-64786961D02*
X182361905Y-64691723D01*
X182361905Y-64691723D02*
X182314286Y-64501247D01*
X182314286Y-64501247D02*
X182314286Y-64358390D01*
X182314286Y-64358390D02*
X182361905Y-64167914D01*
X182361905Y-64167914D02*
X182409524Y-64072676D01*
X182409524Y-64072676D02*
X182504762Y-63977438D01*
X182504762Y-63977438D02*
X182647619Y-63929819D01*
X182647619Y-63929819D02*
X182742857Y-63929819D01*
X182742857Y-63929819D02*
X182885714Y-63977438D01*
X182885714Y-63977438D02*
X182933333Y-64025057D01*
X183314286Y-64025057D02*
X183361905Y-63977438D01*
X183361905Y-63977438D02*
X183457143Y-63929819D01*
X183457143Y-63929819D02*
X183695238Y-63929819D01*
X183695238Y-63929819D02*
X183790476Y-63977438D01*
X183790476Y-63977438D02*
X183838095Y-64025057D01*
X183838095Y-64025057D02*
X183885714Y-64120295D01*
X183885714Y-64120295D02*
X183885714Y-64215533D01*
X183885714Y-64215533D02*
X183838095Y-64358390D01*
X183838095Y-64358390D02*
X183266667Y-64929819D01*
X183266667Y-64929819D02*
X183885714Y-64929819D01*
X196483333Y-75314819D02*
X196150000Y-74838628D01*
X195911905Y-75314819D02*
X195911905Y-74314819D01*
X195911905Y-74314819D02*
X196292857Y-74314819D01*
X196292857Y-74314819D02*
X196388095Y-74362438D01*
X196388095Y-74362438D02*
X196435714Y-74410057D01*
X196435714Y-74410057D02*
X196483333Y-74505295D01*
X196483333Y-74505295D02*
X196483333Y-74648152D01*
X196483333Y-74648152D02*
X196435714Y-74743390D01*
X196435714Y-74743390D02*
X196388095Y-74791009D01*
X196388095Y-74791009D02*
X196292857Y-74838628D01*
X196292857Y-74838628D02*
X195911905Y-74838628D01*
X197340476Y-74648152D02*
X197340476Y-75314819D01*
X197102381Y-74267200D02*
X196864286Y-74981485D01*
X196864286Y-74981485D02*
X197483333Y-74981485D01*
X199193333Y-53994819D02*
X198860000Y-53518628D01*
X198621905Y-53994819D02*
X198621905Y-52994819D01*
X198621905Y-52994819D02*
X199002857Y-52994819D01*
X199002857Y-52994819D02*
X199098095Y-53042438D01*
X199098095Y-53042438D02*
X199145714Y-53090057D01*
X199145714Y-53090057D02*
X199193333Y-53185295D01*
X199193333Y-53185295D02*
X199193333Y-53328152D01*
X199193333Y-53328152D02*
X199145714Y-53423390D01*
X199145714Y-53423390D02*
X199098095Y-53471009D01*
X199098095Y-53471009D02*
X199002857Y-53518628D01*
X199002857Y-53518628D02*
X198621905Y-53518628D01*
X199526667Y-52994819D02*
X200145714Y-52994819D01*
X200145714Y-52994819D02*
X199812381Y-53375771D01*
X199812381Y-53375771D02*
X199955238Y-53375771D01*
X199955238Y-53375771D02*
X200050476Y-53423390D01*
X200050476Y-53423390D02*
X200098095Y-53471009D01*
X200098095Y-53471009D02*
X200145714Y-53566247D01*
X200145714Y-53566247D02*
X200145714Y-53804342D01*
X200145714Y-53804342D02*
X200098095Y-53899580D01*
X200098095Y-53899580D02*
X200050476Y-53947200D01*
X200050476Y-53947200D02*
X199955238Y-53994819D01*
X199955238Y-53994819D02*
X199669524Y-53994819D01*
X199669524Y-53994819D02*
X199574286Y-53947200D01*
X199574286Y-53947200D02*
X199526667Y-53899580D01*
X183636905Y-70504819D02*
X183636905Y-69504819D01*
X183636905Y-69504819D02*
X183875000Y-69504819D01*
X183875000Y-69504819D02*
X184017857Y-69552438D01*
X184017857Y-69552438D02*
X184113095Y-69647676D01*
X184113095Y-69647676D02*
X184160714Y-69742914D01*
X184160714Y-69742914D02*
X184208333Y-69933390D01*
X184208333Y-69933390D02*
X184208333Y-70076247D01*
X184208333Y-70076247D02*
X184160714Y-70266723D01*
X184160714Y-70266723D02*
X184113095Y-70361961D01*
X184113095Y-70361961D02*
X184017857Y-70457200D01*
X184017857Y-70457200D02*
X183875000Y-70504819D01*
X183875000Y-70504819D02*
X183636905Y-70504819D01*
X184589286Y-69600057D02*
X184636905Y-69552438D01*
X184636905Y-69552438D02*
X184732143Y-69504819D01*
X184732143Y-69504819D02*
X184970238Y-69504819D01*
X184970238Y-69504819D02*
X185065476Y-69552438D01*
X185065476Y-69552438D02*
X185113095Y-69600057D01*
X185113095Y-69600057D02*
X185160714Y-69695295D01*
X185160714Y-69695295D02*
X185160714Y-69790533D01*
X185160714Y-69790533D02*
X185113095Y-69933390D01*
X185113095Y-69933390D02*
X184541667Y-70504819D01*
X184541667Y-70504819D02*
X185160714Y-70504819D01*
X195323333Y-60934819D02*
X194847143Y-60934819D01*
X194847143Y-60934819D02*
X194847143Y-59934819D01*
X196180476Y-60934819D02*
X195609048Y-60934819D01*
X195894762Y-60934819D02*
X195894762Y-59934819D01*
X195894762Y-59934819D02*
X195799524Y-60077676D01*
X195799524Y-60077676D02*
X195704286Y-60172914D01*
X195704286Y-60172914D02*
X195609048Y-60220533D01*
X200578095Y-66754819D02*
X200578095Y-67564342D01*
X200578095Y-67564342D02*
X200625714Y-67659580D01*
X200625714Y-67659580D02*
X200673333Y-67707200D01*
X200673333Y-67707200D02*
X200768571Y-67754819D01*
X200768571Y-67754819D02*
X200959047Y-67754819D01*
X200959047Y-67754819D02*
X201054285Y-67707200D01*
X201054285Y-67707200D02*
X201101904Y-67659580D01*
X201101904Y-67659580D02*
X201149523Y-67564342D01*
X201149523Y-67564342D02*
X201149523Y-66754819D01*
X202149523Y-67754819D02*
X201578095Y-67754819D01*
X201863809Y-67754819D02*
X201863809Y-66754819D01*
X201863809Y-66754819D02*
X201768571Y-66897676D01*
X201768571Y-66897676D02*
X201673333Y-66992914D01*
X201673333Y-66992914D02*
X201578095Y-67040533D01*
X178096666Y-61774819D02*
X178096666Y-62489104D01*
X178096666Y-62489104D02*
X178049047Y-62631961D01*
X178049047Y-62631961D02*
X177953809Y-62727200D01*
X177953809Y-62727200D02*
X177810952Y-62774819D01*
X177810952Y-62774819D02*
X177715714Y-62774819D01*
X178525238Y-61870057D02*
X178572857Y-61822438D01*
X178572857Y-61822438D02*
X178668095Y-61774819D01*
X178668095Y-61774819D02*
X178906190Y-61774819D01*
X178906190Y-61774819D02*
X179001428Y-61822438D01*
X179001428Y-61822438D02*
X179049047Y-61870057D01*
X179049047Y-61870057D02*
X179096666Y-61965295D01*
X179096666Y-61965295D02*
X179096666Y-62060533D01*
X179096666Y-62060533D02*
X179049047Y-62203390D01*
X179049047Y-62203390D02*
X178477619Y-62774819D01*
X178477619Y-62774819D02*
X179096666Y-62774819D01*
X199433333Y-60824819D02*
X199100000Y-60348628D01*
X198861905Y-60824819D02*
X198861905Y-59824819D01*
X198861905Y-59824819D02*
X199242857Y-59824819D01*
X199242857Y-59824819D02*
X199338095Y-59872438D01*
X199338095Y-59872438D02*
X199385714Y-59920057D01*
X199385714Y-59920057D02*
X199433333Y-60015295D01*
X199433333Y-60015295D02*
X199433333Y-60158152D01*
X199433333Y-60158152D02*
X199385714Y-60253390D01*
X199385714Y-60253390D02*
X199338095Y-60301009D01*
X199338095Y-60301009D02*
X199242857Y-60348628D01*
X199242857Y-60348628D02*
X198861905Y-60348628D01*
X200385714Y-60824819D02*
X199814286Y-60824819D01*
X200100000Y-60824819D02*
X200100000Y-59824819D01*
X200100000Y-59824819D02*
X200004762Y-59967676D01*
X200004762Y-59967676D02*
X199909524Y-60062914D01*
X199909524Y-60062914D02*
X199814286Y-60110533D01*
X200131905Y-79634819D02*
X200131905Y-78634819D01*
X200131905Y-78634819D02*
X200370000Y-78634819D01*
X200370000Y-78634819D02*
X200512857Y-78682438D01*
X200512857Y-78682438D02*
X200608095Y-78777676D01*
X200608095Y-78777676D02*
X200655714Y-78872914D01*
X200655714Y-78872914D02*
X200703333Y-79063390D01*
X200703333Y-79063390D02*
X200703333Y-79206247D01*
X200703333Y-79206247D02*
X200655714Y-79396723D01*
X200655714Y-79396723D02*
X200608095Y-79491961D01*
X200608095Y-79491961D02*
X200512857Y-79587200D01*
X200512857Y-79587200D02*
X200370000Y-79634819D01*
X200370000Y-79634819D02*
X200131905Y-79634819D01*
X201608095Y-78634819D02*
X201131905Y-78634819D01*
X201131905Y-78634819D02*
X201084286Y-79111009D01*
X201084286Y-79111009D02*
X201131905Y-79063390D01*
X201131905Y-79063390D02*
X201227143Y-79015771D01*
X201227143Y-79015771D02*
X201465238Y-79015771D01*
X201465238Y-79015771D02*
X201560476Y-79063390D01*
X201560476Y-79063390D02*
X201608095Y-79111009D01*
X201608095Y-79111009D02*
X201655714Y-79206247D01*
X201655714Y-79206247D02*
X201655714Y-79444342D01*
X201655714Y-79444342D02*
X201608095Y-79539580D01*
X201608095Y-79539580D02*
X201560476Y-79587200D01*
X201560476Y-79587200D02*
X201465238Y-79634819D01*
X201465238Y-79634819D02*
X201227143Y-79634819D01*
X201227143Y-79634819D02*
X201131905Y-79587200D01*
X201131905Y-79587200D02*
X201084286Y-79539580D01*
X191506666Y-83374819D02*
X191506666Y-84089104D01*
X191506666Y-84089104D02*
X191459047Y-84231961D01*
X191459047Y-84231961D02*
X191363809Y-84327200D01*
X191363809Y-84327200D02*
X191220952Y-84374819D01*
X191220952Y-84374819D02*
X191125714Y-84374819D01*
X191887619Y-83374819D02*
X192506666Y-83374819D01*
X192506666Y-83374819D02*
X192173333Y-83755771D01*
X192173333Y-83755771D02*
X192316190Y-83755771D01*
X192316190Y-83755771D02*
X192411428Y-83803390D01*
X192411428Y-83803390D02*
X192459047Y-83851009D01*
X192459047Y-83851009D02*
X192506666Y-83946247D01*
X192506666Y-83946247D02*
X192506666Y-84184342D01*
X192506666Y-84184342D02*
X192459047Y-84279580D01*
X192459047Y-84279580D02*
X192411428Y-84327200D01*
X192411428Y-84327200D02*
X192316190Y-84374819D01*
X192316190Y-84374819D02*
X192030476Y-84374819D01*
X192030476Y-84374819D02*
X191935238Y-84327200D01*
X191935238Y-84327200D02*
X191887619Y-84279580D01*
X191283333Y-72784819D02*
X190950000Y-72308628D01*
X190711905Y-72784819D02*
X190711905Y-71784819D01*
X190711905Y-71784819D02*
X191092857Y-71784819D01*
X191092857Y-71784819D02*
X191188095Y-71832438D01*
X191188095Y-71832438D02*
X191235714Y-71880057D01*
X191235714Y-71880057D02*
X191283333Y-71975295D01*
X191283333Y-71975295D02*
X191283333Y-72118152D01*
X191283333Y-72118152D02*
X191235714Y-72213390D01*
X191235714Y-72213390D02*
X191188095Y-72261009D01*
X191188095Y-72261009D02*
X191092857Y-72308628D01*
X191092857Y-72308628D02*
X190711905Y-72308628D01*
X192188095Y-71784819D02*
X191711905Y-71784819D01*
X191711905Y-71784819D02*
X191664286Y-72261009D01*
X191664286Y-72261009D02*
X191711905Y-72213390D01*
X191711905Y-72213390D02*
X191807143Y-72165771D01*
X191807143Y-72165771D02*
X192045238Y-72165771D01*
X192045238Y-72165771D02*
X192140476Y-72213390D01*
X192140476Y-72213390D02*
X192188095Y-72261009D01*
X192188095Y-72261009D02*
X192235714Y-72356247D01*
X192235714Y-72356247D02*
X192235714Y-72594342D01*
X192235714Y-72594342D02*
X192188095Y-72689580D01*
X192188095Y-72689580D02*
X192140476Y-72737200D01*
X192140476Y-72737200D02*
X192045238Y-72784819D01*
X192045238Y-72784819D02*
X191807143Y-72784819D01*
X191807143Y-72784819D02*
X191711905Y-72737200D01*
X191711905Y-72737200D02*
X191664286Y-72689580D01*
X195043333Y-53974819D02*
X194567143Y-53974819D01*
X194567143Y-53974819D02*
X194567143Y-52974819D01*
X195329048Y-53070057D02*
X195376667Y-53022438D01*
X195376667Y-53022438D02*
X195471905Y-52974819D01*
X195471905Y-52974819D02*
X195710000Y-52974819D01*
X195710000Y-52974819D02*
X195805238Y-53022438D01*
X195805238Y-53022438D02*
X195852857Y-53070057D01*
X195852857Y-53070057D02*
X195900476Y-53165295D01*
X195900476Y-53165295D02*
X195900476Y-53260533D01*
X195900476Y-53260533D02*
X195852857Y-53403390D01*
X195852857Y-53403390D02*
X195281429Y-53974819D01*
X195281429Y-53974819D02*
X195900476Y-53974819D01*
X181968095Y-56474819D02*
X181968095Y-57284342D01*
X181968095Y-57284342D02*
X182015714Y-57379580D01*
X182015714Y-57379580D02*
X182063333Y-57427200D01*
X182063333Y-57427200D02*
X182158571Y-57474819D01*
X182158571Y-57474819D02*
X182349047Y-57474819D01*
X182349047Y-57474819D02*
X182444285Y-57427200D01*
X182444285Y-57427200D02*
X182491904Y-57379580D01*
X182491904Y-57379580D02*
X182539523Y-57284342D01*
X182539523Y-57284342D02*
X182539523Y-56474819D01*
X182968095Y-56570057D02*
X183015714Y-56522438D01*
X183015714Y-56522438D02*
X183110952Y-56474819D01*
X183110952Y-56474819D02*
X183349047Y-56474819D01*
X183349047Y-56474819D02*
X183444285Y-56522438D01*
X183444285Y-56522438D02*
X183491904Y-56570057D01*
X183491904Y-56570057D02*
X183539523Y-56665295D01*
X183539523Y-56665295D02*
X183539523Y-56760533D01*
X183539523Y-56760533D02*
X183491904Y-56903390D01*
X183491904Y-56903390D02*
X182920476Y-57474819D01*
X182920476Y-57474819D02*
X183539523Y-57474819D01*
X203546666Y-56624819D02*
X203546666Y-57339104D01*
X203546666Y-57339104D02*
X203499047Y-57481961D01*
X203499047Y-57481961D02*
X203403809Y-57577200D01*
X203403809Y-57577200D02*
X203260952Y-57624819D01*
X203260952Y-57624819D02*
X203165714Y-57624819D01*
X204546666Y-57624819D02*
X203975238Y-57624819D01*
X204260952Y-57624819D02*
X204260952Y-56624819D01*
X204260952Y-56624819D02*
X204165714Y-56767676D01*
X204165714Y-56767676D02*
X204070476Y-56862914D01*
X204070476Y-56862914D02*
X203975238Y-56910533D01*
X188186905Y-71979819D02*
X188186905Y-70979819D01*
X188186905Y-70979819D02*
X188425000Y-70979819D01*
X188425000Y-70979819D02*
X188567857Y-71027438D01*
X188567857Y-71027438D02*
X188663095Y-71122676D01*
X188663095Y-71122676D02*
X188710714Y-71217914D01*
X188710714Y-71217914D02*
X188758333Y-71408390D01*
X188758333Y-71408390D02*
X188758333Y-71551247D01*
X188758333Y-71551247D02*
X188710714Y-71741723D01*
X188710714Y-71741723D02*
X188663095Y-71836961D01*
X188663095Y-71836961D02*
X188567857Y-71932200D01*
X188567857Y-71932200D02*
X188425000Y-71979819D01*
X188425000Y-71979819D02*
X188186905Y-71979819D01*
X189091667Y-70979819D02*
X189710714Y-70979819D01*
X189710714Y-70979819D02*
X189377381Y-71360771D01*
X189377381Y-71360771D02*
X189520238Y-71360771D01*
X189520238Y-71360771D02*
X189615476Y-71408390D01*
X189615476Y-71408390D02*
X189663095Y-71456009D01*
X189663095Y-71456009D02*
X189710714Y-71551247D01*
X189710714Y-71551247D02*
X189710714Y-71789342D01*
X189710714Y-71789342D02*
X189663095Y-71884580D01*
X189663095Y-71884580D02*
X189615476Y-71932200D01*
X189615476Y-71932200D02*
X189520238Y-71979819D01*
X189520238Y-71979819D02*
X189234524Y-71979819D01*
X189234524Y-71979819D02*
X189139286Y-71932200D01*
X189139286Y-71932200D02*
X189091667Y-71884580D01*
D14*
%TO.C,C1*%
X186545000Y-66596248D02*
X186545000Y-67118752D01*
X185075000Y-66596248D02*
X185075000Y-67118752D01*
%TO.C,R2*%
X193895000Y-69677064D02*
X193895000Y-69222936D01*
X192425000Y-69677064D02*
X192425000Y-69222936D01*
%TO.C,C2*%
X183535000Y-66596248D02*
X183535000Y-67118752D01*
X182065000Y-66596248D02*
X182065000Y-67118752D01*
%TO.C,R4*%
X195515000Y-75067064D02*
X195515000Y-74612936D01*
X194045000Y-75067064D02*
X194045000Y-74612936D01*
%TO.C,R3*%
X199242936Y-55945000D02*
X199697064Y-55945000D01*
X199242936Y-54475000D02*
X199697064Y-54475000D01*
%TO.C,D2*%
X186827500Y-72920000D02*
X186827500Y-70700000D01*
X186827500Y-70700000D02*
X182417500Y-70700000D01*
X182417500Y-72920000D02*
X186827500Y-72920000D01*
%TO.C,L1*%
X194205000Y-59560000D02*
X197065000Y-59560000D01*
X197065000Y-57640000D02*
X194205000Y-57640000D01*
X197065000Y-59560000D02*
X197065000Y-57640000D01*
D13*
%TO.C,U1*%
X200095000Y-69870000D02*
X200095000Y-64370000D01*
X200095000Y-69870000D02*
X199795000Y-69870000D01*
X200095000Y-64370000D02*
X199795000Y-64370000D01*
X194790000Y-69870000D02*
X194790000Y-71620000D01*
X194585000Y-69870000D02*
X194790000Y-69870000D01*
X194585000Y-69870000D02*
X194585000Y-64370000D01*
X194585000Y-64370000D02*
X194885000Y-64370000D01*
D14*
%TO.C,J2*%
X179760000Y-65920000D02*
X179760000Y-71060000D01*
X177100000Y-71060000D02*
X179760000Y-71060000D01*
X177100000Y-65920000D02*
X179760000Y-65920000D01*
X177100000Y-65920000D02*
X177100000Y-71060000D01*
X177100000Y-64650000D02*
X177100000Y-63320000D01*
X177100000Y-63320000D02*
X178430000Y-63320000D01*
%TO.C,R1*%
X199252936Y-59345000D02*
X199707064Y-59345000D01*
X199252936Y-57875000D02*
X199707064Y-57875000D01*
%TO.C,D5*%
X199730000Y-80990000D02*
X199730000Y-76580000D01*
X199730000Y-76580000D02*
X197510000Y-76580000D01*
X197510000Y-76580000D02*
X197510000Y-80990000D01*
%TO.C,J3*%
X195790000Y-83407500D02*
X195790000Y-83157500D01*
X195790000Y-80857500D02*
X195790000Y-79007500D01*
X195790000Y-79007500D02*
X195340000Y-79007500D01*
X190190000Y-78457500D02*
X190640000Y-78457500D01*
X190190000Y-78457500D02*
X190190000Y-78907500D01*
X187990000Y-83407500D02*
X187990000Y-83157500D01*
X187990000Y-80857500D02*
X187990000Y-79007500D01*
X187990000Y-79007500D02*
X188440000Y-79007500D01*
%TO.C,R5*%
X192175000Y-75117064D02*
X192175000Y-74662936D01*
X190705000Y-75117064D02*
X190705000Y-74662936D01*
%TO.C,L2*%
X194195000Y-56170000D02*
X197055000Y-56170000D01*
X197055000Y-54250000D02*
X194195000Y-54250000D01*
X197055000Y-56170000D02*
X197055000Y-54250000D01*
%TO.C,U2*%
X190805000Y-61025000D02*
X190535000Y-61025000D01*
X190805000Y-54605000D02*
X190805000Y-61025000D01*
X190535000Y-61025000D02*
X190535000Y-62125000D01*
X184175000Y-61025000D02*
X184175000Y-63855000D01*
X183905000Y-61025000D02*
X184175000Y-61025000D01*
X183905000Y-54605000D02*
X183905000Y-61025000D01*
%TO.C,J1*%
X205500000Y-61020000D02*
X205500000Y-76320000D01*
X202840000Y-76320000D02*
X205500000Y-76320000D01*
X202840000Y-61020000D02*
X205500000Y-61020000D01*
X202840000Y-61020000D02*
X202840000Y-76320000D01*
X202840000Y-59750000D02*
X202840000Y-58420000D01*
X202840000Y-58420000D02*
X204170000Y-58420000D01*
%TO.C,D3*%
X189350000Y-76720000D02*
X189350000Y-72710000D01*
X187350000Y-76720000D02*
X189350000Y-76720000D01*
X187350000Y-76720000D02*
X187350000Y-72710000D01*
D15*
%TO.C,REF\u002A\u002A*%
X184080814Y-74643931D02*
X184164635Y-75088555D01*
X184473920Y-75216053D01*
X184783206Y-75343551D01*
X185154246Y-75091246D01*
X185258157Y-75020996D01*
X185352087Y-74958272D01*
X185431652Y-74905938D01*
X185492470Y-74866857D01*
X185530157Y-74843893D01*
X185540421Y-74838942D01*
X185558910Y-74851676D01*
X185598420Y-74886882D01*
X185654522Y-74940062D01*
X185722787Y-75006718D01*
X185798786Y-75082354D01*
X185878092Y-75162472D01*
X185956275Y-75242574D01*
X186028907Y-75318164D01*
X186091559Y-75384745D01*
X186139803Y-75437818D01*
X186169210Y-75472887D01*
X186176241Y-75484623D01*
X186166123Y-75506260D01*
X186137759Y-75553662D01*
X186094129Y-75622193D01*
X186038218Y-75707215D01*
X185973006Y-75804093D01*
X185935219Y-75859350D01*
X185866343Y-75960248D01*
X185805140Y-76051299D01*
X185754578Y-76127970D01*
X185717628Y-76185728D01*
X185697258Y-76220043D01*
X185694197Y-76227254D01*
X185701136Y-76247748D01*
X185720051Y-76295513D01*
X185748087Y-76363832D01*
X185782391Y-76445989D01*
X185820109Y-76535270D01*
X185858387Y-76624958D01*
X185894370Y-76708338D01*
X185925206Y-76778694D01*
X185948039Y-76829310D01*
X185960017Y-76853471D01*
X185960724Y-76854422D01*
X185979531Y-76859036D01*
X186029618Y-76869328D01*
X186105793Y-76884287D01*
X186202865Y-76902901D01*
X186315643Y-76924159D01*
X186381442Y-76936418D01*
X186501950Y-76959362D01*
X186610797Y-76981195D01*
X186702476Y-77000722D01*
X186771481Y-77016748D01*
X186812304Y-77028079D01*
X186820511Y-77031674D01*
X186828548Y-77056006D01*
X186835033Y-77110959D01*
X186839970Y-77190108D01*
X186843364Y-77287026D01*
X186845218Y-77395287D01*
X186845538Y-77508465D01*
X186844327Y-77620135D01*
X186841590Y-77723868D01*
X186837331Y-77813241D01*
X186831555Y-77881826D01*
X186824267Y-77923197D01*
X186819895Y-77931810D01*
X186793764Y-77942133D01*
X186738393Y-77956892D01*
X186661107Y-77974352D01*
X186569230Y-77992780D01*
X186537158Y-77998741D01*
X186382524Y-78027066D01*
X186260375Y-78049876D01*
X186166673Y-78068080D01*
X186097384Y-78082583D01*
X186048471Y-78094292D01*
X186015897Y-78104115D01*
X185995628Y-78112956D01*
X185983626Y-78121724D01*
X185981947Y-78123457D01*
X185965184Y-78151371D01*
X185939614Y-78205695D01*
X185907788Y-78279777D01*
X185872260Y-78366965D01*
X185835583Y-78460608D01*
X185800311Y-78554052D01*
X185768996Y-78640647D01*
X185744193Y-78713740D01*
X185728454Y-78766678D01*
X185724332Y-78792811D01*
X185724676Y-78793726D01*
X185738641Y-78815086D01*
X185770322Y-78862084D01*
X185816391Y-78929827D01*
X185873518Y-79013423D01*
X185938373Y-79107982D01*
X185956843Y-79134854D01*
X186022699Y-79232275D01*
X186080650Y-79321163D01*
X186127538Y-79396412D01*
X186160207Y-79452920D01*
X186175500Y-79485581D01*
X186176241Y-79489593D01*
X186163392Y-79510684D01*
X186127888Y-79552464D01*
X186074293Y-79610445D01*
X186007171Y-79680135D01*
X185931087Y-79757045D01*
X185850604Y-79836683D01*
X185770287Y-79914561D01*
X185694699Y-79986186D01*
X185628405Y-80047070D01*
X185575969Y-80092721D01*
X185541955Y-80118650D01*
X185532545Y-80122883D01*
X185510643Y-80112912D01*
X185465800Y-80086020D01*
X185405321Y-80046736D01*
X185358789Y-80015117D01*
X185274475Y-79957098D01*
X185174626Y-79888784D01*
X185074473Y-79820579D01*
X185020627Y-79784075D01*
X184838371Y-79660800D01*
X184685381Y-79743520D01*
X184615682Y-79779759D01*
X184556414Y-79807926D01*
X184516311Y-79823991D01*
X184506103Y-79826226D01*
X184493829Y-79809722D01*
X184469613Y-79763082D01*
X184435263Y-79690609D01*
X184392588Y-79596606D01*
X184343394Y-79485374D01*
X184289490Y-79361215D01*
X184232684Y-79228432D01*
X184174782Y-79091327D01*
X184117593Y-78954202D01*
X184062924Y-78821358D01*
X184012584Y-78697098D01*
X183968380Y-78585725D01*
X183932119Y-78491539D01*
X183905609Y-78418844D01*
X183890658Y-78371941D01*
X183888254Y-78355833D01*
X183907311Y-78335286D01*
X183949036Y-78301933D01*
X184004706Y-78262702D01*
X184009378Y-78259599D01*
X184153264Y-78144423D01*
X184269283Y-78010053D01*
X184356430Y-77860784D01*
X184413699Y-77700913D01*
X184440086Y-77534737D01*
X184434585Y-77366552D01*
X184396190Y-77200655D01*
X184323895Y-77041342D01*
X184302626Y-77006487D01*
X184191996Y-76865737D01*
X184061302Y-76752714D01*
X183915064Y-76668003D01*
X183757808Y-76612194D01*
X183594057Y-76585874D01*
X183428333Y-76589630D01*
X183265162Y-76624050D01*
X183109065Y-76689723D01*
X182964567Y-76787235D01*
X182919869Y-76826813D01*
X182806112Y-76950703D01*
X182723218Y-77081124D01*
X182666356Y-77227315D01*
X182634687Y-77372088D01*
X182626869Y-77534860D01*
X182652938Y-77698440D01*
X182710245Y-77857298D01*
X182796144Y-78005906D01*
X182907986Y-78138735D01*
X183043123Y-78250256D01*
X183060883Y-78262011D01*
X183117150Y-78300508D01*
X183159923Y-78333863D01*
X183180372Y-78355160D01*
X183180669Y-78355833D01*
X183176279Y-78378871D01*
X183158876Y-78431157D01*
X183130268Y-78508390D01*
X183092265Y-78606268D01*
X183046674Y-78720491D01*
X182995303Y-78846758D01*
X182939962Y-78980767D01*
X182882458Y-79118218D01*
X182824601Y-79254808D01*
X182768198Y-79386237D01*
X182715058Y-79508205D01*
X182666990Y-79616409D01*
X182625801Y-79706549D01*
X182593301Y-79774323D01*
X182571297Y-79815430D01*
X182562436Y-79826226D01*
X182535360Y-79817819D01*
X182484697Y-79795272D01*
X182419183Y-79762613D01*
X182383159Y-79743520D01*
X182230168Y-79660800D01*
X182047912Y-79784075D01*
X181954875Y-79847228D01*
X181853015Y-79916727D01*
X181757562Y-79982165D01*
X181709750Y-80015117D01*
X181642505Y-80060273D01*
X181585564Y-80096057D01*
X181546354Y-80117938D01*
X181533619Y-80122563D01*
X181515083Y-80110085D01*
X181474059Y-80075252D01*
X181414525Y-80021678D01*
X181340458Y-79952983D01*
X181255835Y-79872781D01*
X181202315Y-79821286D01*
X181108681Y-79729286D01*
X181027759Y-79646999D01*
X180962823Y-79577945D01*
X180917142Y-79525644D01*
X180893989Y-79493616D01*
X180891768Y-79487116D01*
X180902076Y-79462394D01*
X180930561Y-79412405D01*
X180974063Y-79342212D01*
X181029423Y-79256875D01*
X181093480Y-79161456D01*
X181111697Y-79134854D01*
X181178073Y-79038167D01*
X181237622Y-78951117D01*
X181287016Y-78878595D01*
X181322925Y-78825493D01*
X181342019Y-78796703D01*
X181343864Y-78793726D01*
X181341105Y-78770782D01*
X181326462Y-78720336D01*
X181302487Y-78649041D01*
X181271734Y-78563547D01*
X181236756Y-78470507D01*
X181200107Y-78376574D01*
X181164339Y-78288399D01*
X181132006Y-78212634D01*
X181105662Y-78155931D01*
X181087858Y-78124943D01*
X181086593Y-78123457D01*
X181075706Y-78114601D01*
X181057318Y-78105843D01*
X181027394Y-78096277D01*
X180981897Y-78084996D01*
X180916791Y-78071093D01*
X180828039Y-78053663D01*
X180711607Y-78031798D01*
X180563458Y-78004591D01*
X180531382Y-77998741D01*
X180436314Y-77980374D01*
X180353435Y-77962405D01*
X180290070Y-77946569D01*
X180253542Y-77934600D01*
X180248644Y-77931810D01*
X180240573Y-77907072D01*
X180234013Y-77851790D01*
X180228967Y-77772389D01*
X180225441Y-77675296D01*
X180223439Y-77566938D01*
X180222964Y-77453740D01*
X180224023Y-77342128D01*
X180226618Y-77238529D01*
X180230754Y-77149368D01*
X180236437Y-77081072D01*
X180243669Y-77040066D01*
X180248029Y-77031674D01*
X180272302Y-77023208D01*
X180327574Y-77009435D01*
X180408338Y-76991550D01*
X180509088Y-76970748D01*
X180624317Y-76948223D01*
X180687098Y-76936418D01*
X180806213Y-76914151D01*
X180912435Y-76893979D01*
X181000573Y-76876915D01*
X181065434Y-76863969D01*
X181101826Y-76856155D01*
X181107816Y-76854422D01*
X181117939Y-76834890D01*
X181139338Y-76787843D01*
X181169161Y-76720003D01*
X181204555Y-76638091D01*
X181242668Y-76548828D01*
X181280647Y-76458935D01*
X181315640Y-76375135D01*
X181344794Y-76304147D01*
X181365257Y-76252694D01*
X181374177Y-76227497D01*
X181374343Y-76226396D01*
X181364231Y-76206519D01*
X181335883Y-76160777D01*
X181292277Y-76093717D01*
X181236394Y-76009884D01*
X181171213Y-75913826D01*
X181133321Y-75858650D01*
X181064275Y-75757481D01*
X181002950Y-75665630D01*
X180952337Y-75587744D01*
X180915429Y-75528469D01*
X180895218Y-75492451D01*
X180892299Y-75484377D01*
X180904847Y-75465584D01*
X180939537Y-75425457D01*
X180991937Y-75368493D01*
X181057616Y-75299185D01*
X181132144Y-75222031D01*
X181211087Y-75141525D01*
X181290017Y-75062163D01*
X181364500Y-74988440D01*
X181430106Y-74924852D01*
X181482404Y-74875894D01*
X181516961Y-74846061D01*
X181528522Y-74838942D01*
X181547346Y-74848953D01*
X181592369Y-74877078D01*
X181659213Y-74920454D01*
X181743501Y-74976218D01*
X181840856Y-75041506D01*
X181914293Y-75091246D01*
X182285333Y-75343551D01*
X182903905Y-75088555D01*
X182987725Y-74643931D01*
X183071546Y-74199307D01*
X183996994Y-74199307D01*
X184080814Y-74643931D01*
G36*
X184080814Y-74643931D02*
G01*
X184164635Y-75088555D01*
X184473920Y-75216053D01*
X184783206Y-75343551D01*
X185154246Y-75091246D01*
X185258157Y-75020996D01*
X185352087Y-74958272D01*
X185431652Y-74905938D01*
X185492470Y-74866857D01*
X185530157Y-74843893D01*
X185540421Y-74838942D01*
X185558910Y-74851676D01*
X185598420Y-74886882D01*
X185654522Y-74940062D01*
X185722787Y-75006718D01*
X185798786Y-75082354D01*
X185878092Y-75162472D01*
X185956275Y-75242574D01*
X186028907Y-75318164D01*
X186091559Y-75384745D01*
X186139803Y-75437818D01*
X186169210Y-75472887D01*
X186176241Y-75484623D01*
X186166123Y-75506260D01*
X186137759Y-75553662D01*
X186094129Y-75622193D01*
X186038218Y-75707215D01*
X185973006Y-75804093D01*
X185935219Y-75859350D01*
X185866343Y-75960248D01*
X185805140Y-76051299D01*
X185754578Y-76127970D01*
X185717628Y-76185728D01*
X185697258Y-76220043D01*
X185694197Y-76227254D01*
X185701136Y-76247748D01*
X185720051Y-76295513D01*
X185748087Y-76363832D01*
X185782391Y-76445989D01*
X185820109Y-76535270D01*
X185858387Y-76624958D01*
X185894370Y-76708338D01*
X185925206Y-76778694D01*
X185948039Y-76829310D01*
X185960017Y-76853471D01*
X185960724Y-76854422D01*
X185979531Y-76859036D01*
X186029618Y-76869328D01*
X186105793Y-76884287D01*
X186202865Y-76902901D01*
X186315643Y-76924159D01*
X186381442Y-76936418D01*
X186501950Y-76959362D01*
X186610797Y-76981195D01*
X186702476Y-77000722D01*
X186771481Y-77016748D01*
X186812304Y-77028079D01*
X186820511Y-77031674D01*
X186828548Y-77056006D01*
X186835033Y-77110959D01*
X186839970Y-77190108D01*
X186843364Y-77287026D01*
X186845218Y-77395287D01*
X186845538Y-77508465D01*
X186844327Y-77620135D01*
X186841590Y-77723868D01*
X186837331Y-77813241D01*
X186831555Y-77881826D01*
X186824267Y-77923197D01*
X186819895Y-77931810D01*
X186793764Y-77942133D01*
X186738393Y-77956892D01*
X186661107Y-77974352D01*
X186569230Y-77992780D01*
X186537158Y-77998741D01*
X186382524Y-78027066D01*
X186260375Y-78049876D01*
X186166673Y-78068080D01*
X186097384Y-78082583D01*
X186048471Y-78094292D01*
X186015897Y-78104115D01*
X185995628Y-78112956D01*
X185983626Y-78121724D01*
X185981947Y-78123457D01*
X185965184Y-78151371D01*
X185939614Y-78205695D01*
X185907788Y-78279777D01*
X185872260Y-78366965D01*
X185835583Y-78460608D01*
X185800311Y-78554052D01*
X185768996Y-78640647D01*
X185744193Y-78713740D01*
X185728454Y-78766678D01*
X185724332Y-78792811D01*
X185724676Y-78793726D01*
X185738641Y-78815086D01*
X185770322Y-78862084D01*
X185816391Y-78929827D01*
X185873518Y-79013423D01*
X185938373Y-79107982D01*
X185956843Y-79134854D01*
X186022699Y-79232275D01*
X186080650Y-79321163D01*
X186127538Y-79396412D01*
X186160207Y-79452920D01*
X186175500Y-79485581D01*
X186176241Y-79489593D01*
X186163392Y-79510684D01*
X186127888Y-79552464D01*
X186074293Y-79610445D01*
X186007171Y-79680135D01*
X185931087Y-79757045D01*
X185850604Y-79836683D01*
X185770287Y-79914561D01*
X185694699Y-79986186D01*
X185628405Y-80047070D01*
X185575969Y-80092721D01*
X185541955Y-80118650D01*
X185532545Y-80122883D01*
X185510643Y-80112912D01*
X185465800Y-80086020D01*
X185405321Y-80046736D01*
X185358789Y-80015117D01*
X185274475Y-79957098D01*
X185174626Y-79888784D01*
X185074473Y-79820579D01*
X185020627Y-79784075D01*
X184838371Y-79660800D01*
X184685381Y-79743520D01*
X184615682Y-79779759D01*
X184556414Y-79807926D01*
X184516311Y-79823991D01*
X184506103Y-79826226D01*
X184493829Y-79809722D01*
X184469613Y-79763082D01*
X184435263Y-79690609D01*
X184392588Y-79596606D01*
X184343394Y-79485374D01*
X184289490Y-79361215D01*
X184232684Y-79228432D01*
X184174782Y-79091327D01*
X184117593Y-78954202D01*
X184062924Y-78821358D01*
X184012584Y-78697098D01*
X183968380Y-78585725D01*
X183932119Y-78491539D01*
X183905609Y-78418844D01*
X183890658Y-78371941D01*
X183888254Y-78355833D01*
X183907311Y-78335286D01*
X183949036Y-78301933D01*
X184004706Y-78262702D01*
X184009378Y-78259599D01*
X184153264Y-78144423D01*
X184269283Y-78010053D01*
X184356430Y-77860784D01*
X184413699Y-77700913D01*
X184440086Y-77534737D01*
X184434585Y-77366552D01*
X184396190Y-77200655D01*
X184323895Y-77041342D01*
X184302626Y-77006487D01*
X184191996Y-76865737D01*
X184061302Y-76752714D01*
X183915064Y-76668003D01*
X183757808Y-76612194D01*
X183594057Y-76585874D01*
X183428333Y-76589630D01*
X183265162Y-76624050D01*
X183109065Y-76689723D01*
X182964567Y-76787235D01*
X182919869Y-76826813D01*
X182806112Y-76950703D01*
X182723218Y-77081124D01*
X182666356Y-77227315D01*
X182634687Y-77372088D01*
X182626869Y-77534860D01*
X182652938Y-77698440D01*
X182710245Y-77857298D01*
X182796144Y-78005906D01*
X182907986Y-78138735D01*
X183043123Y-78250256D01*
X183060883Y-78262011D01*
X183117150Y-78300508D01*
X183159923Y-78333863D01*
X183180372Y-78355160D01*
X183180669Y-78355833D01*
X183176279Y-78378871D01*
X183158876Y-78431157D01*
X183130268Y-78508390D01*
X183092265Y-78606268D01*
X183046674Y-78720491D01*
X182995303Y-78846758D01*
X182939962Y-78980767D01*
X182882458Y-79118218D01*
X182824601Y-79254808D01*
X182768198Y-79386237D01*
X182715058Y-79508205D01*
X182666990Y-79616409D01*
X182625801Y-79706549D01*
X182593301Y-79774323D01*
X182571297Y-79815430D01*
X182562436Y-79826226D01*
X182535360Y-79817819D01*
X182484697Y-79795272D01*
X182419183Y-79762613D01*
X182383159Y-79743520D01*
X182230168Y-79660800D01*
X182047912Y-79784075D01*
X181954875Y-79847228D01*
X181853015Y-79916727D01*
X181757562Y-79982165D01*
X181709750Y-80015117D01*
X181642505Y-80060273D01*
X181585564Y-80096057D01*
X181546354Y-80117938D01*
X181533619Y-80122563D01*
X181515083Y-80110085D01*
X181474059Y-80075252D01*
X181414525Y-80021678D01*
X181340458Y-79952983D01*
X181255835Y-79872781D01*
X181202315Y-79821286D01*
X181108681Y-79729286D01*
X181027759Y-79646999D01*
X180962823Y-79577945D01*
X180917142Y-79525644D01*
X180893989Y-79493616D01*
X180891768Y-79487116D01*
X180902076Y-79462394D01*
X180930561Y-79412405D01*
X180974063Y-79342212D01*
X181029423Y-79256875D01*
X181093480Y-79161456D01*
X181111697Y-79134854D01*
X181178073Y-79038167D01*
X181237622Y-78951117D01*
X181287016Y-78878595D01*
X181322925Y-78825493D01*
X181342019Y-78796703D01*
X181343864Y-78793726D01*
X181341105Y-78770782D01*
X181326462Y-78720336D01*
X181302487Y-78649041D01*
X181271734Y-78563547D01*
X181236756Y-78470507D01*
X181200107Y-78376574D01*
X181164339Y-78288399D01*
X181132006Y-78212634D01*
X181105662Y-78155931D01*
X181087858Y-78124943D01*
X181086593Y-78123457D01*
X181075706Y-78114601D01*
X181057318Y-78105843D01*
X181027394Y-78096277D01*
X180981897Y-78084996D01*
X180916791Y-78071093D01*
X180828039Y-78053663D01*
X180711607Y-78031798D01*
X180563458Y-78004591D01*
X180531382Y-77998741D01*
X180436314Y-77980374D01*
X180353435Y-77962405D01*
X180290070Y-77946569D01*
X180253542Y-77934600D01*
X180248644Y-77931810D01*
X180240573Y-77907072D01*
X180234013Y-77851790D01*
X180228967Y-77772389D01*
X180225441Y-77675296D01*
X180223439Y-77566938D01*
X180222964Y-77453740D01*
X180224023Y-77342128D01*
X180226618Y-77238529D01*
X180230754Y-77149368D01*
X180236437Y-77081072D01*
X180243669Y-77040066D01*
X180248029Y-77031674D01*
X180272302Y-77023208D01*
X180327574Y-77009435D01*
X180408338Y-76991550D01*
X180509088Y-76970748D01*
X180624317Y-76948223D01*
X180687098Y-76936418D01*
X180806213Y-76914151D01*
X180912435Y-76893979D01*
X181000573Y-76876915D01*
X181065434Y-76863969D01*
X181101826Y-76856155D01*
X181107816Y-76854422D01*
X181117939Y-76834890D01*
X181139338Y-76787843D01*
X181169161Y-76720003D01*
X181204555Y-76638091D01*
X181242668Y-76548828D01*
X181280647Y-76458935D01*
X181315640Y-76375135D01*
X181344794Y-76304147D01*
X181365257Y-76252694D01*
X181374177Y-76227497D01*
X181374343Y-76226396D01*
X181364231Y-76206519D01*
X181335883Y-76160777D01*
X181292277Y-76093717D01*
X181236394Y-76009884D01*
X181171213Y-75913826D01*
X181133321Y-75858650D01*
X181064275Y-75757481D01*
X181002950Y-75665630D01*
X180952337Y-75587744D01*
X180915429Y-75528469D01*
X180895218Y-75492451D01*
X180892299Y-75484377D01*
X180904847Y-75465584D01*
X180939537Y-75425457D01*
X180991937Y-75368493D01*
X181057616Y-75299185D01*
X181132144Y-75222031D01*
X181211087Y-75141525D01*
X181290017Y-75062163D01*
X181364500Y-74988440D01*
X181430106Y-74924852D01*
X181482404Y-74875894D01*
X181516961Y-74846061D01*
X181528522Y-74838942D01*
X181547346Y-74848953D01*
X181592369Y-74877078D01*
X181659213Y-74920454D01*
X181743501Y-74976218D01*
X181840856Y-75041506D01*
X181914293Y-75091246D01*
X182285333Y-75343551D01*
X182903905Y-75088555D01*
X182987725Y-74643931D01*
X183071546Y-74199307D01*
X183996994Y-74199307D01*
X184080814Y-74643931D01*
G37*
%TD*%
M02*
