<?xml version="1.0" standalone="no"?>
 <!DOCTYPE svg PUBLIC "-//W3C//DTD SVG 1.1//EN" 
 "http://www.w3.org/Graphics/SVG/1.1/DTD/svg11.dtd"> 
<svg
  xmlns:svg="http://www.w3.org/2000/svg"
  xmlns="http://www.w3.org/2000/svg"
  xmlns:xlink="http://www.w3.org/1999/xlink"
  version="1.1"
  width="297.0022mm" height="210.0072mm" viewBox="0.0000 0.0000 297.0022 210.0072">
<title>SVG Image created as circular PCB-F_Courtyard.svg date 2024/12/07 20:31:42 </title>
  <desc>Image generated by PCBNEW </desc>
<g style="fill:#000000; fill-opacity:1.0000;stroke:#000000; stroke-opacity:1.0000;
stroke-linecap:round; stroke-linejoin:round;"
 transform="translate(0 0) scale(1 1)">
</g>
<g style="fill:none; 
stroke:#000000; stroke-width:0.0500; stroke-opacity:1; 
stroke-linecap:round; stroke-linejoin:round;">
<circle cx="178.8000" cy="74.0500" r="2.4500" /> 
<path d="M186.7900 68.7375
L184.8300 68.7375
" />
<path d="M186.7900 64.9775
L186.7900 68.7375
" />
<path d="M184.8300 68.7375
L184.8300 64.9775
" />
<path d="M184.8300 64.9775
L186.7900 64.9775
" />
<path d="M194.1100 71.3000
L192.2100 71.3000
" />
<path d="M194.1100 67.6000
L194.1100 71.3000
" />
<path d="M192.2100 71.3000
L192.2100 67.6000
" />
<path d="M192.2100 67.6000
L194.1100 67.6000
" />
<path d="M183.7800 68.7375
L181.8200 68.7375
" />
<path d="M183.7800 64.9775
L183.7800 68.7375
" />
<path d="M181.8200 68.7375
L181.8200 64.9775
" />
<path d="M181.8200 64.9775
L183.7800 64.9775
" />
<path d="M195.7300 76.6900
L193.8300 76.6900
" />
<path d="M195.7300 72.9900
L195.7300 76.6900
" />
<path d="M193.8300 76.6900
L193.8300 72.9900
" />
<path d="M193.8300 72.9900
L195.7300 72.9900
" />
<path d="M201.3200 56.1600
L197.6200 56.1600
" />
<path d="M201.3200 54.2600
L201.3200 56.1600
" />
<path d="M197.6200 56.1600
L197.6200 54.2600
" />
<path d="M197.6200 54.2600
L201.3200 54.2600
" />
<path d="M186.8175 72.9100
L181.5175 72.9100
" />
<path d="M186.8175 70.7100
L186.8175 72.9100
" />
<path d="M181.5175 72.9100
L181.5175 70.7100
" />
<path d="M181.5175 70.7100
L186.8175 70.7100
" />
<path d="M193.3550 57.6500
L197.0550 57.6500
" />
<path d="M193.3550 59.5500
L193.3550 57.6500
" />
<path d="M197.0550 57.6500
L197.0550 59.5500
" />
<path d="M197.0550 59.5500
L193.3550 59.5500
" />
<path d="M200.2900 71.8700
L200.2900 62.3700
" />
<path d="M194.3900 71.8700
L200.2900 71.8700
" />
<path d="M194.3900 71.8700
L194.3900 62.3700
" />
<path d="M194.3900 62.3700
L200.2900 62.3700
" />
<path d="M180.2300 71.5000
L180.2300 62.8500
" />
<path d="M180.2300 62.8500
L176.6300 62.8500
" />
<path d="M176.6300 71.5000
L180.2300 71.5000
" />
<path d="M176.6300 62.8500
L176.6300 71.5000
" />
<path d="M201.3300 59.5600
L197.6300 59.5600
" />
<path d="M201.3300 57.6600
L201.3300 59.5600
" />
<path d="M197.6300 59.5600
L197.6300 57.6600
" />
<path d="M197.6300 57.6600
L201.3300 57.6600
" />
<path d="M199.7200 81.8900
L197.5200 81.8900
" />
<path d="M199.7200 76.5900
L199.7200 81.8900
" />
<path d="M197.5200 81.8900
L197.5200 76.5900
" />
<path d="M197.5200 76.5900
L199.7200 76.5900
" />
<path d="M196.2900 78.3100
L196.2900 84.4100
" />
<path d="M187.4900 84.4100
L196.2900 84.4100
" />
<path d="M187.4900 84.4100
L187.4900 78.3100
" />
<path d="M187.4900 78.3100
L196.2900 78.3100
" />
<path d="M192.3900 76.7400
L190.4900 76.7400
" />
<path d="M192.3900 73.0400
L192.3900 76.7400
" />
<path d="M190.4900 76.7400
L190.4900 73.0400
" />
<path d="M190.4900 73.0400
L192.3900 73.0400
" />
<path d="M193.3450 54.2600
L197.0450 54.2600
" />
<path d="M193.3450 56.1600
L193.3450 54.2600
" />
<path d="M197.0450 54.2600
L197.0450 56.1600
" />
<path d="M197.0450 56.1600
L193.3450 56.1600
" />
<path d="M190.8550 64.1050
L190.8550 53.0050
" />
<path d="M190.8550 53.0050
L183.8550 53.0050
" />
<path d="M183.8550 64.1050
L190.8550 64.1050
" />
<path d="M183.8550 53.0050
L183.8550 64.1050
" />
<path d="M205.9700 76.8000
L205.9700 57.9500
" />
<path d="M205.9700 57.9500
L202.3700 57.9500
" />
<path d="M202.3700 76.8000
L205.9700 76.8000
" />
<path d="M202.3700 57.9500
L202.3700 76.8000
" />
<path d="M189.5000 72.0100
L189.5000 76.7100
" />
<path d="M187.2000 76.7100
L189.5000 76.7100
" />
<path d="M187.2000 76.7100
L187.2000 72.0100
" />
<path d="M187.2000 72.0100
L189.5000 72.0100
" />
</g>
<g style="fill:none; 
stroke:#000000; stroke-width:0.1000; stroke-opacity:1; 
stroke-linecap:round; stroke-linejoin:round;">
<circle cx="191.9400" cy="67.6000" r="17.5000" /> 
</g> 
</svg>
