%TF.GenerationSoftware,KiCad,Pcbnew,8.0.6*%
%TF.CreationDate,2024-12-07T20:29:37+01:00*%
%TF.ProjectId,circular PCB,63697263-756c-4617-9220-5043422e6b69,rev?*%
%TF.SameCoordinates,Original*%
%TF.FileFunction,Drillmap*%
%TF.FilePolarity,Positive*%
%FSLAX45Y45*%
G04 Gerber Fmt 4.5, Leading zero omitted, Abs format (unit mm)*
G04 Created by KiCad (PCBNEW 8.0.6) date 2024-12-07 20:29:37*
%MOMM*%
%LPD*%
G01*
G04 APERTURE LIST*
%ADD10C,0.100000*%
%ADD11C,0.200000*%
%ADD12C,0.220000*%
G04 APERTURE END LIST*
D10*
X20944000Y-6760000D02*
G75*
G02*
X17444000Y-6760000I-1750000J0D01*
G01*
X17444000Y-6760000D02*
G75*
G02*
X20944000Y-6760000I1750000J0D01*
G01*
D11*
D10*
X18796500Y-8158250D02*
X18881500Y-8243250D01*
X18881500Y-8158250D02*
X18796500Y-8243250D01*
X18896500Y-7888250D02*
X18981500Y-7973250D01*
X18981500Y-7888250D02*
X18896500Y-7973250D01*
X19396500Y-7888250D02*
X19481500Y-7973250D01*
X19481500Y-7888250D02*
X19396500Y-7973250D01*
X19496500Y-8158250D02*
X19581500Y-8243250D01*
X19581500Y-8158250D02*
X19496500Y-8243250D01*
X17893000Y-6465000D02*
G75*
G02*
X17793000Y-6465000I-50000J0D01*
G01*
X17793000Y-6465000D02*
G75*
G02*
X17893000Y-6465000I50000J0D01*
G01*
X17893000Y-6719000D02*
G75*
G02*
X17793000Y-6719000I-50000J0D01*
G01*
X17793000Y-6719000D02*
G75*
G02*
X17893000Y-6719000I50000J0D01*
G01*
X17893000Y-6973000D02*
G75*
G02*
X17793000Y-6973000I-50000J0D01*
G01*
X17793000Y-6973000D02*
G75*
G02*
X17893000Y-6973000I50000J0D01*
G01*
X20467000Y-5975000D02*
G75*
G02*
X20367000Y-5975000I-50000J0D01*
G01*
X20367000Y-5975000D02*
G75*
G02*
X20467000Y-5975000I50000J0D01*
G01*
X20467000Y-6229000D02*
G75*
G02*
X20367000Y-6229000I-50000J0D01*
G01*
X20367000Y-6229000D02*
G75*
G02*
X20467000Y-6229000I50000J0D01*
G01*
X20467000Y-6483000D02*
G75*
G02*
X20367000Y-6483000I-50000J0D01*
G01*
X20367000Y-6483000D02*
G75*
G02*
X20467000Y-6483000I50000J0D01*
G01*
X20467000Y-6737000D02*
G75*
G02*
X20367000Y-6737000I-50000J0D01*
G01*
X20367000Y-6737000D02*
G75*
G02*
X20467000Y-6737000I50000J0D01*
G01*
X20467000Y-6991000D02*
G75*
G02*
X20367000Y-6991000I-50000J0D01*
G01*
X20367000Y-6991000D02*
G75*
G02*
X20467000Y-6991000I50000J0D01*
G01*
X20467000Y-7245000D02*
G75*
G02*
X20367000Y-7245000I-50000J0D01*
G01*
X20367000Y-7245000D02*
G75*
G02*
X20467000Y-7245000I50000J0D01*
G01*
X20467000Y-7499000D02*
G75*
G02*
X20367000Y-7499000I-50000J0D01*
G01*
X20367000Y-7499000D02*
G75*
G02*
X20467000Y-7499000I50000J0D01*
G01*
D12*
X17880000Y-7295000D02*
X17880000Y-7515000D01*
X17770000Y-7405000D02*
X17990000Y-7405000D01*
D11*
X17699777Y-8826484D02*
X17699777Y-8626484D01*
X17699777Y-8626484D02*
X17747396Y-8626484D01*
X17747396Y-8626484D02*
X17775967Y-8636008D01*
X17775967Y-8636008D02*
X17795015Y-8655055D01*
X17795015Y-8655055D02*
X17804539Y-8674103D01*
X17804539Y-8674103D02*
X17814063Y-8712198D01*
X17814063Y-8712198D02*
X17814063Y-8740770D01*
X17814063Y-8740770D02*
X17804539Y-8778865D01*
X17804539Y-8778865D02*
X17795015Y-8797912D01*
X17795015Y-8797912D02*
X17775967Y-8816960D01*
X17775967Y-8816960D02*
X17747396Y-8826484D01*
X17747396Y-8826484D02*
X17699777Y-8826484D01*
X17899777Y-8826484D02*
X17899777Y-8693150D01*
X17899777Y-8731246D02*
X17909301Y-8712198D01*
X17909301Y-8712198D02*
X17918824Y-8702674D01*
X17918824Y-8702674D02*
X17937872Y-8693150D01*
X17937872Y-8693150D02*
X17956920Y-8693150D01*
X18023586Y-8826484D02*
X18023586Y-8693150D01*
X18023586Y-8626484D02*
X18014063Y-8636008D01*
X18014063Y-8636008D02*
X18023586Y-8645531D01*
X18023586Y-8645531D02*
X18033110Y-8636008D01*
X18033110Y-8636008D02*
X18023586Y-8626484D01*
X18023586Y-8626484D02*
X18023586Y-8645531D01*
X18147396Y-8826484D02*
X18128348Y-8816960D01*
X18128348Y-8816960D02*
X18118824Y-8797912D01*
X18118824Y-8797912D02*
X18118824Y-8626484D01*
X18252158Y-8826484D02*
X18233110Y-8816960D01*
X18233110Y-8816960D02*
X18223586Y-8797912D01*
X18223586Y-8797912D02*
X18223586Y-8626484D01*
X18480729Y-8826484D02*
X18480729Y-8626484D01*
X18480729Y-8626484D02*
X18547396Y-8769341D01*
X18547396Y-8769341D02*
X18614063Y-8626484D01*
X18614063Y-8626484D02*
X18614063Y-8826484D01*
X18795015Y-8826484D02*
X18795015Y-8721722D01*
X18795015Y-8721722D02*
X18785491Y-8702674D01*
X18785491Y-8702674D02*
X18766444Y-8693150D01*
X18766444Y-8693150D02*
X18728348Y-8693150D01*
X18728348Y-8693150D02*
X18709301Y-8702674D01*
X18795015Y-8816960D02*
X18775967Y-8826484D01*
X18775967Y-8826484D02*
X18728348Y-8826484D01*
X18728348Y-8826484D02*
X18709301Y-8816960D01*
X18709301Y-8816960D02*
X18699777Y-8797912D01*
X18699777Y-8797912D02*
X18699777Y-8778865D01*
X18699777Y-8778865D02*
X18709301Y-8759817D01*
X18709301Y-8759817D02*
X18728348Y-8750293D01*
X18728348Y-8750293D02*
X18775967Y-8750293D01*
X18775967Y-8750293D02*
X18795015Y-8740770D01*
X18890253Y-8693150D02*
X18890253Y-8893150D01*
X18890253Y-8702674D02*
X18909301Y-8693150D01*
X18909301Y-8693150D02*
X18947396Y-8693150D01*
X18947396Y-8693150D02*
X18966444Y-8702674D01*
X18966444Y-8702674D02*
X18975967Y-8712198D01*
X18975967Y-8712198D02*
X18985491Y-8731246D01*
X18985491Y-8731246D02*
X18985491Y-8788389D01*
X18985491Y-8788389D02*
X18975967Y-8807436D01*
X18975967Y-8807436D02*
X18966444Y-8816960D01*
X18966444Y-8816960D02*
X18947396Y-8826484D01*
X18947396Y-8826484D02*
X18909301Y-8826484D01*
X18909301Y-8826484D02*
X18890253Y-8816960D01*
X19071205Y-8807436D02*
X19080729Y-8816960D01*
X19080729Y-8816960D02*
X19071205Y-8826484D01*
X19071205Y-8826484D02*
X19061682Y-8816960D01*
X19061682Y-8816960D02*
X19071205Y-8807436D01*
X19071205Y-8807436D02*
X19071205Y-8826484D01*
X19071205Y-8702674D02*
X19080729Y-8712198D01*
X19080729Y-8712198D02*
X19071205Y-8721722D01*
X19071205Y-8721722D02*
X19061682Y-8712198D01*
X19061682Y-8712198D02*
X19071205Y-8702674D01*
X19071205Y-8702674D02*
X19071205Y-8721722D01*
D10*
X17354000Y-9112500D02*
X17439000Y-9197500D01*
X17439000Y-9112500D02*
X17354000Y-9197500D01*
D11*
X17737872Y-9046484D02*
X17756920Y-9046484D01*
X17756920Y-9046484D02*
X17775967Y-9056008D01*
X17775967Y-9056008D02*
X17785491Y-9065531D01*
X17785491Y-9065531D02*
X17795015Y-9084579D01*
X17795015Y-9084579D02*
X17804539Y-9122674D01*
X17804539Y-9122674D02*
X17804539Y-9170293D01*
X17804539Y-9170293D02*
X17795015Y-9208389D01*
X17795015Y-9208389D02*
X17785491Y-9227436D01*
X17785491Y-9227436D02*
X17775967Y-9236960D01*
X17775967Y-9236960D02*
X17756920Y-9246484D01*
X17756920Y-9246484D02*
X17737872Y-9246484D01*
X17737872Y-9246484D02*
X17718824Y-9236960D01*
X17718824Y-9236960D02*
X17709301Y-9227436D01*
X17709301Y-9227436D02*
X17699777Y-9208389D01*
X17699777Y-9208389D02*
X17690253Y-9170293D01*
X17690253Y-9170293D02*
X17690253Y-9122674D01*
X17690253Y-9122674D02*
X17699777Y-9084579D01*
X17699777Y-9084579D02*
X17709301Y-9065531D01*
X17709301Y-9065531D02*
X17718824Y-9056008D01*
X17718824Y-9056008D02*
X17737872Y-9046484D01*
X17890253Y-9227436D02*
X17899777Y-9236960D01*
X17899777Y-9236960D02*
X17890253Y-9246484D01*
X17890253Y-9246484D02*
X17880729Y-9236960D01*
X17880729Y-9236960D02*
X17890253Y-9227436D01*
X17890253Y-9227436D02*
X17890253Y-9246484D01*
X18014063Y-9132198D02*
X17995015Y-9122674D01*
X17995015Y-9122674D02*
X17985491Y-9113150D01*
X17985491Y-9113150D02*
X17975967Y-9094103D01*
X17975967Y-9094103D02*
X17975967Y-9084579D01*
X17975967Y-9084579D02*
X17985491Y-9065531D01*
X17985491Y-9065531D02*
X17995015Y-9056008D01*
X17995015Y-9056008D02*
X18014063Y-9046484D01*
X18014063Y-9046484D02*
X18052158Y-9046484D01*
X18052158Y-9046484D02*
X18071205Y-9056008D01*
X18071205Y-9056008D02*
X18080729Y-9065531D01*
X18080729Y-9065531D02*
X18090253Y-9084579D01*
X18090253Y-9084579D02*
X18090253Y-9094103D01*
X18090253Y-9094103D02*
X18080729Y-9113150D01*
X18080729Y-9113150D02*
X18071205Y-9122674D01*
X18071205Y-9122674D02*
X18052158Y-9132198D01*
X18052158Y-9132198D02*
X18014063Y-9132198D01*
X18014063Y-9132198D02*
X17995015Y-9141722D01*
X17995015Y-9141722D02*
X17985491Y-9151246D01*
X17985491Y-9151246D02*
X17975967Y-9170293D01*
X17975967Y-9170293D02*
X17975967Y-9208389D01*
X17975967Y-9208389D02*
X17985491Y-9227436D01*
X17985491Y-9227436D02*
X17995015Y-9236960D01*
X17995015Y-9236960D02*
X18014063Y-9246484D01*
X18014063Y-9246484D02*
X18052158Y-9246484D01*
X18052158Y-9246484D02*
X18071205Y-9236960D01*
X18071205Y-9236960D02*
X18080729Y-9227436D01*
X18080729Y-9227436D02*
X18090253Y-9208389D01*
X18090253Y-9208389D02*
X18090253Y-9170293D01*
X18090253Y-9170293D02*
X18080729Y-9151246D01*
X18080729Y-9151246D02*
X18071205Y-9141722D01*
X18071205Y-9141722D02*
X18052158Y-9132198D01*
X18271205Y-9046484D02*
X18175967Y-9046484D01*
X18175967Y-9046484D02*
X18166444Y-9141722D01*
X18166444Y-9141722D02*
X18175967Y-9132198D01*
X18175967Y-9132198D02*
X18195015Y-9122674D01*
X18195015Y-9122674D02*
X18242634Y-9122674D01*
X18242634Y-9122674D02*
X18261682Y-9132198D01*
X18261682Y-9132198D02*
X18271205Y-9141722D01*
X18271205Y-9141722D02*
X18280729Y-9160770D01*
X18280729Y-9160770D02*
X18280729Y-9208389D01*
X18280729Y-9208389D02*
X18271205Y-9227436D01*
X18271205Y-9227436D02*
X18261682Y-9236960D01*
X18261682Y-9236960D02*
X18242634Y-9246484D01*
X18242634Y-9246484D02*
X18195015Y-9246484D01*
X18195015Y-9246484D02*
X18175967Y-9236960D01*
X18175967Y-9236960D02*
X18166444Y-9227436D01*
X18404539Y-9046484D02*
X18423586Y-9046484D01*
X18423586Y-9046484D02*
X18442634Y-9056008D01*
X18442634Y-9056008D02*
X18452158Y-9065531D01*
X18452158Y-9065531D02*
X18461682Y-9084579D01*
X18461682Y-9084579D02*
X18471205Y-9122674D01*
X18471205Y-9122674D02*
X18471205Y-9170293D01*
X18471205Y-9170293D02*
X18461682Y-9208389D01*
X18461682Y-9208389D02*
X18452158Y-9227436D01*
X18452158Y-9227436D02*
X18442634Y-9236960D01*
X18442634Y-9236960D02*
X18423586Y-9246484D01*
X18423586Y-9246484D02*
X18404539Y-9246484D01*
X18404539Y-9246484D02*
X18385491Y-9236960D01*
X18385491Y-9236960D02*
X18375967Y-9227436D01*
X18375967Y-9227436D02*
X18366444Y-9208389D01*
X18366444Y-9208389D02*
X18356920Y-9170293D01*
X18356920Y-9170293D02*
X18356920Y-9122674D01*
X18356920Y-9122674D02*
X18366444Y-9084579D01*
X18366444Y-9084579D02*
X18375967Y-9065531D01*
X18375967Y-9065531D02*
X18385491Y-9056008D01*
X18385491Y-9056008D02*
X18404539Y-9046484D01*
X18556920Y-9246484D02*
X18556920Y-9113150D01*
X18556920Y-9132198D02*
X18566444Y-9122674D01*
X18566444Y-9122674D02*
X18585491Y-9113150D01*
X18585491Y-9113150D02*
X18614063Y-9113150D01*
X18614063Y-9113150D02*
X18633110Y-9122674D01*
X18633110Y-9122674D02*
X18642634Y-9141722D01*
X18642634Y-9141722D02*
X18642634Y-9246484D01*
X18642634Y-9141722D02*
X18652158Y-9122674D01*
X18652158Y-9122674D02*
X18671205Y-9113150D01*
X18671205Y-9113150D02*
X18699777Y-9113150D01*
X18699777Y-9113150D02*
X18718825Y-9122674D01*
X18718825Y-9122674D02*
X18728348Y-9141722D01*
X18728348Y-9141722D02*
X18728348Y-9246484D01*
X18823586Y-9246484D02*
X18823586Y-9113150D01*
X18823586Y-9132198D02*
X18833110Y-9122674D01*
X18833110Y-9122674D02*
X18852158Y-9113150D01*
X18852158Y-9113150D02*
X18880729Y-9113150D01*
X18880729Y-9113150D02*
X18899777Y-9122674D01*
X18899777Y-9122674D02*
X18909301Y-9141722D01*
X18909301Y-9141722D02*
X18909301Y-9246484D01*
X18909301Y-9141722D02*
X18918825Y-9122674D01*
X18918825Y-9122674D02*
X18937872Y-9113150D01*
X18937872Y-9113150D02*
X18966444Y-9113150D01*
X18966444Y-9113150D02*
X18985491Y-9122674D01*
X18985491Y-9122674D02*
X18995015Y-9141722D01*
X18995015Y-9141722D02*
X18995015Y-9246484D01*
X19385491Y-9036960D02*
X19214063Y-9294103D01*
X19642634Y-9046484D02*
X19661682Y-9046484D01*
X19661682Y-9046484D02*
X19680729Y-9056008D01*
X19680729Y-9056008D02*
X19690253Y-9065531D01*
X19690253Y-9065531D02*
X19699777Y-9084579D01*
X19699777Y-9084579D02*
X19709301Y-9122674D01*
X19709301Y-9122674D02*
X19709301Y-9170293D01*
X19709301Y-9170293D02*
X19699777Y-9208389D01*
X19699777Y-9208389D02*
X19690253Y-9227436D01*
X19690253Y-9227436D02*
X19680729Y-9236960D01*
X19680729Y-9236960D02*
X19661682Y-9246484D01*
X19661682Y-9246484D02*
X19642634Y-9246484D01*
X19642634Y-9246484D02*
X19623587Y-9236960D01*
X19623587Y-9236960D02*
X19614063Y-9227436D01*
X19614063Y-9227436D02*
X19604539Y-9208389D01*
X19604539Y-9208389D02*
X19595015Y-9170293D01*
X19595015Y-9170293D02*
X19595015Y-9122674D01*
X19595015Y-9122674D02*
X19604539Y-9084579D01*
X19604539Y-9084579D02*
X19614063Y-9065531D01*
X19614063Y-9065531D02*
X19623587Y-9056008D01*
X19623587Y-9056008D02*
X19642634Y-9046484D01*
X19795015Y-9227436D02*
X19804539Y-9236960D01*
X19804539Y-9236960D02*
X19795015Y-9246484D01*
X19795015Y-9246484D02*
X19785491Y-9236960D01*
X19785491Y-9236960D02*
X19795015Y-9227436D01*
X19795015Y-9227436D02*
X19795015Y-9246484D01*
X19928348Y-9046484D02*
X19947396Y-9046484D01*
X19947396Y-9046484D02*
X19966444Y-9056008D01*
X19966444Y-9056008D02*
X19975968Y-9065531D01*
X19975968Y-9065531D02*
X19985491Y-9084579D01*
X19985491Y-9084579D02*
X19995015Y-9122674D01*
X19995015Y-9122674D02*
X19995015Y-9170293D01*
X19995015Y-9170293D02*
X19985491Y-9208389D01*
X19985491Y-9208389D02*
X19975968Y-9227436D01*
X19975968Y-9227436D02*
X19966444Y-9236960D01*
X19966444Y-9236960D02*
X19947396Y-9246484D01*
X19947396Y-9246484D02*
X19928348Y-9246484D01*
X19928348Y-9246484D02*
X19909301Y-9236960D01*
X19909301Y-9236960D02*
X19899777Y-9227436D01*
X19899777Y-9227436D02*
X19890253Y-9208389D01*
X19890253Y-9208389D02*
X19880729Y-9170293D01*
X19880729Y-9170293D02*
X19880729Y-9122674D01*
X19880729Y-9122674D02*
X19890253Y-9084579D01*
X19890253Y-9084579D02*
X19899777Y-9065531D01*
X19899777Y-9065531D02*
X19909301Y-9056008D01*
X19909301Y-9056008D02*
X19928348Y-9046484D01*
X20061682Y-9046484D02*
X20185491Y-9046484D01*
X20185491Y-9046484D02*
X20118825Y-9122674D01*
X20118825Y-9122674D02*
X20147396Y-9122674D01*
X20147396Y-9122674D02*
X20166444Y-9132198D01*
X20166444Y-9132198D02*
X20175968Y-9141722D01*
X20175968Y-9141722D02*
X20185491Y-9160770D01*
X20185491Y-9160770D02*
X20185491Y-9208389D01*
X20185491Y-9208389D02*
X20175968Y-9227436D01*
X20175968Y-9227436D02*
X20166444Y-9236960D01*
X20166444Y-9236960D02*
X20147396Y-9246484D01*
X20147396Y-9246484D02*
X20090253Y-9246484D01*
X20090253Y-9246484D02*
X20071206Y-9236960D01*
X20071206Y-9236960D02*
X20061682Y-9227436D01*
X20252158Y-9046484D02*
X20375968Y-9046484D01*
X20375968Y-9046484D02*
X20309301Y-9122674D01*
X20309301Y-9122674D02*
X20337872Y-9122674D01*
X20337872Y-9122674D02*
X20356920Y-9132198D01*
X20356920Y-9132198D02*
X20366444Y-9141722D01*
X20366444Y-9141722D02*
X20375968Y-9160770D01*
X20375968Y-9160770D02*
X20375968Y-9208389D01*
X20375968Y-9208389D02*
X20366444Y-9227436D01*
X20366444Y-9227436D02*
X20356920Y-9236960D01*
X20356920Y-9236960D02*
X20337872Y-9246484D01*
X20337872Y-9246484D02*
X20280729Y-9246484D01*
X20280729Y-9246484D02*
X20261682Y-9236960D01*
X20261682Y-9236960D02*
X20252158Y-9227436D01*
X20556920Y-9046484D02*
X20461682Y-9046484D01*
X20461682Y-9046484D02*
X20452158Y-9141722D01*
X20452158Y-9141722D02*
X20461682Y-9132198D01*
X20461682Y-9132198D02*
X20480729Y-9122674D01*
X20480729Y-9122674D02*
X20528349Y-9122674D01*
X20528349Y-9122674D02*
X20547396Y-9132198D01*
X20547396Y-9132198D02*
X20556920Y-9141722D01*
X20556920Y-9141722D02*
X20566444Y-9160770D01*
X20566444Y-9160770D02*
X20566444Y-9208389D01*
X20566444Y-9208389D02*
X20556920Y-9227436D01*
X20556920Y-9227436D02*
X20547396Y-9236960D01*
X20547396Y-9236960D02*
X20528349Y-9246484D01*
X20528349Y-9246484D02*
X20480729Y-9246484D01*
X20480729Y-9246484D02*
X20461682Y-9236960D01*
X20461682Y-9236960D02*
X20452158Y-9227436D01*
X20642634Y-9046484D02*
X20642634Y-9084579D01*
X20718825Y-9046484D02*
X20718825Y-9084579D01*
X21014063Y-9322674D02*
X21004539Y-9313150D01*
X21004539Y-9313150D02*
X20985491Y-9284579D01*
X20985491Y-9284579D02*
X20975968Y-9265531D01*
X20975968Y-9265531D02*
X20966444Y-9236960D01*
X20966444Y-9236960D02*
X20956920Y-9189341D01*
X20956920Y-9189341D02*
X20956920Y-9151246D01*
X20956920Y-9151246D02*
X20966444Y-9103627D01*
X20966444Y-9103627D02*
X20975968Y-9075055D01*
X20975968Y-9075055D02*
X20985491Y-9056008D01*
X20985491Y-9056008D02*
X21004539Y-9027436D01*
X21004539Y-9027436D02*
X21014063Y-9017912D01*
X21175968Y-9113150D02*
X21175968Y-9246484D01*
X21128349Y-9036960D02*
X21080730Y-9179817D01*
X21080730Y-9179817D02*
X21204539Y-9179817D01*
X21433111Y-9246484D02*
X21433111Y-9046484D01*
X21518825Y-9246484D02*
X21518825Y-9141722D01*
X21518825Y-9141722D02*
X21509301Y-9122674D01*
X21509301Y-9122674D02*
X21490253Y-9113150D01*
X21490253Y-9113150D02*
X21461682Y-9113150D01*
X21461682Y-9113150D02*
X21442634Y-9122674D01*
X21442634Y-9122674D02*
X21433111Y-9132198D01*
X21642634Y-9246484D02*
X21623587Y-9236960D01*
X21623587Y-9236960D02*
X21614063Y-9227436D01*
X21614063Y-9227436D02*
X21604539Y-9208389D01*
X21604539Y-9208389D02*
X21604539Y-9151246D01*
X21604539Y-9151246D02*
X21614063Y-9132198D01*
X21614063Y-9132198D02*
X21623587Y-9122674D01*
X21623587Y-9122674D02*
X21642634Y-9113150D01*
X21642634Y-9113150D02*
X21671206Y-9113150D01*
X21671206Y-9113150D02*
X21690253Y-9122674D01*
X21690253Y-9122674D02*
X21699777Y-9132198D01*
X21699777Y-9132198D02*
X21709301Y-9151246D01*
X21709301Y-9151246D02*
X21709301Y-9208389D01*
X21709301Y-9208389D02*
X21699777Y-9227436D01*
X21699777Y-9227436D02*
X21690253Y-9236960D01*
X21690253Y-9236960D02*
X21671206Y-9246484D01*
X21671206Y-9246484D02*
X21642634Y-9246484D01*
X21823587Y-9246484D02*
X21804539Y-9236960D01*
X21804539Y-9236960D02*
X21795015Y-9217912D01*
X21795015Y-9217912D02*
X21795015Y-9046484D01*
X21975968Y-9236960D02*
X21956920Y-9246484D01*
X21956920Y-9246484D02*
X21918825Y-9246484D01*
X21918825Y-9246484D02*
X21899777Y-9236960D01*
X21899777Y-9236960D02*
X21890253Y-9217912D01*
X21890253Y-9217912D02*
X21890253Y-9141722D01*
X21890253Y-9141722D02*
X21899777Y-9122674D01*
X21899777Y-9122674D02*
X21918825Y-9113150D01*
X21918825Y-9113150D02*
X21956920Y-9113150D01*
X21956920Y-9113150D02*
X21975968Y-9122674D01*
X21975968Y-9122674D02*
X21985492Y-9141722D01*
X21985492Y-9141722D02*
X21985492Y-9160770D01*
X21985492Y-9160770D02*
X21890253Y-9179817D01*
X22061682Y-9236960D02*
X22080730Y-9246484D01*
X22080730Y-9246484D02*
X22118825Y-9246484D01*
X22118825Y-9246484D02*
X22137873Y-9236960D01*
X22137873Y-9236960D02*
X22147396Y-9217912D01*
X22147396Y-9217912D02*
X22147396Y-9208389D01*
X22147396Y-9208389D02*
X22137873Y-9189341D01*
X22137873Y-9189341D02*
X22118825Y-9179817D01*
X22118825Y-9179817D02*
X22090253Y-9179817D01*
X22090253Y-9179817D02*
X22071206Y-9170293D01*
X22071206Y-9170293D02*
X22061682Y-9151246D01*
X22061682Y-9151246D02*
X22061682Y-9141722D01*
X22061682Y-9141722D02*
X22071206Y-9122674D01*
X22071206Y-9122674D02*
X22090253Y-9113150D01*
X22090253Y-9113150D02*
X22118825Y-9113150D01*
X22118825Y-9113150D02*
X22137873Y-9122674D01*
X22214063Y-9322674D02*
X22223587Y-9313150D01*
X22223587Y-9313150D02*
X22242634Y-9284579D01*
X22242634Y-9284579D02*
X22252158Y-9265531D01*
X22252158Y-9265531D02*
X22261682Y-9236960D01*
X22261682Y-9236960D02*
X22271206Y-9189341D01*
X22271206Y-9189341D02*
X22271206Y-9151246D01*
X22271206Y-9151246D02*
X22261682Y-9103627D01*
X22261682Y-9103627D02*
X22252158Y-9075055D01*
X22252158Y-9075055D02*
X22242634Y-9056008D01*
X22242634Y-9056008D02*
X22223587Y-9027436D01*
X22223587Y-9027436D02*
X22214063Y-9017912D01*
D10*
X17439000Y-9419000D02*
G75*
G02*
X17339000Y-9419000I-50000J0D01*
G01*
X17339000Y-9419000D02*
G75*
G02*
X17439000Y-9419000I50000J0D01*
G01*
D11*
X17804539Y-9510484D02*
X17690253Y-9510484D01*
X17747396Y-9510484D02*
X17747396Y-9310484D01*
X17747396Y-9310484D02*
X17728348Y-9339055D01*
X17728348Y-9339055D02*
X17709301Y-9358103D01*
X17709301Y-9358103D02*
X17690253Y-9367627D01*
X17890253Y-9491436D02*
X17899777Y-9500960D01*
X17899777Y-9500960D02*
X17890253Y-9510484D01*
X17890253Y-9510484D02*
X17880729Y-9500960D01*
X17880729Y-9500960D02*
X17890253Y-9491436D01*
X17890253Y-9491436D02*
X17890253Y-9510484D01*
X18023586Y-9310484D02*
X18042634Y-9310484D01*
X18042634Y-9310484D02*
X18061682Y-9320008D01*
X18061682Y-9320008D02*
X18071205Y-9329531D01*
X18071205Y-9329531D02*
X18080729Y-9348579D01*
X18080729Y-9348579D02*
X18090253Y-9386674D01*
X18090253Y-9386674D02*
X18090253Y-9434293D01*
X18090253Y-9434293D02*
X18080729Y-9472389D01*
X18080729Y-9472389D02*
X18071205Y-9491436D01*
X18071205Y-9491436D02*
X18061682Y-9500960D01*
X18061682Y-9500960D02*
X18042634Y-9510484D01*
X18042634Y-9510484D02*
X18023586Y-9510484D01*
X18023586Y-9510484D02*
X18004539Y-9500960D01*
X18004539Y-9500960D02*
X17995015Y-9491436D01*
X17995015Y-9491436D02*
X17985491Y-9472389D01*
X17985491Y-9472389D02*
X17975967Y-9434293D01*
X17975967Y-9434293D02*
X17975967Y-9386674D01*
X17975967Y-9386674D02*
X17985491Y-9348579D01*
X17985491Y-9348579D02*
X17995015Y-9329531D01*
X17995015Y-9329531D02*
X18004539Y-9320008D01*
X18004539Y-9320008D02*
X18023586Y-9310484D01*
X18214063Y-9310484D02*
X18233110Y-9310484D01*
X18233110Y-9310484D02*
X18252158Y-9320008D01*
X18252158Y-9320008D02*
X18261682Y-9329531D01*
X18261682Y-9329531D02*
X18271205Y-9348579D01*
X18271205Y-9348579D02*
X18280729Y-9386674D01*
X18280729Y-9386674D02*
X18280729Y-9434293D01*
X18280729Y-9434293D02*
X18271205Y-9472389D01*
X18271205Y-9472389D02*
X18261682Y-9491436D01*
X18261682Y-9491436D02*
X18252158Y-9500960D01*
X18252158Y-9500960D02*
X18233110Y-9510484D01*
X18233110Y-9510484D02*
X18214063Y-9510484D01*
X18214063Y-9510484D02*
X18195015Y-9500960D01*
X18195015Y-9500960D02*
X18185491Y-9491436D01*
X18185491Y-9491436D02*
X18175967Y-9472389D01*
X18175967Y-9472389D02*
X18166444Y-9434293D01*
X18166444Y-9434293D02*
X18166444Y-9386674D01*
X18166444Y-9386674D02*
X18175967Y-9348579D01*
X18175967Y-9348579D02*
X18185491Y-9329531D01*
X18185491Y-9329531D02*
X18195015Y-9320008D01*
X18195015Y-9320008D02*
X18214063Y-9310484D01*
X18404539Y-9310484D02*
X18423586Y-9310484D01*
X18423586Y-9310484D02*
X18442634Y-9320008D01*
X18442634Y-9320008D02*
X18452158Y-9329531D01*
X18452158Y-9329531D02*
X18461682Y-9348579D01*
X18461682Y-9348579D02*
X18471205Y-9386674D01*
X18471205Y-9386674D02*
X18471205Y-9434293D01*
X18471205Y-9434293D02*
X18461682Y-9472389D01*
X18461682Y-9472389D02*
X18452158Y-9491436D01*
X18452158Y-9491436D02*
X18442634Y-9500960D01*
X18442634Y-9500960D02*
X18423586Y-9510484D01*
X18423586Y-9510484D02*
X18404539Y-9510484D01*
X18404539Y-9510484D02*
X18385491Y-9500960D01*
X18385491Y-9500960D02*
X18375967Y-9491436D01*
X18375967Y-9491436D02*
X18366444Y-9472389D01*
X18366444Y-9472389D02*
X18356920Y-9434293D01*
X18356920Y-9434293D02*
X18356920Y-9386674D01*
X18356920Y-9386674D02*
X18366444Y-9348579D01*
X18366444Y-9348579D02*
X18375967Y-9329531D01*
X18375967Y-9329531D02*
X18385491Y-9320008D01*
X18385491Y-9320008D02*
X18404539Y-9310484D01*
X18556920Y-9510484D02*
X18556920Y-9377150D01*
X18556920Y-9396198D02*
X18566444Y-9386674D01*
X18566444Y-9386674D02*
X18585491Y-9377150D01*
X18585491Y-9377150D02*
X18614063Y-9377150D01*
X18614063Y-9377150D02*
X18633110Y-9386674D01*
X18633110Y-9386674D02*
X18642634Y-9405722D01*
X18642634Y-9405722D02*
X18642634Y-9510484D01*
X18642634Y-9405722D02*
X18652158Y-9386674D01*
X18652158Y-9386674D02*
X18671205Y-9377150D01*
X18671205Y-9377150D02*
X18699777Y-9377150D01*
X18699777Y-9377150D02*
X18718825Y-9386674D01*
X18718825Y-9386674D02*
X18728348Y-9405722D01*
X18728348Y-9405722D02*
X18728348Y-9510484D01*
X18823586Y-9510484D02*
X18823586Y-9377150D01*
X18823586Y-9396198D02*
X18833110Y-9386674D01*
X18833110Y-9386674D02*
X18852158Y-9377150D01*
X18852158Y-9377150D02*
X18880729Y-9377150D01*
X18880729Y-9377150D02*
X18899777Y-9386674D01*
X18899777Y-9386674D02*
X18909301Y-9405722D01*
X18909301Y-9405722D02*
X18909301Y-9510484D01*
X18909301Y-9405722D02*
X18918825Y-9386674D01*
X18918825Y-9386674D02*
X18937872Y-9377150D01*
X18937872Y-9377150D02*
X18966444Y-9377150D01*
X18966444Y-9377150D02*
X18985491Y-9386674D01*
X18985491Y-9386674D02*
X18995015Y-9405722D01*
X18995015Y-9405722D02*
X18995015Y-9510484D01*
X19385491Y-9300960D02*
X19214063Y-9558103D01*
X19642634Y-9310484D02*
X19661682Y-9310484D01*
X19661682Y-9310484D02*
X19680729Y-9320008D01*
X19680729Y-9320008D02*
X19690253Y-9329531D01*
X19690253Y-9329531D02*
X19699777Y-9348579D01*
X19699777Y-9348579D02*
X19709301Y-9386674D01*
X19709301Y-9386674D02*
X19709301Y-9434293D01*
X19709301Y-9434293D02*
X19699777Y-9472389D01*
X19699777Y-9472389D02*
X19690253Y-9491436D01*
X19690253Y-9491436D02*
X19680729Y-9500960D01*
X19680729Y-9500960D02*
X19661682Y-9510484D01*
X19661682Y-9510484D02*
X19642634Y-9510484D01*
X19642634Y-9510484D02*
X19623587Y-9500960D01*
X19623587Y-9500960D02*
X19614063Y-9491436D01*
X19614063Y-9491436D02*
X19604539Y-9472389D01*
X19604539Y-9472389D02*
X19595015Y-9434293D01*
X19595015Y-9434293D02*
X19595015Y-9386674D01*
X19595015Y-9386674D02*
X19604539Y-9348579D01*
X19604539Y-9348579D02*
X19614063Y-9329531D01*
X19614063Y-9329531D02*
X19623587Y-9320008D01*
X19623587Y-9320008D02*
X19642634Y-9310484D01*
X19795015Y-9491436D02*
X19804539Y-9500960D01*
X19804539Y-9500960D02*
X19795015Y-9510484D01*
X19795015Y-9510484D02*
X19785491Y-9500960D01*
X19785491Y-9500960D02*
X19795015Y-9491436D01*
X19795015Y-9491436D02*
X19795015Y-9510484D01*
X19928348Y-9310484D02*
X19947396Y-9310484D01*
X19947396Y-9310484D02*
X19966444Y-9320008D01*
X19966444Y-9320008D02*
X19975968Y-9329531D01*
X19975968Y-9329531D02*
X19985491Y-9348579D01*
X19985491Y-9348579D02*
X19995015Y-9386674D01*
X19995015Y-9386674D02*
X19995015Y-9434293D01*
X19995015Y-9434293D02*
X19985491Y-9472389D01*
X19985491Y-9472389D02*
X19975968Y-9491436D01*
X19975968Y-9491436D02*
X19966444Y-9500960D01*
X19966444Y-9500960D02*
X19947396Y-9510484D01*
X19947396Y-9510484D02*
X19928348Y-9510484D01*
X19928348Y-9510484D02*
X19909301Y-9500960D01*
X19909301Y-9500960D02*
X19899777Y-9491436D01*
X19899777Y-9491436D02*
X19890253Y-9472389D01*
X19890253Y-9472389D02*
X19880729Y-9434293D01*
X19880729Y-9434293D02*
X19880729Y-9386674D01*
X19880729Y-9386674D02*
X19890253Y-9348579D01*
X19890253Y-9348579D02*
X19899777Y-9329531D01*
X19899777Y-9329531D02*
X19909301Y-9320008D01*
X19909301Y-9320008D02*
X19928348Y-9310484D01*
X20061682Y-9310484D02*
X20185491Y-9310484D01*
X20185491Y-9310484D02*
X20118825Y-9386674D01*
X20118825Y-9386674D02*
X20147396Y-9386674D01*
X20147396Y-9386674D02*
X20166444Y-9396198D01*
X20166444Y-9396198D02*
X20175968Y-9405722D01*
X20175968Y-9405722D02*
X20185491Y-9424770D01*
X20185491Y-9424770D02*
X20185491Y-9472389D01*
X20185491Y-9472389D02*
X20175968Y-9491436D01*
X20175968Y-9491436D02*
X20166444Y-9500960D01*
X20166444Y-9500960D02*
X20147396Y-9510484D01*
X20147396Y-9510484D02*
X20090253Y-9510484D01*
X20090253Y-9510484D02*
X20071206Y-9500960D01*
X20071206Y-9500960D02*
X20061682Y-9491436D01*
X20280729Y-9510484D02*
X20318825Y-9510484D01*
X20318825Y-9510484D02*
X20337872Y-9500960D01*
X20337872Y-9500960D02*
X20347396Y-9491436D01*
X20347396Y-9491436D02*
X20366444Y-9462865D01*
X20366444Y-9462865D02*
X20375968Y-9424770D01*
X20375968Y-9424770D02*
X20375968Y-9348579D01*
X20375968Y-9348579D02*
X20366444Y-9329531D01*
X20366444Y-9329531D02*
X20356920Y-9320008D01*
X20356920Y-9320008D02*
X20337872Y-9310484D01*
X20337872Y-9310484D02*
X20299777Y-9310484D01*
X20299777Y-9310484D02*
X20280729Y-9320008D01*
X20280729Y-9320008D02*
X20271206Y-9329531D01*
X20271206Y-9329531D02*
X20261682Y-9348579D01*
X20261682Y-9348579D02*
X20261682Y-9396198D01*
X20261682Y-9396198D02*
X20271206Y-9415246D01*
X20271206Y-9415246D02*
X20280729Y-9424770D01*
X20280729Y-9424770D02*
X20299777Y-9434293D01*
X20299777Y-9434293D02*
X20337872Y-9434293D01*
X20337872Y-9434293D02*
X20356920Y-9424770D01*
X20356920Y-9424770D02*
X20366444Y-9415246D01*
X20366444Y-9415246D02*
X20375968Y-9396198D01*
X20547396Y-9377150D02*
X20547396Y-9510484D01*
X20499777Y-9300960D02*
X20452158Y-9443817D01*
X20452158Y-9443817D02*
X20575968Y-9443817D01*
X20642634Y-9310484D02*
X20642634Y-9348579D01*
X20718825Y-9310484D02*
X20718825Y-9348579D01*
X21014063Y-9586674D02*
X21004539Y-9577150D01*
X21004539Y-9577150D02*
X20985491Y-9548579D01*
X20985491Y-9548579D02*
X20975968Y-9529531D01*
X20975968Y-9529531D02*
X20966444Y-9500960D01*
X20966444Y-9500960D02*
X20956920Y-9453341D01*
X20956920Y-9453341D02*
X20956920Y-9415246D01*
X20956920Y-9415246D02*
X20966444Y-9367627D01*
X20966444Y-9367627D02*
X20975968Y-9339055D01*
X20975968Y-9339055D02*
X20985491Y-9320008D01*
X20985491Y-9320008D02*
X21004539Y-9291436D01*
X21004539Y-9291436D02*
X21014063Y-9281912D01*
X21195015Y-9510484D02*
X21080730Y-9510484D01*
X21137872Y-9510484D02*
X21137872Y-9310484D01*
X21137872Y-9310484D02*
X21118825Y-9339055D01*
X21118825Y-9339055D02*
X21099777Y-9358103D01*
X21099777Y-9358103D02*
X21080730Y-9367627D01*
X21318825Y-9310484D02*
X21337872Y-9310484D01*
X21337872Y-9310484D02*
X21356920Y-9320008D01*
X21356920Y-9320008D02*
X21366444Y-9329531D01*
X21366444Y-9329531D02*
X21375968Y-9348579D01*
X21375968Y-9348579D02*
X21385491Y-9386674D01*
X21385491Y-9386674D02*
X21385491Y-9434293D01*
X21385491Y-9434293D02*
X21375968Y-9472389D01*
X21375968Y-9472389D02*
X21366444Y-9491436D01*
X21366444Y-9491436D02*
X21356920Y-9500960D01*
X21356920Y-9500960D02*
X21337872Y-9510484D01*
X21337872Y-9510484D02*
X21318825Y-9510484D01*
X21318825Y-9510484D02*
X21299777Y-9500960D01*
X21299777Y-9500960D02*
X21290253Y-9491436D01*
X21290253Y-9491436D02*
X21280730Y-9472389D01*
X21280730Y-9472389D02*
X21271206Y-9434293D01*
X21271206Y-9434293D02*
X21271206Y-9386674D01*
X21271206Y-9386674D02*
X21280730Y-9348579D01*
X21280730Y-9348579D02*
X21290253Y-9329531D01*
X21290253Y-9329531D02*
X21299777Y-9320008D01*
X21299777Y-9320008D02*
X21318825Y-9310484D01*
X21623587Y-9510484D02*
X21623587Y-9310484D01*
X21709301Y-9510484D02*
X21709301Y-9405722D01*
X21709301Y-9405722D02*
X21699777Y-9386674D01*
X21699777Y-9386674D02*
X21680730Y-9377150D01*
X21680730Y-9377150D02*
X21652158Y-9377150D01*
X21652158Y-9377150D02*
X21633111Y-9386674D01*
X21633111Y-9386674D02*
X21623587Y-9396198D01*
X21833111Y-9510484D02*
X21814063Y-9500960D01*
X21814063Y-9500960D02*
X21804539Y-9491436D01*
X21804539Y-9491436D02*
X21795015Y-9472389D01*
X21795015Y-9472389D02*
X21795015Y-9415246D01*
X21795015Y-9415246D02*
X21804539Y-9396198D01*
X21804539Y-9396198D02*
X21814063Y-9386674D01*
X21814063Y-9386674D02*
X21833111Y-9377150D01*
X21833111Y-9377150D02*
X21861682Y-9377150D01*
X21861682Y-9377150D02*
X21880730Y-9386674D01*
X21880730Y-9386674D02*
X21890253Y-9396198D01*
X21890253Y-9396198D02*
X21899777Y-9415246D01*
X21899777Y-9415246D02*
X21899777Y-9472389D01*
X21899777Y-9472389D02*
X21890253Y-9491436D01*
X21890253Y-9491436D02*
X21880730Y-9500960D01*
X21880730Y-9500960D02*
X21861682Y-9510484D01*
X21861682Y-9510484D02*
X21833111Y-9510484D01*
X22014063Y-9510484D02*
X21995015Y-9500960D01*
X21995015Y-9500960D02*
X21985492Y-9481912D01*
X21985492Y-9481912D02*
X21985492Y-9310484D01*
X22166444Y-9500960D02*
X22147396Y-9510484D01*
X22147396Y-9510484D02*
X22109301Y-9510484D01*
X22109301Y-9510484D02*
X22090253Y-9500960D01*
X22090253Y-9500960D02*
X22080730Y-9481912D01*
X22080730Y-9481912D02*
X22080730Y-9405722D01*
X22080730Y-9405722D02*
X22090253Y-9386674D01*
X22090253Y-9386674D02*
X22109301Y-9377150D01*
X22109301Y-9377150D02*
X22147396Y-9377150D01*
X22147396Y-9377150D02*
X22166444Y-9386674D01*
X22166444Y-9386674D02*
X22175968Y-9405722D01*
X22175968Y-9405722D02*
X22175968Y-9424770D01*
X22175968Y-9424770D02*
X22080730Y-9443817D01*
X22252158Y-9500960D02*
X22271206Y-9510484D01*
X22271206Y-9510484D02*
X22309301Y-9510484D01*
X22309301Y-9510484D02*
X22328349Y-9500960D01*
X22328349Y-9500960D02*
X22337873Y-9481912D01*
X22337873Y-9481912D02*
X22337873Y-9472389D01*
X22337873Y-9472389D02*
X22328349Y-9453341D01*
X22328349Y-9453341D02*
X22309301Y-9443817D01*
X22309301Y-9443817D02*
X22280730Y-9443817D01*
X22280730Y-9443817D02*
X22261682Y-9434293D01*
X22261682Y-9434293D02*
X22252158Y-9415246D01*
X22252158Y-9415246D02*
X22252158Y-9405722D01*
X22252158Y-9405722D02*
X22261682Y-9386674D01*
X22261682Y-9386674D02*
X22280730Y-9377150D01*
X22280730Y-9377150D02*
X22309301Y-9377150D01*
X22309301Y-9377150D02*
X22328349Y-9386674D01*
X22404539Y-9586674D02*
X22414063Y-9577150D01*
X22414063Y-9577150D02*
X22433111Y-9548579D01*
X22433111Y-9548579D02*
X22442634Y-9529531D01*
X22442634Y-9529531D02*
X22452158Y-9500960D01*
X22452158Y-9500960D02*
X22461682Y-9453341D01*
X22461682Y-9453341D02*
X22461682Y-9415246D01*
X22461682Y-9415246D02*
X22452158Y-9367627D01*
X22452158Y-9367627D02*
X22442634Y-9339055D01*
X22442634Y-9339055D02*
X22433111Y-9320008D01*
X22433111Y-9320008D02*
X22414063Y-9291436D01*
X22414063Y-9291436D02*
X22404539Y-9281912D01*
X17339000Y-9583000D02*
X17339000Y-9783000D01*
X17239000Y-9683000D02*
X17439000Y-9683000D01*
X17690253Y-9593531D02*
X17699777Y-9584008D01*
X17699777Y-9584008D02*
X17718824Y-9574484D01*
X17718824Y-9574484D02*
X17766444Y-9574484D01*
X17766444Y-9574484D02*
X17785491Y-9584008D01*
X17785491Y-9584008D02*
X17795015Y-9593531D01*
X17795015Y-9593531D02*
X17804539Y-9612579D01*
X17804539Y-9612579D02*
X17804539Y-9631627D01*
X17804539Y-9631627D02*
X17795015Y-9660198D01*
X17795015Y-9660198D02*
X17680729Y-9774484D01*
X17680729Y-9774484D02*
X17804539Y-9774484D01*
X17890253Y-9755436D02*
X17899777Y-9764960D01*
X17899777Y-9764960D02*
X17890253Y-9774484D01*
X17890253Y-9774484D02*
X17880729Y-9764960D01*
X17880729Y-9764960D02*
X17890253Y-9755436D01*
X17890253Y-9755436D02*
X17890253Y-9774484D01*
X17975967Y-9593531D02*
X17985491Y-9584008D01*
X17985491Y-9584008D02*
X18004539Y-9574484D01*
X18004539Y-9574484D02*
X18052158Y-9574484D01*
X18052158Y-9574484D02*
X18071205Y-9584008D01*
X18071205Y-9584008D02*
X18080729Y-9593531D01*
X18080729Y-9593531D02*
X18090253Y-9612579D01*
X18090253Y-9612579D02*
X18090253Y-9631627D01*
X18090253Y-9631627D02*
X18080729Y-9660198D01*
X18080729Y-9660198D02*
X17966444Y-9774484D01*
X17966444Y-9774484D02*
X18090253Y-9774484D01*
X18214063Y-9574484D02*
X18233110Y-9574484D01*
X18233110Y-9574484D02*
X18252158Y-9584008D01*
X18252158Y-9584008D02*
X18261682Y-9593531D01*
X18261682Y-9593531D02*
X18271205Y-9612579D01*
X18271205Y-9612579D02*
X18280729Y-9650674D01*
X18280729Y-9650674D02*
X18280729Y-9698293D01*
X18280729Y-9698293D02*
X18271205Y-9736389D01*
X18271205Y-9736389D02*
X18261682Y-9755436D01*
X18261682Y-9755436D02*
X18252158Y-9764960D01*
X18252158Y-9764960D02*
X18233110Y-9774484D01*
X18233110Y-9774484D02*
X18214063Y-9774484D01*
X18214063Y-9774484D02*
X18195015Y-9764960D01*
X18195015Y-9764960D02*
X18185491Y-9755436D01*
X18185491Y-9755436D02*
X18175967Y-9736389D01*
X18175967Y-9736389D02*
X18166444Y-9698293D01*
X18166444Y-9698293D02*
X18166444Y-9650674D01*
X18166444Y-9650674D02*
X18175967Y-9612579D01*
X18175967Y-9612579D02*
X18185491Y-9593531D01*
X18185491Y-9593531D02*
X18195015Y-9584008D01*
X18195015Y-9584008D02*
X18214063Y-9574484D01*
X18404539Y-9574484D02*
X18423586Y-9574484D01*
X18423586Y-9574484D02*
X18442634Y-9584008D01*
X18442634Y-9584008D02*
X18452158Y-9593531D01*
X18452158Y-9593531D02*
X18461682Y-9612579D01*
X18461682Y-9612579D02*
X18471205Y-9650674D01*
X18471205Y-9650674D02*
X18471205Y-9698293D01*
X18471205Y-9698293D02*
X18461682Y-9736389D01*
X18461682Y-9736389D02*
X18452158Y-9755436D01*
X18452158Y-9755436D02*
X18442634Y-9764960D01*
X18442634Y-9764960D02*
X18423586Y-9774484D01*
X18423586Y-9774484D02*
X18404539Y-9774484D01*
X18404539Y-9774484D02*
X18385491Y-9764960D01*
X18385491Y-9764960D02*
X18375967Y-9755436D01*
X18375967Y-9755436D02*
X18366444Y-9736389D01*
X18366444Y-9736389D02*
X18356920Y-9698293D01*
X18356920Y-9698293D02*
X18356920Y-9650674D01*
X18356920Y-9650674D02*
X18366444Y-9612579D01*
X18366444Y-9612579D02*
X18375967Y-9593531D01*
X18375967Y-9593531D02*
X18385491Y-9584008D01*
X18385491Y-9584008D02*
X18404539Y-9574484D01*
X18556920Y-9774484D02*
X18556920Y-9641150D01*
X18556920Y-9660198D02*
X18566444Y-9650674D01*
X18566444Y-9650674D02*
X18585491Y-9641150D01*
X18585491Y-9641150D02*
X18614063Y-9641150D01*
X18614063Y-9641150D02*
X18633110Y-9650674D01*
X18633110Y-9650674D02*
X18642634Y-9669722D01*
X18642634Y-9669722D02*
X18642634Y-9774484D01*
X18642634Y-9669722D02*
X18652158Y-9650674D01*
X18652158Y-9650674D02*
X18671205Y-9641150D01*
X18671205Y-9641150D02*
X18699777Y-9641150D01*
X18699777Y-9641150D02*
X18718825Y-9650674D01*
X18718825Y-9650674D02*
X18728348Y-9669722D01*
X18728348Y-9669722D02*
X18728348Y-9774484D01*
X18823586Y-9774484D02*
X18823586Y-9641150D01*
X18823586Y-9660198D02*
X18833110Y-9650674D01*
X18833110Y-9650674D02*
X18852158Y-9641150D01*
X18852158Y-9641150D02*
X18880729Y-9641150D01*
X18880729Y-9641150D02*
X18899777Y-9650674D01*
X18899777Y-9650674D02*
X18909301Y-9669722D01*
X18909301Y-9669722D02*
X18909301Y-9774484D01*
X18909301Y-9669722D02*
X18918825Y-9650674D01*
X18918825Y-9650674D02*
X18937872Y-9641150D01*
X18937872Y-9641150D02*
X18966444Y-9641150D01*
X18966444Y-9641150D02*
X18985491Y-9650674D01*
X18985491Y-9650674D02*
X18995015Y-9669722D01*
X18995015Y-9669722D02*
X18995015Y-9774484D01*
X19385491Y-9564960D02*
X19214063Y-9822103D01*
X19642634Y-9574484D02*
X19661682Y-9574484D01*
X19661682Y-9574484D02*
X19680729Y-9584008D01*
X19680729Y-9584008D02*
X19690253Y-9593531D01*
X19690253Y-9593531D02*
X19699777Y-9612579D01*
X19699777Y-9612579D02*
X19709301Y-9650674D01*
X19709301Y-9650674D02*
X19709301Y-9698293D01*
X19709301Y-9698293D02*
X19699777Y-9736389D01*
X19699777Y-9736389D02*
X19690253Y-9755436D01*
X19690253Y-9755436D02*
X19680729Y-9764960D01*
X19680729Y-9764960D02*
X19661682Y-9774484D01*
X19661682Y-9774484D02*
X19642634Y-9774484D01*
X19642634Y-9774484D02*
X19623587Y-9764960D01*
X19623587Y-9764960D02*
X19614063Y-9755436D01*
X19614063Y-9755436D02*
X19604539Y-9736389D01*
X19604539Y-9736389D02*
X19595015Y-9698293D01*
X19595015Y-9698293D02*
X19595015Y-9650674D01*
X19595015Y-9650674D02*
X19604539Y-9612579D01*
X19604539Y-9612579D02*
X19614063Y-9593531D01*
X19614063Y-9593531D02*
X19623587Y-9584008D01*
X19623587Y-9584008D02*
X19642634Y-9574484D01*
X19795015Y-9755436D02*
X19804539Y-9764960D01*
X19804539Y-9764960D02*
X19795015Y-9774484D01*
X19795015Y-9774484D02*
X19785491Y-9764960D01*
X19785491Y-9764960D02*
X19795015Y-9755436D01*
X19795015Y-9755436D02*
X19795015Y-9774484D01*
X19928348Y-9574484D02*
X19947396Y-9574484D01*
X19947396Y-9574484D02*
X19966444Y-9584008D01*
X19966444Y-9584008D02*
X19975968Y-9593531D01*
X19975968Y-9593531D02*
X19985491Y-9612579D01*
X19985491Y-9612579D02*
X19995015Y-9650674D01*
X19995015Y-9650674D02*
X19995015Y-9698293D01*
X19995015Y-9698293D02*
X19985491Y-9736389D01*
X19985491Y-9736389D02*
X19975968Y-9755436D01*
X19975968Y-9755436D02*
X19966444Y-9764960D01*
X19966444Y-9764960D02*
X19947396Y-9774484D01*
X19947396Y-9774484D02*
X19928348Y-9774484D01*
X19928348Y-9774484D02*
X19909301Y-9764960D01*
X19909301Y-9764960D02*
X19899777Y-9755436D01*
X19899777Y-9755436D02*
X19890253Y-9736389D01*
X19890253Y-9736389D02*
X19880729Y-9698293D01*
X19880729Y-9698293D02*
X19880729Y-9650674D01*
X19880729Y-9650674D02*
X19890253Y-9612579D01*
X19890253Y-9612579D02*
X19899777Y-9593531D01*
X19899777Y-9593531D02*
X19909301Y-9584008D01*
X19909301Y-9584008D02*
X19928348Y-9574484D01*
X20109301Y-9660198D02*
X20090253Y-9650674D01*
X20090253Y-9650674D02*
X20080729Y-9641150D01*
X20080729Y-9641150D02*
X20071206Y-9622103D01*
X20071206Y-9622103D02*
X20071206Y-9612579D01*
X20071206Y-9612579D02*
X20080729Y-9593531D01*
X20080729Y-9593531D02*
X20090253Y-9584008D01*
X20090253Y-9584008D02*
X20109301Y-9574484D01*
X20109301Y-9574484D02*
X20147396Y-9574484D01*
X20147396Y-9574484D02*
X20166444Y-9584008D01*
X20166444Y-9584008D02*
X20175968Y-9593531D01*
X20175968Y-9593531D02*
X20185491Y-9612579D01*
X20185491Y-9612579D02*
X20185491Y-9622103D01*
X20185491Y-9622103D02*
X20175968Y-9641150D01*
X20175968Y-9641150D02*
X20166444Y-9650674D01*
X20166444Y-9650674D02*
X20147396Y-9660198D01*
X20147396Y-9660198D02*
X20109301Y-9660198D01*
X20109301Y-9660198D02*
X20090253Y-9669722D01*
X20090253Y-9669722D02*
X20080729Y-9679246D01*
X20080729Y-9679246D02*
X20071206Y-9698293D01*
X20071206Y-9698293D02*
X20071206Y-9736389D01*
X20071206Y-9736389D02*
X20080729Y-9755436D01*
X20080729Y-9755436D02*
X20090253Y-9764960D01*
X20090253Y-9764960D02*
X20109301Y-9774484D01*
X20109301Y-9774484D02*
X20147396Y-9774484D01*
X20147396Y-9774484D02*
X20166444Y-9764960D01*
X20166444Y-9764960D02*
X20175968Y-9755436D01*
X20175968Y-9755436D02*
X20185491Y-9736389D01*
X20185491Y-9736389D02*
X20185491Y-9698293D01*
X20185491Y-9698293D02*
X20175968Y-9679246D01*
X20175968Y-9679246D02*
X20166444Y-9669722D01*
X20166444Y-9669722D02*
X20147396Y-9660198D01*
X20356920Y-9574484D02*
X20318825Y-9574484D01*
X20318825Y-9574484D02*
X20299777Y-9584008D01*
X20299777Y-9584008D02*
X20290253Y-9593531D01*
X20290253Y-9593531D02*
X20271206Y-9622103D01*
X20271206Y-9622103D02*
X20261682Y-9660198D01*
X20261682Y-9660198D02*
X20261682Y-9736389D01*
X20261682Y-9736389D02*
X20271206Y-9755436D01*
X20271206Y-9755436D02*
X20280729Y-9764960D01*
X20280729Y-9764960D02*
X20299777Y-9774484D01*
X20299777Y-9774484D02*
X20337872Y-9774484D01*
X20337872Y-9774484D02*
X20356920Y-9764960D01*
X20356920Y-9764960D02*
X20366444Y-9755436D01*
X20366444Y-9755436D02*
X20375968Y-9736389D01*
X20375968Y-9736389D02*
X20375968Y-9688770D01*
X20375968Y-9688770D02*
X20366444Y-9669722D01*
X20366444Y-9669722D02*
X20356920Y-9660198D01*
X20356920Y-9660198D02*
X20337872Y-9650674D01*
X20337872Y-9650674D02*
X20299777Y-9650674D01*
X20299777Y-9650674D02*
X20280729Y-9660198D01*
X20280729Y-9660198D02*
X20271206Y-9669722D01*
X20271206Y-9669722D02*
X20261682Y-9688770D01*
X20547396Y-9574484D02*
X20509301Y-9574484D01*
X20509301Y-9574484D02*
X20490253Y-9584008D01*
X20490253Y-9584008D02*
X20480729Y-9593531D01*
X20480729Y-9593531D02*
X20461682Y-9622103D01*
X20461682Y-9622103D02*
X20452158Y-9660198D01*
X20452158Y-9660198D02*
X20452158Y-9736389D01*
X20452158Y-9736389D02*
X20461682Y-9755436D01*
X20461682Y-9755436D02*
X20471206Y-9764960D01*
X20471206Y-9764960D02*
X20490253Y-9774484D01*
X20490253Y-9774484D02*
X20528349Y-9774484D01*
X20528349Y-9774484D02*
X20547396Y-9764960D01*
X20547396Y-9764960D02*
X20556920Y-9755436D01*
X20556920Y-9755436D02*
X20566444Y-9736389D01*
X20566444Y-9736389D02*
X20566444Y-9688770D01*
X20566444Y-9688770D02*
X20556920Y-9669722D01*
X20556920Y-9669722D02*
X20547396Y-9660198D01*
X20547396Y-9660198D02*
X20528349Y-9650674D01*
X20528349Y-9650674D02*
X20490253Y-9650674D01*
X20490253Y-9650674D02*
X20471206Y-9660198D01*
X20471206Y-9660198D02*
X20461682Y-9669722D01*
X20461682Y-9669722D02*
X20452158Y-9688770D01*
X20642634Y-9574484D02*
X20642634Y-9612579D01*
X20718825Y-9574484D02*
X20718825Y-9612579D01*
X21014063Y-9850674D02*
X21004539Y-9841150D01*
X21004539Y-9841150D02*
X20985491Y-9812579D01*
X20985491Y-9812579D02*
X20975968Y-9793531D01*
X20975968Y-9793531D02*
X20966444Y-9764960D01*
X20966444Y-9764960D02*
X20956920Y-9717341D01*
X20956920Y-9717341D02*
X20956920Y-9679246D01*
X20956920Y-9679246D02*
X20966444Y-9631627D01*
X20966444Y-9631627D02*
X20975968Y-9603055D01*
X20975968Y-9603055D02*
X20985491Y-9584008D01*
X20985491Y-9584008D02*
X21004539Y-9555436D01*
X21004539Y-9555436D02*
X21014063Y-9545912D01*
X21195015Y-9774484D02*
X21080730Y-9774484D01*
X21137872Y-9774484D02*
X21137872Y-9574484D01*
X21137872Y-9574484D02*
X21118825Y-9603055D01*
X21118825Y-9603055D02*
X21099777Y-9622103D01*
X21099777Y-9622103D02*
X21080730Y-9631627D01*
X21433111Y-9774484D02*
X21433111Y-9574484D01*
X21518825Y-9774484D02*
X21518825Y-9669722D01*
X21518825Y-9669722D02*
X21509301Y-9650674D01*
X21509301Y-9650674D02*
X21490253Y-9641150D01*
X21490253Y-9641150D02*
X21461682Y-9641150D01*
X21461682Y-9641150D02*
X21442634Y-9650674D01*
X21442634Y-9650674D02*
X21433111Y-9660198D01*
X21642634Y-9774484D02*
X21623587Y-9764960D01*
X21623587Y-9764960D02*
X21614063Y-9755436D01*
X21614063Y-9755436D02*
X21604539Y-9736389D01*
X21604539Y-9736389D02*
X21604539Y-9679246D01*
X21604539Y-9679246D02*
X21614063Y-9660198D01*
X21614063Y-9660198D02*
X21623587Y-9650674D01*
X21623587Y-9650674D02*
X21642634Y-9641150D01*
X21642634Y-9641150D02*
X21671206Y-9641150D01*
X21671206Y-9641150D02*
X21690253Y-9650674D01*
X21690253Y-9650674D02*
X21699777Y-9660198D01*
X21699777Y-9660198D02*
X21709301Y-9679246D01*
X21709301Y-9679246D02*
X21709301Y-9736389D01*
X21709301Y-9736389D02*
X21699777Y-9755436D01*
X21699777Y-9755436D02*
X21690253Y-9764960D01*
X21690253Y-9764960D02*
X21671206Y-9774484D01*
X21671206Y-9774484D02*
X21642634Y-9774484D01*
X21823587Y-9774484D02*
X21804539Y-9764960D01*
X21804539Y-9764960D02*
X21795015Y-9745912D01*
X21795015Y-9745912D02*
X21795015Y-9574484D01*
X21975968Y-9764960D02*
X21956920Y-9774484D01*
X21956920Y-9774484D02*
X21918825Y-9774484D01*
X21918825Y-9774484D02*
X21899777Y-9764960D01*
X21899777Y-9764960D02*
X21890253Y-9745912D01*
X21890253Y-9745912D02*
X21890253Y-9669722D01*
X21890253Y-9669722D02*
X21899777Y-9650674D01*
X21899777Y-9650674D02*
X21918825Y-9641150D01*
X21918825Y-9641150D02*
X21956920Y-9641150D01*
X21956920Y-9641150D02*
X21975968Y-9650674D01*
X21975968Y-9650674D02*
X21985492Y-9669722D01*
X21985492Y-9669722D02*
X21985492Y-9688770D01*
X21985492Y-9688770D02*
X21890253Y-9707817D01*
X22052158Y-9850674D02*
X22061682Y-9841150D01*
X22061682Y-9841150D02*
X22080730Y-9812579D01*
X22080730Y-9812579D02*
X22090253Y-9793531D01*
X22090253Y-9793531D02*
X22099777Y-9764960D01*
X22099777Y-9764960D02*
X22109301Y-9717341D01*
X22109301Y-9717341D02*
X22109301Y-9679246D01*
X22109301Y-9679246D02*
X22099777Y-9631627D01*
X22099777Y-9631627D02*
X22090253Y-9603055D01*
X22090253Y-9603055D02*
X22080730Y-9584008D01*
X22080730Y-9584008D02*
X22061682Y-9555436D01*
X22061682Y-9555436D02*
X22052158Y-9545912D01*
M02*
