%TF.GenerationSoftware,KiCad,Pcbnew,8.0.6*%
%TF.CreationDate,2024-12-07T20:30:03+01:00*%
%TF.ProjectId,circular PCB,63697263-756c-4617-9220-5043422e6b69,rev?*%
%TF.SameCoordinates,Original*%
%TF.FileFunction,Legend,Bot*%
%TF.FilePolarity,Positive*%
%FSLAX46Y46*%
G04 Gerber Fmt 4.6, Leading zero omitted, Abs format (unit mm)*
G04 Created by KiCad (PCBNEW 8.0.6) date 2024-12-07 20:30:03*
%MOMM*%
%LPD*%
G01*
G04 APERTURE LIST*
%ADD10C,0.100000*%
%ADD11C,0.010000*%
%ADD12C,0.400000*%
%ADD13C,0.000000*%
G04 APERTURE END LIST*
D10*
X198763104Y-73643734D02*
X199563104Y-73643734D01*
X199563104Y-73643734D02*
X199563104Y-73338972D01*
X199563104Y-73338972D02*
X199525009Y-73262782D01*
X199525009Y-73262782D02*
X199486914Y-73224687D01*
X199486914Y-73224687D02*
X199410723Y-73186591D01*
X199410723Y-73186591D02*
X199296438Y-73186591D01*
X199296438Y-73186591D02*
X199220247Y-73224687D01*
X199220247Y-73224687D02*
X199182152Y-73262782D01*
X199182152Y-73262782D02*
X199144057Y-73338972D01*
X199144057Y-73338972D02*
X199144057Y-73643734D01*
X199563104Y-72919925D02*
X198763104Y-72729449D01*
X198763104Y-72729449D02*
X199334533Y-72577068D01*
X199334533Y-72577068D02*
X198763104Y-72424687D01*
X198763104Y-72424687D02*
X199563104Y-72234211D01*
X198763104Y-71929448D02*
X199563104Y-71929448D01*
X199563104Y-71929448D02*
X198991676Y-71662782D01*
X198991676Y-71662782D02*
X199563104Y-71396115D01*
X199563104Y-71396115D02*
X198763104Y-71396115D01*
X200153104Y-63623734D02*
X200953104Y-63623734D01*
X200953104Y-63623734D02*
X200953104Y-63318972D01*
X200953104Y-63318972D02*
X200915009Y-63242782D01*
X200915009Y-63242782D02*
X200876914Y-63204687D01*
X200876914Y-63204687D02*
X200800723Y-63166591D01*
X200800723Y-63166591D02*
X200686438Y-63166591D01*
X200686438Y-63166591D02*
X200610247Y-63204687D01*
X200610247Y-63204687D02*
X200572152Y-63242782D01*
X200572152Y-63242782D02*
X200534057Y-63318972D01*
X200534057Y-63318972D02*
X200534057Y-63623734D01*
X200953104Y-62899925D02*
X200153104Y-62709449D01*
X200153104Y-62709449D02*
X200724533Y-62557068D01*
X200724533Y-62557068D02*
X200153104Y-62404687D01*
X200153104Y-62404687D02*
X200953104Y-62214211D01*
X200153104Y-61909448D02*
X200953104Y-61909448D01*
X200953104Y-61909448D02*
X200381676Y-61642782D01*
X200381676Y-61642782D02*
X200953104Y-61376115D01*
X200953104Y-61376115D02*
X200153104Y-61376115D01*
X198803104Y-60613734D02*
X199603104Y-60613734D01*
X199603104Y-60613734D02*
X199603104Y-60308972D01*
X199603104Y-60308972D02*
X199565009Y-60232782D01*
X199565009Y-60232782D02*
X199526914Y-60194687D01*
X199526914Y-60194687D02*
X199450723Y-60156591D01*
X199450723Y-60156591D02*
X199336438Y-60156591D01*
X199336438Y-60156591D02*
X199260247Y-60194687D01*
X199260247Y-60194687D02*
X199222152Y-60232782D01*
X199222152Y-60232782D02*
X199184057Y-60308972D01*
X199184057Y-60308972D02*
X199184057Y-60613734D01*
X199603104Y-59889925D02*
X198803104Y-59699449D01*
X198803104Y-59699449D02*
X199374533Y-59547068D01*
X199374533Y-59547068D02*
X198803104Y-59394687D01*
X198803104Y-59394687D02*
X199603104Y-59204211D01*
X198803104Y-58899448D02*
X199603104Y-58899448D01*
X199603104Y-58899448D02*
X199031676Y-58632782D01*
X199031676Y-58632782D02*
X199603104Y-58366115D01*
X199603104Y-58366115D02*
X198803104Y-58366115D01*
X201393104Y-73343734D02*
X202193104Y-73343734D01*
X202193104Y-73343734D02*
X202193104Y-73038972D01*
X202193104Y-73038972D02*
X202155009Y-72962782D01*
X202155009Y-72962782D02*
X202116914Y-72924687D01*
X202116914Y-72924687D02*
X202040723Y-72886591D01*
X202040723Y-72886591D02*
X201926438Y-72886591D01*
X201926438Y-72886591D02*
X201850247Y-72924687D01*
X201850247Y-72924687D02*
X201812152Y-72962782D01*
X201812152Y-72962782D02*
X201774057Y-73038972D01*
X201774057Y-73038972D02*
X201774057Y-73343734D01*
X201926438Y-72200877D02*
X201393104Y-72200877D01*
X202231200Y-72391353D02*
X201659771Y-72581830D01*
X201659771Y-72581830D02*
X201659771Y-72086591D01*
X201513104Y-65563734D02*
X202313104Y-65563734D01*
X202313104Y-65563734D02*
X202313104Y-65258972D01*
X202313104Y-65258972D02*
X202275009Y-65182782D01*
X202275009Y-65182782D02*
X202236914Y-65144687D01*
X202236914Y-65144687D02*
X202160723Y-65106591D01*
X202160723Y-65106591D02*
X202046438Y-65106591D01*
X202046438Y-65106591D02*
X201970247Y-65144687D01*
X201970247Y-65144687D02*
X201932152Y-65182782D01*
X201932152Y-65182782D02*
X201894057Y-65258972D01*
X201894057Y-65258972D02*
X201894057Y-65563734D01*
X202236914Y-64801830D02*
X202275009Y-64763734D01*
X202275009Y-64763734D02*
X202313104Y-64687544D01*
X202313104Y-64687544D02*
X202313104Y-64497068D01*
X202313104Y-64497068D02*
X202275009Y-64420877D01*
X202275009Y-64420877D02*
X202236914Y-64382782D01*
X202236914Y-64382782D02*
X202160723Y-64344687D01*
X202160723Y-64344687D02*
X202084533Y-64344687D01*
X202084533Y-64344687D02*
X201970247Y-64382782D01*
X201970247Y-64382782D02*
X201513104Y-64839925D01*
X201513104Y-64839925D02*
X201513104Y-64344687D01*
X200933104Y-73603734D02*
X200285485Y-73603734D01*
X200285485Y-73603734D02*
X200209295Y-73565639D01*
X200209295Y-73565639D02*
X200171200Y-73527544D01*
X200171200Y-73527544D02*
X200133104Y-73451353D01*
X200133104Y-73451353D02*
X200133104Y-73298972D01*
X200133104Y-73298972D02*
X200171200Y-73222782D01*
X200171200Y-73222782D02*
X200209295Y-73184687D01*
X200209295Y-73184687D02*
X200285485Y-73146591D01*
X200285485Y-73146591D02*
X200933104Y-73146591D01*
X200171200Y-72803735D02*
X200133104Y-72689449D01*
X200133104Y-72689449D02*
X200133104Y-72498973D01*
X200133104Y-72498973D02*
X200171200Y-72422782D01*
X200171200Y-72422782D02*
X200209295Y-72384687D01*
X200209295Y-72384687D02*
X200285485Y-72346592D01*
X200285485Y-72346592D02*
X200361676Y-72346592D01*
X200361676Y-72346592D02*
X200437866Y-72384687D01*
X200437866Y-72384687D02*
X200475961Y-72422782D01*
X200475961Y-72422782D02*
X200514057Y-72498973D01*
X200514057Y-72498973D02*
X200552152Y-72651354D01*
X200552152Y-72651354D02*
X200590247Y-72727544D01*
X200590247Y-72727544D02*
X200628342Y-72765639D01*
X200628342Y-72765639D02*
X200704533Y-72803735D01*
X200704533Y-72803735D02*
X200780723Y-72803735D01*
X200780723Y-72803735D02*
X200856914Y-72765639D01*
X200856914Y-72765639D02*
X200895009Y-72727544D01*
X200895009Y-72727544D02*
X200933104Y-72651354D01*
X200933104Y-72651354D02*
X200933104Y-72460877D01*
X200933104Y-72460877D02*
X200895009Y-72346592D01*
X200552152Y-71737068D02*
X200514057Y-71622782D01*
X200514057Y-71622782D02*
X200475961Y-71584687D01*
X200475961Y-71584687D02*
X200399771Y-71546591D01*
X200399771Y-71546591D02*
X200285485Y-71546591D01*
X200285485Y-71546591D02*
X200209295Y-71584687D01*
X200209295Y-71584687D02*
X200171200Y-71622782D01*
X200171200Y-71622782D02*
X200133104Y-71698972D01*
X200133104Y-71698972D02*
X200133104Y-72003734D01*
X200133104Y-72003734D02*
X200933104Y-72003734D01*
X200933104Y-72003734D02*
X200933104Y-71737068D01*
X200933104Y-71737068D02*
X200895009Y-71660877D01*
X200895009Y-71660877D02*
X200856914Y-71622782D01*
X200856914Y-71622782D02*
X200780723Y-71584687D01*
X200780723Y-71584687D02*
X200704533Y-71584687D01*
X200704533Y-71584687D02*
X200628342Y-71622782D01*
X200628342Y-71622782D02*
X200590247Y-71660877D01*
X200590247Y-71660877D02*
X200552152Y-71737068D01*
X200552152Y-71737068D02*
X200552152Y-72003734D01*
X200437866Y-71203734D02*
X200437866Y-70594211D01*
X200151200Y-60491830D02*
X200113104Y-60377544D01*
X200113104Y-60377544D02*
X200113104Y-60187068D01*
X200113104Y-60187068D02*
X200151200Y-60110877D01*
X200151200Y-60110877D02*
X200189295Y-60072782D01*
X200189295Y-60072782D02*
X200265485Y-60034687D01*
X200265485Y-60034687D02*
X200341676Y-60034687D01*
X200341676Y-60034687D02*
X200417866Y-60072782D01*
X200417866Y-60072782D02*
X200455961Y-60110877D01*
X200455961Y-60110877D02*
X200494057Y-60187068D01*
X200494057Y-60187068D02*
X200532152Y-60339449D01*
X200532152Y-60339449D02*
X200570247Y-60415639D01*
X200570247Y-60415639D02*
X200608342Y-60453734D01*
X200608342Y-60453734D02*
X200684533Y-60491830D01*
X200684533Y-60491830D02*
X200760723Y-60491830D01*
X200760723Y-60491830D02*
X200836914Y-60453734D01*
X200836914Y-60453734D02*
X200875009Y-60415639D01*
X200875009Y-60415639D02*
X200913104Y-60339449D01*
X200913104Y-60339449D02*
X200913104Y-60148972D01*
X200913104Y-60148972D02*
X200875009Y-60034687D01*
X200113104Y-59691829D02*
X200913104Y-59691829D01*
X200913104Y-59691829D02*
X200913104Y-59501353D01*
X200913104Y-59501353D02*
X200875009Y-59387067D01*
X200875009Y-59387067D02*
X200798819Y-59310877D01*
X200798819Y-59310877D02*
X200722628Y-59272782D01*
X200722628Y-59272782D02*
X200570247Y-59234686D01*
X200570247Y-59234686D02*
X200455961Y-59234686D01*
X200455961Y-59234686D02*
X200303580Y-59272782D01*
X200303580Y-59272782D02*
X200227390Y-59310877D01*
X200227390Y-59310877D02*
X200151200Y-59387067D01*
X200151200Y-59387067D02*
X200113104Y-59501353D01*
X200113104Y-59501353D02*
X200113104Y-59691829D01*
X200341676Y-58929925D02*
X200341676Y-58548972D01*
X200113104Y-59006115D02*
X200913104Y-58739448D01*
X200913104Y-58739448D02*
X200113104Y-58472782D01*
X201413104Y-75643734D02*
X202213104Y-75643734D01*
X202213104Y-75643734D02*
X202213104Y-75338972D01*
X202213104Y-75338972D02*
X202175009Y-75262782D01*
X202175009Y-75262782D02*
X202136914Y-75224687D01*
X202136914Y-75224687D02*
X202060723Y-75186591D01*
X202060723Y-75186591D02*
X201946438Y-75186591D01*
X201946438Y-75186591D02*
X201870247Y-75224687D01*
X201870247Y-75224687D02*
X201832152Y-75262782D01*
X201832152Y-75262782D02*
X201794057Y-75338972D01*
X201794057Y-75338972D02*
X201794057Y-75643734D01*
X202213104Y-74462782D02*
X202213104Y-74843734D01*
X202213104Y-74843734D02*
X201832152Y-74881830D01*
X201832152Y-74881830D02*
X201870247Y-74843734D01*
X201870247Y-74843734D02*
X201908342Y-74767544D01*
X201908342Y-74767544D02*
X201908342Y-74577068D01*
X201908342Y-74577068D02*
X201870247Y-74500877D01*
X201870247Y-74500877D02*
X201832152Y-74462782D01*
X201832152Y-74462782D02*
X201755961Y-74424687D01*
X201755961Y-74424687D02*
X201565485Y-74424687D01*
X201565485Y-74424687D02*
X201489295Y-74462782D01*
X201489295Y-74462782D02*
X201451200Y-74500877D01*
X201451200Y-74500877D02*
X201413104Y-74577068D01*
X201413104Y-74577068D02*
X201413104Y-74767544D01*
X201413104Y-74767544D02*
X201451200Y-74843734D01*
X201451200Y-74843734D02*
X201489295Y-74881830D01*
X182003104Y-65258020D02*
X181203104Y-64991353D01*
X181203104Y-64991353D02*
X182003104Y-64724687D01*
X181203104Y-64458020D02*
X182003104Y-64458020D01*
X181203104Y-64077068D02*
X182003104Y-64077068D01*
X182003104Y-64077068D02*
X181203104Y-63619925D01*
X181203104Y-63619925D02*
X182003104Y-63619925D01*
X181978104Y-69887782D02*
X181978104Y-70268734D01*
X181978104Y-70268734D02*
X181597152Y-70306830D01*
X181597152Y-70306830D02*
X181635247Y-70268734D01*
X181635247Y-70268734D02*
X181673342Y-70192544D01*
X181673342Y-70192544D02*
X181673342Y-70002068D01*
X181673342Y-70002068D02*
X181635247Y-69925877D01*
X181635247Y-69925877D02*
X181597152Y-69887782D01*
X181597152Y-69887782D02*
X181520961Y-69849687D01*
X181520961Y-69849687D02*
X181330485Y-69849687D01*
X181330485Y-69849687D02*
X181254295Y-69887782D01*
X181254295Y-69887782D02*
X181216200Y-69925877D01*
X181216200Y-69925877D02*
X181178104Y-70002068D01*
X181178104Y-70002068D02*
X181178104Y-70192544D01*
X181178104Y-70192544D02*
X181216200Y-70268734D01*
X181216200Y-70268734D02*
X181254295Y-70306830D01*
X181978104Y-69621115D02*
X181178104Y-69354448D01*
X181178104Y-69354448D02*
X181978104Y-69087782D01*
X181940009Y-67574687D02*
X181978104Y-67650877D01*
X181978104Y-67650877D02*
X181978104Y-67765163D01*
X181978104Y-67765163D02*
X181940009Y-67879449D01*
X181940009Y-67879449D02*
X181863819Y-67955639D01*
X181863819Y-67955639D02*
X181787628Y-67993734D01*
X181787628Y-67993734D02*
X181635247Y-68031830D01*
X181635247Y-68031830D02*
X181520961Y-68031830D01*
X181520961Y-68031830D02*
X181368580Y-67993734D01*
X181368580Y-67993734D02*
X181292390Y-67955639D01*
X181292390Y-67955639D02*
X181216200Y-67879449D01*
X181216200Y-67879449D02*
X181178104Y-67765163D01*
X181178104Y-67765163D02*
X181178104Y-67688972D01*
X181178104Y-67688972D02*
X181216200Y-67574687D01*
X181216200Y-67574687D02*
X181254295Y-67536591D01*
X181254295Y-67536591D02*
X181520961Y-67536591D01*
X181520961Y-67536591D02*
X181520961Y-67688972D01*
X181711438Y-67193734D02*
X181178104Y-67193734D01*
X181635247Y-67193734D02*
X181673342Y-67155639D01*
X181673342Y-67155639D02*
X181711438Y-67079449D01*
X181711438Y-67079449D02*
X181711438Y-66965163D01*
X181711438Y-66965163D02*
X181673342Y-66888972D01*
X181673342Y-66888972D02*
X181597152Y-66850877D01*
X181597152Y-66850877D02*
X181178104Y-66850877D01*
X181178104Y-66127067D02*
X181978104Y-66127067D01*
X181216200Y-66127067D02*
X181178104Y-66203258D01*
X181178104Y-66203258D02*
X181178104Y-66355639D01*
X181178104Y-66355639D02*
X181216200Y-66431829D01*
X181216200Y-66431829D02*
X181254295Y-66469924D01*
X181254295Y-66469924D02*
X181330485Y-66508020D01*
X181330485Y-66508020D02*
X181559057Y-66508020D01*
X181559057Y-66508020D02*
X181635247Y-66469924D01*
X181635247Y-66469924D02*
X181673342Y-66431829D01*
X181673342Y-66431829D02*
X181711438Y-66355639D01*
X181711438Y-66355639D02*
X181711438Y-66203258D01*
X181711438Y-66203258D02*
X181673342Y-66127067D01*
X201483104Y-68153734D02*
X202283104Y-68153734D01*
X202283104Y-68153734D02*
X202283104Y-67848972D01*
X202283104Y-67848972D02*
X202245009Y-67772782D01*
X202245009Y-67772782D02*
X202206914Y-67734687D01*
X202206914Y-67734687D02*
X202130723Y-67696591D01*
X202130723Y-67696591D02*
X202016438Y-67696591D01*
X202016438Y-67696591D02*
X201940247Y-67734687D01*
X201940247Y-67734687D02*
X201902152Y-67772782D01*
X201902152Y-67772782D02*
X201864057Y-67848972D01*
X201864057Y-67848972D02*
X201864057Y-68153734D01*
X202283104Y-67429925D02*
X202283104Y-66934687D01*
X202283104Y-66934687D02*
X201978342Y-67201353D01*
X201978342Y-67201353D02*
X201978342Y-67087068D01*
X201978342Y-67087068D02*
X201940247Y-67010877D01*
X201940247Y-67010877D02*
X201902152Y-66972782D01*
X201902152Y-66972782D02*
X201825961Y-66934687D01*
X201825961Y-66934687D02*
X201635485Y-66934687D01*
X201635485Y-66934687D02*
X201559295Y-66972782D01*
X201559295Y-66972782D02*
X201521200Y-67010877D01*
X201521200Y-67010877D02*
X201483104Y-67087068D01*
X201483104Y-67087068D02*
X201483104Y-67315639D01*
X201483104Y-67315639D02*
X201521200Y-67391830D01*
X201521200Y-67391830D02*
X201559295Y-67429925D01*
X200171200Y-66261830D02*
X200133104Y-66147544D01*
X200133104Y-66147544D02*
X200133104Y-65957068D01*
X200133104Y-65957068D02*
X200171200Y-65880877D01*
X200171200Y-65880877D02*
X200209295Y-65842782D01*
X200209295Y-65842782D02*
X200285485Y-65804687D01*
X200285485Y-65804687D02*
X200361676Y-65804687D01*
X200361676Y-65804687D02*
X200437866Y-65842782D01*
X200437866Y-65842782D02*
X200475961Y-65880877D01*
X200475961Y-65880877D02*
X200514057Y-65957068D01*
X200514057Y-65957068D02*
X200552152Y-66109449D01*
X200552152Y-66109449D02*
X200590247Y-66185639D01*
X200590247Y-66185639D02*
X200628342Y-66223734D01*
X200628342Y-66223734D02*
X200704533Y-66261830D01*
X200704533Y-66261830D02*
X200780723Y-66261830D01*
X200780723Y-66261830D02*
X200856914Y-66223734D01*
X200856914Y-66223734D02*
X200895009Y-66185639D01*
X200895009Y-66185639D02*
X200933104Y-66109449D01*
X200933104Y-66109449D02*
X200933104Y-65918972D01*
X200933104Y-65918972D02*
X200895009Y-65804687D01*
X200209295Y-65004686D02*
X200171200Y-65042782D01*
X200171200Y-65042782D02*
X200133104Y-65157067D01*
X200133104Y-65157067D02*
X200133104Y-65233258D01*
X200133104Y-65233258D02*
X200171200Y-65347544D01*
X200171200Y-65347544D02*
X200247390Y-65423734D01*
X200247390Y-65423734D02*
X200323580Y-65461829D01*
X200323580Y-65461829D02*
X200475961Y-65499925D01*
X200475961Y-65499925D02*
X200590247Y-65499925D01*
X200590247Y-65499925D02*
X200742628Y-65461829D01*
X200742628Y-65461829D02*
X200818819Y-65423734D01*
X200818819Y-65423734D02*
X200895009Y-65347544D01*
X200895009Y-65347544D02*
X200933104Y-65233258D01*
X200933104Y-65233258D02*
X200933104Y-65157067D01*
X200933104Y-65157067D02*
X200895009Y-65042782D01*
X200895009Y-65042782D02*
X200856914Y-65004686D01*
X200133104Y-64661829D02*
X200933104Y-64661829D01*
X200133104Y-64204686D02*
X200590247Y-64547544D01*
X200933104Y-64204686D02*
X200475961Y-64661829D01*
X201563104Y-62993734D02*
X202363104Y-62993734D01*
X202363104Y-62993734D02*
X202363104Y-62688972D01*
X202363104Y-62688972D02*
X202325009Y-62612782D01*
X202325009Y-62612782D02*
X202286914Y-62574687D01*
X202286914Y-62574687D02*
X202210723Y-62536591D01*
X202210723Y-62536591D02*
X202096438Y-62536591D01*
X202096438Y-62536591D02*
X202020247Y-62574687D01*
X202020247Y-62574687D02*
X201982152Y-62612782D01*
X201982152Y-62612782D02*
X201944057Y-62688972D01*
X201944057Y-62688972D02*
X201944057Y-62993734D01*
X201563104Y-61774687D02*
X201563104Y-62231830D01*
X201563104Y-62003258D02*
X202363104Y-62003258D01*
X202363104Y-62003258D02*
X202248819Y-62079449D01*
X202248819Y-62079449D02*
X202172628Y-62155639D01*
X202172628Y-62155639D02*
X202134533Y-62231830D01*
X202245009Y-70694687D02*
X202283104Y-70770877D01*
X202283104Y-70770877D02*
X202283104Y-70885163D01*
X202283104Y-70885163D02*
X202245009Y-70999449D01*
X202245009Y-70999449D02*
X202168819Y-71075639D01*
X202168819Y-71075639D02*
X202092628Y-71113734D01*
X202092628Y-71113734D02*
X201940247Y-71151830D01*
X201940247Y-71151830D02*
X201825961Y-71151830D01*
X201825961Y-71151830D02*
X201673580Y-71113734D01*
X201673580Y-71113734D02*
X201597390Y-71075639D01*
X201597390Y-71075639D02*
X201521200Y-70999449D01*
X201521200Y-70999449D02*
X201483104Y-70885163D01*
X201483104Y-70885163D02*
X201483104Y-70808972D01*
X201483104Y-70808972D02*
X201521200Y-70694687D01*
X201521200Y-70694687D02*
X201559295Y-70656591D01*
X201559295Y-70656591D02*
X201825961Y-70656591D01*
X201825961Y-70656591D02*
X201825961Y-70808972D01*
X202016438Y-70313734D02*
X201483104Y-70313734D01*
X201940247Y-70313734D02*
X201978342Y-70275639D01*
X201978342Y-70275639D02*
X202016438Y-70199449D01*
X202016438Y-70199449D02*
X202016438Y-70085163D01*
X202016438Y-70085163D02*
X201978342Y-70008972D01*
X201978342Y-70008972D02*
X201902152Y-69970877D01*
X201902152Y-69970877D02*
X201483104Y-69970877D01*
X201483104Y-69247067D02*
X202283104Y-69247067D01*
X201521200Y-69247067D02*
X201483104Y-69323258D01*
X201483104Y-69323258D02*
X201483104Y-69475639D01*
X201483104Y-69475639D02*
X201521200Y-69551829D01*
X201521200Y-69551829D02*
X201559295Y-69589924D01*
X201559295Y-69589924D02*
X201635485Y-69628020D01*
X201635485Y-69628020D02*
X201864057Y-69628020D01*
X201864057Y-69628020D02*
X201940247Y-69589924D01*
X201940247Y-69589924D02*
X201978342Y-69551829D01*
X201978342Y-69551829D02*
X202016438Y-69475639D01*
X202016438Y-69475639D02*
X202016438Y-69323258D01*
X202016438Y-69323258D02*
X201978342Y-69247067D01*
X201573104Y-60033734D02*
X202373104Y-60033734D01*
X202373104Y-60033734D02*
X202373104Y-59728972D01*
X202373104Y-59728972D02*
X202335009Y-59652782D01*
X202335009Y-59652782D02*
X202296914Y-59614687D01*
X202296914Y-59614687D02*
X202220723Y-59576591D01*
X202220723Y-59576591D02*
X202106438Y-59576591D01*
X202106438Y-59576591D02*
X202030247Y-59614687D01*
X202030247Y-59614687D02*
X201992152Y-59652782D01*
X201992152Y-59652782D02*
X201954057Y-59728972D01*
X201954057Y-59728972D02*
X201954057Y-60033734D01*
X202373104Y-59081353D02*
X202373104Y-59005163D01*
X202373104Y-59005163D02*
X202335009Y-58928972D01*
X202335009Y-58928972D02*
X202296914Y-58890877D01*
X202296914Y-58890877D02*
X202220723Y-58852782D01*
X202220723Y-58852782D02*
X202068342Y-58814687D01*
X202068342Y-58814687D02*
X201877866Y-58814687D01*
X201877866Y-58814687D02*
X201725485Y-58852782D01*
X201725485Y-58852782D02*
X201649295Y-58890877D01*
X201649295Y-58890877D02*
X201611200Y-58928972D01*
X201611200Y-58928972D02*
X201573104Y-59005163D01*
X201573104Y-59005163D02*
X201573104Y-59081353D01*
X201573104Y-59081353D02*
X201611200Y-59157544D01*
X201611200Y-59157544D02*
X201649295Y-59195639D01*
X201649295Y-59195639D02*
X201725485Y-59233734D01*
X201725485Y-59233734D02*
X201877866Y-59271830D01*
X201877866Y-59271830D02*
X202068342Y-59271830D01*
X202068342Y-59271830D02*
X202220723Y-59233734D01*
X202220723Y-59233734D02*
X202296914Y-59195639D01*
X202296914Y-59195639D02*
X202335009Y-59157544D01*
X202335009Y-59157544D02*
X202373104Y-59081353D01*
X197631676Y-60771830D02*
X197631676Y-60390877D01*
X197403104Y-60848020D02*
X198203104Y-60581353D01*
X198203104Y-60581353D02*
X197403104Y-60314687D01*
X197403104Y-59590877D02*
X197784057Y-59857544D01*
X197403104Y-60048020D02*
X198203104Y-60048020D01*
X198203104Y-60048020D02*
X198203104Y-59743258D01*
X198203104Y-59743258D02*
X198165009Y-59667068D01*
X198165009Y-59667068D02*
X198126914Y-59628973D01*
X198126914Y-59628973D02*
X198050723Y-59590877D01*
X198050723Y-59590877D02*
X197936438Y-59590877D01*
X197936438Y-59590877D02*
X197860247Y-59628973D01*
X197860247Y-59628973D02*
X197822152Y-59667068D01*
X197822152Y-59667068D02*
X197784057Y-59743258D01*
X197784057Y-59743258D02*
X197784057Y-60048020D01*
X197822152Y-59248020D02*
X197822152Y-58981354D01*
X197403104Y-58867068D02*
X197403104Y-59248020D01*
X197403104Y-59248020D02*
X198203104Y-59248020D01*
X198203104Y-59248020D02*
X198203104Y-58867068D01*
X197822152Y-58257544D02*
X197822152Y-58524210D01*
X197403104Y-58524210D02*
X198203104Y-58524210D01*
X198203104Y-58524210D02*
X198203104Y-58143258D01*
X199603104Y-68593734D02*
X198955485Y-68593734D01*
X198955485Y-68593734D02*
X198879295Y-68555639D01*
X198879295Y-68555639D02*
X198841200Y-68517544D01*
X198841200Y-68517544D02*
X198803104Y-68441353D01*
X198803104Y-68441353D02*
X198803104Y-68288972D01*
X198803104Y-68288972D02*
X198841200Y-68212782D01*
X198841200Y-68212782D02*
X198879295Y-68174687D01*
X198879295Y-68174687D02*
X198955485Y-68136591D01*
X198955485Y-68136591D02*
X199603104Y-68136591D01*
X198841200Y-67793735D02*
X198803104Y-67679449D01*
X198803104Y-67679449D02*
X198803104Y-67488973D01*
X198803104Y-67488973D02*
X198841200Y-67412782D01*
X198841200Y-67412782D02*
X198879295Y-67374687D01*
X198879295Y-67374687D02*
X198955485Y-67336592D01*
X198955485Y-67336592D02*
X199031676Y-67336592D01*
X199031676Y-67336592D02*
X199107866Y-67374687D01*
X199107866Y-67374687D02*
X199145961Y-67412782D01*
X199145961Y-67412782D02*
X199184057Y-67488973D01*
X199184057Y-67488973D02*
X199222152Y-67641354D01*
X199222152Y-67641354D02*
X199260247Y-67717544D01*
X199260247Y-67717544D02*
X199298342Y-67755639D01*
X199298342Y-67755639D02*
X199374533Y-67793735D01*
X199374533Y-67793735D02*
X199450723Y-67793735D01*
X199450723Y-67793735D02*
X199526914Y-67755639D01*
X199526914Y-67755639D02*
X199565009Y-67717544D01*
X199565009Y-67717544D02*
X199603104Y-67641354D01*
X199603104Y-67641354D02*
X199603104Y-67450877D01*
X199603104Y-67450877D02*
X199565009Y-67336592D01*
X199222152Y-66727068D02*
X199184057Y-66612782D01*
X199184057Y-66612782D02*
X199145961Y-66574687D01*
X199145961Y-66574687D02*
X199069771Y-66536591D01*
X199069771Y-66536591D02*
X198955485Y-66536591D01*
X198955485Y-66536591D02*
X198879295Y-66574687D01*
X198879295Y-66574687D02*
X198841200Y-66612782D01*
X198841200Y-66612782D02*
X198803104Y-66688972D01*
X198803104Y-66688972D02*
X198803104Y-66993734D01*
X198803104Y-66993734D02*
X199603104Y-66993734D01*
X199603104Y-66993734D02*
X199603104Y-66727068D01*
X199603104Y-66727068D02*
X199565009Y-66650877D01*
X199565009Y-66650877D02*
X199526914Y-66612782D01*
X199526914Y-66612782D02*
X199450723Y-66574687D01*
X199450723Y-66574687D02*
X199374533Y-66574687D01*
X199374533Y-66574687D02*
X199298342Y-66612782D01*
X199298342Y-66612782D02*
X199260247Y-66650877D01*
X199260247Y-66650877D02*
X199222152Y-66727068D01*
X199222152Y-66727068D02*
X199222152Y-66993734D01*
X199107866Y-66193734D02*
X199107866Y-65584211D01*
X198803104Y-65888972D02*
X199412628Y-65888972D01*
D11*
%TO.C,REF\u002A\u002A*%
X185409353Y-66912673D02*
X185424123Y-66936386D01*
X185430933Y-66959400D01*
X185425051Y-66980406D01*
X185409353Y-67006127D01*
X185387773Y-67032778D01*
X184740316Y-67032778D01*
X184718736Y-67006127D01*
X184701261Y-66974767D01*
X184700425Y-66938966D01*
X184720918Y-66907528D01*
X184725584Y-66903652D01*
X184735051Y-66898186D01*
X184748733Y-66893979D01*
X184769252Y-66890867D01*
X184799232Y-66888687D01*
X184841296Y-66887276D01*
X184898068Y-66886471D01*
X184972170Y-66886107D01*
X185066227Y-66886022D01*
X185387773Y-66886022D01*
X185409353Y-66912673D01*
G36*
X185409353Y-66912673D02*
G01*
X185424123Y-66936386D01*
X185430933Y-66959400D01*
X185425051Y-66980406D01*
X185409353Y-67006127D01*
X185387773Y-67032778D01*
X184740316Y-67032778D01*
X184718736Y-67006127D01*
X184701261Y-66974767D01*
X184700425Y-66938966D01*
X184720918Y-66907528D01*
X184725584Y-66903652D01*
X184735051Y-66898186D01*
X184748733Y-66893979D01*
X184769252Y-66890867D01*
X184799232Y-66888687D01*
X184841296Y-66887276D01*
X184898068Y-66886471D01*
X184972170Y-66886107D01*
X185066227Y-66886022D01*
X185387773Y-66886022D01*
X185409353Y-66912673D01*
G37*
X185139706Y-74026284D02*
X185217615Y-74026539D01*
X185277625Y-74027183D01*
X185322352Y-74028387D01*
X185354415Y-74030324D01*
X185376429Y-74033164D01*
X185391013Y-74037079D01*
X185400782Y-74042242D01*
X185408355Y-74048822D01*
X185427377Y-74078006D01*
X185426537Y-74111137D01*
X185403224Y-74145291D01*
X185375515Y-74173000D01*
X185062463Y-74173000D01*
X184978433Y-74172959D01*
X184904211Y-74172701D01*
X184847459Y-74172030D01*
X184805488Y-74170752D01*
X184775611Y-74168673D01*
X184755139Y-74165599D01*
X184741386Y-74161334D01*
X184731663Y-74155684D01*
X184723283Y-74148455D01*
X184701819Y-74116991D01*
X184700053Y-74081826D01*
X184719733Y-74048822D01*
X184725602Y-74043516D01*
X184734686Y-74038066D01*
X184748027Y-74033900D01*
X184768243Y-74030846D01*
X184797951Y-74028732D01*
X184839768Y-74027386D01*
X184896311Y-74026638D01*
X184970198Y-74026314D01*
X185064044Y-74026245D01*
X185139706Y-74026284D01*
G36*
X185139706Y-74026284D02*
G01*
X185217615Y-74026539D01*
X185277625Y-74027183D01*
X185322352Y-74028387D01*
X185354415Y-74030324D01*
X185376429Y-74033164D01*
X185391013Y-74037079D01*
X185400782Y-74042242D01*
X185408355Y-74048822D01*
X185427377Y-74078006D01*
X185426537Y-74111137D01*
X185403224Y-74145291D01*
X185375515Y-74173000D01*
X185062463Y-74173000D01*
X184978433Y-74172959D01*
X184904211Y-74172701D01*
X184847459Y-74172030D01*
X184805488Y-74170752D01*
X184775611Y-74168673D01*
X184755139Y-74165599D01*
X184741386Y-74161334D01*
X184731663Y-74155684D01*
X184723283Y-74148455D01*
X184701819Y-74116991D01*
X184700053Y-74081826D01*
X184719733Y-74048822D01*
X184725602Y-74043516D01*
X184734686Y-74038066D01*
X184748027Y-74033900D01*
X184768243Y-74030846D01*
X184797951Y-74028732D01*
X184839768Y-74027386D01*
X184896311Y-74026638D01*
X184970198Y-74026314D01*
X185064044Y-74026245D01*
X185139706Y-74026284D01*
G37*
X190286470Y-73008136D02*
X190382780Y-73034399D01*
X190471506Y-73079418D01*
X190546581Y-73140373D01*
X190606359Y-73215184D01*
X190649191Y-73301768D01*
X190673429Y-73398043D01*
X190677424Y-73501928D01*
X190667150Y-73579562D01*
X190639947Y-73662313D01*
X190594516Y-73737406D01*
X190528698Y-73809298D01*
X190484433Y-73847846D01*
X190426039Y-73887256D01*
X190365414Y-73912446D01*
X190296135Y-73925861D01*
X190211778Y-73929948D01*
X190165693Y-73929669D01*
X190124550Y-73927460D01*
X190092418Y-73921894D01*
X190061878Y-73911586D01*
X190025511Y-73895148D01*
X189998272Y-73881200D01*
X189912571Y-73822665D01*
X189843383Y-73750619D01*
X189792259Y-73666947D01*
X189760750Y-73573531D01*
X189753775Y-73540434D01*
X189746906Y-73499960D01*
X189745081Y-73466999D01*
X189748053Y-73432698D01*
X189755574Y-73388200D01*
X189767998Y-73336934D01*
X189805888Y-73246434D01*
X189860164Y-73167345D01*
X189928230Y-73101528D01*
X190007489Y-73050840D01*
X190095346Y-73017140D01*
X190189205Y-73002286D01*
X190286470Y-73008136D01*
G36*
X190286470Y-73008136D02*
G01*
X190382780Y-73034399D01*
X190471506Y-73079418D01*
X190546581Y-73140373D01*
X190606359Y-73215184D01*
X190649191Y-73301768D01*
X190673429Y-73398043D01*
X190677424Y-73501928D01*
X190667150Y-73579562D01*
X190639947Y-73662313D01*
X190594516Y-73737406D01*
X190528698Y-73809298D01*
X190484433Y-73847846D01*
X190426039Y-73887256D01*
X190365414Y-73912446D01*
X190296135Y-73925861D01*
X190211778Y-73929948D01*
X190165693Y-73929669D01*
X190124550Y-73927460D01*
X190092418Y-73921894D01*
X190061878Y-73911586D01*
X190025511Y-73895148D01*
X189998272Y-73881200D01*
X189912571Y-73822665D01*
X189843383Y-73750619D01*
X189792259Y-73666947D01*
X189760750Y-73573531D01*
X189753775Y-73540434D01*
X189746906Y-73499960D01*
X189745081Y-73466999D01*
X189748053Y-73432698D01*
X189755574Y-73388200D01*
X189767998Y-73336934D01*
X189805888Y-73246434D01*
X189860164Y-73167345D01*
X189928230Y-73101528D01*
X190007489Y-73050840D01*
X190095346Y-73017140D01*
X190189205Y-73002286D01*
X190286470Y-73008136D01*
G37*
X185378642Y-65863543D02*
X185411178Y-65889187D01*
X185414895Y-65894129D01*
X185419731Y-65904338D01*
X185423494Y-65919764D01*
X185426317Y-65942886D01*
X185428330Y-65976183D01*
X185429667Y-66022137D01*
X185430458Y-66083228D01*
X185430837Y-66161935D01*
X185430933Y-66260740D01*
X185430932Y-66280767D01*
X185430842Y-66374890D01*
X185430502Y-66449405D01*
X185429761Y-66506811D01*
X185428465Y-66549611D01*
X185426463Y-66580304D01*
X185423604Y-66601391D01*
X185419734Y-66615373D01*
X185414702Y-66624750D01*
X185408355Y-66632022D01*
X185375638Y-66650828D01*
X185338061Y-66652275D01*
X185304822Y-66635917D01*
X185303369Y-66634557D01*
X185295008Y-66623354D01*
X185289453Y-66606252D01*
X185286160Y-66579082D01*
X185284582Y-66537678D01*
X185284178Y-66477873D01*
X185284178Y-66338511D01*
X185020411Y-66338511D01*
X184944583Y-66338436D01*
X184877917Y-66338028D01*
X184828133Y-66337046D01*
X184792216Y-66335250D01*
X184767150Y-66332399D01*
X184749919Y-66328253D01*
X184737508Y-66322571D01*
X184726900Y-66315114D01*
X184724094Y-66312824D01*
X184701452Y-66281646D01*
X184699888Y-66247266D01*
X184719733Y-66214334D01*
X184727809Y-66207355D01*
X184738407Y-66201883D01*
X184754251Y-66197863D01*
X184778227Y-66195072D01*
X184813226Y-66193288D01*
X184862136Y-66192289D01*
X184927846Y-66191852D01*
X185013244Y-66191756D01*
X185284178Y-66191756D01*
X185284178Y-66045820D01*
X185284179Y-66034720D01*
X185284404Y-65978202D01*
X185285543Y-65939358D01*
X185288343Y-65913965D01*
X185293550Y-65897804D01*
X185301911Y-65886652D01*
X185314174Y-65876289D01*
X185344862Y-65860441D01*
X185378642Y-65863543D01*
G36*
X185378642Y-65863543D02*
G01*
X185411178Y-65889187D01*
X185414895Y-65894129D01*
X185419731Y-65904338D01*
X185423494Y-65919764D01*
X185426317Y-65942886D01*
X185428330Y-65976183D01*
X185429667Y-66022137D01*
X185430458Y-66083228D01*
X185430837Y-66161935D01*
X185430933Y-66260740D01*
X185430932Y-66280767D01*
X185430842Y-66374890D01*
X185430502Y-66449405D01*
X185429761Y-66506811D01*
X185428465Y-66549611D01*
X185426463Y-66580304D01*
X185423604Y-66601391D01*
X185419734Y-66615373D01*
X185414702Y-66624750D01*
X185408355Y-66632022D01*
X185375638Y-66650828D01*
X185338061Y-66652275D01*
X185304822Y-66635917D01*
X185303369Y-66634557D01*
X185295008Y-66623354D01*
X185289453Y-66606252D01*
X185286160Y-66579082D01*
X185284582Y-66537678D01*
X185284178Y-66477873D01*
X185284178Y-66338511D01*
X185020411Y-66338511D01*
X184944583Y-66338436D01*
X184877917Y-66338028D01*
X184828133Y-66337046D01*
X184792216Y-66335250D01*
X184767150Y-66332399D01*
X184749919Y-66328253D01*
X184737508Y-66322571D01*
X184726900Y-66315114D01*
X184724094Y-66312824D01*
X184701452Y-66281646D01*
X184699888Y-66247266D01*
X184719733Y-66214334D01*
X184727809Y-66207355D01*
X184738407Y-66201883D01*
X184754251Y-66197863D01*
X184778227Y-66195072D01*
X184813226Y-66193288D01*
X184862136Y-66192289D01*
X184927846Y-66191852D01*
X185013244Y-66191756D01*
X185284178Y-66191756D01*
X185284178Y-66045820D01*
X185284179Y-66034720D01*
X185284404Y-65978202D01*
X185285543Y-65939358D01*
X185288343Y-65913965D01*
X185293550Y-65897804D01*
X185301911Y-65886652D01*
X185314174Y-65876289D01*
X185344862Y-65860441D01*
X185378642Y-65863543D01*
G37*
X185403224Y-64864798D02*
X185425467Y-64896177D01*
X185428156Y-64929406D01*
X185408355Y-64961267D01*
X185398585Y-64969553D01*
X185382693Y-64976965D01*
X185358725Y-64981302D01*
X185321852Y-64983338D01*
X185267244Y-64983845D01*
X185148711Y-64983845D01*
X185148711Y-65480556D01*
X185264224Y-65480556D01*
X185315922Y-65480994D01*
X185350446Y-65482958D01*
X185373022Y-65487474D01*
X185388874Y-65495567D01*
X185403224Y-65508265D01*
X185425467Y-65539643D01*
X185428156Y-65572872D01*
X185408355Y-65604734D01*
X185402165Y-65610366D01*
X185393959Y-65615456D01*
X185382183Y-65619543D01*
X185364724Y-65622721D01*
X185339470Y-65625087D01*
X185304310Y-65626738D01*
X185257131Y-65627769D01*
X185195823Y-65628277D01*
X185118273Y-65628359D01*
X185022369Y-65628109D01*
X184906000Y-65627625D01*
X184891825Y-65627557D01*
X184830063Y-65626971D01*
X184786380Y-65625648D01*
X184756999Y-65623103D01*
X184738145Y-65618848D01*
X184726041Y-65612396D01*
X184716911Y-65603262D01*
X184699494Y-65569804D01*
X184702396Y-65534856D01*
X184726900Y-65503953D01*
X184740103Y-65494944D01*
X184758639Y-65487492D01*
X184784667Y-65483124D01*
X184823213Y-65481069D01*
X184879300Y-65480556D01*
X185001955Y-65480556D01*
X185001955Y-64983845D01*
X184867129Y-64983845D01*
X184831338Y-64983772D01*
X184785008Y-64983009D01*
X184754474Y-64980833D01*
X184735443Y-64976536D01*
X184723626Y-64969412D01*
X184714729Y-64958755D01*
X184699659Y-64926504D01*
X184702327Y-64891217D01*
X184726900Y-64860486D01*
X184733155Y-64855831D01*
X184743679Y-64849895D01*
X184757609Y-64845364D01*
X184777683Y-64842048D01*
X184806640Y-64839759D01*
X184847220Y-64838308D01*
X184902160Y-64837505D01*
X184974201Y-64837162D01*
X185066080Y-64837089D01*
X185375515Y-64837089D01*
X185403224Y-64864798D01*
G36*
X185403224Y-64864798D02*
G01*
X185425467Y-64896177D01*
X185428156Y-64929406D01*
X185408355Y-64961267D01*
X185398585Y-64969553D01*
X185382693Y-64976965D01*
X185358725Y-64981302D01*
X185321852Y-64983338D01*
X185267244Y-64983845D01*
X185148711Y-64983845D01*
X185148711Y-65480556D01*
X185264224Y-65480556D01*
X185315922Y-65480994D01*
X185350446Y-65482958D01*
X185373022Y-65487474D01*
X185388874Y-65495567D01*
X185403224Y-65508265D01*
X185425467Y-65539643D01*
X185428156Y-65572872D01*
X185408355Y-65604734D01*
X185402165Y-65610366D01*
X185393959Y-65615456D01*
X185382183Y-65619543D01*
X185364724Y-65622721D01*
X185339470Y-65625087D01*
X185304310Y-65626738D01*
X185257131Y-65627769D01*
X185195823Y-65628277D01*
X185118273Y-65628359D01*
X185022369Y-65628109D01*
X184906000Y-65627625D01*
X184891825Y-65627557D01*
X184830063Y-65626971D01*
X184786380Y-65625648D01*
X184756999Y-65623103D01*
X184738145Y-65618848D01*
X184726041Y-65612396D01*
X184716911Y-65603262D01*
X184699494Y-65569804D01*
X184702396Y-65534856D01*
X184726900Y-65503953D01*
X184740103Y-65494944D01*
X184758639Y-65487492D01*
X184784667Y-65483124D01*
X184823213Y-65481069D01*
X184879300Y-65480556D01*
X185001955Y-65480556D01*
X185001955Y-64983845D01*
X184867129Y-64983845D01*
X184831338Y-64983772D01*
X184785008Y-64983009D01*
X184754474Y-64980833D01*
X184735443Y-64976536D01*
X184723626Y-64969412D01*
X184714729Y-64958755D01*
X184699659Y-64926504D01*
X184702327Y-64891217D01*
X184726900Y-64860486D01*
X184733155Y-64855831D01*
X184743679Y-64849895D01*
X184757609Y-64845364D01*
X184777683Y-64842048D01*
X184806640Y-64839759D01*
X184847220Y-64838308D01*
X184902160Y-64837505D01*
X184974201Y-64837162D01*
X185066080Y-64837089D01*
X185375515Y-64837089D01*
X185403224Y-64864798D01*
G37*
X185122517Y-69520399D02*
X185184649Y-69544541D01*
X185186342Y-69545337D01*
X185255764Y-69585788D01*
X185312362Y-69636473D01*
X185356930Y-69699198D01*
X185390259Y-69775774D01*
X185413139Y-69868009D01*
X185426364Y-69977712D01*
X185430725Y-70106691D01*
X185430730Y-70110263D01*
X185430590Y-70170283D01*
X185429554Y-70212214D01*
X185426960Y-70240328D01*
X185422147Y-70258897D01*
X185414456Y-70272194D01*
X185403224Y-70284491D01*
X185375515Y-70312200D01*
X185066080Y-70312200D01*
X185004474Y-70312175D01*
X184925689Y-70311950D01*
X184864979Y-70311332D01*
X184843911Y-70310775D01*
X184819604Y-70310133D01*
X184786825Y-70308163D01*
X184763905Y-70305235D01*
X184748103Y-70301158D01*
X184736681Y-70295743D01*
X184726900Y-70288803D01*
X184697155Y-70265406D01*
X184697749Y-70099714D01*
X184698047Y-70064918D01*
X184698209Y-70060274D01*
X184843911Y-70060274D01*
X184843911Y-70154156D01*
X185284178Y-70154156D01*
X185283730Y-70066667D01*
X185281254Y-69999747D01*
X185270002Y-69907349D01*
X185250463Y-69828034D01*
X185223489Y-69766060D01*
X185202760Y-69735120D01*
X185172994Y-69707000D01*
X185130566Y-69683660D01*
X185114600Y-69676533D01*
X185082098Y-69664709D01*
X185057667Y-69662279D01*
X185032939Y-69667892D01*
X185017061Y-69673618D01*
X184957153Y-69706548D01*
X184911400Y-69753886D01*
X184878264Y-69817652D01*
X184856210Y-69899861D01*
X184855708Y-69902655D01*
X184849745Y-69948940D01*
X184845517Y-70005336D01*
X184843911Y-70060274D01*
X184698209Y-70060274D01*
X184701478Y-69966435D01*
X184709161Y-69885473D01*
X184721718Y-69818379D01*
X184739773Y-69761496D01*
X184763948Y-69711169D01*
X184765865Y-69707810D01*
X184802583Y-69649998D01*
X184839549Y-69607644D01*
X184883034Y-69574828D01*
X184939311Y-69545628D01*
X184948927Y-69541346D01*
X185012113Y-69518769D01*
X185067491Y-69511797D01*
X185122517Y-69520399D01*
G36*
X185122517Y-69520399D02*
G01*
X185184649Y-69544541D01*
X185186342Y-69545337D01*
X185255764Y-69585788D01*
X185312362Y-69636473D01*
X185356930Y-69699198D01*
X185390259Y-69775774D01*
X185413139Y-69868009D01*
X185426364Y-69977712D01*
X185430725Y-70106691D01*
X185430730Y-70110263D01*
X185430590Y-70170283D01*
X185429554Y-70212214D01*
X185426960Y-70240328D01*
X185422147Y-70258897D01*
X185414456Y-70272194D01*
X185403224Y-70284491D01*
X185375515Y-70312200D01*
X185066080Y-70312200D01*
X185004474Y-70312175D01*
X184925689Y-70311950D01*
X184864979Y-70311332D01*
X184843911Y-70310775D01*
X184819604Y-70310133D01*
X184786825Y-70308163D01*
X184763905Y-70305235D01*
X184748103Y-70301158D01*
X184736681Y-70295743D01*
X184726900Y-70288803D01*
X184697155Y-70265406D01*
X184697749Y-70099714D01*
X184698047Y-70064918D01*
X184698209Y-70060274D01*
X184843911Y-70060274D01*
X184843911Y-70154156D01*
X185284178Y-70154156D01*
X185283730Y-70066667D01*
X185281254Y-69999747D01*
X185270002Y-69907349D01*
X185250463Y-69828034D01*
X185223489Y-69766060D01*
X185202760Y-69735120D01*
X185172994Y-69707000D01*
X185130566Y-69683660D01*
X185114600Y-69676533D01*
X185082098Y-69664709D01*
X185057667Y-69662279D01*
X185032939Y-69667892D01*
X185017061Y-69673618D01*
X184957153Y-69706548D01*
X184911400Y-69753886D01*
X184878264Y-69817652D01*
X184856210Y-69899861D01*
X184855708Y-69902655D01*
X184849745Y-69948940D01*
X184845517Y-70005336D01*
X184843911Y-70060274D01*
X184698209Y-70060274D01*
X184701478Y-69966435D01*
X184709161Y-69885473D01*
X184721718Y-69818379D01*
X184739773Y-69761496D01*
X184763948Y-69711169D01*
X184765865Y-69707810D01*
X184802583Y-69649998D01*
X184839549Y-69607644D01*
X184883034Y-69574828D01*
X184939311Y-69545628D01*
X184948927Y-69541346D01*
X185012113Y-69518769D01*
X185067491Y-69511797D01*
X185122517Y-69520399D01*
G37*
X185085261Y-76612679D02*
X185142677Y-76624991D01*
X185202587Y-76647520D01*
X185256637Y-76676750D01*
X185296468Y-76709167D01*
X185313490Y-76728708D01*
X185352678Y-76783420D01*
X185382807Y-76843723D01*
X185404768Y-76912919D01*
X185419450Y-76994311D01*
X185427741Y-77091200D01*
X185430533Y-77206889D01*
X185430934Y-77246371D01*
X185431347Y-77292082D01*
X185429543Y-77327883D01*
X185423261Y-77354974D01*
X185410241Y-77374556D01*
X185388222Y-77387830D01*
X185354945Y-77395998D01*
X185308149Y-77400260D01*
X185284178Y-77400857D01*
X185245573Y-77401817D01*
X185164959Y-77401870D01*
X185064044Y-77401622D01*
X184988383Y-77401583D01*
X184910474Y-77401328D01*
X184850464Y-77400684D01*
X184805736Y-77399480D01*
X184773674Y-77397543D01*
X184751660Y-77394703D01*
X184737076Y-77390788D01*
X184727306Y-77385626D01*
X184719733Y-77379045D01*
X184713499Y-77372077D01*
X184706199Y-77359079D01*
X184701446Y-77339931D01*
X184698708Y-77310528D01*
X184697455Y-77266762D01*
X184697398Y-77254867D01*
X184843911Y-77254867D01*
X185284178Y-77254867D01*
X185284192Y-77178667D01*
X185284183Y-77175639D01*
X185282218Y-77124519D01*
X185277493Y-77064416D01*
X185270965Y-77007708D01*
X185261669Y-76957750D01*
X185235400Y-76882998D01*
X185196101Y-76825489D01*
X185143067Y-76783988D01*
X185091800Y-76762771D01*
X185043974Y-76761353D01*
X184993039Y-76779635D01*
X184947122Y-76809305D01*
X184904713Y-76856002D01*
X184874910Y-76917392D01*
X184855774Y-76996538D01*
X184855536Y-76998028D01*
X184849744Y-77046999D01*
X184845604Y-77105693D01*
X184843996Y-77161734D01*
X184843911Y-77254867D01*
X184697398Y-77254867D01*
X184697155Y-77204528D01*
X184697531Y-77155582D01*
X184701959Y-77048722D01*
X184712047Y-76959494D01*
X184728635Y-76884696D01*
X184752565Y-76821125D01*
X184784679Y-76765579D01*
X184825818Y-76714854D01*
X184831670Y-76708866D01*
X184880179Y-76671999D01*
X184940987Y-76640899D01*
X185005231Y-76619417D01*
X185064044Y-76611400D01*
X185085261Y-76612679D01*
G36*
X185085261Y-76612679D02*
G01*
X185142677Y-76624991D01*
X185202587Y-76647520D01*
X185256637Y-76676750D01*
X185296468Y-76709167D01*
X185313490Y-76728708D01*
X185352678Y-76783420D01*
X185382807Y-76843723D01*
X185404768Y-76912919D01*
X185419450Y-76994311D01*
X185427741Y-77091200D01*
X185430533Y-77206889D01*
X185430934Y-77246371D01*
X185431347Y-77292082D01*
X185429543Y-77327883D01*
X185423261Y-77354974D01*
X185410241Y-77374556D01*
X185388222Y-77387830D01*
X185354945Y-77395998D01*
X185308149Y-77400260D01*
X185284178Y-77400857D01*
X185245573Y-77401817D01*
X185164959Y-77401870D01*
X185064044Y-77401622D01*
X184988383Y-77401583D01*
X184910474Y-77401328D01*
X184850464Y-77400684D01*
X184805736Y-77399480D01*
X184773674Y-77397543D01*
X184751660Y-77394703D01*
X184737076Y-77390788D01*
X184727306Y-77385626D01*
X184719733Y-77379045D01*
X184713499Y-77372077D01*
X184706199Y-77359079D01*
X184701446Y-77339931D01*
X184698708Y-77310528D01*
X184697455Y-77266762D01*
X184697398Y-77254867D01*
X184843911Y-77254867D01*
X185284178Y-77254867D01*
X185284192Y-77178667D01*
X185284183Y-77175639D01*
X185282218Y-77124519D01*
X185277493Y-77064416D01*
X185270965Y-77007708D01*
X185261669Y-76957750D01*
X185235400Y-76882998D01*
X185196101Y-76825489D01*
X185143067Y-76783988D01*
X185091800Y-76762771D01*
X185043974Y-76761353D01*
X184993039Y-76779635D01*
X184947122Y-76809305D01*
X184904713Y-76856002D01*
X184874910Y-76917392D01*
X184855774Y-76996538D01*
X184855536Y-76998028D01*
X184849744Y-77046999D01*
X184845604Y-77105693D01*
X184843996Y-77161734D01*
X184843911Y-77254867D01*
X184697398Y-77254867D01*
X184697155Y-77204528D01*
X184697531Y-77155582D01*
X184701959Y-77048722D01*
X184712047Y-76959494D01*
X184728635Y-76884696D01*
X184752565Y-76821125D01*
X184784679Y-76765579D01*
X184825818Y-76714854D01*
X184831670Y-76708866D01*
X184880179Y-76671999D01*
X184940987Y-76640899D01*
X185005231Y-76619417D01*
X185064044Y-76611400D01*
X185085261Y-76612679D01*
G37*
X184980221Y-71713435D02*
X185072849Y-71714352D01*
X185387801Y-71717667D01*
X185409367Y-71744318D01*
X185425559Y-71770383D01*
X185428330Y-71803241D01*
X185409377Y-71837772D01*
X185405792Y-71842084D01*
X185397263Y-71850216D01*
X185385671Y-71856245D01*
X185367765Y-71860606D01*
X185340294Y-71863734D01*
X185300006Y-71866063D01*
X185243649Y-71868029D01*
X185167971Y-71870067D01*
X184948122Y-71875711D01*
X185111916Y-72056334D01*
X185190549Y-72143072D01*
X185258942Y-72218843D01*
X185314292Y-72280980D01*
X185357662Y-72331078D01*
X185390119Y-72370735D01*
X185412727Y-72401548D01*
X185426552Y-72425114D01*
X185432657Y-72443030D01*
X185432108Y-72456893D01*
X185425971Y-72468301D01*
X185415309Y-72478850D01*
X185401189Y-72490136D01*
X185395228Y-72494589D01*
X185384732Y-72500588D01*
X185370907Y-72505167D01*
X185351002Y-72508519D01*
X185322268Y-72510833D01*
X185281955Y-72512301D01*
X185227313Y-72513113D01*
X185155593Y-72513460D01*
X185064044Y-72513534D01*
X185005514Y-72513511D01*
X184926427Y-72513292D01*
X184865484Y-72512683D01*
X184819938Y-72511492D01*
X184787037Y-72509529D01*
X184764032Y-72506603D01*
X184748174Y-72502523D01*
X184736714Y-72497097D01*
X184726900Y-72490136D01*
X184702507Y-72459708D01*
X184699628Y-72424765D01*
X184718718Y-72387784D01*
X184722193Y-72383600D01*
X184730721Y-72375424D01*
X184742272Y-72369364D01*
X184760104Y-72364981D01*
X184787476Y-72361839D01*
X184827646Y-72359502D01*
X184883872Y-72357531D01*
X184959411Y-72355489D01*
X185178542Y-72349845D01*
X184937901Y-72084556D01*
X184871125Y-72010722D01*
X184813009Y-71945542D01*
X184768051Y-71893348D01*
X184735129Y-71852273D01*
X184713121Y-71820455D01*
X184700906Y-71796026D01*
X184697361Y-71777124D01*
X184701364Y-71761883D01*
X184711793Y-71748439D01*
X184727526Y-71734927D01*
X184736009Y-71728682D01*
X184746587Y-71723050D01*
X184760745Y-71718839D01*
X184781197Y-71715887D01*
X184810658Y-71714032D01*
X184851839Y-71713113D01*
X184907456Y-71712968D01*
X184980221Y-71713435D01*
G36*
X184980221Y-71713435D02*
G01*
X185072849Y-71714352D01*
X185387801Y-71717667D01*
X185409367Y-71744318D01*
X185425559Y-71770383D01*
X185428330Y-71803241D01*
X185409377Y-71837772D01*
X185405792Y-71842084D01*
X185397263Y-71850216D01*
X185385671Y-71856245D01*
X185367765Y-71860606D01*
X185340294Y-71863734D01*
X185300006Y-71866063D01*
X185243649Y-71868029D01*
X185167971Y-71870067D01*
X184948122Y-71875711D01*
X185111916Y-72056334D01*
X185190549Y-72143072D01*
X185258942Y-72218843D01*
X185314292Y-72280980D01*
X185357662Y-72331078D01*
X185390119Y-72370735D01*
X185412727Y-72401548D01*
X185426552Y-72425114D01*
X185432657Y-72443030D01*
X185432108Y-72456893D01*
X185425971Y-72468301D01*
X185415309Y-72478850D01*
X185401189Y-72490136D01*
X185395228Y-72494589D01*
X185384732Y-72500588D01*
X185370907Y-72505167D01*
X185351002Y-72508519D01*
X185322268Y-72510833D01*
X185281955Y-72512301D01*
X185227313Y-72513113D01*
X185155593Y-72513460D01*
X185064044Y-72513534D01*
X185005514Y-72513511D01*
X184926427Y-72513292D01*
X184865484Y-72512683D01*
X184819938Y-72511492D01*
X184787037Y-72509529D01*
X184764032Y-72506603D01*
X184748174Y-72502523D01*
X184736714Y-72497097D01*
X184726900Y-72490136D01*
X184702507Y-72459708D01*
X184699628Y-72424765D01*
X184718718Y-72387784D01*
X184722193Y-72383600D01*
X184730721Y-72375424D01*
X184742272Y-72369364D01*
X184760104Y-72364981D01*
X184787476Y-72361839D01*
X184827646Y-72359502D01*
X184883872Y-72357531D01*
X184959411Y-72355489D01*
X185178542Y-72349845D01*
X184937901Y-72084556D01*
X184871125Y-72010722D01*
X184813009Y-71945542D01*
X184768051Y-71893348D01*
X184735129Y-71852273D01*
X184713121Y-71820455D01*
X184700906Y-71796026D01*
X184697361Y-71777124D01*
X184701364Y-71761883D01*
X184711793Y-71748439D01*
X184727526Y-71734927D01*
X184736009Y-71728682D01*
X184746587Y-71723050D01*
X184760745Y-71718839D01*
X184781197Y-71715887D01*
X184810658Y-71714032D01*
X184851839Y-71713113D01*
X184907456Y-71712968D01*
X184980221Y-71713435D01*
G37*
X184992162Y-72853060D02*
X185039544Y-72857780D01*
X185071647Y-72869470D01*
X185091200Y-72891239D01*
X185100930Y-72926198D01*
X185103567Y-72977456D01*
X185101839Y-73048123D01*
X185098827Y-73096743D01*
X185090634Y-73146939D01*
X185076581Y-73179433D01*
X185055346Y-73196892D01*
X185025606Y-73201983D01*
X185021064Y-73201877D01*
X184986270Y-73193175D01*
X184962853Y-73169165D01*
X184949653Y-73127900D01*
X184945511Y-73067431D01*
X184945511Y-72998956D01*
X184907159Y-72998956D01*
X184898024Y-72999006D01*
X184880773Y-73001227D01*
X184870479Y-73010494D01*
X184863541Y-73031875D01*
X184856359Y-73070436D01*
X184855425Y-73075910D01*
X184845522Y-73172860D01*
X184848441Y-73262852D01*
X184863171Y-73343760D01*
X184888701Y-73413459D01*
X184924022Y-73469824D01*
X184968121Y-73510729D01*
X185019988Y-73534051D01*
X185078612Y-73537663D01*
X185107506Y-73532145D01*
X185163396Y-73505461D01*
X185209055Y-73459273D01*
X185243892Y-73394291D01*
X185267310Y-73311229D01*
X185271759Y-73286555D01*
X185282258Y-73197226D01*
X185281029Y-73117419D01*
X185268094Y-73039326D01*
X185261304Y-73004183D01*
X185260287Y-72958745D01*
X185272818Y-72927430D01*
X185299605Y-72907277D01*
X185327852Y-72900893D01*
X185359076Y-72910379D01*
X185372501Y-72919708D01*
X185396033Y-72953943D01*
X185413905Y-73006565D01*
X185425401Y-73075081D01*
X185429808Y-73157000D01*
X185425821Y-73254150D01*
X185409506Y-73360157D01*
X185381455Y-73453969D01*
X185342548Y-73532765D01*
X185293666Y-73593719D01*
X185260805Y-73619789D01*
X185211606Y-73649297D01*
X185157748Y-73674568D01*
X185106581Y-73692218D01*
X185065456Y-73698858D01*
X185045741Y-73697298D01*
X184994408Y-73684357D01*
X184937882Y-73661194D01*
X184883965Y-73631302D01*
X184840461Y-73598173D01*
X184830113Y-73587977D01*
X184778338Y-73520892D01*
X184738446Y-73440766D01*
X184714044Y-73354556D01*
X184705932Y-73299592D01*
X184699327Y-73206139D01*
X184701414Y-73116358D01*
X184711660Y-73033869D01*
X184729530Y-72962286D01*
X184754492Y-72905228D01*
X184786012Y-72866311D01*
X184787988Y-72864936D01*
X184813214Y-72857848D01*
X184860465Y-72853609D01*
X184929929Y-72852200D01*
X184992162Y-72853060D01*
G36*
X184992162Y-72853060D02*
G01*
X185039544Y-72857780D01*
X185071647Y-72869470D01*
X185091200Y-72891239D01*
X185100930Y-72926198D01*
X185103567Y-72977456D01*
X185101839Y-73048123D01*
X185098827Y-73096743D01*
X185090634Y-73146939D01*
X185076581Y-73179433D01*
X185055346Y-73196892D01*
X185025606Y-73201983D01*
X185021064Y-73201877D01*
X184986270Y-73193175D01*
X184962853Y-73169165D01*
X184949653Y-73127900D01*
X184945511Y-73067431D01*
X184945511Y-72998956D01*
X184907159Y-72998956D01*
X184898024Y-72999006D01*
X184880773Y-73001227D01*
X184870479Y-73010494D01*
X184863541Y-73031875D01*
X184856359Y-73070436D01*
X184855425Y-73075910D01*
X184845522Y-73172860D01*
X184848441Y-73262852D01*
X184863171Y-73343760D01*
X184888701Y-73413459D01*
X184924022Y-73469824D01*
X184968121Y-73510729D01*
X185019988Y-73534051D01*
X185078612Y-73537663D01*
X185107506Y-73532145D01*
X185163396Y-73505461D01*
X185209055Y-73459273D01*
X185243892Y-73394291D01*
X185267310Y-73311229D01*
X185271759Y-73286555D01*
X185282258Y-73197226D01*
X185281029Y-73117419D01*
X185268094Y-73039326D01*
X185261304Y-73004183D01*
X185260287Y-72958745D01*
X185272818Y-72927430D01*
X185299605Y-72907277D01*
X185327852Y-72900893D01*
X185359076Y-72910379D01*
X185372501Y-72919708D01*
X185396033Y-72953943D01*
X185413905Y-73006565D01*
X185425401Y-73075081D01*
X185429808Y-73157000D01*
X185425821Y-73254150D01*
X185409506Y-73360157D01*
X185381455Y-73453969D01*
X185342548Y-73532765D01*
X185293666Y-73593719D01*
X185260805Y-73619789D01*
X185211606Y-73649297D01*
X185157748Y-73674568D01*
X185106581Y-73692218D01*
X185065456Y-73698858D01*
X185045741Y-73697298D01*
X184994408Y-73684357D01*
X184937882Y-73661194D01*
X184883965Y-73631302D01*
X184840461Y-73598173D01*
X184830113Y-73587977D01*
X184778338Y-73520892D01*
X184738446Y-73440766D01*
X184714044Y-73354556D01*
X184705932Y-73299592D01*
X184699327Y-73206139D01*
X184701414Y-73116358D01*
X184711660Y-73033869D01*
X184729530Y-72962286D01*
X184754492Y-72905228D01*
X184786012Y-72866311D01*
X184787988Y-72864936D01*
X184813214Y-72857848D01*
X184860465Y-72853609D01*
X184929929Y-72852200D01*
X184992162Y-72853060D01*
G37*
X185361030Y-70650873D02*
X185381061Y-70652027D01*
X185396854Y-70656824D01*
X185408910Y-70667632D01*
X185417733Y-70686817D01*
X185423825Y-70716745D01*
X185427689Y-70759783D01*
X185429826Y-70818299D01*
X185430740Y-70894657D01*
X185430933Y-70991226D01*
X185430933Y-71281406D01*
X185401189Y-71304803D01*
X185394505Y-71309752D01*
X185383934Y-71315596D01*
X185369847Y-71320057D01*
X185349522Y-71323321D01*
X185320235Y-71325574D01*
X185279263Y-71327002D01*
X185223883Y-71327792D01*
X185151372Y-71328129D01*
X185059006Y-71328200D01*
X184993089Y-71328171D01*
X184914772Y-71327939D01*
X184854504Y-71327319D01*
X184809607Y-71326126D01*
X184777398Y-71324179D01*
X184755200Y-71321294D01*
X184740331Y-71317288D01*
X184730111Y-71311979D01*
X184721862Y-71305183D01*
X184717205Y-71300668D01*
X184710718Y-71292438D01*
X184705806Y-71281078D01*
X184702251Y-71263810D01*
X184699833Y-71237855D01*
X184698333Y-71200436D01*
X184697533Y-71148773D01*
X184697213Y-71080089D01*
X184697155Y-70991606D01*
X184697162Y-70971931D01*
X184697428Y-70884906D01*
X184698194Y-70817254D01*
X184699608Y-70766299D01*
X184701820Y-70729367D01*
X184704978Y-70703783D01*
X184709231Y-70686871D01*
X184714729Y-70675957D01*
X184724715Y-70665464D01*
X184755832Y-70652203D01*
X184791720Y-70653386D01*
X184823267Y-70669550D01*
X184825543Y-70671739D01*
X184831811Y-70680427D01*
X184836477Y-70693769D01*
X184839773Y-70714752D01*
X184841932Y-70746363D01*
X184843186Y-70791590D01*
X184843769Y-70853420D01*
X184843911Y-70934839D01*
X184843911Y-71181445D01*
X185001955Y-71181445D01*
X185001955Y-71019006D01*
X185002036Y-70983338D01*
X185002833Y-70927568D01*
X185004838Y-70888430D01*
X185008479Y-70861976D01*
X185014188Y-70844259D01*
X185022393Y-70831329D01*
X185025577Y-70827686D01*
X185056552Y-70809278D01*
X185092888Y-70808644D01*
X185126507Y-70826183D01*
X185126576Y-70826245D01*
X185135202Y-70835916D01*
X185141258Y-70849209D01*
X185145189Y-70869917D01*
X185147444Y-70901828D01*
X185148469Y-70948734D01*
X185148711Y-71014424D01*
X185148711Y-71182571D01*
X185213622Y-71179186D01*
X185278533Y-71175800D01*
X185281586Y-70933723D01*
X185281914Y-70908707D01*
X185283394Y-70827087D01*
X185285778Y-70764768D01*
X185289773Y-70719154D01*
X185296087Y-70687652D01*
X185305426Y-70667667D01*
X185318497Y-70656604D01*
X185336008Y-70651869D01*
X185358665Y-70650867D01*
X185361030Y-70650873D01*
G36*
X185361030Y-70650873D02*
G01*
X185381061Y-70652027D01*
X185396854Y-70656824D01*
X185408910Y-70667632D01*
X185417733Y-70686817D01*
X185423825Y-70716745D01*
X185427689Y-70759783D01*
X185429826Y-70818299D01*
X185430740Y-70894657D01*
X185430933Y-70991226D01*
X185430933Y-71281406D01*
X185401189Y-71304803D01*
X185394505Y-71309752D01*
X185383934Y-71315596D01*
X185369847Y-71320057D01*
X185349522Y-71323321D01*
X185320235Y-71325574D01*
X185279263Y-71327002D01*
X185223883Y-71327792D01*
X185151372Y-71328129D01*
X185059006Y-71328200D01*
X184993089Y-71328171D01*
X184914772Y-71327939D01*
X184854504Y-71327319D01*
X184809607Y-71326126D01*
X184777398Y-71324179D01*
X184755200Y-71321294D01*
X184740331Y-71317288D01*
X184730111Y-71311979D01*
X184721862Y-71305183D01*
X184717205Y-71300668D01*
X184710718Y-71292438D01*
X184705806Y-71281078D01*
X184702251Y-71263810D01*
X184699833Y-71237855D01*
X184698333Y-71200436D01*
X184697533Y-71148773D01*
X184697213Y-71080089D01*
X184697155Y-70991606D01*
X184697162Y-70971931D01*
X184697428Y-70884906D01*
X184698194Y-70817254D01*
X184699608Y-70766299D01*
X184701820Y-70729367D01*
X184704978Y-70703783D01*
X184709231Y-70686871D01*
X184714729Y-70675957D01*
X184724715Y-70665464D01*
X184755832Y-70652203D01*
X184791720Y-70653386D01*
X184823267Y-70669550D01*
X184825543Y-70671739D01*
X184831811Y-70680427D01*
X184836477Y-70693769D01*
X184839773Y-70714752D01*
X184841932Y-70746363D01*
X184843186Y-70791590D01*
X184843769Y-70853420D01*
X184843911Y-70934839D01*
X184843911Y-71181445D01*
X185001955Y-71181445D01*
X185001955Y-71019006D01*
X185002036Y-70983338D01*
X185002833Y-70927568D01*
X185004838Y-70888430D01*
X185008479Y-70861976D01*
X185014188Y-70844259D01*
X185022393Y-70831329D01*
X185025577Y-70827686D01*
X185056552Y-70809278D01*
X185092888Y-70808644D01*
X185126507Y-70826183D01*
X185126576Y-70826245D01*
X185135202Y-70835916D01*
X185141258Y-70849209D01*
X185145189Y-70869917D01*
X185147444Y-70901828D01*
X185148469Y-70948734D01*
X185148711Y-71014424D01*
X185148711Y-71182571D01*
X185213622Y-71179186D01*
X185278533Y-71175800D01*
X185281586Y-70933723D01*
X185281914Y-70908707D01*
X185283394Y-70827087D01*
X185285778Y-70764768D01*
X185289773Y-70719154D01*
X185296087Y-70687652D01*
X185305426Y-70667667D01*
X185318497Y-70656604D01*
X185336008Y-70651869D01*
X185358665Y-70650867D01*
X185361030Y-70650873D01*
G37*
X184794440Y-75589610D02*
X184821333Y-75606689D01*
X184825941Y-75611668D01*
X184832228Y-75621443D01*
X184836854Y-75635559D01*
X184840070Y-75657054D01*
X184842130Y-75688968D01*
X184843288Y-75734342D01*
X184843798Y-75796213D01*
X184843911Y-75877622D01*
X184843911Y-76125978D01*
X185001955Y-76125978D01*
X185001955Y-75964801D01*
X185002101Y-75928983D01*
X185003824Y-75863359D01*
X185008259Y-75816118D01*
X185016363Y-75784383D01*
X185029094Y-75765277D01*
X185047408Y-75755923D01*
X185072262Y-75753445D01*
X185092518Y-75754242D01*
X185114344Y-75759494D01*
X185129696Y-75772288D01*
X185139691Y-75795628D01*
X185145447Y-75832517D01*
X185148081Y-75885959D01*
X185148711Y-75958958D01*
X185148711Y-76127105D01*
X185213622Y-76123719D01*
X185278533Y-76120334D01*
X185281582Y-75872617D01*
X185282461Y-75810026D01*
X185283905Y-75741565D01*
X185285836Y-75690661D01*
X185288486Y-75654408D01*
X185292090Y-75629901D01*
X185296879Y-75614235D01*
X185303087Y-75604506D01*
X185309490Y-75598491D01*
X185341172Y-75585482D01*
X185376858Y-75589043D01*
X185407916Y-75608818D01*
X185410839Y-75612069D01*
X185417190Y-75621049D01*
X185422043Y-75633153D01*
X185425597Y-75651159D01*
X185428054Y-75677847D01*
X185429615Y-75715997D01*
X185430482Y-75768386D01*
X185430854Y-75837794D01*
X185430933Y-75927001D01*
X185430917Y-75981734D01*
X185430725Y-76058831D01*
X185430140Y-76117777D01*
X185428949Y-76161364D01*
X185426936Y-76192383D01*
X185423888Y-76213625D01*
X185419591Y-76227882D01*
X185413828Y-76237945D01*
X185406388Y-76246606D01*
X185404707Y-76248391D01*
X185397168Y-76255635D01*
X185388150Y-76261277D01*
X185375016Y-76265517D01*
X185355128Y-76268556D01*
X185325849Y-76270594D01*
X185284542Y-76271830D01*
X185228569Y-76272465D01*
X185155293Y-76272700D01*
X185062077Y-76272734D01*
X184989287Y-76272697D01*
X184911111Y-76272448D01*
X184850897Y-76271812D01*
X184806018Y-76270615D01*
X184773848Y-76268684D01*
X184751761Y-76265846D01*
X184737130Y-76261927D01*
X184727330Y-76256755D01*
X184719733Y-76250156D01*
X184716556Y-76246822D01*
X184710446Y-76238300D01*
X184705771Y-76226298D01*
X184702341Y-76208087D01*
X184699964Y-76180940D01*
X184698448Y-76142129D01*
X184697602Y-76088924D01*
X184697235Y-76018598D01*
X184697155Y-75928422D01*
X184697167Y-75886314D01*
X184697349Y-75805167D01*
X184697902Y-75742675D01*
X184699018Y-75696109D01*
X184700887Y-75662741D01*
X184703702Y-75639844D01*
X184707654Y-75624688D01*
X184712934Y-75614546D01*
X184719733Y-75606689D01*
X184741333Y-75591963D01*
X184770533Y-75584111D01*
X184794440Y-75589610D01*
G36*
X184794440Y-75589610D02*
G01*
X184821333Y-75606689D01*
X184825941Y-75611668D01*
X184832228Y-75621443D01*
X184836854Y-75635559D01*
X184840070Y-75657054D01*
X184842130Y-75688968D01*
X184843288Y-75734342D01*
X184843798Y-75796213D01*
X184843911Y-75877622D01*
X184843911Y-76125978D01*
X185001955Y-76125978D01*
X185001955Y-75964801D01*
X185002101Y-75928983D01*
X185003824Y-75863359D01*
X185008259Y-75816118D01*
X185016363Y-75784383D01*
X185029094Y-75765277D01*
X185047408Y-75755923D01*
X185072262Y-75753445D01*
X185092518Y-75754242D01*
X185114344Y-75759494D01*
X185129696Y-75772288D01*
X185139691Y-75795628D01*
X185145447Y-75832517D01*
X185148081Y-75885959D01*
X185148711Y-75958958D01*
X185148711Y-76127105D01*
X185213622Y-76123719D01*
X185278533Y-76120334D01*
X185281582Y-75872617D01*
X185282461Y-75810026D01*
X185283905Y-75741565D01*
X185285836Y-75690661D01*
X185288486Y-75654408D01*
X185292090Y-75629901D01*
X185296879Y-75614235D01*
X185303087Y-75604506D01*
X185309490Y-75598491D01*
X185341172Y-75585482D01*
X185376858Y-75589043D01*
X185407916Y-75608818D01*
X185410839Y-75612069D01*
X185417190Y-75621049D01*
X185422043Y-75633153D01*
X185425597Y-75651159D01*
X185428054Y-75677847D01*
X185429615Y-75715997D01*
X185430482Y-75768386D01*
X185430854Y-75837794D01*
X185430933Y-75927001D01*
X185430917Y-75981734D01*
X185430725Y-76058831D01*
X185430140Y-76117777D01*
X185428949Y-76161364D01*
X185426936Y-76192383D01*
X185423888Y-76213625D01*
X185419591Y-76227882D01*
X185413828Y-76237945D01*
X185406388Y-76246606D01*
X185404707Y-76248391D01*
X185397168Y-76255635D01*
X185388150Y-76261277D01*
X185375016Y-76265517D01*
X185355128Y-76268556D01*
X185325849Y-76270594D01*
X185284542Y-76271830D01*
X185228569Y-76272465D01*
X185155293Y-76272700D01*
X185062077Y-76272734D01*
X184989287Y-76272697D01*
X184911111Y-76272448D01*
X184850897Y-76271812D01*
X184806018Y-76270615D01*
X184773848Y-76268684D01*
X184751761Y-76265846D01*
X184737130Y-76261927D01*
X184727330Y-76256755D01*
X184719733Y-76250156D01*
X184716556Y-76246822D01*
X184710446Y-76238300D01*
X184705771Y-76226298D01*
X184702341Y-76208087D01*
X184699964Y-76180940D01*
X184698448Y-76142129D01*
X184697602Y-76088924D01*
X184697235Y-76018598D01*
X184697155Y-75928422D01*
X184697167Y-75886314D01*
X184697349Y-75805167D01*
X184697902Y-75742675D01*
X184699018Y-75696109D01*
X184700887Y-75662741D01*
X184703702Y-75639844D01*
X184707654Y-75624688D01*
X184712934Y-75614546D01*
X184719733Y-75606689D01*
X184741333Y-75591963D01*
X184770533Y-75584111D01*
X184794440Y-75589610D01*
G37*
X185380439Y-67318730D02*
X185401322Y-67333387D01*
X185421623Y-67359990D01*
X185421965Y-67360745D01*
X185428966Y-67380335D01*
X185429496Y-67397790D01*
X185421522Y-67414702D01*
X185403011Y-67432663D01*
X185371929Y-67453263D01*
X185326244Y-67478095D01*
X185263922Y-67508750D01*
X185182929Y-67546820D01*
X185151546Y-67561454D01*
X185088362Y-67591203D01*
X185033756Y-67617297D01*
X184990710Y-67638292D01*
X184962207Y-67652739D01*
X184951230Y-67659191D01*
X184951811Y-67660550D01*
X184965758Y-67670542D01*
X184995296Y-67687833D01*
X185036913Y-67710430D01*
X185087097Y-67736338D01*
X185118586Y-67752311D01*
X185173939Y-67781261D01*
X185212956Y-67803749D01*
X185238434Y-67821965D01*
X185253169Y-67838096D01*
X185259958Y-67854330D01*
X185261600Y-67872857D01*
X185261125Y-67883360D01*
X185256918Y-67899476D01*
X185246054Y-67914790D01*
X185225781Y-67931388D01*
X185193346Y-67951357D01*
X185145996Y-67976783D01*
X185080978Y-68009752D01*
X185061723Y-68019485D01*
X185015054Y-68043943D01*
X184978891Y-68064178D01*
X184956503Y-68078311D01*
X184951155Y-68084460D01*
X184954427Y-68085827D01*
X184975336Y-68095202D01*
X185012275Y-68112062D01*
X185062126Y-68134979D01*
X185121774Y-68162520D01*
X185188102Y-68193255D01*
X185245323Y-68219970D01*
X185307312Y-68249593D01*
X185353051Y-68272664D01*
X185385092Y-68290643D01*
X185405986Y-68304990D01*
X185418282Y-68317166D01*
X185424534Y-68328632D01*
X185427426Y-68338042D01*
X185427575Y-68363147D01*
X185412232Y-68390290D01*
X185411247Y-68391590D01*
X185388612Y-68413674D01*
X185366387Y-68424723D01*
X185365747Y-68424769D01*
X185348085Y-68420228D01*
X185313519Y-68407364D01*
X185265174Y-68387605D01*
X185206175Y-68362381D01*
X185139645Y-68333119D01*
X185068709Y-68301250D01*
X184996493Y-68268201D01*
X184926120Y-68235401D01*
X184860715Y-68204280D01*
X184803403Y-68176265D01*
X184757308Y-68152786D01*
X184725554Y-68135272D01*
X184711267Y-68125151D01*
X184697898Y-68090743D01*
X184704259Y-68049046D01*
X184708956Y-68043681D01*
X184731107Y-68027852D01*
X184767868Y-68005650D01*
X184815585Y-67979233D01*
X184870607Y-67950760D01*
X185029850Y-67870986D01*
X184883258Y-67797799D01*
X184863968Y-67788103D01*
X184811620Y-67761125D01*
X184766830Y-67737096D01*
X184733846Y-67718332D01*
X184716911Y-67707146D01*
X184715668Y-67706000D01*
X184700381Y-67677879D01*
X184698698Y-67642817D01*
X184711267Y-67611776D01*
X184714116Y-67609350D01*
X184734741Y-67597090D01*
X184772292Y-67577352D01*
X184824120Y-67551448D01*
X184887577Y-67520685D01*
X184960015Y-67486375D01*
X185038784Y-67449825D01*
X185082907Y-67429585D01*
X185163635Y-67392812D01*
X185227313Y-67364355D01*
X185276248Y-67343331D01*
X185312743Y-67328854D01*
X185339105Y-67320039D01*
X185357639Y-67316004D01*
X185370648Y-67315862D01*
X185380439Y-67318730D01*
G36*
X185380439Y-67318730D02*
G01*
X185401322Y-67333387D01*
X185421623Y-67359990D01*
X185421965Y-67360745D01*
X185428966Y-67380335D01*
X185429496Y-67397790D01*
X185421522Y-67414702D01*
X185403011Y-67432663D01*
X185371929Y-67453263D01*
X185326244Y-67478095D01*
X185263922Y-67508750D01*
X185182929Y-67546820D01*
X185151546Y-67561454D01*
X185088362Y-67591203D01*
X185033756Y-67617297D01*
X184990710Y-67638292D01*
X184962207Y-67652739D01*
X184951230Y-67659191D01*
X184951811Y-67660550D01*
X184965758Y-67670542D01*
X184995296Y-67687833D01*
X185036913Y-67710430D01*
X185087097Y-67736338D01*
X185118586Y-67752311D01*
X185173939Y-67781261D01*
X185212956Y-67803749D01*
X185238434Y-67821965D01*
X185253169Y-67838096D01*
X185259958Y-67854330D01*
X185261600Y-67872857D01*
X185261125Y-67883360D01*
X185256918Y-67899476D01*
X185246054Y-67914790D01*
X185225781Y-67931388D01*
X185193346Y-67951357D01*
X185145996Y-67976783D01*
X185080978Y-68009752D01*
X185061723Y-68019485D01*
X185015054Y-68043943D01*
X184978891Y-68064178D01*
X184956503Y-68078311D01*
X184951155Y-68084460D01*
X184954427Y-68085827D01*
X184975336Y-68095202D01*
X185012275Y-68112062D01*
X185062126Y-68134979D01*
X185121774Y-68162520D01*
X185188102Y-68193255D01*
X185245323Y-68219970D01*
X185307312Y-68249593D01*
X185353051Y-68272664D01*
X185385092Y-68290643D01*
X185405986Y-68304990D01*
X185418282Y-68317166D01*
X185424534Y-68328632D01*
X185427426Y-68338042D01*
X185427575Y-68363147D01*
X185412232Y-68390290D01*
X185411247Y-68391590D01*
X185388612Y-68413674D01*
X185366387Y-68424723D01*
X185365747Y-68424769D01*
X185348085Y-68420228D01*
X185313519Y-68407364D01*
X185265174Y-68387605D01*
X185206175Y-68362381D01*
X185139645Y-68333119D01*
X185068709Y-68301250D01*
X184996493Y-68268201D01*
X184926120Y-68235401D01*
X184860715Y-68204280D01*
X184803403Y-68176265D01*
X184757308Y-68152786D01*
X184725554Y-68135272D01*
X184711267Y-68125151D01*
X184697898Y-68090743D01*
X184704259Y-68049046D01*
X184708956Y-68043681D01*
X184731107Y-68027852D01*
X184767868Y-68005650D01*
X184815585Y-67979233D01*
X184870607Y-67950760D01*
X185029850Y-67870986D01*
X184883258Y-67797799D01*
X184863968Y-67788103D01*
X184811620Y-67761125D01*
X184766830Y-67737096D01*
X184733846Y-67718332D01*
X184716911Y-67707146D01*
X184715668Y-67706000D01*
X184700381Y-67677879D01*
X184698698Y-67642817D01*
X184711267Y-67611776D01*
X184714116Y-67609350D01*
X184734741Y-67597090D01*
X184772292Y-67577352D01*
X184824120Y-67551448D01*
X184887577Y-67520685D01*
X184960015Y-67486375D01*
X185038784Y-67449825D01*
X185082907Y-67429585D01*
X185163635Y-67392812D01*
X185227313Y-67364355D01*
X185276248Y-67343331D01*
X185312743Y-67328854D01*
X185339105Y-67320039D01*
X185357639Y-67316004D01*
X185370648Y-67315862D01*
X185380439Y-67318730D01*
G37*
X184923974Y-74511808D02*
X184956655Y-74515681D01*
X184983181Y-74528065D01*
X185014029Y-74553230D01*
X185036169Y-74574442D01*
X185058715Y-74600838D01*
X185077083Y-74630555D01*
X185092339Y-74666785D01*
X185105551Y-74712717D01*
X185117786Y-74771544D01*
X185130111Y-74846456D01*
X185143594Y-74940645D01*
X185150604Y-74985957D01*
X185165163Y-75053911D01*
X185181663Y-75103047D01*
X185199561Y-75132614D01*
X185218315Y-75141864D01*
X185237385Y-75130048D01*
X185256229Y-75096416D01*
X185257443Y-75093370D01*
X185269521Y-75047011D01*
X185277721Y-74984361D01*
X185281881Y-74910927D01*
X185281839Y-74832217D01*
X185277431Y-74753739D01*
X185268495Y-74681000D01*
X185267846Y-74677073D01*
X185260139Y-74628257D01*
X185256527Y-74596005D01*
X185257124Y-74575008D01*
X185262046Y-74559954D01*
X185271404Y-74545534D01*
X185272275Y-74544364D01*
X185302649Y-74519847D01*
X185338150Y-74515054D01*
X185372731Y-74530860D01*
X185377187Y-74535406D01*
X185392327Y-74565020D01*
X185405450Y-74612002D01*
X185416250Y-74672306D01*
X185424419Y-74741888D01*
X185429649Y-74816703D01*
X185431633Y-74892706D01*
X185430064Y-74965853D01*
X185424634Y-75032100D01*
X185415036Y-75087400D01*
X185400175Y-75138283D01*
X185367042Y-75209595D01*
X185324360Y-75260752D01*
X185272295Y-75291575D01*
X185211017Y-75301889D01*
X185179768Y-75300952D01*
X185154971Y-75295160D01*
X185133301Y-75280353D01*
X185105951Y-75252380D01*
X185098622Y-75244402D01*
X185077719Y-75220692D01*
X185060749Y-75198298D01*
X185046795Y-75174265D01*
X185034944Y-75145637D01*
X185024280Y-75109460D01*
X185013889Y-75062780D01*
X185002854Y-75002641D01*
X184990262Y-74926090D01*
X184975196Y-74830171D01*
X184972162Y-74811808D01*
X184958542Y-74749478D01*
X184942808Y-74704260D01*
X184925737Y-74677976D01*
X184908103Y-74672447D01*
X184903832Y-74675068D01*
X184888767Y-74693000D01*
X184872133Y-74721126D01*
X184866143Y-74733926D01*
X184858950Y-74755224D01*
X184854173Y-74781610D01*
X184851354Y-74817454D01*
X184850036Y-74867128D01*
X184849763Y-74935000D01*
X184849836Y-74952785D01*
X184850947Y-75020406D01*
X184853172Y-75085345D01*
X184856238Y-75140970D01*
X184859873Y-75180651D01*
X184863941Y-75216162D01*
X184864724Y-75245415D01*
X184860124Y-75264315D01*
X184849449Y-75279429D01*
X184845856Y-75283085D01*
X184814082Y-75299427D01*
X184778428Y-75298107D01*
X184747810Y-75279150D01*
X184736204Y-75258780D01*
X184723509Y-75222796D01*
X184713459Y-75180372D01*
X184712860Y-75176922D01*
X184707644Y-75134252D01*
X184703270Y-75076866D01*
X184700182Y-75011849D01*
X184698823Y-74946289D01*
X184698782Y-74930057D01*
X184701259Y-74831744D01*
X184709265Y-74751692D01*
X184723797Y-74686513D01*
X184745851Y-74632817D01*
X184776424Y-74587216D01*
X184816514Y-74546323D01*
X184842741Y-74526202D01*
X184872288Y-74514576D01*
X184912005Y-74511667D01*
X184923974Y-74511808D01*
G36*
X184923974Y-74511808D02*
G01*
X184956655Y-74515681D01*
X184983181Y-74528065D01*
X185014029Y-74553230D01*
X185036169Y-74574442D01*
X185058715Y-74600838D01*
X185077083Y-74630555D01*
X185092339Y-74666785D01*
X185105551Y-74712717D01*
X185117786Y-74771544D01*
X185130111Y-74846456D01*
X185143594Y-74940645D01*
X185150604Y-74985957D01*
X185165163Y-75053911D01*
X185181663Y-75103047D01*
X185199561Y-75132614D01*
X185218315Y-75141864D01*
X185237385Y-75130048D01*
X185256229Y-75096416D01*
X185257443Y-75093370D01*
X185269521Y-75047011D01*
X185277721Y-74984361D01*
X185281881Y-74910927D01*
X185281839Y-74832217D01*
X185277431Y-74753739D01*
X185268495Y-74681000D01*
X185267846Y-74677073D01*
X185260139Y-74628257D01*
X185256527Y-74596005D01*
X185257124Y-74575008D01*
X185262046Y-74559954D01*
X185271404Y-74545534D01*
X185272275Y-74544364D01*
X185302649Y-74519847D01*
X185338150Y-74515054D01*
X185372731Y-74530860D01*
X185377187Y-74535406D01*
X185392327Y-74565020D01*
X185405450Y-74612002D01*
X185416250Y-74672306D01*
X185424419Y-74741888D01*
X185429649Y-74816703D01*
X185431633Y-74892706D01*
X185430064Y-74965853D01*
X185424634Y-75032100D01*
X185415036Y-75087400D01*
X185400175Y-75138283D01*
X185367042Y-75209595D01*
X185324360Y-75260752D01*
X185272295Y-75291575D01*
X185211017Y-75301889D01*
X185179768Y-75300952D01*
X185154971Y-75295160D01*
X185133301Y-75280353D01*
X185105951Y-75252380D01*
X185098622Y-75244402D01*
X185077719Y-75220692D01*
X185060749Y-75198298D01*
X185046795Y-75174265D01*
X185034944Y-75145637D01*
X185024280Y-75109460D01*
X185013889Y-75062780D01*
X185002854Y-75002641D01*
X184990262Y-74926090D01*
X184975196Y-74830171D01*
X184972162Y-74811808D01*
X184958542Y-74749478D01*
X184942808Y-74704260D01*
X184925737Y-74677976D01*
X184908103Y-74672447D01*
X184903832Y-74675068D01*
X184888767Y-74693000D01*
X184872133Y-74721126D01*
X184866143Y-74733926D01*
X184858950Y-74755224D01*
X184854173Y-74781610D01*
X184851354Y-74817454D01*
X184850036Y-74867128D01*
X184849763Y-74935000D01*
X184849836Y-74952785D01*
X184850947Y-75020406D01*
X184853172Y-75085345D01*
X184856238Y-75140970D01*
X184859873Y-75180651D01*
X184863941Y-75216162D01*
X184864724Y-75245415D01*
X184860124Y-75264315D01*
X184849449Y-75279429D01*
X184845856Y-75283085D01*
X184814082Y-75299427D01*
X184778428Y-75298107D01*
X184747810Y-75279150D01*
X184736204Y-75258780D01*
X184723509Y-75222796D01*
X184713459Y-75180372D01*
X184712860Y-75176922D01*
X184707644Y-75134252D01*
X184703270Y-75076866D01*
X184700182Y-75011849D01*
X184698823Y-74946289D01*
X184698782Y-74930057D01*
X184701259Y-74831744D01*
X184709265Y-74751692D01*
X184723797Y-74686513D01*
X184745851Y-74632817D01*
X184776424Y-74587216D01*
X184816514Y-74546323D01*
X184842741Y-74526202D01*
X184872288Y-74514576D01*
X184912005Y-74511667D01*
X184923974Y-74511808D01*
G37*
X186556016Y-69860076D02*
X186575921Y-69871250D01*
X186611580Y-69892134D01*
X186660541Y-69921265D01*
X186720354Y-69957181D01*
X186788567Y-69998420D01*
X186862729Y-70043517D01*
X187159992Y-70224785D01*
X187115461Y-70271315D01*
X187037135Y-70362723D01*
X186962561Y-70476334D01*
X186908526Y-70594122D01*
X186875710Y-70714559D01*
X186864789Y-70836117D01*
X186866132Y-70877585D01*
X186884388Y-70995080D01*
X186923383Y-71105089D01*
X186982330Y-71206430D01*
X187060443Y-71297921D01*
X187156936Y-71378380D01*
X187271022Y-71446627D01*
X187305276Y-71462908D01*
X187428760Y-71508982D01*
X187567082Y-71544106D01*
X187716439Y-71568197D01*
X187873027Y-71581173D01*
X188033044Y-71582949D01*
X188192686Y-71573443D01*
X188348150Y-71552572D01*
X188495634Y-71520252D01*
X188631333Y-71476399D01*
X188717924Y-71438982D01*
X188831312Y-71374185D01*
X188924930Y-71298772D01*
X188999041Y-71212418D01*
X189053906Y-71114795D01*
X189089788Y-71005577D01*
X189106949Y-70884439D01*
X189108120Y-70815038D01*
X189093859Y-70692168D01*
X189058759Y-70576664D01*
X189003318Y-70469953D01*
X188928036Y-70373464D01*
X188913560Y-70357720D01*
X188887038Y-70327150D01*
X188869862Y-70304809D01*
X188865213Y-70294691D01*
X188867403Y-70292706D01*
X188886279Y-70278241D01*
X188919603Y-70254400D01*
X188964620Y-70223029D01*
X189018575Y-70185974D01*
X189078715Y-70145083D01*
X189142282Y-70102202D01*
X189206524Y-70059178D01*
X189268685Y-70017857D01*
X189326009Y-69980086D01*
X189375743Y-69947712D01*
X189415132Y-69922582D01*
X189441420Y-69906542D01*
X189451853Y-69901439D01*
X189456059Y-69906050D01*
X189461067Y-69925267D01*
X189463614Y-69934838D01*
X189474751Y-69962809D01*
X189493198Y-70004448D01*
X189517275Y-70055995D01*
X189545301Y-70113690D01*
X189550846Y-70124957D01*
X189630111Y-70302687D01*
X189689615Y-70472490D01*
X189729755Y-70636430D01*
X189750929Y-70796571D01*
X189753534Y-70954977D01*
X189737967Y-71113711D01*
X189720477Y-71209268D01*
X189675436Y-71373558D01*
X189612344Y-71527589D01*
X189530085Y-71673509D01*
X189427543Y-71813466D01*
X189303601Y-71949608D01*
X189258339Y-71993473D01*
X189126135Y-72105758D01*
X188988168Y-72198972D01*
X188840250Y-72275719D01*
X188678197Y-72338603D01*
X188666609Y-72342420D01*
X188480608Y-72392507D01*
X188284479Y-72425899D01*
X188082432Y-72442584D01*
X187878675Y-72442551D01*
X187677419Y-72425791D01*
X187482872Y-72392292D01*
X187299244Y-72342044D01*
X187181947Y-72298190D01*
X187019049Y-72220348D01*
X186865134Y-72126828D01*
X186723329Y-72019822D01*
X186596761Y-71901519D01*
X186488559Y-71774111D01*
X186435880Y-71696606D01*
X186366250Y-71569725D01*
X186307532Y-71432243D01*
X186262413Y-71290716D01*
X186233578Y-71151702D01*
X186231894Y-71137597D01*
X186228566Y-71094153D01*
X186225725Y-71036723D01*
X186223627Y-70971122D01*
X186222532Y-70903167D01*
X186224860Y-70776378D01*
X186237864Y-70628673D01*
X186262867Y-70490779D01*
X186300682Y-70357014D01*
X186309111Y-70333562D01*
X186328592Y-70285612D01*
X186353527Y-70229140D01*
X186382278Y-70167379D01*
X186413210Y-70103563D01*
X186444685Y-70040926D01*
X186475066Y-69982703D01*
X186502717Y-69932127D01*
X186526001Y-69892433D01*
X186543282Y-69866854D01*
X186552921Y-69858625D01*
X186556016Y-69860076D01*
G36*
X186556016Y-69860076D02*
G01*
X186575921Y-69871250D01*
X186611580Y-69892134D01*
X186660541Y-69921265D01*
X186720354Y-69957181D01*
X186788567Y-69998420D01*
X186862729Y-70043517D01*
X187159992Y-70224785D01*
X187115461Y-70271315D01*
X187037135Y-70362723D01*
X186962561Y-70476334D01*
X186908526Y-70594122D01*
X186875710Y-70714559D01*
X186864789Y-70836117D01*
X186866132Y-70877585D01*
X186884388Y-70995080D01*
X186923383Y-71105089D01*
X186982330Y-71206430D01*
X187060443Y-71297921D01*
X187156936Y-71378380D01*
X187271022Y-71446627D01*
X187305276Y-71462908D01*
X187428760Y-71508982D01*
X187567082Y-71544106D01*
X187716439Y-71568197D01*
X187873027Y-71581173D01*
X188033044Y-71582949D01*
X188192686Y-71573443D01*
X188348150Y-71552572D01*
X188495634Y-71520252D01*
X188631333Y-71476399D01*
X188717924Y-71438982D01*
X188831312Y-71374185D01*
X188924930Y-71298772D01*
X188999041Y-71212418D01*
X189053906Y-71114795D01*
X189089788Y-71005577D01*
X189106949Y-70884439D01*
X189108120Y-70815038D01*
X189093859Y-70692168D01*
X189058759Y-70576664D01*
X189003318Y-70469953D01*
X188928036Y-70373464D01*
X188913560Y-70357720D01*
X188887038Y-70327150D01*
X188869862Y-70304809D01*
X188865213Y-70294691D01*
X188867403Y-70292706D01*
X188886279Y-70278241D01*
X188919603Y-70254400D01*
X188964620Y-70223029D01*
X189018575Y-70185974D01*
X189078715Y-70145083D01*
X189142282Y-70102202D01*
X189206524Y-70059178D01*
X189268685Y-70017857D01*
X189326009Y-69980086D01*
X189375743Y-69947712D01*
X189415132Y-69922582D01*
X189441420Y-69906542D01*
X189451853Y-69901439D01*
X189456059Y-69906050D01*
X189461067Y-69925267D01*
X189463614Y-69934838D01*
X189474751Y-69962809D01*
X189493198Y-70004448D01*
X189517275Y-70055995D01*
X189545301Y-70113690D01*
X189550846Y-70124957D01*
X189630111Y-70302687D01*
X189689615Y-70472490D01*
X189729755Y-70636430D01*
X189750929Y-70796571D01*
X189753534Y-70954977D01*
X189737967Y-71113711D01*
X189720477Y-71209268D01*
X189675436Y-71373558D01*
X189612344Y-71527589D01*
X189530085Y-71673509D01*
X189427543Y-71813466D01*
X189303601Y-71949608D01*
X189258339Y-71993473D01*
X189126135Y-72105758D01*
X188988168Y-72198972D01*
X188840250Y-72275719D01*
X188678197Y-72338603D01*
X188666609Y-72342420D01*
X188480608Y-72392507D01*
X188284479Y-72425899D01*
X188082432Y-72442584D01*
X187878675Y-72442551D01*
X187677419Y-72425791D01*
X187482872Y-72392292D01*
X187299244Y-72342044D01*
X187181947Y-72298190D01*
X187019049Y-72220348D01*
X186865134Y-72126828D01*
X186723329Y-72019822D01*
X186596761Y-71901519D01*
X186488559Y-71774111D01*
X186435880Y-71696606D01*
X186366250Y-71569725D01*
X186307532Y-71432243D01*
X186262413Y-71290716D01*
X186233578Y-71151702D01*
X186231894Y-71137597D01*
X186228566Y-71094153D01*
X186225725Y-71036723D01*
X186223627Y-70971122D01*
X186222532Y-70903167D01*
X186224860Y-70776378D01*
X186237864Y-70628673D01*
X186262867Y-70490779D01*
X186300682Y-70357014D01*
X186309111Y-70333562D01*
X186328592Y-70285612D01*
X186353527Y-70229140D01*
X186382278Y-70167379D01*
X186413210Y-70103563D01*
X186444685Y-70040926D01*
X186475066Y-69982703D01*
X186502717Y-69932127D01*
X186526001Y-69892433D01*
X186543282Y-69866854D01*
X186552921Y-69858625D01*
X186556016Y-69860076D01*
G37*
X186327026Y-64871161D02*
X186336132Y-64876355D01*
X186350751Y-64884715D01*
X186364827Y-64892288D01*
X186379460Y-64899112D01*
X186395751Y-64905227D01*
X186414802Y-64910673D01*
X186437714Y-64915487D01*
X186465587Y-64919708D01*
X186499522Y-64923377D01*
X186540621Y-64926531D01*
X186589985Y-64929211D01*
X186648714Y-64931454D01*
X186717910Y-64933299D01*
X186798674Y-64934787D01*
X186892106Y-64935955D01*
X186999308Y-64936844D01*
X187121380Y-64937491D01*
X187259424Y-64937936D01*
X187414541Y-64938218D01*
X187587832Y-64938375D01*
X187780397Y-64938448D01*
X187993338Y-64938474D01*
X188227755Y-64938493D01*
X189912622Y-64938689D01*
X189912622Y-65844017D01*
X189875933Y-65819585D01*
X189866353Y-65813318D01*
X189820019Y-65787208D01*
X189772898Y-65769469D01*
X189717749Y-65757908D01*
X189647333Y-65750331D01*
X189640350Y-65749839D01*
X189602359Y-65748062D01*
X189548424Y-65746444D01*
X189481297Y-65744999D01*
X189403729Y-65743740D01*
X189318472Y-65742680D01*
X189228276Y-65741829D01*
X189135893Y-65741203D01*
X189044075Y-65740812D01*
X188955573Y-65740670D01*
X188873138Y-65740790D01*
X188799521Y-65741183D01*
X188737474Y-65741862D01*
X188689749Y-65742841D01*
X188659096Y-65744132D01*
X188648267Y-65745747D01*
X188652667Y-65753957D01*
X188667638Y-65775647D01*
X188689552Y-65805014D01*
X188723764Y-65853879D01*
X188770286Y-65942125D01*
X188803954Y-66040916D01*
X188825769Y-66153510D01*
X188836735Y-66283164D01*
X188837781Y-66375670D01*
X188827986Y-66497011D01*
X188803826Y-66607099D01*
X188764215Y-66710389D01*
X188708068Y-66811338D01*
X188677117Y-66856503D01*
X188585885Y-66961911D01*
X188476894Y-67053538D01*
X188350274Y-67131332D01*
X188206155Y-67195241D01*
X188044668Y-67245214D01*
X187865941Y-67281198D01*
X187670105Y-67303143D01*
X187514066Y-67308900D01*
X187457289Y-67310994D01*
X187379842Y-67310268D01*
X187228406Y-67301689D01*
X187091717Y-67282833D01*
X186965724Y-67252837D01*
X186846375Y-67210836D01*
X186729619Y-67155969D01*
X186618821Y-67089167D01*
X186505261Y-66998363D01*
X186409789Y-66894708D01*
X186332927Y-66778887D01*
X186275203Y-66651586D01*
X186237142Y-66513489D01*
X186231334Y-66475793D01*
X186225604Y-66396752D01*
X186225417Y-66308629D01*
X186230461Y-66219236D01*
X186240422Y-66136384D01*
X186245112Y-66114331D01*
X186838459Y-66114331D01*
X186846635Y-66198900D01*
X186874195Y-66272219D01*
X186921358Y-66334637D01*
X186988342Y-66386502D01*
X187075367Y-66428160D01*
X187182650Y-66459962D01*
X187194991Y-66462545D01*
X187256228Y-66471000D01*
X187333308Y-66476663D01*
X187420998Y-66479576D01*
X187514066Y-66479783D01*
X187607280Y-66477330D01*
X187695406Y-66472261D01*
X187773212Y-66464619D01*
X187835467Y-66454448D01*
X187841334Y-66453167D01*
X187951879Y-66424126D01*
X188042425Y-66389610D01*
X188115047Y-66348456D01*
X188171819Y-66299499D01*
X188214816Y-66241574D01*
X188230385Y-66209620D01*
X188249278Y-66136784D01*
X188252535Y-66055443D01*
X188240611Y-65970319D01*
X188213960Y-65886133D01*
X188173038Y-65807608D01*
X188129470Y-65740200D01*
X186979279Y-65740200D01*
X186932911Y-65810756D01*
X186909209Y-65851417D01*
X186883361Y-65905546D01*
X186865171Y-65954689D01*
X186849449Y-66018165D01*
X186838459Y-66114331D01*
X186245112Y-66114331D01*
X186254988Y-66067887D01*
X186264636Y-66037035D01*
X186294877Y-65959730D01*
X186332383Y-65882679D01*
X186373386Y-65813200D01*
X186414121Y-65758615D01*
X186433495Y-65735916D01*
X186451338Y-65713201D01*
X186458222Y-65701779D01*
X186456576Y-65700537D01*
X186438795Y-65697728D01*
X186405630Y-65695776D01*
X186362267Y-65695045D01*
X186266311Y-65695045D01*
X186266311Y-64836896D01*
X186327026Y-64871161D01*
G36*
X186327026Y-64871161D02*
G01*
X186336132Y-64876355D01*
X186350751Y-64884715D01*
X186364827Y-64892288D01*
X186379460Y-64899112D01*
X186395751Y-64905227D01*
X186414802Y-64910673D01*
X186437714Y-64915487D01*
X186465587Y-64919708D01*
X186499522Y-64923377D01*
X186540621Y-64926531D01*
X186589985Y-64929211D01*
X186648714Y-64931454D01*
X186717910Y-64933299D01*
X186798674Y-64934787D01*
X186892106Y-64935955D01*
X186999308Y-64936844D01*
X187121380Y-64937491D01*
X187259424Y-64937936D01*
X187414541Y-64938218D01*
X187587832Y-64938375D01*
X187780397Y-64938448D01*
X187993338Y-64938474D01*
X188227755Y-64938493D01*
X189912622Y-64938689D01*
X189912622Y-65844017D01*
X189875933Y-65819585D01*
X189866353Y-65813318D01*
X189820019Y-65787208D01*
X189772898Y-65769469D01*
X189717749Y-65757908D01*
X189647333Y-65750331D01*
X189640350Y-65749839D01*
X189602359Y-65748062D01*
X189548424Y-65746444D01*
X189481297Y-65744999D01*
X189403729Y-65743740D01*
X189318472Y-65742680D01*
X189228276Y-65741829D01*
X189135893Y-65741203D01*
X189044075Y-65740812D01*
X188955573Y-65740670D01*
X188873138Y-65740790D01*
X188799521Y-65741183D01*
X188737474Y-65741862D01*
X188689749Y-65742841D01*
X188659096Y-65744132D01*
X188648267Y-65745747D01*
X188652667Y-65753957D01*
X188667638Y-65775647D01*
X188689552Y-65805014D01*
X188723764Y-65853879D01*
X188770286Y-65942125D01*
X188803954Y-66040916D01*
X188825769Y-66153510D01*
X188836735Y-66283164D01*
X188837781Y-66375670D01*
X188827986Y-66497011D01*
X188803826Y-66607099D01*
X188764215Y-66710389D01*
X188708068Y-66811338D01*
X188677117Y-66856503D01*
X188585885Y-66961911D01*
X188476894Y-67053538D01*
X188350274Y-67131332D01*
X188206155Y-67195241D01*
X188044668Y-67245214D01*
X187865941Y-67281198D01*
X187670105Y-67303143D01*
X187514066Y-67308900D01*
X187457289Y-67310994D01*
X187379842Y-67310268D01*
X187228406Y-67301689D01*
X187091717Y-67282833D01*
X186965724Y-67252837D01*
X186846375Y-67210836D01*
X186729619Y-67155969D01*
X186618821Y-67089167D01*
X186505261Y-66998363D01*
X186409789Y-66894708D01*
X186332927Y-66778887D01*
X186275203Y-66651586D01*
X186237142Y-66513489D01*
X186231334Y-66475793D01*
X186225604Y-66396752D01*
X186225417Y-66308629D01*
X186230461Y-66219236D01*
X186240422Y-66136384D01*
X186245112Y-66114331D01*
X186838459Y-66114331D01*
X186846635Y-66198900D01*
X186874195Y-66272219D01*
X186921358Y-66334637D01*
X186988342Y-66386502D01*
X187075367Y-66428160D01*
X187182650Y-66459962D01*
X187194991Y-66462545D01*
X187256228Y-66471000D01*
X187333308Y-66476663D01*
X187420998Y-66479576D01*
X187514066Y-66479783D01*
X187607280Y-66477330D01*
X187695406Y-66472261D01*
X187773212Y-66464619D01*
X187835467Y-66454448D01*
X187841334Y-66453167D01*
X187951879Y-66424126D01*
X188042425Y-66389610D01*
X188115047Y-66348456D01*
X188171819Y-66299499D01*
X188214816Y-66241574D01*
X188230385Y-66209620D01*
X188249278Y-66136784D01*
X188252535Y-66055443D01*
X188240611Y-65970319D01*
X188213960Y-65886133D01*
X188173038Y-65807608D01*
X188129470Y-65740200D01*
X186979279Y-65740200D01*
X186932911Y-65810756D01*
X186909209Y-65851417D01*
X186883361Y-65905546D01*
X186865171Y-65954689D01*
X186849449Y-66018165D01*
X186838459Y-66114331D01*
X186245112Y-66114331D01*
X186254988Y-66067887D01*
X186264636Y-66037035D01*
X186294877Y-65959730D01*
X186332383Y-65882679D01*
X186373386Y-65813200D01*
X186414121Y-65758615D01*
X186433495Y-65735916D01*
X186451338Y-65713201D01*
X186458222Y-65701779D01*
X186456576Y-65700537D01*
X186438795Y-65697728D01*
X186405630Y-65695776D01*
X186362267Y-65695045D01*
X186266311Y-65695045D01*
X186266311Y-64836896D01*
X186327026Y-64871161D01*
G37*
X186276537Y-67512578D02*
X186292090Y-67519614D01*
X186314929Y-67535434D01*
X186320362Y-67539734D01*
X186334394Y-67550777D01*
X186347814Y-67560311D01*
X186362278Y-67568461D01*
X186379444Y-67575352D01*
X186400966Y-67581111D01*
X186428502Y-67585862D01*
X186463708Y-67589731D01*
X186508240Y-67592844D01*
X186563754Y-67595325D01*
X186631907Y-67597300D01*
X186714355Y-67598894D01*
X186812754Y-67600234D01*
X186928761Y-67601444D01*
X187064032Y-67602649D01*
X187220222Y-67603975D01*
X187362988Y-67605228D01*
X187508058Y-67606651D01*
X187633973Y-67608176D01*
X187742564Y-67609933D01*
X187835666Y-67612051D01*
X187915109Y-67614660D01*
X187982727Y-67617890D01*
X188040351Y-67621869D01*
X188089815Y-67626728D01*
X188132950Y-67632597D01*
X188171590Y-67639604D01*
X188207566Y-67647880D01*
X188242711Y-67657554D01*
X188278858Y-67668756D01*
X188317839Y-67681616D01*
X188360909Y-67697090D01*
X188453129Y-67739994D01*
X188532901Y-67793735D01*
X188607035Y-67862576D01*
X188670595Y-67940185D01*
X188732275Y-68044761D01*
X188779798Y-68164244D01*
X188813433Y-68299508D01*
X188833448Y-68451426D01*
X188840111Y-68620872D01*
X188839713Y-68678890D01*
X188837665Y-68744398D01*
X188833296Y-68805693D01*
X188825965Y-68867097D01*
X188815031Y-68932932D01*
X188799853Y-69007520D01*
X188779791Y-69095184D01*
X188754203Y-69200245D01*
X188747180Y-69228806D01*
X188729224Y-69304054D01*
X188713180Y-69374388D01*
X188699972Y-69435567D01*
X188690526Y-69483354D01*
X188685769Y-69513511D01*
X188682090Y-69541783D01*
X188676813Y-69568060D01*
X188672058Y-69578059D01*
X188663219Y-69574952D01*
X188635928Y-69564194D01*
X188593094Y-69546864D01*
X188537575Y-69524126D01*
X188472228Y-69497147D01*
X188399911Y-69467090D01*
X188384121Y-69460493D01*
X188293516Y-69421907D01*
X188223783Y-69390768D01*
X188174595Y-69366917D01*
X188145626Y-69350198D01*
X188136548Y-69340454D01*
X188138595Y-69332766D01*
X188148240Y-69306415D01*
X188163810Y-69267982D01*
X188183185Y-69222822D01*
X188221186Y-69128293D01*
X188262220Y-68991480D01*
X188287388Y-68850289D01*
X188291389Y-68812314D01*
X188293553Y-68709059D01*
X188280378Y-68621952D01*
X188251244Y-68550129D01*
X188205534Y-68492731D01*
X188142628Y-68448896D01*
X188061908Y-68417762D01*
X187962755Y-68398470D01*
X187903776Y-68391050D01*
X187910555Y-68552936D01*
X187912187Y-68679495D01*
X187905806Y-68830951D01*
X187891223Y-68979396D01*
X187869118Y-69115578D01*
X187854179Y-69180245D01*
X187811259Y-69312490D01*
X187754660Y-69434762D01*
X187685983Y-69544685D01*
X187606830Y-69639883D01*
X187518804Y-69717980D01*
X187423507Y-69776599D01*
X187371136Y-69800595D01*
X187300410Y-69826232D01*
X187229188Y-69842478D01*
X187150288Y-69850822D01*
X187059718Y-69852690D01*
X187056533Y-69852755D01*
X187022637Y-69852261D01*
X186947798Y-69848632D01*
X186885599Y-69841022D01*
X186829016Y-69828688D01*
X186702924Y-69784313D01*
X186588321Y-69721400D01*
X186487432Y-69641238D01*
X186401076Y-69544740D01*
X186330068Y-69432822D01*
X186275224Y-69306397D01*
X186237362Y-69166378D01*
X186231649Y-69130149D01*
X186225687Y-69051155D01*
X186225354Y-68962841D01*
X186230341Y-68873075D01*
X186240334Y-68789722D01*
X186245453Y-68765648D01*
X186788617Y-68765648D01*
X186791460Y-68841011D01*
X186803380Y-68901743D01*
X186825963Y-68953452D01*
X186860789Y-69001746D01*
X186865202Y-69006803D01*
X186920840Y-69055272D01*
X186984667Y-69083459D01*
X187059718Y-69092752D01*
X187131307Y-69085520D01*
X187194355Y-69060796D01*
X187252242Y-69016249D01*
X187299192Y-68961319D01*
X187339039Y-68888894D01*
X187366737Y-68802340D01*
X187382904Y-68699670D01*
X187388158Y-68578894D01*
X187388143Y-68570007D01*
X187387345Y-68514660D01*
X187385512Y-68467736D01*
X187382889Y-68433953D01*
X187379726Y-68418028D01*
X187373259Y-68413943D01*
X187351125Y-68409572D01*
X187312012Y-68406604D01*
X187254061Y-68404914D01*
X187175414Y-68404378D01*
X186979538Y-68404378D01*
X186923027Y-68449048D01*
X186907788Y-68461785D01*
X186865156Y-68508604D01*
X186829328Y-68569255D01*
X186824150Y-68579897D01*
X186807255Y-68618676D01*
X186797091Y-68653692D01*
X186791675Y-68693722D01*
X186789022Y-68747541D01*
X186788617Y-68765648D01*
X186245453Y-68765648D01*
X186255022Y-68720651D01*
X186285251Y-68634187D01*
X186339943Y-68524286D01*
X186407457Y-68426956D01*
X186458444Y-68364867D01*
X186362378Y-68361605D01*
X186266311Y-68358343D01*
X186266311Y-67935450D01*
X186266314Y-67924543D01*
X186266620Y-67830056D01*
X186267384Y-67743331D01*
X186268549Y-67666837D01*
X186270058Y-67603043D01*
X186271853Y-67554418D01*
X186273879Y-67523433D01*
X186276078Y-67512556D01*
X186276537Y-67512578D01*
G36*
X186276537Y-67512578D02*
G01*
X186292090Y-67519614D01*
X186314929Y-67535434D01*
X186320362Y-67539734D01*
X186334394Y-67550777D01*
X186347814Y-67560311D01*
X186362278Y-67568461D01*
X186379444Y-67575352D01*
X186400966Y-67581111D01*
X186428502Y-67585862D01*
X186463708Y-67589731D01*
X186508240Y-67592844D01*
X186563754Y-67595325D01*
X186631907Y-67597300D01*
X186714355Y-67598894D01*
X186812754Y-67600234D01*
X186928761Y-67601444D01*
X187064032Y-67602649D01*
X187220222Y-67603975D01*
X187362988Y-67605228D01*
X187508058Y-67606651D01*
X187633973Y-67608176D01*
X187742564Y-67609933D01*
X187835666Y-67612051D01*
X187915109Y-67614660D01*
X187982727Y-67617890D01*
X188040351Y-67621869D01*
X188089815Y-67626728D01*
X188132950Y-67632597D01*
X188171590Y-67639604D01*
X188207566Y-67647880D01*
X188242711Y-67657554D01*
X188278858Y-67668756D01*
X188317839Y-67681616D01*
X188360909Y-67697090D01*
X188453129Y-67739994D01*
X188532901Y-67793735D01*
X188607035Y-67862576D01*
X188670595Y-67940185D01*
X188732275Y-68044761D01*
X188779798Y-68164244D01*
X188813433Y-68299508D01*
X188833448Y-68451426D01*
X188840111Y-68620872D01*
X188839713Y-68678890D01*
X188837665Y-68744398D01*
X188833296Y-68805693D01*
X188825965Y-68867097D01*
X188815031Y-68932932D01*
X188799853Y-69007520D01*
X188779791Y-69095184D01*
X188754203Y-69200245D01*
X188747180Y-69228806D01*
X188729224Y-69304054D01*
X188713180Y-69374388D01*
X188699972Y-69435567D01*
X188690526Y-69483354D01*
X188685769Y-69513511D01*
X188682090Y-69541783D01*
X188676813Y-69568060D01*
X188672058Y-69578059D01*
X188663219Y-69574952D01*
X188635928Y-69564194D01*
X188593094Y-69546864D01*
X188537575Y-69524126D01*
X188472228Y-69497147D01*
X188399911Y-69467090D01*
X188384121Y-69460493D01*
X188293516Y-69421907D01*
X188223783Y-69390768D01*
X188174595Y-69366917D01*
X188145626Y-69350198D01*
X188136548Y-69340454D01*
X188138595Y-69332766D01*
X188148240Y-69306415D01*
X188163810Y-69267982D01*
X188183185Y-69222822D01*
X188221186Y-69128293D01*
X188262220Y-68991480D01*
X188287388Y-68850289D01*
X188291389Y-68812314D01*
X188293553Y-68709059D01*
X188280378Y-68621952D01*
X188251244Y-68550129D01*
X188205534Y-68492731D01*
X188142628Y-68448896D01*
X188061908Y-68417762D01*
X187962755Y-68398470D01*
X187903776Y-68391050D01*
X187910555Y-68552936D01*
X187912187Y-68679495D01*
X187905806Y-68830951D01*
X187891223Y-68979396D01*
X187869118Y-69115578D01*
X187854179Y-69180245D01*
X187811259Y-69312490D01*
X187754660Y-69434762D01*
X187685983Y-69544685D01*
X187606830Y-69639883D01*
X187518804Y-69717980D01*
X187423507Y-69776599D01*
X187371136Y-69800595D01*
X187300410Y-69826232D01*
X187229188Y-69842478D01*
X187150288Y-69850822D01*
X187059718Y-69852690D01*
X187056533Y-69852755D01*
X187022637Y-69852261D01*
X186947798Y-69848632D01*
X186885599Y-69841022D01*
X186829016Y-69828688D01*
X186702924Y-69784313D01*
X186588321Y-69721400D01*
X186487432Y-69641238D01*
X186401076Y-69544740D01*
X186330068Y-69432822D01*
X186275224Y-69306397D01*
X186237362Y-69166378D01*
X186231649Y-69130149D01*
X186225687Y-69051155D01*
X186225354Y-68962841D01*
X186230341Y-68873075D01*
X186240334Y-68789722D01*
X186245453Y-68765648D01*
X186788617Y-68765648D01*
X186791460Y-68841011D01*
X186803380Y-68901743D01*
X186825963Y-68953452D01*
X186860789Y-69001746D01*
X186865202Y-69006803D01*
X186920840Y-69055272D01*
X186984667Y-69083459D01*
X187059718Y-69092752D01*
X187131307Y-69085520D01*
X187194355Y-69060796D01*
X187252242Y-69016249D01*
X187299192Y-68961319D01*
X187339039Y-68888894D01*
X187366737Y-68802340D01*
X187382904Y-68699670D01*
X187388158Y-68578894D01*
X187388143Y-68570007D01*
X187387345Y-68514660D01*
X187385512Y-68467736D01*
X187382889Y-68433953D01*
X187379726Y-68418028D01*
X187373259Y-68413943D01*
X187351125Y-68409572D01*
X187312012Y-68406604D01*
X187254061Y-68404914D01*
X187175414Y-68404378D01*
X186979538Y-68404378D01*
X186923027Y-68449048D01*
X186907788Y-68461785D01*
X186865156Y-68508604D01*
X186829328Y-68569255D01*
X186824150Y-68579897D01*
X186807255Y-68618676D01*
X186797091Y-68653692D01*
X186791675Y-68693722D01*
X186789022Y-68747541D01*
X186788617Y-68765648D01*
X186245453Y-68765648D01*
X186255022Y-68720651D01*
X186285251Y-68634187D01*
X186339943Y-68524286D01*
X186407457Y-68426956D01*
X186458444Y-68364867D01*
X186362378Y-68361605D01*
X186266311Y-68358343D01*
X186266311Y-67935450D01*
X186266314Y-67924543D01*
X186266620Y-67830056D01*
X186267384Y-67743331D01*
X186268549Y-67666837D01*
X186270058Y-67603043D01*
X186271853Y-67554418D01*
X186273879Y-67523433D01*
X186276078Y-67512556D01*
X186276537Y-67512578D01*
G37*
X190269351Y-72721249D02*
X190293089Y-72748355D01*
X190304889Y-72775253D01*
X190307733Y-72811560D01*
X190307733Y-72863489D01*
X190219794Y-72863489D01*
X190169898Y-72865427D01*
X190059477Y-72884199D01*
X189958013Y-72921217D01*
X189866848Y-72974369D01*
X189787327Y-73041546D01*
X189720795Y-73120638D01*
X189668594Y-73209534D01*
X189632070Y-73306125D01*
X189612566Y-73408300D01*
X189611427Y-73513950D01*
X189629995Y-73620964D01*
X189669616Y-73727232D01*
X189727484Y-73824219D01*
X189802316Y-73909293D01*
X189890385Y-73978015D01*
X189989384Y-74028918D01*
X190097007Y-74060535D01*
X190210946Y-74071400D01*
X190307733Y-74071400D01*
X190307733Y-75691753D01*
X190307720Y-75902897D01*
X190307670Y-76107020D01*
X190307570Y-76290686D01*
X190307408Y-76454991D01*
X190307171Y-76601029D01*
X190306847Y-76729894D01*
X190306425Y-76842683D01*
X190305891Y-76940488D01*
X190305233Y-77024404D01*
X190304439Y-77095527D01*
X190303496Y-77154950D01*
X190302392Y-77203768D01*
X190301116Y-77243077D01*
X190299653Y-77273969D01*
X190297993Y-77297541D01*
X190296122Y-77314886D01*
X190294028Y-77327099D01*
X190291700Y-77335275D01*
X190289124Y-77340508D01*
X190285555Y-77346504D01*
X190282022Y-77353279D01*
X190278512Y-77359478D01*
X190274082Y-77365126D01*
X190267792Y-77370247D01*
X190258699Y-77374869D01*
X190245861Y-77379015D01*
X190228338Y-77382713D01*
X190205187Y-77385987D01*
X190175466Y-77388863D01*
X190138235Y-77391367D01*
X190092551Y-77393524D01*
X190037473Y-77395360D01*
X189972059Y-77396900D01*
X189895367Y-77398170D01*
X189806456Y-77399195D01*
X189704383Y-77400001D01*
X189698133Y-77400034D01*
X189588208Y-77400614D01*
X189456989Y-77401059D01*
X189309784Y-77401362D01*
X189145651Y-77401548D01*
X188963648Y-77401642D01*
X188762835Y-77401671D01*
X188542268Y-77401661D01*
X188301008Y-77401636D01*
X188038111Y-77401622D01*
X187995960Y-77401622D01*
X187735332Y-77401646D01*
X187496204Y-77401685D01*
X187277640Y-77401708D01*
X187078705Y-77401687D01*
X186898465Y-77401593D01*
X186735985Y-77401395D01*
X186590330Y-77401063D01*
X186460566Y-77400569D01*
X186345757Y-77399883D01*
X186244970Y-77398976D01*
X186157270Y-77397817D01*
X186081721Y-77396378D01*
X186017389Y-77394629D01*
X185963339Y-77392540D01*
X185918637Y-77390083D01*
X185882348Y-77387227D01*
X185853537Y-77383943D01*
X185831269Y-77380202D01*
X185814610Y-77375974D01*
X185802625Y-77371229D01*
X185794379Y-77365939D01*
X185788938Y-77360073D01*
X185785366Y-77353602D01*
X185782730Y-77346497D01*
X185780094Y-77338728D01*
X185776523Y-77330266D01*
X185774855Y-77325908D01*
X185772889Y-77317395D01*
X185771089Y-77304694D01*
X185769445Y-77286885D01*
X185767953Y-77263049D01*
X185766603Y-77232266D01*
X185765389Y-77193617D01*
X185764303Y-77146182D01*
X185763339Y-77089043D01*
X185762489Y-77021279D01*
X185761747Y-76941971D01*
X185761103Y-76850199D01*
X185760553Y-76745044D01*
X185760087Y-76625587D01*
X185759700Y-76490908D01*
X185759384Y-76340088D01*
X185759131Y-76172206D01*
X185758934Y-75986345D01*
X185758787Y-75781583D01*
X185758682Y-75557002D01*
X185758613Y-75320090D01*
X186277600Y-75320090D01*
X186353800Y-75319456D01*
X186395840Y-75320574D01*
X186431666Y-75326304D01*
X186469228Y-75338890D01*
X186517423Y-75360568D01*
X186524103Y-75363789D01*
X186573641Y-75389188D01*
X186621631Y-75415996D01*
X186658534Y-75438917D01*
X186665166Y-75443485D01*
X186696407Y-75465516D01*
X186741346Y-75497693D01*
X186797853Y-75538457D01*
X186863796Y-75586245D01*
X186937043Y-75639498D01*
X187015464Y-75696655D01*
X187096928Y-75756155D01*
X187179302Y-75816437D01*
X187260456Y-75875940D01*
X187338258Y-75933105D01*
X187410577Y-75986370D01*
X187475282Y-76034174D01*
X187530241Y-76074957D01*
X187573324Y-76107158D01*
X187602398Y-76129216D01*
X187615333Y-76139571D01*
X187619649Y-76144044D01*
X187621688Y-76148236D01*
X187619074Y-76151643D01*
X187610014Y-76154325D01*
X187592715Y-76156341D01*
X187565386Y-76157748D01*
X187526235Y-76158605D01*
X187473467Y-76158970D01*
X187405293Y-76158903D01*
X187319918Y-76158460D01*
X187215551Y-76157702D01*
X187090400Y-76156685D01*
X187045700Y-76156308D01*
X186924605Y-76155169D01*
X186823312Y-76153972D01*
X186739738Y-76152636D01*
X186671796Y-76151077D01*
X186617401Y-76149215D01*
X186574468Y-76146966D01*
X186540911Y-76144248D01*
X186514645Y-76140979D01*
X186493584Y-76137078D01*
X186475643Y-76132461D01*
X186449230Y-76124192D01*
X186387228Y-76100583D01*
X186334427Y-76074685D01*
X186297355Y-76049535D01*
X186295925Y-76048339D01*
X186291576Y-76046168D01*
X186287974Y-76048328D01*
X186285049Y-76056644D01*
X186282731Y-76072940D01*
X186280949Y-76099041D01*
X186279633Y-76136771D01*
X186278714Y-76187956D01*
X186278122Y-76254420D01*
X186277785Y-76337987D01*
X186277635Y-76440483D01*
X186277600Y-76563732D01*
X186277600Y-77095296D01*
X186335217Y-77056523D01*
X186344107Y-77050432D01*
X186358931Y-77039976D01*
X186372578Y-77030579D01*
X186386235Y-77022183D01*
X186401089Y-77014733D01*
X186418330Y-77008173D01*
X186439145Y-77002446D01*
X186464720Y-76997495D01*
X186496245Y-76993266D01*
X186534907Y-76989701D01*
X186581893Y-76986744D01*
X186638392Y-76984340D01*
X186705591Y-76982431D01*
X186784678Y-76980962D01*
X186876840Y-76979876D01*
X186983266Y-76979118D01*
X187105143Y-76978630D01*
X187243659Y-76978358D01*
X187400001Y-76978243D01*
X187575358Y-76978231D01*
X187770918Y-76978265D01*
X187987867Y-76978289D01*
X188110487Y-76978280D01*
X188315553Y-76978243D01*
X188499884Y-76978227D01*
X188664666Y-76978288D01*
X188811084Y-76978484D01*
X188940326Y-76978870D01*
X189053578Y-76979505D01*
X189152025Y-76980444D01*
X189236856Y-76981745D01*
X189309256Y-76983464D01*
X189370411Y-76985659D01*
X189421508Y-76988385D01*
X189463733Y-76991701D01*
X189498273Y-76995662D01*
X189526314Y-77000325D01*
X189549042Y-77005747D01*
X189567644Y-77011986D01*
X189583307Y-77019097D01*
X189597216Y-77027138D01*
X189610559Y-77036166D01*
X189624521Y-77046236D01*
X189640289Y-77057407D01*
X189698133Y-77097197D01*
X189698133Y-76037314D01*
X189635034Y-76075311D01*
X189609995Y-76089993D01*
X189582414Y-76104531D01*
X189554300Y-76116627D01*
X189523449Y-76126532D01*
X189487656Y-76134494D01*
X189444717Y-76140761D01*
X189392426Y-76145582D01*
X189328581Y-76149206D01*
X189250975Y-76151881D01*
X189157406Y-76153857D01*
X189045667Y-76155382D01*
X188913555Y-76156704D01*
X188793566Y-76157613D01*
X188676937Y-76158020D01*
X188581469Y-76157767D01*
X188507444Y-76156857D01*
X188455145Y-76155293D01*
X188424851Y-76153079D01*
X188416844Y-76150220D01*
X188420142Y-76147161D01*
X188441592Y-76129006D01*
X188478111Y-76099275D01*
X188527558Y-76059639D01*
X188587793Y-76011771D01*
X188656673Y-75957343D01*
X188732057Y-75898027D01*
X188811804Y-75835495D01*
X188893772Y-75771421D01*
X188975820Y-75707475D01*
X189055806Y-75645331D01*
X189131589Y-75586661D01*
X189201027Y-75533137D01*
X189261979Y-75486430D01*
X189312304Y-75448214D01*
X189349860Y-75420161D01*
X189372505Y-75403943D01*
X189444788Y-75358635D01*
X189524537Y-75318661D01*
X189592812Y-75297130D01*
X189650156Y-75293827D01*
X189698133Y-75299116D01*
X189697883Y-74167356D01*
X189667278Y-74206867D01*
X189659911Y-74216248D01*
X189605562Y-74279183D01*
X189537741Y-74347997D01*
X189454484Y-74424596D01*
X189353822Y-74510888D01*
X189333153Y-74528052D01*
X189283591Y-74568833D01*
X189222674Y-74618588D01*
X189152102Y-74675955D01*
X189073576Y-74739569D01*
X188988796Y-74808069D01*
X188899463Y-74880090D01*
X188807278Y-74954270D01*
X188788298Y-74969517D01*
X188713940Y-75029246D01*
X188621152Y-75103653D01*
X188530612Y-75176131D01*
X188444022Y-75245314D01*
X188363082Y-75309841D01*
X188289494Y-75368347D01*
X188224956Y-75419470D01*
X188171171Y-75461847D01*
X188129838Y-75494115D01*
X188102658Y-75514910D01*
X188091332Y-75522869D01*
X188087229Y-75521111D01*
X188066666Y-75508230D01*
X188030439Y-75483885D01*
X187980176Y-75449247D01*
X187917508Y-75405486D01*
X187844064Y-75353775D01*
X187761473Y-75295284D01*
X187671364Y-75231184D01*
X187575369Y-75162646D01*
X187475115Y-75090843D01*
X187372232Y-75016944D01*
X187268350Y-74942121D01*
X187165099Y-74867545D01*
X187064108Y-74794387D01*
X186967006Y-74723819D01*
X186875423Y-74657011D01*
X186790989Y-74595135D01*
X186715333Y-74539361D01*
X186650084Y-74490862D01*
X186596872Y-74450807D01*
X186557327Y-74420369D01*
X186531974Y-74399944D01*
X186477705Y-74353899D01*
X186421225Y-74303612D01*
X186371331Y-74256815D01*
X186277600Y-74165651D01*
X186277600Y-75320090D01*
X185758613Y-75320090D01*
X185758611Y-75311682D01*
X185758568Y-75044704D01*
X185758563Y-75006321D01*
X185758520Y-74740922D01*
X185758475Y-74497050D01*
X185758452Y-74273783D01*
X185758476Y-74070196D01*
X185758570Y-73885367D01*
X185758757Y-73718373D01*
X185759061Y-73568290D01*
X185759396Y-73467445D01*
X186277600Y-73467445D01*
X186277651Y-73536356D01*
X186277909Y-73634607D01*
X186278363Y-73724030D01*
X186278990Y-73802333D01*
X186279765Y-73867223D01*
X186280665Y-73916411D01*
X186281666Y-73947604D01*
X186282743Y-73958511D01*
X186285963Y-73957322D01*
X186303548Y-73947176D01*
X186329842Y-73930040D01*
X186342309Y-73921540D01*
X186356378Y-73912329D01*
X186370649Y-73904233D01*
X186386521Y-73897185D01*
X186405391Y-73891117D01*
X186428659Y-73885961D01*
X186457722Y-73881651D01*
X186493979Y-73878119D01*
X186538830Y-73875297D01*
X186593672Y-73873118D01*
X186659903Y-73871514D01*
X186738923Y-73870419D01*
X186832129Y-73869765D01*
X186940921Y-73869484D01*
X187066697Y-73869509D01*
X187210855Y-73869772D01*
X187374793Y-73870206D01*
X187559911Y-73870745D01*
X187738768Y-73871279D01*
X187897626Y-73871805D01*
X188036684Y-73872350D01*
X188157335Y-73872945D01*
X188260972Y-73873619D01*
X188348989Y-73874403D01*
X188422777Y-73875326D01*
X188483731Y-73876419D01*
X188533243Y-73877712D01*
X188572707Y-73879235D01*
X188603516Y-73881019D01*
X188627062Y-73883092D01*
X188644740Y-73885486D01*
X188657941Y-73888230D01*
X188668060Y-73891356D01*
X188676489Y-73894892D01*
X188684625Y-73898791D01*
X188721456Y-73918438D01*
X188751609Y-73937225D01*
X188753092Y-73938272D01*
X188775341Y-73952602D01*
X188788298Y-73958511D01*
X188788751Y-73957504D01*
X188790197Y-73940305D01*
X188791520Y-73903656D01*
X188792684Y-73849962D01*
X188793653Y-73781630D01*
X188794389Y-73701064D01*
X188794858Y-73610670D01*
X188795022Y-73512853D01*
X188795022Y-73067195D01*
X187618155Y-73064120D01*
X186441289Y-73061045D01*
X186382378Y-73034407D01*
X186357817Y-73022485D01*
X186327566Y-73005246D01*
X186310440Y-72992074D01*
X186302409Y-72984076D01*
X186287507Y-72976378D01*
X186286235Y-72980260D01*
X186284209Y-73003520D01*
X186282374Y-73045874D01*
X186280773Y-73105132D01*
X186279451Y-73179107D01*
X186278452Y-73265610D01*
X186277820Y-73362452D01*
X186277600Y-73467445D01*
X185759396Y-73467445D01*
X185759506Y-73434196D01*
X185760115Y-73315166D01*
X185760911Y-73210279D01*
X185761920Y-73118610D01*
X185763163Y-73039237D01*
X185764665Y-72971237D01*
X185766449Y-72913686D01*
X185768539Y-72865662D01*
X185770958Y-72826240D01*
X185773730Y-72794499D01*
X185776879Y-72769514D01*
X185780428Y-72750364D01*
X185784402Y-72736123D01*
X185788822Y-72725871D01*
X185793714Y-72718682D01*
X185799100Y-72713635D01*
X185805004Y-72709805D01*
X185811451Y-72706271D01*
X185818463Y-72702108D01*
X185820313Y-72701025D01*
X185825820Y-72698813D01*
X185834132Y-72696786D01*
X185846191Y-72694938D01*
X185862937Y-72693261D01*
X185885313Y-72691745D01*
X185914260Y-72690383D01*
X185950720Y-72689167D01*
X185995633Y-72688089D01*
X186049943Y-72687140D01*
X186114590Y-72686312D01*
X186190516Y-72685597D01*
X186278662Y-72684987D01*
X186379971Y-72684474D01*
X186495383Y-72684050D01*
X186625840Y-72683706D01*
X186772284Y-72683434D01*
X186935656Y-72683227D01*
X187116899Y-72683076D01*
X187316952Y-72682972D01*
X187536759Y-72682908D01*
X187777261Y-72682876D01*
X188039398Y-72682867D01*
X190230969Y-72682867D01*
X190269351Y-72721249D01*
G36*
X190269351Y-72721249D02*
G01*
X190293089Y-72748355D01*
X190304889Y-72775253D01*
X190307733Y-72811560D01*
X190307733Y-72863489D01*
X190219794Y-72863489D01*
X190169898Y-72865427D01*
X190059477Y-72884199D01*
X189958013Y-72921217D01*
X189866848Y-72974369D01*
X189787327Y-73041546D01*
X189720795Y-73120638D01*
X189668594Y-73209534D01*
X189632070Y-73306125D01*
X189612566Y-73408300D01*
X189611427Y-73513950D01*
X189629995Y-73620964D01*
X189669616Y-73727232D01*
X189727484Y-73824219D01*
X189802316Y-73909293D01*
X189890385Y-73978015D01*
X189989384Y-74028918D01*
X190097007Y-74060535D01*
X190210946Y-74071400D01*
X190307733Y-74071400D01*
X190307733Y-75691753D01*
X190307720Y-75902897D01*
X190307670Y-76107020D01*
X190307570Y-76290686D01*
X190307408Y-76454991D01*
X190307171Y-76601029D01*
X190306847Y-76729894D01*
X190306425Y-76842683D01*
X190305891Y-76940488D01*
X190305233Y-77024404D01*
X190304439Y-77095527D01*
X190303496Y-77154950D01*
X190302392Y-77203768D01*
X190301116Y-77243077D01*
X190299653Y-77273969D01*
X190297993Y-77297541D01*
X190296122Y-77314886D01*
X190294028Y-77327099D01*
X190291700Y-77335275D01*
X190289124Y-77340508D01*
X190285555Y-77346504D01*
X190282022Y-77353279D01*
X190278512Y-77359478D01*
X190274082Y-77365126D01*
X190267792Y-77370247D01*
X190258699Y-77374869D01*
X190245861Y-77379015D01*
X190228338Y-77382713D01*
X190205187Y-77385987D01*
X190175466Y-77388863D01*
X190138235Y-77391367D01*
X190092551Y-77393524D01*
X190037473Y-77395360D01*
X189972059Y-77396900D01*
X189895367Y-77398170D01*
X189806456Y-77399195D01*
X189704383Y-77400001D01*
X189698133Y-77400034D01*
X189588208Y-77400614D01*
X189456989Y-77401059D01*
X189309784Y-77401362D01*
X189145651Y-77401548D01*
X188963648Y-77401642D01*
X188762835Y-77401671D01*
X188542268Y-77401661D01*
X188301008Y-77401636D01*
X188038111Y-77401622D01*
X187995960Y-77401622D01*
X187735332Y-77401646D01*
X187496204Y-77401685D01*
X187277640Y-77401708D01*
X187078705Y-77401687D01*
X186898465Y-77401593D01*
X186735985Y-77401395D01*
X186590330Y-77401063D01*
X186460566Y-77400569D01*
X186345757Y-77399883D01*
X186244970Y-77398976D01*
X186157270Y-77397817D01*
X186081721Y-77396378D01*
X186017389Y-77394629D01*
X185963339Y-77392540D01*
X185918637Y-77390083D01*
X185882348Y-77387227D01*
X185853537Y-77383943D01*
X185831269Y-77380202D01*
X185814610Y-77375974D01*
X185802625Y-77371229D01*
X185794379Y-77365939D01*
X185788938Y-77360073D01*
X185785366Y-77353602D01*
X185782730Y-77346497D01*
X185780094Y-77338728D01*
X185776523Y-77330266D01*
X185774855Y-77325908D01*
X185772889Y-77317395D01*
X185771089Y-77304694D01*
X185769445Y-77286885D01*
X185767953Y-77263049D01*
X185766603Y-77232266D01*
X185765389Y-77193617D01*
X185764303Y-77146182D01*
X185763339Y-77089043D01*
X185762489Y-77021279D01*
X185761747Y-76941971D01*
X185761103Y-76850199D01*
X185760553Y-76745044D01*
X185760087Y-76625587D01*
X185759700Y-76490908D01*
X185759384Y-76340088D01*
X185759131Y-76172206D01*
X185758934Y-75986345D01*
X185758787Y-75781583D01*
X185758682Y-75557002D01*
X185758613Y-75320090D01*
X186277600Y-75320090D01*
X186353800Y-75319456D01*
X186395840Y-75320574D01*
X186431666Y-75326304D01*
X186469228Y-75338890D01*
X186517423Y-75360568D01*
X186524103Y-75363789D01*
X186573641Y-75389188D01*
X186621631Y-75415996D01*
X186658534Y-75438917D01*
X186665166Y-75443485D01*
X186696407Y-75465516D01*
X186741346Y-75497693D01*
X186797853Y-75538457D01*
X186863796Y-75586245D01*
X186937043Y-75639498D01*
X187015464Y-75696655D01*
X187096928Y-75756155D01*
X187179302Y-75816437D01*
X187260456Y-75875940D01*
X187338258Y-75933105D01*
X187410577Y-75986370D01*
X187475282Y-76034174D01*
X187530241Y-76074957D01*
X187573324Y-76107158D01*
X187602398Y-76129216D01*
X187615333Y-76139571D01*
X187619649Y-76144044D01*
X187621688Y-76148236D01*
X187619074Y-76151643D01*
X187610014Y-76154325D01*
X187592715Y-76156341D01*
X187565386Y-76157748D01*
X187526235Y-76158605D01*
X187473467Y-76158970D01*
X187405293Y-76158903D01*
X187319918Y-76158460D01*
X187215551Y-76157702D01*
X187090400Y-76156685D01*
X187045700Y-76156308D01*
X186924605Y-76155169D01*
X186823312Y-76153972D01*
X186739738Y-76152636D01*
X186671796Y-76151077D01*
X186617401Y-76149215D01*
X186574468Y-76146966D01*
X186540911Y-76144248D01*
X186514645Y-76140979D01*
X186493584Y-76137078D01*
X186475643Y-76132461D01*
X186449230Y-76124192D01*
X186387228Y-76100583D01*
X186334427Y-76074685D01*
X186297355Y-76049535D01*
X186295925Y-76048339D01*
X186291576Y-76046168D01*
X186287974Y-76048328D01*
X186285049Y-76056644D01*
X186282731Y-76072940D01*
X186280949Y-76099041D01*
X186279633Y-76136771D01*
X186278714Y-76187956D01*
X186278122Y-76254420D01*
X186277785Y-76337987D01*
X186277635Y-76440483D01*
X186277600Y-76563732D01*
X186277600Y-77095296D01*
X186335217Y-77056523D01*
X186344107Y-77050432D01*
X186358931Y-77039976D01*
X186372578Y-77030579D01*
X186386235Y-77022183D01*
X186401089Y-77014733D01*
X186418330Y-77008173D01*
X186439145Y-77002446D01*
X186464720Y-76997495D01*
X186496245Y-76993266D01*
X186534907Y-76989701D01*
X186581893Y-76986744D01*
X186638392Y-76984340D01*
X186705591Y-76982431D01*
X186784678Y-76980962D01*
X186876840Y-76979876D01*
X186983266Y-76979118D01*
X187105143Y-76978630D01*
X187243659Y-76978358D01*
X187400001Y-76978243D01*
X187575358Y-76978231D01*
X187770918Y-76978265D01*
X187987867Y-76978289D01*
X188110487Y-76978280D01*
X188315553Y-76978243D01*
X188499884Y-76978227D01*
X188664666Y-76978288D01*
X188811084Y-76978484D01*
X188940326Y-76978870D01*
X189053578Y-76979505D01*
X189152025Y-76980444D01*
X189236856Y-76981745D01*
X189309256Y-76983464D01*
X189370411Y-76985659D01*
X189421508Y-76988385D01*
X189463733Y-76991701D01*
X189498273Y-76995662D01*
X189526314Y-77000325D01*
X189549042Y-77005747D01*
X189567644Y-77011986D01*
X189583307Y-77019097D01*
X189597216Y-77027138D01*
X189610559Y-77036166D01*
X189624521Y-77046236D01*
X189640289Y-77057407D01*
X189698133Y-77097197D01*
X189698133Y-76037314D01*
X189635034Y-76075311D01*
X189609995Y-76089993D01*
X189582414Y-76104531D01*
X189554300Y-76116627D01*
X189523449Y-76126532D01*
X189487656Y-76134494D01*
X189444717Y-76140761D01*
X189392426Y-76145582D01*
X189328581Y-76149206D01*
X189250975Y-76151881D01*
X189157406Y-76153857D01*
X189045667Y-76155382D01*
X188913555Y-76156704D01*
X188793566Y-76157613D01*
X188676937Y-76158020D01*
X188581469Y-76157767D01*
X188507444Y-76156857D01*
X188455145Y-76155293D01*
X188424851Y-76153079D01*
X188416844Y-76150220D01*
X188420142Y-76147161D01*
X188441592Y-76129006D01*
X188478111Y-76099275D01*
X188527558Y-76059639D01*
X188587793Y-76011771D01*
X188656673Y-75957343D01*
X188732057Y-75898027D01*
X188811804Y-75835495D01*
X188893772Y-75771421D01*
X188975820Y-75707475D01*
X189055806Y-75645331D01*
X189131589Y-75586661D01*
X189201027Y-75533137D01*
X189261979Y-75486430D01*
X189312304Y-75448214D01*
X189349860Y-75420161D01*
X189372505Y-75403943D01*
X189444788Y-75358635D01*
X189524537Y-75318661D01*
X189592812Y-75297130D01*
X189650156Y-75293827D01*
X189698133Y-75299116D01*
X189697883Y-74167356D01*
X189667278Y-74206867D01*
X189659911Y-74216248D01*
X189605562Y-74279183D01*
X189537741Y-74347997D01*
X189454484Y-74424596D01*
X189353822Y-74510888D01*
X189333153Y-74528052D01*
X189283591Y-74568833D01*
X189222674Y-74618588D01*
X189152102Y-74675955D01*
X189073576Y-74739569D01*
X188988796Y-74808069D01*
X188899463Y-74880090D01*
X188807278Y-74954270D01*
X188788298Y-74969517D01*
X188713940Y-75029246D01*
X188621152Y-75103653D01*
X188530612Y-75176131D01*
X188444022Y-75245314D01*
X188363082Y-75309841D01*
X188289494Y-75368347D01*
X188224956Y-75419470D01*
X188171171Y-75461847D01*
X188129838Y-75494115D01*
X188102658Y-75514910D01*
X188091332Y-75522869D01*
X188087229Y-75521111D01*
X188066666Y-75508230D01*
X188030439Y-75483885D01*
X187980176Y-75449247D01*
X187917508Y-75405486D01*
X187844064Y-75353775D01*
X187761473Y-75295284D01*
X187671364Y-75231184D01*
X187575369Y-75162646D01*
X187475115Y-75090843D01*
X187372232Y-75016944D01*
X187268350Y-74942121D01*
X187165099Y-74867545D01*
X187064108Y-74794387D01*
X186967006Y-74723819D01*
X186875423Y-74657011D01*
X186790989Y-74595135D01*
X186715333Y-74539361D01*
X186650084Y-74490862D01*
X186596872Y-74450807D01*
X186557327Y-74420369D01*
X186531974Y-74399944D01*
X186477705Y-74353899D01*
X186421225Y-74303612D01*
X186371331Y-74256815D01*
X186277600Y-74165651D01*
X186277600Y-75320090D01*
X185758613Y-75320090D01*
X185758611Y-75311682D01*
X185758568Y-75044704D01*
X185758563Y-75006321D01*
X185758520Y-74740922D01*
X185758475Y-74497050D01*
X185758452Y-74273783D01*
X185758476Y-74070196D01*
X185758570Y-73885367D01*
X185758757Y-73718373D01*
X185759061Y-73568290D01*
X185759396Y-73467445D01*
X186277600Y-73467445D01*
X186277651Y-73536356D01*
X186277909Y-73634607D01*
X186278363Y-73724030D01*
X186278990Y-73802333D01*
X186279765Y-73867223D01*
X186280665Y-73916411D01*
X186281666Y-73947604D01*
X186282743Y-73958511D01*
X186285963Y-73957322D01*
X186303548Y-73947176D01*
X186329842Y-73930040D01*
X186342309Y-73921540D01*
X186356378Y-73912329D01*
X186370649Y-73904233D01*
X186386521Y-73897185D01*
X186405391Y-73891117D01*
X186428659Y-73885961D01*
X186457722Y-73881651D01*
X186493979Y-73878119D01*
X186538830Y-73875297D01*
X186593672Y-73873118D01*
X186659903Y-73871514D01*
X186738923Y-73870419D01*
X186832129Y-73869765D01*
X186940921Y-73869484D01*
X187066697Y-73869509D01*
X187210855Y-73869772D01*
X187374793Y-73870206D01*
X187559911Y-73870745D01*
X187738768Y-73871279D01*
X187897626Y-73871805D01*
X188036684Y-73872350D01*
X188157335Y-73872945D01*
X188260972Y-73873619D01*
X188348989Y-73874403D01*
X188422777Y-73875326D01*
X188483731Y-73876419D01*
X188533243Y-73877712D01*
X188572707Y-73879235D01*
X188603516Y-73881019D01*
X188627062Y-73883092D01*
X188644740Y-73885486D01*
X188657941Y-73888230D01*
X188668060Y-73891356D01*
X188676489Y-73894892D01*
X188684625Y-73898791D01*
X188721456Y-73918438D01*
X188751609Y-73937225D01*
X188753092Y-73938272D01*
X188775341Y-73952602D01*
X188788298Y-73958511D01*
X188788751Y-73957504D01*
X188790197Y-73940305D01*
X188791520Y-73903656D01*
X188792684Y-73849962D01*
X188793653Y-73781630D01*
X188794389Y-73701064D01*
X188794858Y-73610670D01*
X188795022Y-73512853D01*
X188795022Y-73067195D01*
X187618155Y-73064120D01*
X186441289Y-73061045D01*
X186382378Y-73034407D01*
X186357817Y-73022485D01*
X186327566Y-73005246D01*
X186310440Y-72992074D01*
X186302409Y-72984076D01*
X186287507Y-72976378D01*
X186286235Y-72980260D01*
X186284209Y-73003520D01*
X186282374Y-73045874D01*
X186280773Y-73105132D01*
X186279451Y-73179107D01*
X186278452Y-73265610D01*
X186277820Y-73362452D01*
X186277600Y-73467445D01*
X185759396Y-73467445D01*
X185759506Y-73434196D01*
X185760115Y-73315166D01*
X185760911Y-73210279D01*
X185761920Y-73118610D01*
X185763163Y-73039237D01*
X185764665Y-72971237D01*
X185766449Y-72913686D01*
X185768539Y-72865662D01*
X185770958Y-72826240D01*
X185773730Y-72794499D01*
X185776879Y-72769514D01*
X185780428Y-72750364D01*
X185784402Y-72736123D01*
X185788822Y-72725871D01*
X185793714Y-72718682D01*
X185799100Y-72713635D01*
X185805004Y-72709805D01*
X185811451Y-72706271D01*
X185818463Y-72702108D01*
X185820313Y-72701025D01*
X185825820Y-72698813D01*
X185834132Y-72696786D01*
X185846191Y-72694938D01*
X185862937Y-72693261D01*
X185885313Y-72691745D01*
X185914260Y-72690383D01*
X185950720Y-72689167D01*
X185995633Y-72688089D01*
X186049943Y-72687140D01*
X186114590Y-72686312D01*
X186190516Y-72685597D01*
X186278662Y-72684987D01*
X186379971Y-72684474D01*
X186495383Y-72684050D01*
X186625840Y-72683706D01*
X186772284Y-72683434D01*
X186935656Y-72683227D01*
X187116899Y-72683076D01*
X187316952Y-72682972D01*
X187536759Y-72682908D01*
X187777261Y-72682876D01*
X188039398Y-72682867D01*
X190230969Y-72682867D01*
X190269351Y-72721249D01*
G37*
D12*
X194450640Y-60900000D02*
G75*
G02*
X189450640Y-60900000I-2500000J0D01*
G01*
X189450640Y-60900000D02*
G75*
G02*
X194450640Y-60900000I2500000J0D01*
G01*
D13*
G36*
X192370350Y-59614718D02*
G01*
X192437522Y-59626346D01*
X192502771Y-59640081D01*
X192566097Y-59655925D01*
X192627500Y-59673877D01*
X192686980Y-59693938D01*
X192744537Y-59716107D01*
X192800171Y-59740386D01*
X192853882Y-59766774D01*
X192905670Y-59795271D01*
X192955536Y-59825879D01*
X193003478Y-59858596D01*
X193049497Y-59893424D01*
X193093593Y-59930363D01*
X193135766Y-59969413D01*
X193176017Y-60010574D01*
X193214344Y-60053847D01*
X193250542Y-60098757D01*
X193284405Y-60144865D01*
X193315932Y-60192172D01*
X193345124Y-60240678D01*
X193371981Y-60290383D01*
X193396502Y-60341288D01*
X193418688Y-60393392D01*
X193438539Y-60446697D01*
X193456054Y-60501201D01*
X193471234Y-60556906D01*
X193484078Y-60613812D01*
X193494587Y-60671919D01*
X193502761Y-60731227D01*
X193508599Y-60791736D01*
X193512102Y-60853448D01*
X193513270Y-60916362D01*
X193511512Y-61002534D01*
X193506239Y-61086482D01*
X193497450Y-61168203D01*
X193485147Y-61247696D01*
X193469331Y-61324962D01*
X193450000Y-61400000D01*
X193427158Y-61472807D01*
X193400802Y-61543384D01*
X193370935Y-61611730D01*
X193337557Y-61677844D01*
X193300669Y-61741726D01*
X193260270Y-61803373D01*
X193216361Y-61862787D01*
X193168944Y-61919965D01*
X193118018Y-61974906D01*
X193063584Y-62027612D01*
X193006369Y-62077586D01*
X192947168Y-62124338D01*
X192885982Y-62167866D01*
X192822811Y-62208171D01*
X192757655Y-62245252D01*
X192690514Y-62279109D01*
X192621389Y-62309743D01*
X192550280Y-62337153D01*
X192477187Y-62361338D01*
X192402110Y-62382299D01*
X192325051Y-62400036D01*
X192246008Y-62414548D01*
X192164983Y-62425835D01*
X192081976Y-62433898D01*
X191996986Y-62438736D01*
X191910014Y-62440348D01*
X191825574Y-62438674D01*
X191742936Y-62433651D01*
X191662098Y-62425279D01*
X191583062Y-62413560D01*
X191505827Y-62398492D01*
X191430392Y-62380077D01*
X191356758Y-62358315D01*
X191284924Y-62333205D01*
X191214891Y-62304749D01*
X191146658Y-62272946D01*
X191080225Y-62237798D01*
X191015593Y-62199303D01*
X190952759Y-62157462D01*
X190891726Y-62112276D01*
X190832492Y-62063745D01*
X190775058Y-62011869D01*
X190720287Y-61957264D01*
X190669047Y-61900682D01*
X190621336Y-61842123D01*
X190577157Y-61781586D01*
X190536508Y-61719069D01*
X190499392Y-61654572D01*
X190465807Y-61588093D01*
X190435756Y-61519632D01*
X190409238Y-61449186D01*
X190386254Y-61376756D01*
X190366804Y-61302340D01*
X190350890Y-61225937D01*
X190338511Y-61147546D01*
X190329668Y-61067166D01*
X190324362Y-60984796D01*
X190322593Y-60900434D01*
X190323771Y-60838133D01*
X190327304Y-60776907D01*
X190333192Y-60716756D01*
X190341435Y-60657679D01*
X190352035Y-60599678D01*
X190364991Y-60542751D01*
X190380304Y-60486899D01*
X190397973Y-60432123D01*
X190418000Y-60378422D01*
X190440383Y-60325797D01*
X190465125Y-60274248D01*
X190492224Y-60223774D01*
X190521681Y-60174376D01*
X190553497Y-60126055D01*
X190587672Y-60078809D01*
X190624205Y-60032640D01*
X190662909Y-59988131D01*
X190703595Y-59945897D01*
X190746263Y-59905940D01*
X190790913Y-59868258D01*
X190837546Y-59832851D01*
X190886162Y-59799719D01*
X190936761Y-59768861D01*
X190989343Y-59740278D01*
X191043910Y-59713967D01*
X191100460Y-59689930D01*
X191158995Y-59668165D01*
X191219514Y-59648673D01*
X191282018Y-59631453D01*
X191346507Y-59616504D01*
X191412982Y-59603826D01*
X191481442Y-59593419D01*
X191481442Y-60339716D01*
X191448232Y-60341949D01*
X191416077Y-60345351D01*
X191384976Y-60349921D01*
X191354929Y-60355659D01*
X191325936Y-60362566D01*
X191297998Y-60370641D01*
X191271114Y-60379884D01*
X191245284Y-60390295D01*
X191220508Y-60401874D01*
X191196787Y-60414622D01*
X191174120Y-60428538D01*
X191152508Y-60443622D01*
X191131949Y-60459874D01*
X191112445Y-60477295D01*
X191093995Y-60495883D01*
X191076600Y-60515640D01*
X191060258Y-60536566D01*
X191044971Y-60558659D01*
X191030739Y-60581921D01*
X191017560Y-60606351D01*
X191005436Y-60631949D01*
X190994366Y-60658715D01*
X190984350Y-60686649D01*
X190975389Y-60715752D01*
X190967482Y-60746023D01*
X190960629Y-60777462D01*
X190954831Y-60810070D01*
X190950086Y-60843846D01*
X190946397Y-60878789D01*
X190943761Y-60914902D01*
X190942179Y-60952182D01*
X190941652Y-60990631D01*
X190942707Y-61029156D01*
X190945871Y-61066737D01*
X190951144Y-61103373D01*
X190958527Y-61139062D01*
X190968017Y-61173804D01*
X190979616Y-61207599D01*
X190993323Y-61240446D01*
X191009138Y-61272344D01*
X191027060Y-61303292D01*
X191047089Y-61333290D01*
X191069225Y-61362337D01*
X191093468Y-61390433D01*
X191119818Y-61417576D01*
X191148273Y-61443767D01*
X191178834Y-61469003D01*
X191211501Y-61493286D01*
X191245926Y-61516380D01*
X191281761Y-61537984D01*
X191319005Y-61558096D01*
X191357658Y-61576718D01*
X191397719Y-61593849D01*
X191439187Y-61609490D01*
X191482063Y-61623641D01*
X191526344Y-61636302D01*
X191572030Y-61647472D01*
X191619121Y-61657153D01*
X191667616Y-61665344D01*
X191717515Y-61672045D01*
X191768816Y-61677257D01*
X191821519Y-61680980D01*
X191875623Y-61683214D01*
X191931128Y-61683958D01*
X191989127Y-61683276D01*
X192045366Y-61681228D01*
X192099846Y-61677816D01*
X192152566Y-61673039D01*
X192203528Y-61666899D01*
X192252732Y-61659394D01*
X192300179Y-61650526D01*
X192345867Y-61640295D01*
X192389799Y-61628701D01*
X192431975Y-61615744D01*
X192472394Y-61601424D01*
X192511057Y-61585743D01*
X192547965Y-61568699D01*
X192583119Y-61550294D01*
X192616517Y-61530527D01*
X192648162Y-61509399D01*
X192677952Y-61486959D01*
X192705821Y-61463325D01*
X192731769Y-61438495D01*
X192755796Y-61412469D01*
X192777901Y-61385246D01*
X192798085Y-61356825D01*
X192816347Y-61327206D01*
X192832687Y-61296387D01*
X192847106Y-61264368D01*
X192859603Y-61231147D01*
X192870177Y-61196725D01*
X192878829Y-61161101D01*
X192885559Y-61124272D01*
X192890366Y-61086240D01*
X192893250Y-61047002D01*
X192894211Y-61006559D01*
X192892166Y-60934480D01*
X192886029Y-60866458D01*
X192875800Y-60802492D01*
X192861480Y-60742580D01*
X192852786Y-60714145D01*
X192843068Y-60686724D01*
X192832328Y-60660316D01*
X192820564Y-60634922D01*
X192807778Y-60610541D01*
X192793969Y-60587174D01*
X192779136Y-60564820D01*
X192763281Y-60543480D01*
X192746402Y-60523153D01*
X192728500Y-60503839D01*
X192709575Y-60485538D01*
X192689628Y-60468251D01*
X192668656Y-60451976D01*
X192646662Y-60436715D01*
X192623645Y-60422467D01*
X192599604Y-60409231D01*
X192574540Y-60397009D01*
X192548453Y-60385799D01*
X192521343Y-60375603D01*
X192493209Y-60366418D01*
X192464053Y-60358247D01*
X192433872Y-60351088D01*
X192370442Y-60339809D01*
X192370442Y-60556780D01*
X191783054Y-59969485D01*
X192370442Y-59382096D01*
X192370350Y-59614718D01*
G37*
G36*
X191600000Y-54375000D02*
G01*
X191400000Y-54375000D01*
X191400000Y-55975000D01*
X191600000Y-55975000D01*
X191600000Y-54375000D01*
G37*
G36*
X191800000Y-54725000D02*
G01*
X189950000Y-54725000D01*
X189950000Y-55625000D01*
X191800000Y-55625000D01*
X191800000Y-54725000D01*
G37*
D12*
X192600000Y-54575000D02*
X191600000Y-54575000D01*
X191600000Y-55775000D01*
X192600000Y-55775000D01*
X192600000Y-54575000D01*
G36*
X192600000Y-54575000D02*
G01*
X191600000Y-54575000D01*
X191600000Y-55775000D01*
X192600000Y-55775000D01*
X192600000Y-54575000D01*
G37*
X194300000Y-55175640D02*
G75*
G02*
X189300000Y-55175640I-2500000J0D01*
G01*
X189300000Y-55175640D02*
G75*
G02*
X194300000Y-55175640I2500000J0D01*
G01*
X193590000Y-55175000D02*
G75*
G02*
X193190000Y-55175000I-200000J0D01*
G01*
X193190000Y-55175000D02*
G75*
G02*
X193590000Y-55175000I200000J0D01*
G01*
X188275000Y-58275000D02*
G75*
G02*
X183275000Y-58275000I-2500000J0D01*
G01*
X183275000Y-58275000D02*
G75*
G02*
X188275000Y-58275000I2500000J0D01*
G01*
D13*
G36*
X186330248Y-58345982D02*
G01*
X186360018Y-58363817D01*
X186388958Y-58382455D01*
X186417067Y-58401897D01*
X186444347Y-58422143D01*
X186470797Y-58443192D01*
X186496418Y-58465045D01*
X186521210Y-58487701D01*
X186545174Y-58511162D01*
X186568310Y-58535426D01*
X186590618Y-58560493D01*
X186612098Y-58586364D01*
X186632751Y-58613039D01*
X186652577Y-58640518D01*
X186671577Y-58668800D01*
X186689750Y-58697886D01*
X186706973Y-58727527D01*
X186723083Y-58757551D01*
X186738079Y-58787959D01*
X186751963Y-58818750D01*
X186764735Y-58849923D01*
X186776394Y-58881479D01*
X186786941Y-58913416D01*
X186796377Y-58945735D01*
X186804701Y-58978434D01*
X186811915Y-59011514D01*
X186818018Y-59044973D01*
X186823010Y-59078812D01*
X186826893Y-59113030D01*
X186829666Y-59147626D01*
X186831329Y-59182600D01*
X186831884Y-59217951D01*
X186830799Y-59273961D01*
X186827542Y-59328604D01*
X186822114Y-59381880D01*
X186814514Y-59433787D01*
X186804741Y-59484325D01*
X186792794Y-59533495D01*
X186778673Y-59581295D01*
X186762378Y-59627725D01*
X186743907Y-59672784D01*
X186723260Y-59716473D01*
X186700436Y-59758790D01*
X186675436Y-59799735D01*
X186648257Y-59839308D01*
X186618900Y-59877508D01*
X186587364Y-59914335D01*
X186553648Y-59949789D01*
X186518031Y-59983468D01*
X186480712Y-60014975D01*
X186441693Y-60044309D01*
X186400972Y-60071470D01*
X186358550Y-60096459D01*
X186314427Y-60119274D01*
X186268604Y-60139917D01*
X186221080Y-60158386D01*
X186171856Y-60174683D01*
X186120931Y-60188807D01*
X186068307Y-60200757D01*
X186013982Y-60210535D01*
X185957958Y-60218141D01*
X185900235Y-60223573D01*
X185840811Y-60226832D01*
X185779689Y-60227919D01*
X185719986Y-60226820D01*
X185661846Y-60223523D01*
X185605268Y-60218030D01*
X185550250Y-60210339D01*
X185496794Y-60200451D01*
X185444898Y-60188366D01*
X185394562Y-60174084D01*
X185345785Y-60157606D01*
X185298568Y-60138931D01*
X185252909Y-60118060D01*
X185208808Y-60094992D01*
X185166264Y-60069729D01*
X185125278Y-60042270D01*
X185085848Y-60012615D01*
X185047974Y-59980765D01*
X185011656Y-59946719D01*
X184977245Y-59910997D01*
X184945051Y-59874116D01*
X184915076Y-59836076D01*
X184887319Y-59796878D01*
X184861780Y-59756520D01*
X184838461Y-59715003D01*
X184817362Y-59672327D01*
X184798482Y-59628492D01*
X184781822Y-59583497D01*
X184767382Y-59537342D01*
X184755163Y-59490027D01*
X184745165Y-59441552D01*
X184737388Y-59391917D01*
X184731833Y-59341122D01*
X184728499Y-59289166D01*
X184727388Y-59236049D01*
X184729264Y-59158804D01*
X184734973Y-59084352D01*
X184744513Y-59012692D01*
X184757884Y-58943823D01*
X184775087Y-58877744D01*
X184796120Y-58814456D01*
X184820984Y-58753956D01*
X184849678Y-58696246D01*
X184882202Y-58641323D01*
X184918556Y-58589188D01*
X184958738Y-58539839D01*
X185002750Y-58493277D01*
X185050590Y-58449501D01*
X185102258Y-58408509D01*
X185157755Y-58370302D01*
X185217079Y-58334878D01*
X185452982Y-58788586D01*
X185434461Y-58797802D01*
X185416644Y-58807274D01*
X185399529Y-58817002D01*
X185383118Y-58826987D01*
X185367412Y-58837228D01*
X185352411Y-58847726D01*
X185338116Y-58858482D01*
X185324526Y-58869495D01*
X185311644Y-58880767D01*
X185299470Y-58892296D01*
X185288003Y-58904084D01*
X185277245Y-58916131D01*
X185267197Y-58928438D01*
X185257859Y-58941003D01*
X185249231Y-58953829D01*
X185241315Y-58966915D01*
X185234009Y-58980091D01*
X185227172Y-58993148D01*
X185220804Y-59006087D01*
X185214906Y-59018907D01*
X185209478Y-59031609D01*
X185204521Y-59044192D01*
X185200034Y-59056657D01*
X185196018Y-59069004D01*
X185192474Y-59081234D01*
X185189401Y-59093345D01*
X185186800Y-59105339D01*
X185184671Y-59117216D01*
X185183015Y-59128976D01*
X185181831Y-59140618D01*
X185181121Y-59152144D01*
X185180884Y-59163553D01*
X185181469Y-59191448D01*
X185183222Y-59218458D01*
X185186145Y-59244584D01*
X185190236Y-59269825D01*
X185195497Y-59294182D01*
X185201926Y-59317654D01*
X185209525Y-59340242D01*
X185218293Y-59361944D01*
X185228230Y-59382762D01*
X185239337Y-59402695D01*
X185251612Y-59421742D01*
X185265058Y-59439905D01*
X185279672Y-59457182D01*
X185295456Y-59473574D01*
X185312410Y-59489080D01*
X185330532Y-59503701D01*
X185349825Y-59517437D01*
X185370287Y-59530287D01*
X185391919Y-59542251D01*
X185414720Y-59553330D01*
X185438691Y-59563522D01*
X185463832Y-59572829D01*
X185490142Y-59581250D01*
X185517623Y-59588785D01*
X185546273Y-59595433D01*
X185576093Y-59601196D01*
X185607083Y-59606072D01*
X185639243Y-59610061D01*
X185672573Y-59613165D01*
X185707073Y-59615381D01*
X185742743Y-59616711D01*
X185779583Y-59617155D01*
X185813169Y-59616706D01*
X185845902Y-59615359D01*
X185877782Y-59613115D01*
X185908811Y-59609973D01*
X185938988Y-59605934D01*
X185968314Y-59600998D01*
X185996790Y-59595164D01*
X186024415Y-59588434D01*
X186051192Y-59580807D01*
X186077118Y-59572284D01*
X186102197Y-59562864D01*
X186126427Y-59552548D01*
X186149810Y-59541336D01*
X186172345Y-59529229D01*
X186194033Y-59516225D01*
X186214876Y-59502326D01*
X186234657Y-59487533D01*
X186253164Y-59471890D01*
X186270395Y-59455396D01*
X186286351Y-59438052D01*
X186293851Y-59429060D01*
X186301032Y-59419856D01*
X186307893Y-59410439D01*
X186314436Y-59400810D01*
X186320660Y-59390968D01*
X186326565Y-59380913D01*
X186332151Y-59370645D01*
X186337418Y-59360165D01*
X186346994Y-59338566D01*
X186355294Y-59316117D01*
X186362318Y-59292817D01*
X186368065Y-59268665D01*
X186372535Y-59243664D01*
X186375728Y-59217811D01*
X186377644Y-59191107D01*
X186378282Y-59163553D01*
X186377148Y-59127191D01*
X186373744Y-59092200D01*
X186368070Y-59058580D01*
X186360129Y-59026330D01*
X186349918Y-58995451D01*
X186337440Y-58965943D01*
X186322694Y-58937804D01*
X186305681Y-58911035D01*
X186286400Y-58885635D01*
X186264853Y-58861604D01*
X186241039Y-58838941D01*
X186214958Y-58817647D01*
X186186612Y-58797721D01*
X186156001Y-58779162D01*
X186123124Y-58761971D01*
X186087982Y-58746146D01*
X186299648Y-58328951D01*
X186330248Y-58345982D01*
G37*
G36*
X186330248Y-56387403D02*
G01*
X186360018Y-56405908D01*
X186388958Y-56425172D01*
X186417067Y-56445196D01*
X186444347Y-56465978D01*
X186470797Y-56487518D01*
X186496418Y-56509815D01*
X186521210Y-56532868D01*
X186545174Y-56556676D01*
X186568310Y-56581238D01*
X186590618Y-56606554D01*
X186612098Y-56632624D01*
X186632751Y-56659445D01*
X186652577Y-56687018D01*
X186671577Y-56715342D01*
X186689750Y-56744415D01*
X186706973Y-56774068D01*
X186723083Y-56804050D01*
X186738079Y-56834363D01*
X186751963Y-56865006D01*
X186764735Y-56895978D01*
X186776394Y-56927280D01*
X186786941Y-56958912D01*
X186796377Y-56990874D01*
X186804701Y-57023166D01*
X186811915Y-57055788D01*
X186818018Y-57088740D01*
X186823010Y-57122022D01*
X186826893Y-57155633D01*
X186829666Y-57189575D01*
X186831329Y-57223846D01*
X186831884Y-57258447D01*
X186830799Y-57315192D01*
X186827542Y-57370491D01*
X186822114Y-57424344D01*
X186814514Y-57476752D01*
X186804741Y-57527715D01*
X186792794Y-57577233D01*
X186778673Y-57625308D01*
X186762378Y-57671938D01*
X186743907Y-57717125D01*
X186723260Y-57760868D01*
X186700436Y-57803169D01*
X186675436Y-57844026D01*
X186648257Y-57883442D01*
X186618900Y-57921415D01*
X186587364Y-57957946D01*
X186553648Y-57993036D01*
X186518031Y-58026406D01*
X186480712Y-58057619D01*
X186441693Y-58086674D01*
X186400972Y-58113574D01*
X186358550Y-58138318D01*
X186314427Y-58160907D01*
X186268604Y-58181342D01*
X186221080Y-58199623D01*
X186171856Y-58215751D01*
X186120931Y-58229727D01*
X186068307Y-58241551D01*
X186013982Y-58251223D01*
X185957958Y-58258746D01*
X185900235Y-58264118D01*
X185840811Y-58267341D01*
X185779689Y-58268415D01*
X185719986Y-58267317D01*
X185661846Y-58264024D01*
X185605268Y-58258534D01*
X185550250Y-58250848D01*
X185496794Y-58240965D01*
X185444898Y-58228884D01*
X185394562Y-58214605D01*
X185345785Y-58198128D01*
X185298568Y-58179452D01*
X185252909Y-58158577D01*
X185208808Y-58135501D01*
X185166264Y-58110225D01*
X185125278Y-58082749D01*
X185085848Y-58053071D01*
X185047974Y-58021192D01*
X185011656Y-57987110D01*
X184977245Y-57951406D01*
X184945051Y-57914541D01*
X184915076Y-57876516D01*
X184887319Y-57837331D01*
X184861780Y-57796985D01*
X184838461Y-57755479D01*
X184817362Y-57712813D01*
X184798482Y-57668988D01*
X184781822Y-57624003D01*
X184767382Y-57577858D01*
X184755163Y-57530554D01*
X184745165Y-57482091D01*
X184737388Y-57432469D01*
X184731833Y-57381688D01*
X184728499Y-57329749D01*
X184727388Y-57276650D01*
X184729264Y-57199445D01*
X184734973Y-57125070D01*
X184744513Y-57053527D01*
X184757884Y-56984817D01*
X184775087Y-56918940D01*
X184796120Y-56855897D01*
X184820984Y-56795688D01*
X184849678Y-56738316D01*
X184882202Y-56683780D01*
X184918556Y-56632081D01*
X184958738Y-56583220D01*
X185002750Y-56537198D01*
X185050590Y-56494015D01*
X185102258Y-56453673D01*
X185157755Y-56416172D01*
X185217079Y-56381512D01*
X185217079Y-56381513D01*
X185452982Y-56829082D01*
X185434461Y-56838282D01*
X185416644Y-56847744D01*
X185399529Y-56857469D01*
X185383118Y-56867455D01*
X185367412Y-56877702D01*
X185352411Y-56888209D01*
X185338116Y-56898977D01*
X185324526Y-56910005D01*
X185311644Y-56921291D01*
X185299470Y-56932837D01*
X185288003Y-56944640D01*
X185277245Y-56956702D01*
X185267197Y-56969021D01*
X185257859Y-56981597D01*
X185249231Y-56994429D01*
X185241315Y-57007517D01*
X185234009Y-57020736D01*
X185227172Y-57033884D01*
X185220804Y-57046958D01*
X185214906Y-57059959D01*
X185209478Y-57072886D01*
X185204521Y-57085739D01*
X185200034Y-57098517D01*
X185196018Y-57111220D01*
X185192474Y-57123848D01*
X185189401Y-57136399D01*
X185186800Y-57148874D01*
X185184671Y-57161271D01*
X185183015Y-57173591D01*
X185181831Y-57185833D01*
X185181121Y-57197997D01*
X185180884Y-57210082D01*
X185181469Y-57237986D01*
X185183222Y-57265006D01*
X185186145Y-57291140D01*
X185190236Y-57316389D01*
X185195497Y-57340753D01*
X185201926Y-57364232D01*
X185209525Y-57386826D01*
X185218293Y-57408534D01*
X185228230Y-57429357D01*
X185239337Y-57449295D01*
X185251612Y-57468347D01*
X185265058Y-57486513D01*
X185279672Y-57503794D01*
X185295456Y-57520189D01*
X185312410Y-57535699D01*
X185330532Y-57550323D01*
X185349825Y-57564061D01*
X185370287Y-57576913D01*
X185391919Y-57588879D01*
X185414720Y-57599959D01*
X185438691Y-57610153D01*
X185463832Y-57619461D01*
X185490142Y-57627882D01*
X185517623Y-57635418D01*
X185546273Y-57642067D01*
X185576093Y-57647830D01*
X185607083Y-57652706D01*
X185639243Y-57656696D01*
X185672573Y-57659799D01*
X185707073Y-57662016D01*
X185742743Y-57663346D01*
X185779583Y-57663789D01*
X185813169Y-57663339D01*
X185845902Y-57661989D01*
X185877782Y-57659740D01*
X185908811Y-57656591D01*
X185938988Y-57652544D01*
X185968314Y-57647599D01*
X185996790Y-57641756D01*
X186024415Y-57635016D01*
X186051192Y-57627379D01*
X186077118Y-57618846D01*
X186102197Y-57609418D01*
X186126427Y-57599094D01*
X186149810Y-57587875D01*
X186172345Y-57575762D01*
X186194033Y-57562755D01*
X186214876Y-57548855D01*
X186234657Y-57534082D01*
X186253164Y-57518458D01*
X186270395Y-57501983D01*
X186278533Y-57493425D01*
X186286351Y-57484655D01*
X186293851Y-57475671D01*
X186301032Y-57466475D01*
X186307893Y-57457065D01*
X186314436Y-57447441D01*
X186320660Y-57437604D01*
X186326565Y-57427554D01*
X186332151Y-57417290D01*
X186337418Y-57406813D01*
X186346994Y-57385217D01*
X186355294Y-57362767D01*
X186362318Y-57339460D01*
X186368065Y-57315298D01*
X186372535Y-57290280D01*
X186375728Y-57264405D01*
X186377644Y-57237672D01*
X186378282Y-57210082D01*
X186377148Y-57173756D01*
X186373744Y-57138794D01*
X186368070Y-57105198D01*
X186360129Y-57072968D01*
X186349918Y-57042105D01*
X186337440Y-57012609D01*
X186322694Y-56984481D01*
X186305681Y-56957722D01*
X186286400Y-56932332D01*
X186264853Y-56908312D01*
X186241039Y-56885662D01*
X186214958Y-56864384D01*
X186186612Y-56844477D01*
X186156001Y-56825942D01*
X186123124Y-56808781D01*
X186087982Y-56792992D01*
X186299648Y-56369659D01*
X186330248Y-56387403D01*
G37*
%TD*%
M02*
