<?xml version="1.0" standalone="no"?>
 <!DOCTYPE svg PUBLIC "-//W3C//DTD SVG 1.1//EN" 
 "http://www.w3.org/Graphics/SVG/1.1/DTD/svg11.dtd"> 
<svg
  xmlns:svg="http://www.w3.org/2000/svg"
  xmlns="http://www.w3.org/2000/svg"
  xmlns:xlink="http://www.w3.org/1999/xlink"
  version="1.1"
  width="297.0022mm" height="210.0072mm" viewBox="0.0000 0.0000 297.0022 210.0072">
<title>SVG Image created as circular PCB-F_Silkscreen.svg date 2024/12/07 20:31:30 </title>
  <desc>Image generated by PCBNEW </desc>
<g style="fill:#000000; fill-opacity:1.0000;stroke:#000000; stroke-opacity:1.0000;
stroke-linecap:round; stroke-linejoin:round;"
 transform="translate(0 0) scale(1 1)">
</g>
<g style="fill:none; 
stroke:#000000; stroke-width:0.2000; stroke-opacity:1; 
stroke-linecap:round; stroke-linejoin:round;">
<text x="204.5750" y="58.2250"
textLength="1.0143" font-size="2.0000" lengthAdjust="spacingAndGlyphs"
text-anchor="start" opacity="0" stroke-opacity="0">.</text>
<g class="stroked-text"><desc>.</desc>
<path d="M205.0637 57.8882
L205.1351 57.9596
" />
<path d="M205.1351 57.9596
L205.0637 58.0310
" />
<path d="M205.0637 58.0310
L204.9923 57.9596
" />
<path d="M204.9923 57.9596
L205.0637 57.8882
" />
<path d="M205.0637 57.8882
L205.0637 58.0310
" />
</g></g>
<g style="fill:none; 
stroke:#000000; stroke-width:0.0800; stroke-opacity:1; 
stroke-linecap:round; stroke-linejoin:round;">
<text x="182.4500" y="81.3250"
textLength="4.5924" font-size="0.6667" lengthAdjust="spacingAndGlyphs"
text-anchor="start" opacity="0" stroke-opacity="0">Schrodinger</text>
<g class="stroked-text"><desc>Schrodinger</desc>
<path d="M182.5979 81.1848
L182.6693 81.2229
" />
<path d="M182.6693 81.2229
L182.7883 81.2229
" />
<path d="M182.7883 81.2229
L182.8360 81.1848
" />
<path d="M182.8360 81.1848
L182.8598 81.1467
" />
<path d="M182.8598 81.1467
L182.8836 81.0706
" />
<path d="M182.8836 81.0706
L182.8836 80.9944
" />
<path d="M182.8836 80.9944
L182.8598 80.9182
" />
<path d="M182.8598 80.9182
L182.8360 80.8801
" />
<path d="M182.8360 80.8801
L182.7883 80.8420
" />
<path d="M182.7883 80.8420
L182.6931 80.8039
" />
<path d="M182.6931 80.8039
L182.6455 80.7658
" />
<path d="M182.6455 80.7658
L182.6217 80.7277
" />
<path d="M182.6217 80.7277
L182.5979 80.6515
" />
<path d="M182.5979 80.6515
L182.5979 80.5753
" />
<path d="M182.5979 80.5753
L182.6217 80.4991
" />
<path d="M182.6217 80.4991
L182.6455 80.4610
" />
<path d="M182.6455 80.4610
L182.6931 80.4229
" />
<path d="M182.6931 80.4229
L182.8122 80.4229
" />
<path d="M182.8122 80.4229
L182.8836 80.4610
" />
<path d="M183.3122 81.1848
L183.2645 81.2229
" />
<path d="M183.2645 81.2229
L183.1693 81.2229
" />
<path d="M183.1693 81.2229
L183.1217 81.1848
" />
<path d="M183.1217 81.1848
L183.0979 81.1467
" />
<path d="M183.0979 81.1467
L183.0741 81.0706
" />
<path d="M183.0741 81.0706
L183.0741 80.8420
" />
<path d="M183.0741 80.8420
L183.0979 80.7658
" />
<path d="M183.0979 80.7658
L183.1217 80.7277
" />
<path d="M183.1217 80.7277
L183.1693 80.6896
" />
<path d="M183.1693 80.6896
L183.2645 80.6896
" />
<path d="M183.2645 80.6896
L183.3122 80.7277
" />
<path d="M183.5264 81.2229
L183.5264 80.4229
" />
<path d="M183.7407 81.2229
L183.7407 80.8039
" />
<path d="M183.7407 80.8039
L183.7169 80.7277
" />
<path d="M183.7169 80.7277
L183.6693 80.6896
" />
<path d="M183.6693 80.6896
L183.5979 80.6896
" />
<path d="M183.5979 80.6896
L183.5502 80.7277
" />
<path d="M183.5502 80.7277
L183.5264 80.7658
" />
<path d="M183.9788 81.2229
L183.9788 80.6896
" />
<path d="M183.9788 80.8420
L184.0026 80.7658
" />
<path d="M184.0026 80.7658
L184.0264 80.7277
" />
<path d="M184.0264 80.7277
L184.0741 80.6896
" />
<path d="M184.0741 80.6896
L184.1217 80.6896
" />
<path d="M184.3598 81.2229
L184.3122 81.1848
" />
<path d="M184.3122 81.1848
L184.2883 81.1467
" />
<path d="M184.2883 81.1467
L184.2645 81.0706
" />
<path d="M184.2645 81.0706
L184.2645 80.8420
" />
<path d="M184.2645 80.8420
L184.2883 80.7658
" />
<path d="M184.2883 80.7658
L184.3122 80.7277
" />
<path d="M184.3122 80.7277
L184.3598 80.6896
" />
<path d="M184.3598 80.6896
L184.4312 80.6896
" />
<path d="M184.4312 80.6896
L184.4788 80.7277
" />
<path d="M184.4788 80.7277
L184.5026 80.7658
" />
<path d="M184.5026 80.7658
L184.5264 80.8420
" />
<path d="M184.5264 80.8420
L184.5264 81.0706
" />
<path d="M184.5264 81.0706
L184.5026 81.1467
" />
<path d="M184.5026 81.1467
L184.4788 81.1848
" />
<path d="M184.4788 81.1848
L184.4312 81.2229
" />
<path d="M184.4312 81.2229
L184.3598 81.2229
" />
<path d="M184.9550 81.2229
L184.9550 80.4229
" />
<path d="M184.9550 81.1848
L184.9074 81.2229
" />
<path d="M184.9074 81.2229
L184.8122 81.2229
" />
<path d="M184.8122 81.2229
L184.7645 81.1848
" />
<path d="M184.7645 81.1848
L184.7407 81.1467
" />
<path d="M184.7407 81.1467
L184.7169 81.0706
" />
<path d="M184.7169 81.0706
L184.7169 80.8420
" />
<path d="M184.7169 80.8420
L184.7407 80.7658
" />
<path d="M184.7407 80.7658
L184.7645 80.7277
" />
<path d="M184.7645 80.7277
L184.8122 80.6896
" />
<path d="M184.8122 80.6896
L184.9074 80.6896
" />
<path d="M184.9074 80.6896
L184.9550 80.7277
" />
<path d="M185.1931 81.2229
L185.1931 80.6896
" />
<path d="M185.1931 80.4229
L185.1693 80.4610
" />
<path d="M185.1693 80.4610
L185.1931 80.4991
" />
<path d="M185.1931 80.4991
L185.2169 80.4610
" />
<path d="M185.2169 80.4610
L185.1931 80.4229
" />
<path d="M185.1931 80.4229
L185.1931 80.4991
" />
<path d="M185.4312 80.6896
L185.4312 81.2229
" />
<path d="M185.4312 80.7658
L185.4550 80.7277
" />
<path d="M185.4550 80.7277
L185.5026 80.6896
" />
<path d="M185.5026 80.6896
L185.5741 80.6896
" />
<path d="M185.5741 80.6896
L185.6217 80.7277
" />
<path d="M185.6217 80.7277
L185.6455 80.8039
" />
<path d="M185.6455 80.8039
L185.6455 81.2229
" />
<path d="M186.0979 80.6896
L186.0979 81.3372
" />
<path d="M186.0979 81.3372
L186.0741 81.4134
" />
<path d="M186.0741 81.4134
L186.0502 81.4515
" />
<path d="M186.0502 81.4515
L186.0026 81.4896
" />
<path d="M186.0026 81.4896
L185.9312 81.4896
" />
<path d="M185.9312 81.4896
L185.8836 81.4515
" />
<path d="M186.0979 81.1848
L186.0502 81.2229
" />
<path d="M186.0502 81.2229
L185.9550 81.2229
" />
<path d="M185.9550 81.2229
L185.9074 81.1848
" />
<path d="M185.9074 81.1848
L185.8836 81.1467
" />
<path d="M185.8836 81.1467
L185.8598 81.0706
" />
<path d="M185.8598 81.0706
L185.8598 80.8420
" />
<path d="M185.8598 80.8420
L185.8836 80.7658
" />
<path d="M185.8836 80.7658
L185.9074 80.7277
" />
<path d="M185.9074 80.7277
L185.9550 80.6896
" />
<path d="M185.9550 80.6896
L186.0502 80.6896
" />
<path d="M186.0502 80.6896
L186.0979 80.7277
" />
<path d="M186.5264 81.1848
L186.4788 81.2229
" />
<path d="M186.4788 81.2229
L186.3836 81.2229
" />
<path d="M186.3836 81.2229
L186.3360 81.1848
" />
<path d="M186.3360 81.1848
L186.3122 81.1086
" />
<path d="M186.3122 81.1086
L186.3122 80.8039
" />
<path d="M186.3122 80.8039
L186.3360 80.7277
" />
<path d="M186.3360 80.7277
L186.3836 80.6896
" />
<path d="M186.3836 80.6896
L186.4788 80.6896
" />
<path d="M186.4788 80.6896
L186.5264 80.7277
" />
<path d="M186.5264 80.7277
L186.5502 80.8039
" />
<path d="M186.5502 80.8039
L186.5502 80.8801
" />
<path d="M186.5502 80.8801
L186.3122 80.9563
" />
<path d="M186.7645 81.2229
L186.7645 80.6896
" />
<path d="M186.7645 80.8420
L186.7883 80.7658
" />
<path d="M186.7883 80.7658
L186.8122 80.7277
" />
<path d="M186.8122 80.7277
L186.8598 80.6896
" />
<path d="M186.8598 80.6896
L186.9074 80.6896
" />
</g></g>
<g style="fill:none; 
stroke:#000000; stroke-width:0.2000; stroke-opacity:1; 
stroke-linecap:round; stroke-linejoin:round;">
<text x="193.8750" y="71.8250"
textLength="1.0143" font-size="2.0000" lengthAdjust="spacingAndGlyphs"
text-anchor="start" opacity="0" stroke-opacity="0">.</text>
<g class="stroked-text"><desc>.</desc>
<path d="M194.3637 71.4882
L194.4351 71.5596
" />
<path d="M194.4351 71.5596
L194.3637 71.6310
" />
<path d="M194.3637 71.6310
L194.2923 71.5596
" />
<path d="M194.2923 71.5596
L194.3637 71.4882
" />
<path d="M194.3637 71.4882
L194.3637 71.6310
" />
</g></g>
<g style="fill:none; 
stroke:#000000; stroke-width:0.0800; stroke-opacity:1; 
stroke-linecap:round; stroke-linejoin:round;">
<text x="183.8750" y="82.3750"
textLength="1.8543" font-size="0.6667" lengthAdjust="spacingAndGlyphs"
text-anchor="start" opacity="0" stroke-opacity="0">Guru</text>
<g class="stroked-text"><desc>Guru</desc>
<path d="M184.3086 81.5110
L184.2610 81.4729
" />
<path d="M184.2610 81.4729
L184.1895 81.4729
" />
<path d="M184.1895 81.4729
L184.1181 81.5110
" />
<path d="M184.1181 81.5110
L184.0705 81.5872
" />
<path d="M184.0705 81.5872
L184.0467 81.6634
" />
<path d="M184.0467 81.6634
L184.0229 81.8158
" />
<path d="M184.0229 81.8158
L184.0229 81.9301
" />
<path d="M184.0229 81.9301
L184.0467 82.0825
" />
<path d="M184.0467 82.0825
L184.0705 82.1586
" />
<path d="M184.0705 82.1586
L184.1181 82.2348
" />
<path d="M184.1181 82.2348
L184.1895 82.2729
" />
<path d="M184.1895 82.2729
L184.2372 82.2729
" />
<path d="M184.2372 82.2729
L184.3086 82.2348
" />
<path d="M184.3086 82.2348
L184.3324 82.1967
" />
<path d="M184.3324 82.1967
L184.3324 81.9301
" />
<path d="M184.3324 81.9301
L184.2372 81.9301
" />
<path d="M184.7610 81.7396
L184.7610 82.2729
" />
<path d="M184.5467 81.7396
L184.5467 82.1586
" />
<path d="M184.5467 82.1586
L184.5705 82.2348
" />
<path d="M184.5705 82.2348
L184.6181 82.2729
" />
<path d="M184.6181 82.2729
L184.6895 82.2729
" />
<path d="M184.6895 82.2729
L184.7372 82.2348
" />
<path d="M184.7372 82.2348
L184.7610 82.1967
" />
<path d="M184.9991 82.2729
L184.9991 81.7396
" />
<path d="M184.9991 81.8920
L185.0229 81.8158
" />
<path d="M185.0229 81.8158
L185.0467 81.7777
" />
<path d="M185.0467 81.7777
L185.0943 81.7396
" />
<path d="M185.0943 81.7396
L185.1419 81.7396
" />
<path d="M185.5229 81.7396
L185.5229 82.2729
" />
<path d="M185.3086 81.7396
L185.3086 82.1586
" />
<path d="M185.3086 82.1586
L185.3324 82.2348
" />
<path d="M185.3324 82.2348
L185.3800 82.2729
" />
<path d="M185.3800 82.2729
L185.4514 82.2729
" />
<path d="M185.4514 82.2729
L185.4991 82.2348
" />
<path d="M185.4991 82.2348
L185.5229 82.1967
" />
</g></g>
<g style="fill:none; 
stroke:#000000; stroke-width:0.1000; stroke-opacity:1; 
stroke-linecap:round; stroke-linejoin:round;">
<text x="176.1750" y="72.5250"
textLength="1.2476" font-size="0.6667" lengthAdjust="spacingAndGlyphs"
text-anchor="middle" opacity="0" stroke-opacity="0">M2</text>
<g class="stroked-text"><desc>M2</desc>
<path d="M175.7702 72.4899
L175.7702 71.6899
" />
<path d="M175.7702 71.6899
L175.9369 72.2613
" />
<path d="M175.9369 72.2613
L176.1036 71.6899
" />
<path d="M176.1036 71.6899
L176.1036 72.4899
" />
<path d="M176.3179 71.7661
L176.3417 71.7280
" />
<path d="M176.3417 71.7280
L176.3893 71.6899
" />
<path d="M176.3893 71.6899
L176.5083 71.6899
" />
<path d="M176.5083 71.6899
L176.5560 71.7280
" />
<path d="M176.5560 71.7280
L176.5798 71.7661
" />
<path d="M176.5798 71.7661
L176.6036 71.8423
" />
<path d="M176.6036 71.8423
L176.6036 71.9185
" />
<path d="M176.6036 71.9185
L176.5798 72.0328
" />
<path d="M176.5798 72.0328
L176.2940 72.4899
" />
<path d="M176.2940 72.4899
L176.6036 72.4899
" />
</g></g>
<g style="fill:none; 
stroke:#000000; stroke-width:0.1500; stroke-opacity:1; 
stroke-linecap:round; stroke-linejoin:round;">
<text x="187.0250" y="65.0250"
textLength="2.2024" font-size="1.3333" lengthAdjust="spacingAndGlyphs"
text-anchor="middle" opacity="0" stroke-opacity="0">C1</text>
<g class="stroked-text"><desc>C1</desc>
<path d="M186.8583 64.8846
L186.8107 64.9322
" />
<path d="M186.8107 64.9322
L186.6679 64.9798
" />
<path d="M186.6679 64.9798
L186.5726 64.9798
" />
<path d="M186.5726 64.9798
L186.4298 64.9322
" />
<path d="M186.4298 64.9322
L186.3345 64.8370
" />
<path d="M186.3345 64.8370
L186.2869 64.7417
" />
<path d="M186.2869 64.7417
L186.2393 64.5512
" />
<path d="M186.2393 64.5512
L186.2393 64.4084
" />
<path d="M186.2393 64.4084
L186.2869 64.2179
" />
<path d="M186.2869 64.2179
L186.3345 64.1227
" />
<path d="M186.3345 64.1227
L186.4298 64.0274
" />
<path d="M186.4298 64.0274
L186.5726 63.9798
" />
<path d="M186.5726 63.9798
L186.6679 63.9798
" />
<path d="M186.6679 63.9798
L186.8107 64.0274
" />
<path d="M186.8107 64.0274
L186.8583 64.0751
" />
<path d="M187.8107 64.9798
L187.2393 64.9798
" />
<path d="M187.5250 64.9798
L187.5250 63.9798
" />
<path d="M187.5250 63.9798
L187.4298 64.1227
" />
<path d="M187.4298 64.1227
L187.3345 64.2179
" />
<path d="M187.3345 64.2179
L187.2393 64.2655
" />
</g><text x="193.0700" y="67.1800"
textLength="2.2024" font-size="1.3333" lengthAdjust="spacingAndGlyphs"
text-anchor="middle" opacity="0" stroke-opacity="0">R2</text>
<g class="stroked-text"><desc>R2</desc>
<path d="M192.9033 67.1348
L192.5700 66.6586
" />
<path d="M192.3319 67.1348
L192.3319 66.1348
" />
<path d="M192.3319 66.1348
L192.7129 66.1348
" />
<path d="M192.7129 66.1348
L192.8081 66.1824
" />
<path d="M192.8081 66.1824
L192.8557 66.2301
" />
<path d="M192.8557 66.2301
L192.9033 66.3253
" />
<path d="M192.9033 66.3253
L192.9033 66.4682
" />
<path d="M192.9033 66.4682
L192.8557 66.5634
" />
<path d="M192.8557 66.5634
L192.8081 66.6110
" />
<path d="M192.8081 66.6110
L192.7129 66.6586
" />
<path d="M192.7129 66.6586
L192.3319 66.6586
" />
<path d="M193.2843 66.2301
L193.3319 66.1824
" />
<path d="M193.3319 66.1824
L193.4271 66.1348
" />
<path d="M193.4271 66.1348
L193.6652 66.1348
" />
<path d="M193.6652 66.1348
L193.7605 66.1824
" />
<path d="M193.7605 66.1824
L193.8081 66.2301
" />
<path d="M193.8081 66.2301
L193.8557 66.3253
" />
<path d="M193.8557 66.3253
L193.8557 66.4205
" />
<path d="M193.8557 66.4205
L193.8081 66.5634
" />
<path d="M193.8081 66.5634
L193.2367 67.1348
" />
<path d="M193.2367 67.1348
L193.8557 67.1348
" />
</g><text x="183.1000" y="64.9750"
textLength="2.2024" font-size="1.3333" lengthAdjust="spacingAndGlyphs"
text-anchor="middle" opacity="0" stroke-opacity="0">C2</text>
<g class="stroked-text"><desc>C2</desc>
<path d="M182.9333 64.8346
L182.8857 64.8822
" />
<path d="M182.8857 64.8822
L182.7429 64.9298
" />
<path d="M182.7429 64.9298
L182.6476 64.9298
" />
<path d="M182.6476 64.9298
L182.5048 64.8822
" />
<path d="M182.5048 64.8822
L182.4095 64.7870
" />
<path d="M182.4095 64.7870
L182.3619 64.6917
" />
<path d="M182.3619 64.6917
L182.3143 64.5012
" />
<path d="M182.3143 64.5012
L182.3143 64.3584
" />
<path d="M182.3143 64.3584
L182.3619 64.1679
" />
<path d="M182.3619 64.1679
L182.4095 64.0727
" />
<path d="M182.4095 64.0727
L182.5048 63.9774
" />
<path d="M182.5048 63.9774
L182.6476 63.9298
" />
<path d="M182.6476 63.9298
L182.7429 63.9298
" />
<path d="M182.7429 63.9298
L182.8857 63.9774
" />
<path d="M182.8857 63.9774
L182.9333 64.0251
" />
<path d="M183.3143 64.0251
L183.3619 63.9774
" />
<path d="M183.3619 63.9774
L183.4571 63.9298
" />
<path d="M183.4571 63.9298
L183.6952 63.9298
" />
<path d="M183.6952 63.9298
L183.7905 63.9774
" />
<path d="M183.7905 63.9774
L183.8381 64.0251
" />
<path d="M183.8381 64.0251
L183.8857 64.1203
" />
<path d="M183.8857 64.1203
L183.8857 64.2155
" />
<path d="M183.8857 64.2155
L183.8381 64.3584
" />
<path d="M183.8381 64.3584
L183.2667 64.9298
" />
<path d="M183.2667 64.9298
L183.8857 64.9298
" />
</g><text x="196.6500" y="75.3600"
textLength="2.2024" font-size="1.3333" lengthAdjust="spacingAndGlyphs"
text-anchor="middle" opacity="0" stroke-opacity="0">R4</text>
<g class="stroked-text"><desc>R4</desc>
<path d="M196.4833 75.3148
L196.1500 74.8386
" />
<path d="M195.9119 75.3148
L195.9119 74.3148
" />
<path d="M195.9119 74.3148
L196.2929 74.3148
" />
<path d="M196.2929 74.3148
L196.3881 74.3624
" />
<path d="M196.3881 74.3624
L196.4357 74.4101
" />
<path d="M196.4357 74.4101
L196.4833 74.5053
" />
<path d="M196.4833 74.5053
L196.4833 74.6482
" />
<path d="M196.4833 74.6482
L196.4357 74.7434
" />
<path d="M196.4357 74.7434
L196.3881 74.7910
" />
<path d="M196.3881 74.7910
L196.2929 74.8386
" />
<path d="M196.2929 74.8386
L195.9119 74.8386
" />
<path d="M197.3405 74.6482
L197.3405 75.3148
" />
<path d="M197.1024 74.2672
L196.8643 74.9815
" />
<path d="M196.8643 74.9815
L197.4833 74.9815
" />
</g><text x="199.3600" y="54.0400"
textLength="2.2024" font-size="1.3333" lengthAdjust="spacingAndGlyphs"
text-anchor="middle" opacity="0" stroke-opacity="0">R3</text>
<g class="stroked-text"><desc>R3</desc>
<path d="M199.1933 53.9948
L198.8600 53.5186
" />
<path d="M198.6219 53.9948
L198.6219 52.9948
" />
<path d="M198.6219 52.9948
L199.0029 52.9948
" />
<path d="M199.0029 52.9948
L199.0981 53.0424
" />
<path d="M199.0981 53.0424
L199.1457 53.0901
" />
<path d="M199.1457 53.0901
L199.1933 53.1853
" />
<path d="M199.1933 53.1853
L199.1933 53.3282
" />
<path d="M199.1933 53.3282
L199.1457 53.4234
" />
<path d="M199.1457 53.4234
L199.0981 53.4710
" />
<path d="M199.0981 53.4710
L199.0029 53.5186
" />
<path d="M199.0029 53.5186
L198.6219 53.5186
" />
<path d="M199.5267 52.9948
L200.1457 52.9948
" />
<path d="M200.1457 52.9948
L199.8124 53.3758
" />
<path d="M199.8124 53.3758
L199.9552 53.3758
" />
<path d="M199.9552 53.3758
L200.0505 53.4234
" />
<path d="M200.0505 53.4234
L200.0981 53.4710
" />
<path d="M200.0981 53.4710
L200.1457 53.5662
" />
<path d="M200.1457 53.5662
L200.1457 53.8043
" />
<path d="M200.1457 53.8043
L200.0981 53.8996
" />
<path d="M200.0981 53.8996
L200.0505 53.9472
" />
<path d="M200.0505 53.9472
L199.9552 53.9948
" />
<path d="M199.9552 53.9948
L199.6695 53.9948
" />
<path d="M199.6695 53.9948
L199.5743 53.9472
" />
<path d="M199.5743 53.9472
L199.5267 53.8996
" />
</g><text x="184.3750" y="70.5500"
textLength="2.2024" font-size="1.3333" lengthAdjust="spacingAndGlyphs"
text-anchor="middle" opacity="0" stroke-opacity="0">D2</text>
<g class="stroked-text"><desc>D2</desc>
<path d="M183.6369 70.5048
L183.6369 69.5048
" />
<path d="M183.6369 69.5048
L183.8750 69.5048
" />
<path d="M183.8750 69.5048
L184.0179 69.5524
" />
<path d="M184.0179 69.5524
L184.1131 69.6477
" />
<path d="M184.1131 69.6477
L184.1607 69.7429
" />
<path d="M184.1607 69.7429
L184.2083 69.9334
" />
<path d="M184.2083 69.9334
L184.2083 70.0762
" />
<path d="M184.2083 70.0762
L184.1607 70.2667
" />
<path d="M184.1607 70.2667
L184.1131 70.3620
" />
<path d="M184.1131 70.3620
L184.0179 70.4572
" />
<path d="M184.0179 70.4572
L183.8750 70.5048
" />
<path d="M183.8750 70.5048
L183.6369 70.5048
" />
<path d="M184.5893 69.6001
L184.6369 69.5524
" />
<path d="M184.6369 69.5524
L184.7321 69.5048
" />
<path d="M184.7321 69.5048
L184.9702 69.5048
" />
<path d="M184.9702 69.5048
L185.0655 69.5524
" />
<path d="M185.0655 69.5524
L185.1131 69.6001
" />
<path d="M185.1131 69.6001
L185.1607 69.6953
" />
<path d="M185.1607 69.6953
L185.1607 69.7905
" />
<path d="M185.1607 69.7905
L185.1131 69.9334
" />
<path d="M185.1131 69.9334
L184.5417 70.5048
" />
<path d="M184.5417 70.5048
L185.1607 70.5048
" />
</g><text x="195.4900" y="60.9800"
textLength="2.0119" font-size="1.3333" lengthAdjust="spacingAndGlyphs"
text-anchor="middle" opacity="0" stroke-opacity="0">L1</text>
<g class="stroked-text"><desc>L1</desc>
<path d="M195.3233 60.9348
L194.8471 60.9348
" />
<path d="M194.8471 60.9348
L194.8471 59.9348
" />
<path d="M196.1805 60.9348
L195.6090 60.9348
" />
<path d="M195.8948 60.9348
L195.8948 59.9348
" />
<path d="M195.8948 59.9348
L195.7995 60.0777
" />
<path d="M195.7995 60.0777
L195.7043 60.1729
" />
<path d="M195.7043 60.1729
L195.6090 60.2205
" />
</g><text x="201.3400" y="67.8000"
textLength="2.2500" font-size="1.3333" lengthAdjust="spacingAndGlyphs"
text-anchor="middle" opacity="0" stroke-opacity="0">U1</text>
<g class="stroked-text"><desc>U1</desc>
<path d="M200.5781 66.7548
L200.5781 67.5643
" />
<path d="M200.5781 67.5643
L200.6257 67.6596
" />
<path d="M200.6257 67.6596
L200.6733 67.7072
" />
<path d="M200.6733 67.7072
L200.7686 67.7548
" />
<path d="M200.7686 67.7548
L200.9590 67.7548
" />
<path d="M200.9590 67.7548
L201.0543 67.7072
" />
<path d="M201.0543 67.7072
L201.1019 67.6596
" />
<path d="M201.1019 67.6596
L201.1495 67.5643
" />
<path d="M201.1495 67.5643
L201.1495 66.7548
" />
<path d="M202.1495 67.7548
L201.5781 67.7548
" />
<path d="M201.8638 67.7548
L201.8638 66.7548
" />
<path d="M201.8638 66.7548
L201.7686 66.8977
" />
<path d="M201.7686 66.8977
L201.6733 66.9929
" />
<path d="M201.6733 66.9929
L201.5781 67.0405
" />
</g><text x="178.4300" y="62.8200"
textLength="1.9643" font-size="1.3333" lengthAdjust="spacingAndGlyphs"
text-anchor="middle" opacity="0" stroke-opacity="0">J2</text>
<g class="stroked-text"><desc>J2</desc>
<path d="M178.0967 61.7748
L178.0967 62.4891
" />
<path d="M178.0967 62.4891
L178.0490 62.6320
" />
<path d="M178.0490 62.6320
L177.9538 62.7272
" />
<path d="M177.9538 62.7272
L177.8110 62.7748
" />
<path d="M177.8110 62.7748
L177.7157 62.7748
" />
<path d="M178.5252 61.8701
L178.5729 61.8224
" />
<path d="M178.5729 61.8224
L178.6681 61.7748
" />
<path d="M178.6681 61.7748
L178.9062 61.7748
" />
<path d="M178.9062 61.7748
L179.0014 61.8224
" />
<path d="M179.0014 61.8224
L179.0490 61.8701
" />
<path d="M179.0490 61.8701
L179.0967 61.9653
" />
<path d="M179.0967 61.9653
L179.0967 62.0605
" />
<path d="M179.0967 62.0605
L179.0490 62.2034
" />
<path d="M179.0490 62.2034
L178.4776 62.7748
" />
<path d="M178.4776 62.7748
L179.0967 62.7748
" />
</g><text x="199.6000" y="60.8700"
textLength="2.2024" font-size="1.3333" lengthAdjust="spacingAndGlyphs"
text-anchor="middle" opacity="0" stroke-opacity="0">R1</text>
<g class="stroked-text"><desc>R1</desc>
<path d="M199.4333 60.8248
L199.1000 60.3486
" />
<path d="M198.8619 60.8248
L198.8619 59.8248
" />
<path d="M198.8619 59.8248
L199.2429 59.8248
" />
<path d="M199.2429 59.8248
L199.3381 59.8724
" />
<path d="M199.3381 59.8724
L199.3857 59.9201
" />
<path d="M199.3857 59.9201
L199.4333 60.0153
" />
<path d="M199.4333 60.0153
L199.4333 60.1582
" />
<path d="M199.4333 60.1582
L199.3857 60.2534
" />
<path d="M199.3857 60.2534
L199.3381 60.3010
" />
<path d="M199.3381 60.3010
L199.2429 60.3486
" />
<path d="M199.2429 60.3486
L198.8619 60.3486
" />
<path d="M200.3857 60.8248
L199.8143 60.8248
" />
<path d="M200.1000 60.8248
L200.1000 59.8248
" />
<path d="M200.1000 59.8248
L200.0048 59.9677
" />
<path d="M200.0048 59.9677
L199.9095 60.0629
" />
<path d="M199.9095 60.0629
L199.8143 60.1105
" />
</g><text x="200.8700" y="79.6800"
textLength="2.2024" font-size="1.3333" lengthAdjust="spacingAndGlyphs"
text-anchor="middle" opacity="0" stroke-opacity="0">D5</text>
<g class="stroked-text"><desc>D5</desc>
<path d="M200.1319 79.6348
L200.1319 78.6348
" />
<path d="M200.1319 78.6348
L200.3700 78.6348
" />
<path d="M200.3700 78.6348
L200.5129 78.6824
" />
<path d="M200.5129 78.6824
L200.6081 78.7777
" />
<path d="M200.6081 78.7777
L200.6557 78.8729
" />
<path d="M200.6557 78.8729
L200.7033 79.0634
" />
<path d="M200.7033 79.0634
L200.7033 79.2062
" />
<path d="M200.7033 79.2062
L200.6557 79.3967
" />
<path d="M200.6557 79.3967
L200.6081 79.4920
" />
<path d="M200.6081 79.4920
L200.5129 79.5872
" />
<path d="M200.5129 79.5872
L200.3700 79.6348
" />
<path d="M200.3700 79.6348
L200.1319 79.6348
" />
<path d="M201.6081 78.6348
L201.1319 78.6348
" />
<path d="M201.1319 78.6348
L201.0843 79.1110
" />
<path d="M201.0843 79.1110
L201.1319 79.0634
" />
<path d="M201.1319 79.0634
L201.2271 79.0158
" />
<path d="M201.2271 79.0158
L201.4652 79.0158
" />
<path d="M201.4652 79.0158
L201.5605 79.0634
" />
<path d="M201.5605 79.0634
L201.6081 79.1110
" />
<path d="M201.6081 79.1110
L201.6557 79.2062
" />
<path d="M201.6557 79.2062
L201.6557 79.4443
" />
<path d="M201.6557 79.4443
L201.6081 79.5396
" />
<path d="M201.6081 79.5396
L201.5605 79.5872
" />
<path d="M201.5605 79.5872
L201.4652 79.6348
" />
<path d="M201.4652 79.6348
L201.2271 79.6348
" />
<path d="M201.2271 79.6348
L201.1319 79.5872
" />
<path d="M201.1319 79.5872
L201.0843 79.5396
" />
</g><text x="191.8400" y="84.4200"
textLength="1.9643" font-size="1.3333" lengthAdjust="spacingAndGlyphs"
text-anchor="middle" opacity="0" stroke-opacity="0">J3</text>
<g class="stroked-text"><desc>J3</desc>
<path d="M191.5067 83.3748
L191.5067 84.0891
" />
<path d="M191.5067 84.0891
L191.4590 84.2320
" />
<path d="M191.4590 84.2320
L191.3638 84.3272
" />
<path d="M191.3638 84.3272
L191.2210 84.3748
" />
<path d="M191.2210 84.3748
L191.1257 84.3748
" />
<path d="M191.8876 83.3748
L192.5067 83.3748
" />
<path d="M192.5067 83.3748
L192.1733 83.7558
" />
<path d="M192.1733 83.7558
L192.3162 83.7558
" />
<path d="M192.3162 83.7558
L192.4114 83.8034
" />
<path d="M192.4114 83.8034
L192.4590 83.8510
" />
<path d="M192.4590 83.8510
L192.5067 83.9462
" />
<path d="M192.5067 83.9462
L192.5067 84.1843
" />
<path d="M192.5067 84.1843
L192.4590 84.2796
" />
<path d="M192.4590 84.2796
L192.4114 84.3272
" />
<path d="M192.4114 84.3272
L192.3162 84.3748
" />
<path d="M192.3162 84.3748
L192.0305 84.3748
" />
<path d="M192.0305 84.3748
L191.9352 84.3272
" />
<path d="M191.9352 84.3272
L191.8876 84.2796
" />
</g><text x="191.4500" y="72.8300"
textLength="2.2024" font-size="1.3333" lengthAdjust="spacingAndGlyphs"
text-anchor="middle" opacity="0" stroke-opacity="0">R5</text>
<g class="stroked-text"><desc>R5</desc>
<path d="M191.2833 72.7848
L190.9500 72.3086
" />
<path d="M190.7119 72.7848
L190.7119 71.7848
" />
<path d="M190.7119 71.7848
L191.0929 71.7848
" />
<path d="M191.0929 71.7848
L191.1881 71.8324
" />
<path d="M191.1881 71.8324
L191.2357 71.8801
" />
<path d="M191.2357 71.8801
L191.2833 71.9753
" />
<path d="M191.2833 71.9753
L191.2833 72.1182
" />
<path d="M191.2833 72.1182
L191.2357 72.2134
" />
<path d="M191.2357 72.2134
L191.1881 72.2610
" />
<path d="M191.1881 72.2610
L191.0929 72.3086
" />
<path d="M191.0929 72.3086
L190.7119 72.3086
" />
<path d="M192.1881 71.7848
L191.7119 71.7848
" />
<path d="M191.7119 71.7848
L191.6643 72.2610
" />
<path d="M191.6643 72.2610
L191.7119 72.2134
" />
<path d="M191.7119 72.2134
L191.8071 72.1658
" />
<path d="M191.8071 72.1658
L192.0452 72.1658
" />
<path d="M192.0452 72.1658
L192.1405 72.2134
" />
<path d="M192.1405 72.2134
L192.1881 72.2610
" />
<path d="M192.1881 72.2610
L192.2357 72.3562
" />
<path d="M192.2357 72.3562
L192.2357 72.5943
" />
<path d="M192.2357 72.5943
L192.1881 72.6896
" />
<path d="M192.1881 72.6896
L192.1405 72.7372
" />
<path d="M192.1405 72.7372
L192.0452 72.7848
" />
<path d="M192.0452 72.7848
L191.8071 72.7848
" />
<path d="M191.8071 72.7848
L191.7119 72.7372
" />
<path d="M191.7119 72.7372
L191.6643 72.6896
" />
</g><text x="195.2100" y="54.0200"
textLength="2.0119" font-size="1.3333" lengthAdjust="spacingAndGlyphs"
text-anchor="middle" opacity="0" stroke-opacity="0">L2</text>
<g class="stroked-text"><desc>L2</desc>
<path d="M195.0433 53.9748
L194.5671 53.9748
" />
<path d="M194.5671 53.9748
L194.5671 52.9748
" />
<path d="M195.3290 53.0701
L195.3767 53.0224
" />
<path d="M195.3767 53.0224
L195.4719 52.9748
" />
<path d="M195.4719 52.9748
L195.7100 52.9748
" />
<path d="M195.7100 52.9748
L195.8052 53.0224
" />
<path d="M195.8052 53.0224
L195.8529 53.0701
" />
<path d="M195.8529 53.0701
L195.9005 53.1653
" />
<path d="M195.9005 53.1653
L195.9005 53.2605
" />
<path d="M195.9005 53.2605
L195.8529 53.4034
" />
<path d="M195.8529 53.4034
L195.2814 53.9748
" />
<path d="M195.2814 53.9748
L195.9005 53.9748
" />
</g><text x="182.7300" y="57.5200"
textLength="2.2500" font-size="1.3333" lengthAdjust="spacingAndGlyphs"
text-anchor="middle" opacity="0" stroke-opacity="0">U2</text>
<g class="stroked-text"><desc>U2</desc>
<path d="M181.9681 56.4748
L181.9681 57.2843
" />
<path d="M181.9681 57.2843
L182.0157 57.3796
" />
<path d="M182.0157 57.3796
L182.0633 57.4272
" />
<path d="M182.0633 57.4272
L182.1586 57.4748
" />
<path d="M182.1586 57.4748
L182.3490 57.4748
" />
<path d="M182.3490 57.4748
L182.4443 57.4272
" />
<path d="M182.4443 57.4272
L182.4919 57.3796
" />
<path d="M182.4919 57.3796
L182.5395 57.2843
" />
<path d="M182.5395 57.2843
L182.5395 56.4748
" />
<path d="M182.9681 56.5701
L183.0157 56.5224
" />
<path d="M183.0157 56.5224
L183.1110 56.4748
" />
<path d="M183.1110 56.4748
L183.3490 56.4748
" />
<path d="M183.3490 56.4748
L183.4443 56.5224
" />
<path d="M183.4443 56.5224
L183.4919 56.5701
" />
<path d="M183.4919 56.5701
L183.5395 56.6653
" />
<path d="M183.5395 56.6653
L183.5395 56.7605
" />
<path d="M183.5395 56.7605
L183.4919 56.9034
" />
<path d="M183.4919 56.9034
L182.9205 57.4748
" />
<path d="M182.9205 57.4748
L183.5395 57.4748
" />
</g><text x="203.8800" y="57.6700"
textLength="1.9643" font-size="1.3333" lengthAdjust="spacingAndGlyphs"
text-anchor="middle" opacity="0" stroke-opacity="0">J1</text>
<g class="stroked-text"><desc>J1</desc>
<path d="M203.5467 56.6248
L203.5467 57.3391
" />
<path d="M203.5467 57.3391
L203.4990 57.4820
" />
<path d="M203.4990 57.4820
L203.4038 57.5772
" />
<path d="M203.4038 57.5772
L203.2610 57.6248
" />
<path d="M203.2610 57.6248
L203.1657 57.6248
" />
<path d="M204.5467 57.6248
L203.9752 57.6248
" />
<path d="M204.2610 57.6248
L204.2610 56.6248
" />
<path d="M204.2610 56.6248
L204.1657 56.7677
" />
<path d="M204.1657 56.7677
L204.0705 56.8629
" />
<path d="M204.0705 56.8629
L203.9752 56.9105
" />
</g><text x="188.9250" y="72.0250"
textLength="2.2024" font-size="1.3333" lengthAdjust="spacingAndGlyphs"
text-anchor="middle" opacity="0" stroke-opacity="0">D3</text>
<g class="stroked-text"><desc>D3</desc>
<path d="M188.1869 71.9798
L188.1869 70.9798
" />
<path d="M188.1869 70.9798
L188.4250 70.9798
" />
<path d="M188.4250 70.9798
L188.5679 71.0274
" />
<path d="M188.5679 71.0274
L188.6631 71.1227
" />
<path d="M188.6631 71.1227
L188.7107 71.2179
" />
<path d="M188.7107 71.2179
L188.7583 71.4084
" />
<path d="M188.7583 71.4084
L188.7583 71.5512
" />
<path d="M188.7583 71.5512
L188.7107 71.7417
" />
<path d="M188.7107 71.7417
L188.6631 71.8370
" />
<path d="M188.6631 71.8370
L188.5679 71.9322
" />
<path d="M188.5679 71.9322
L188.4250 71.9798
" />
<path d="M188.4250 71.9798
L188.1869 71.9798
" />
<path d="M189.0917 70.9798
L189.7107 70.9798
" />
<path d="M189.7107 70.9798
L189.3774 71.3608
" />
<path d="M189.3774 71.3608
L189.5202 71.3608
" />
<path d="M189.5202 71.3608
L189.6155 71.4084
" />
<path d="M189.6155 71.4084
L189.6631 71.4560
" />
<path d="M189.6631 71.4560
L189.7107 71.5512
" />
<path d="M189.7107 71.5512
L189.7107 71.7893
" />
<path d="M189.7107 71.7893
L189.6631 71.8846
" />
<path d="M189.6631 71.8846
L189.6155 71.9322
" />
<path d="M189.6155 71.9322
L189.5202 71.9798
" />
<path d="M189.5202 71.9798
L189.2345 71.9798
" />
<path d="M189.2345 71.9798
L189.1393 71.9322
" />
<path d="M189.1393 71.9322
L189.0917 71.8846
" />
</g></g>
<g style="fill:none; 
stroke:#000000; stroke-width:0.1200; stroke-opacity:1; 
stroke-linecap:round; stroke-linejoin:round;">
<path d="M186.5450 66.5962
L186.5450 67.1188
" />
<path d="M185.0750 66.5962
L185.0750 67.1188
" />
<path d="M193.8950 69.6771
L193.8950 69.2229
" />
<path d="M192.4250 69.6771
L192.4250 69.2229
" />
<path d="M183.5350 66.5962
L183.5350 67.1188
" />
<path d="M182.0650 66.5962
L182.0650 67.1188
" />
<path d="M195.5150 75.0671
L195.5150 74.6129
" />
<path d="M194.0450 75.0671
L194.0450 74.6129
" />
<path d="M199.2429 55.9450
L199.6971 55.9450
" />
<path d="M199.2429 54.4750
L199.6971 54.4750
" />
<path d="M186.8275 72.9200
L186.8275 70.7000
" />
<path d="M186.8275 70.7000
L182.4175 70.7000
" />
<path d="M182.4175 72.9200
L186.8275 72.9200
" />
<path d="M194.2050 59.5600
L197.0650 59.5600
" />
<path d="M197.0650 57.6400
L194.2050 57.6400
" />
<path d="M197.0650 59.5600
L197.0650 57.6400
" />
</g>
<g style="fill:none; 
stroke:#000000; stroke-width:0.1500; stroke-opacity:1; 
stroke-linecap:round; stroke-linejoin:round;">
<path d="M200.0950 69.8700
L200.0950 64.3700
" />
<path d="M200.0950 69.8700
L199.7950 69.8700
" />
<path d="M200.0950 64.3700
L199.7950 64.3700
" />
<path d="M194.7900 69.8700
L194.7900 71.6200
" />
<path d="M194.5850 69.8700
L194.7900 69.8700
" />
<path d="M194.5850 69.8700
L194.5850 64.3700
" />
<path d="M194.5850 64.3700
L194.8850 64.3700
" />
</g>
<g style="fill:none; 
stroke:#000000; stroke-width:0.1200; stroke-opacity:1; 
stroke-linecap:round; stroke-linejoin:round;">
<path d="M179.7600 65.9200
L179.7600 71.0600
" />
<path d="M177.1000 71.0600
L179.7600 71.0600
" />
<path d="M177.1000 65.9200
L179.7600 65.9200
" />
<path d="M177.1000 65.9200
L177.1000 71.0600
" />
<path d="M177.1000 64.6500
L177.1000 63.3200
" />
<path d="M177.1000 63.3200
L178.4300 63.3200
" />
<path d="M199.2529 59.3450
L199.7071 59.3450
" />
<path d="M199.2529 57.8750
L199.7071 57.8750
" />
<path d="M199.7300 80.9900
L199.7300 76.5800
" />
<path d="M199.7300 76.5800
L197.5100 76.5800
" />
<path d="M197.5100 76.5800
L197.5100 80.9900
" />
<path d="M195.7900 83.4075
L195.7900 83.1575
" />
<path d="M195.7900 80.8575
L195.7900 79.0075
" />
<path d="M195.7900 79.0075
L195.3400 79.0075
" />
<path d="M190.1900 78.4575
L190.6400 78.4575
" />
<path d="M190.1900 78.4575
L190.1900 78.9075
" />
<path d="M187.9900 83.4075
L187.9900 83.1575
" />
<path d="M187.9900 80.8575
L187.9900 79.0075
" />
<path d="M187.9900 79.0075
L188.4400 79.0075
" />
<path d="M192.1750 75.1171
L192.1750 74.6629
" />
<path d="M190.7050 75.1171
L190.7050 74.6629
" />
<path d="M194.1950 56.1700
L197.0550 56.1700
" />
<path d="M197.0550 54.2500
L194.1950 54.2500
" />
<path d="M197.0550 56.1700
L197.0550 54.2500
" />
<path d="M190.8050 61.0250
L190.5350 61.0250
" />
<path d="M190.8050 54.6050
L190.8050 61.0250
" />
<path d="M190.5350 61.0250
L190.5350 62.1250
" />
<path d="M184.1750 61.0250
L184.1750 63.8550
" />
<path d="M183.9050 61.0250
L184.1750 61.0250
" />
<path d="M183.9050 54.6050
L183.9050 61.0250
" />
<path d="M205.5000 61.0200
L205.5000 76.3200
" />
<path d="M202.8400 76.3200
L205.5000 76.3200
" />
<path d="M202.8400 61.0200
L205.5000 61.0200
" />
<path d="M202.8400 61.0200
L202.8400 76.3200
" />
<path d="M202.8400 59.7500
L202.8400 58.4200
" />
<path d="M202.8400 58.4200
L204.1700 58.4200
" />
<path d="M189.3500 76.7200
L189.3500 72.7100
" />
<path d="M187.3500 76.7200
L189.3500 76.7200
" />
<path d="M187.3500 76.7200
L187.3500 72.7100
" />
<path style="fill:#000000; fill-opacity:1.0000; 
stroke:#000000; stroke-width:0.0100; stroke-opacity:1; 
stroke-linecap:round; stroke-linejoin:round;fill-rule:evenodd;"
d="M 184.0808,74.6439
184.1646,75.0886
184.4739,75.2161
184.7832,75.3436
185.1542,75.0912
185.2582,75.0210
185.3521,74.9583
185.4317,74.9059
185.4925,74.8669
185.5302,74.8439
185.5404,74.8389
185.5589,74.8517
185.5984,74.8869
185.6545,74.9401
185.7228,75.0067
185.7988,75.0824
185.8781,75.1625
185.9563,75.2426
186.0289,75.3182
186.0916,75.3847
186.1398,75.4378
186.1692,75.4729
186.1762,75.4846
186.1661,75.5063
186.1378,75.5537
186.0941,75.6222
186.0382,75.7072
185.9730,75.8041
185.9352,75.8593
185.8663,75.9602
185.8051,76.0513
185.7546,76.1280
185.7176,76.1857
185.6973,76.2200
185.6942,76.2273
185.7011,76.2477
185.7201,76.2955
185.7481,76.3638
185.7824,76.4460
185.8201,76.5353
185.8584,76.6250
185.8944,76.7083
185.9252,76.7787
185.9480,76.8293
185.9600,76.8535
185.9607,76.8544
185.9795,76.8590
186.0296,76.8693
186.1058,76.8843
186.2029,76.9029
186.3156,76.9242
186.3814,76.9364
186.5019,76.9594
186.6108,76.9812
186.7025,77.0007
186.7715,77.0167
186.8123,77.0281
186.8205,77.0317
186.8285,77.0560
186.8350,77.1110
186.8400,77.1901
186.8434,77.2870
186.8452,77.3953
186.8455,77.5085
186.8443,77.6201
186.8416,77.7239
186.8373,77.8132
186.8316,77.8818
186.8243,77.9232
186.8199,77.9318
186.7938,77.9421
186.7384,77.9569
186.6611,77.9744
186.5692,77.9928
186.5372,77.9987
186.3825,78.0271
186.2604,78.0499
186.1667,78.0681
186.0974,78.0826
186.0485,78.0943
186.0159,78.1041
185.9956,78.1130
185.9836,78.1217
185.9819,78.1235
185.9652,78.1514
185.9396,78.2057
185.9078,78.2798
185.8723,78.3670
185.8356,78.4606
185.8003,78.5541
185.7690,78.6406
185.7442,78.7137
185.7285,78.7667
185.7243,78.7928
185.7247,78.7937
185.7386,78.8151
185.7703,78.8621
185.8164,78.9298
185.8735,79.0134
185.9384,79.1080
185.9568,79.1349
186.0227,79.2323
186.0806,79.3212
186.1275,79.3964
186.1602,79.4529
186.1755,79.4856
186.1762,79.4896
186.1634,79.5107
186.1279,79.5525
186.0743,79.6104
186.0072,79.6801
185.9311,79.7570
185.8506,79.8367
185.7703,79.9146
185.6947,79.9862
185.6284,80.0471
185.5760,80.0927
185.5420,80.1187
185.5325,80.1229
185.5106,80.1129
185.4658,80.0860
185.4053,80.0467
185.3588,80.0151
185.2745,79.9571
185.1746,79.8888
185.0745,79.8206
185.0206,79.7841
184.8384,79.6608
184.6854,79.7435
184.6157,79.7798
184.5564,79.8079
184.5163,79.8240
184.5061,79.8262
184.4938,79.8097
184.4696,79.7631
184.4353,79.6906
184.3926,79.5966
184.3434,79.4854
184.2895,79.3612
184.2327,79.2284
184.1748,79.0913
184.1176,78.9542
184.0629,78.8214
184.0126,78.6971
183.9684,78.5857
183.9321,78.4915
183.9056,78.4188
183.8907,78.3719
183.8883,78.3558
183.9073,78.3353
183.9490,78.3019
184.0047,78.2627
184.0094,78.2596
184.1533,78.1444
184.2693,78.0101
184.3564,77.8608
184.4137,77.7009
184.4401,77.5347
184.4346,77.3666
184.3962,77.2007
184.3239,77.0413
184.3026,77.0065
184.1920,76.8657
184.0613,76.7527
183.9151,76.6680
183.7578,76.6122
183.5941,76.5859
183.4283,76.5896
183.2652,76.6240
183.1091,76.6897
182.9646,76.7872
182.9199,76.8268
182.8061,76.9507
182.7232,77.0811
182.6664,77.2273
182.6347,77.3721
182.6269,77.5349
182.6529,77.6984
182.7102,77.8573
182.7961,78.0059
182.9080,78.1387
183.0431,78.2503
183.0609,78.2620
183.1171,78.3005
183.1599,78.3339
183.1804,78.3552
183.1807,78.3558
183.1763,78.3789
183.1589,78.4312
183.1303,78.5084
183.0923,78.6063
183.0467,78.7205
182.9953,78.8468
182.9400,78.9808
182.8825,79.1182
182.8246,79.2548
182.7682,79.3862
182.7151,79.5082
182.6670,79.6164
182.6258,79.7065
182.5933,79.7743
182.5713,79.8154
182.5624,79.8262
182.5354,79.8178
182.4847,79.7953
182.4192,79.7626
182.3832,79.7435
182.2302,79.6608
182.0479,79.7841
181.9549,79.8472
181.8530,79.9167
181.7576,79.9822
181.7097,80.0151
181.6425,80.0603
181.5856,80.0961
181.5464,80.1179
181.5336,80.1226
181.5151,80.1101
181.4741,80.0753
181.4145,80.0217
181.3405,79.9530
181.2558,79.8728
181.2023,79.8213
181.1087,79.7293
181.0278,79.6470
180.9628,79.5779
180.9171,79.5256
180.8940,79.4936
180.8918,79.4871
180.9021,79.4624
180.9306,79.4124
180.9741,79.3422
181.0294,79.2569
181.0935,79.1615
181.1117,79.1349
181.1781,79.0382
181.2376,78.9511
181.2870,78.8786
181.3229,78.8255
181.3420,78.7967
181.3439,78.7937
181.3411,78.7708
181.3265,78.7203
181.3025,78.6490
181.2717,78.5635
181.2368,78.4705
181.2001,78.3766
181.1643,78.2884
181.1320,78.2126
181.1057,78.1559
181.0879,78.1249
181.0866,78.1235
181.0757,78.1146
181.0573,78.1058
181.0274,78.0963
180.9819,78.0850
180.9168,78.0711
180.8280,78.0537
180.7116,78.0318
180.5635,78.0046
180.5314,77.9987
180.4363,77.9804
180.3534,77.9624
180.2901,77.9466
180.2535,77.9346
180.2486,77.9318
180.2406,77.9071
180.2340,77.8518
180.2290,77.7724
180.2254,77.6753
180.2234,77.5669
180.2230,77.4537
180.2240,77.3421
180.2266,77.2385
180.2308,77.1494
180.2364,77.0811
180.2437,77.0401
180.2480,77.0317
180.2723,77.0232
180.3276,77.0094
180.4083,76.9915
180.5091,76.9707
180.6243,76.9482
180.6871,76.9364
180.8062,76.9142
180.9124,76.8940
181.0006,76.8769
181.0654,76.8640
181.1018,76.8562
181.1078,76.8544
181.1179,76.8349
181.1393,76.7878
181.1692,76.7200
181.2046,76.6381
181.2427,76.5488
181.2806,76.4589
181.3156,76.3751
181.3448,76.3041
181.3653,76.2527
181.3742,76.2275
181.3743,76.2264
181.3642,76.2065
181.3359,76.1608
181.2923,76.0937
181.2364,76.0099
181.1712,75.9138
181.1333,75.8586
181.0643,75.7575
181.0029,75.6656
180.9523,75.5877
180.9154,75.5285
180.8952,75.4925
180.8923,75.4844
180.9048,75.4656
180.9395,75.4255
180.9919,75.3685
181.0576,75.2992
181.1321,75.2220
181.2111,75.1415
181.2900,75.0622
181.3645,74.9884
181.4301,74.9249
181.4824,74.8759
181.5170,74.8461
181.5285,74.8389
181.5473,74.8490
181.5924,74.8771
181.6592,74.9205
181.7435,74.9762
181.8409,75.0415
181.9143,75.0912
182.2853,75.3436
182.9039,75.0886
182.9877,74.6439
183.0715,74.1993
183.9970,74.1993
Z" /> 
</g>
<g style="fill:none; 
stroke:#000000; stroke-width:0.1000; stroke-opacity:1; 
stroke-linecap:round; stroke-linejoin:round;">
<circle cx="191.9400" cy="67.6000" r="17.5000" /> 
</g> 
</svg>
